<svg width="223" height="223" viewBox="0 0 223 223" fill="none" xmlns="http://www.w3.org/2000/svg">
<path d="M25.2861 82.686C26.9303 82.686 28.2632 81.3532 28.2632 79.709C28.2632 78.0648 26.9303 76.7319 25.2861 76.7319C23.642 76.7319 22.3091 78.0648 22.3091 79.709C22.3091 81.3532 23.642 82.686 25.2861 82.686Z" fill="white"/>
<path d="M206.34 93.6479V203.506C206.336 206.585 205.111 209.538 202.933 211.715C200.755 213.892 197.803 215.117 194.723 215.121H15.8331C12.7533 215.118 9.80027 213.893 7.62212 211.716C5.44397 209.538 4.21858 206.586 4.21484 203.506V93.6479H206.34Z" fill="white"/>
<path d="M212.845 136.729H191.072V164.442H212.845V136.729Z" fill="#333333"/>
<path d="M218.752 136.729H212.811V164.442H218.752V136.729Z" fill="white"/>
<path d="M191.072 136.729H163.358V164.442H191.072V136.729Z" fill="#F4B1B1"/>
<path d="M191.072 164.442H163.358V192.156H191.072V164.442Z" fill="#F4B1B1"/>
<path d="M206.34 86.6788V93.6483H4.21484V86.6788C4.21819 83.5986 5.44338 80.6456 7.62155 78.4677C9.79972 76.2898 12.7529 75.065 15.8331 75.062H194.723C196.249 75.0609 197.76 75.3607 199.17 75.9441C200.58 76.5275 201.861 77.3832 202.94 78.4621C204.019 79.541 204.874 80.8221 205.458 82.232C206.041 83.6419 206.341 85.153 206.34 86.6788V86.6788Z" fill="#E85656"/>
<path d="M37.9686 113.396C40.5164 113.396 42.5817 111.331 42.5817 108.783C42.5817 106.235 40.5164 104.17 37.9686 104.17C35.4208 104.17 33.3555 106.235 33.3555 108.783C33.3555 111.331 35.4208 113.396 37.9686 113.396Z" fill="black"/>
<path d="M30.4007 120.133C32.9485 120.133 35.0139 118.068 35.0139 115.52C35.0139 112.972 32.9485 110.907 30.4007 110.907C27.853 110.907 25.7876 112.972 25.7876 115.52C25.7876 118.068 27.853 120.133 30.4007 120.133Z" fill="black"/>
<path d="M21.639 115.52C24.1868 115.52 26.2521 113.454 26.2521 110.907C26.2521 108.359 24.1868 106.293 21.639 106.293C19.0912 106.293 17.0259 108.359 17.0259 110.907C17.0259 113.454 19.0912 115.52 21.639 115.52Z" fill="black"/>
<path d="M29.1402 88.2048C31.2664 88.2048 32.99 86.4812 32.99 84.3551C32.99 82.229 31.2664 80.5054 29.1402 80.5054C27.0141 80.5054 25.2905 82.229 25.2905 84.3551C25.2905 86.4812 27.0141 88.2048 29.1402 88.2048Z" fill="white"/>
<path d="M42.0836 88.2048C44.2098 88.2048 45.9333 86.4812 45.9333 84.3551C45.9333 82.229 44.2098 80.5054 42.0836 80.5054C39.9575 80.5054 38.2339 82.229 38.2339 84.3551C38.2339 86.4812 39.9575 88.2048 42.0836 88.2048Z" fill="white"/>
<path d="M80.9826 140.744L68.9674 147.18L62.5286 135.302H74.2777V127.833H46.0668L41.6855 144.261H49.6548L50.4182 141.407L59.8385 156.476C60.8747 158.074 62.2822 159.398 63.9408 160.334C65.5994 161.27 67.4599 161.792 69.3636 161.853C71.5281 161.876 73.6633 161.351 75.5704 160.327L82.5399 156.642L88.7794 169.686L106.138 161.388L96.1808 145.624C96.1808 145.624 95.019 142.67 90.2735 140.579C88.7941 139.977 87.208 139.681 85.6111 139.709C84.0141 139.738 82.4396 140.09 80.9826 140.744Z" fill="#F4B1B1"/>
<path d="M170.297 206.825H186.328C187.508 206.825 188.639 206.356 189.473 205.522C190.307 204.688 190.776 203.557 190.776 202.378V202.278C190.776 201.098 190.307 199.967 189.473 199.133C188.639 198.299 187.508 197.831 186.328 197.831H170.297C169.118 197.831 167.987 198.299 167.153 199.133C166.319 199.967 165.85 201.098 165.85 202.278V202.378C165.85 203.557 166.319 204.688 167.153 205.522C167.987 206.356 169.118 206.825 170.297 206.825Z" fill="#333333"/>
<path d="M107.368 206.825H153.269C153.853 206.825 154.432 206.71 154.971 206.486C155.511 206.263 156.001 205.935 156.414 205.522C156.827 205.109 157.155 204.619 157.378 204.079C157.602 203.54 157.717 202.962 157.717 202.378V202.278C157.717 201.694 157.602 201.116 157.378 200.576C157.155 200.036 156.827 199.546 156.414 199.133C156.001 198.72 155.511 198.393 154.971 198.169C154.432 197.946 153.853 197.831 153.269 197.831H107.368C106.188 197.831 105.057 198.299 104.223 199.133C103.389 199.967 102.92 201.098 102.92 202.278V202.378C102.926 203.555 103.396 204.683 104.229 205.516C105.062 206.349 106.19 206.819 107.368 206.825Z" fill="#E85656"/>
<path d="M21.2071 206.825H90.3743C91.5539 206.825 92.6852 206.356 93.5193 205.522C94.3535 204.688 94.8222 203.557 94.8224 202.378V202.278C94.8222 201.098 94.3535 199.967 93.5193 199.133C92.6852 198.299 91.5539 197.831 90.3743 197.831H21.2071C20.0276 197.831 18.8964 198.299 18.0624 199.133C17.2283 199.967 16.7598 201.098 16.7598 202.278V202.378C16.7598 203.557 17.2283 204.688 18.0624 205.522C18.8964 206.356 20.0276 206.825 21.2071 206.825Z" fill="#333333"/>
<path d="M127.813 188.969H133.886C135.066 188.969 136.197 188.5 137.031 187.666C137.865 186.832 138.334 185.701 138.334 184.521V184.421C138.334 183.837 138.219 183.259 137.995 182.719C137.772 182.179 137.444 181.689 137.031 181.276C136.618 180.863 136.128 180.536 135.588 180.312C135.049 180.089 134.47 179.974 133.886 179.974H127.846C127.262 179.974 126.684 180.089 126.144 180.312C125.605 180.536 125.114 180.863 124.701 181.276C124.288 181.689 123.961 182.179 123.737 182.719C123.514 183.259 123.399 183.837 123.399 184.421V184.521C123.392 185.104 123.502 185.682 123.721 186.223C123.94 186.763 124.264 187.255 124.675 187.668C125.085 188.082 125.574 188.411 126.113 188.634C126.652 188.857 127.23 188.971 127.813 188.969Z" fill="#333333"/>
<path d="M74.5104 188.969H110.785C111.965 188.969 113.096 188.5 113.93 187.666C114.764 186.832 115.232 185.701 115.232 184.521V184.421C115.232 183.837 115.117 183.259 114.894 182.719C114.67 182.179 114.343 181.689 113.93 181.276C113.517 180.863 113.027 180.536 112.487 180.312C111.947 180.089 111.369 179.974 110.785 179.974H74.5104C73.9263 179.974 73.348 180.089 72.8084 180.312C72.2688 180.536 71.7786 180.863 71.3656 181.276C70.9526 181.689 70.625 182.179 70.4015 182.719C70.178 183.259 70.063 183.837 70.063 184.421V184.521C70.0685 185.698 70.5388 186.827 71.3716 187.66C72.2044 188.493 73.3325 188.963 74.5104 188.969Z" fill="#F4B1B1"/>
<path d="M21.2071 188.969H57.1518C58.3313 188.969 59.4625 188.5 60.2965 187.666C61.1306 186.832 61.5991 185.701 61.5991 184.521V184.421C61.5991 183.837 61.4841 183.259 61.2606 182.719C61.0371 182.179 60.7095 181.689 60.2965 181.276C59.8835 180.863 59.3933 180.536 58.8537 180.312C58.3141 180.089 57.7358 179.974 57.1518 179.974H21.2071C20.6231 179.974 20.0448 180.089 19.5052 180.312C18.9656 180.536 18.4753 180.863 18.0624 181.276C17.6494 181.689 17.3218 182.179 17.0983 182.719C16.8748 183.259 16.7598 183.837 16.7598 184.421V184.521C16.7597 185.105 16.8746 185.683 17.0981 186.223C17.3215 186.762 17.6491 187.253 18.0621 187.666C18.4751 188.079 18.9654 188.407 19.505 188.63C20.0447 188.854 20.623 188.969 21.2071 188.969Z" fill="#E85656"/>
<path d="M21.2071 171.115H75.7715C76.951 171.115 78.0822 170.647 78.9163 169.813C79.7503 168.979 80.2189 167.848 80.2189 166.668V166.568C80.2189 165.389 79.7503 164.258 78.9163 163.424C78.0822 162.59 76.951 162.121 75.7715 162.121H21.2071C20.0276 162.121 18.8964 162.59 18.0624 163.424C17.2283 164.258 16.7598 165.389 16.7598 166.568V166.668C16.7598 167.848 17.2283 168.979 18.0624 169.813C18.8964 170.647 20.0276 171.115 21.2071 171.115Z" fill="#333333"/>
<path d="M191.072 136.729H163.358V164.442H191.072V136.729Z" fill="#E85656"/>
<path d="M191.072 164.442H163.358V192.156H191.072V164.442Z" fill="#F4B1B1"/>
<path d="M93.9571 135.302H74.2773V127.833H93.7601C93.7601 127.833 97.4441 128.066 97.4441 131.618C97.4441 135.169 93.9571 135.302 93.9571 135.302Z" fill="white"/>
<path d="M113.441 106.924H81.6787V127.767H113.441V106.924Z" fill="black"/>
<path d="M41.6529 144.262L38.3339 156.642H29.6369C28.9381 156.661 28.2718 156.941 27.7684 157.426C27.265 157.911 26.9609 158.567 26.9156 159.264C26.7164 162.052 29.77 162.119 29.77 162.119L44.8381 162.151L49.6177 144.262H41.6529Z" fill="white"/>
<path d="M88.7153 169.686L93.4615 179.543L117.126 168.922L98.8046 164.874L88.7153 169.686Z" fill="black"/>
<path d="M187.819 58.4678H150.116C150.116 58.4678 143.047 58.5339 139.728 64.4419C138.827 66.0475 138.294 67.8331 138.168 69.6697C138.042 71.5064 138.325 73.3482 138.997 75.062L155.028 106.924L173.611 98.2272L161.566 75.1289L177.232 75.0292C177.232 75.0292 183.97 74.7639 187.122 68.4879C187.957 66.9676 188.451 65.2844 188.571 63.5544C188.692 61.8244 188.435 60.0889 187.819 58.4678Z" fill="#F4B1B1"/>
<path d="M147.329 48.8757L147.428 48.7427L148.192 47.8507L138.932 42.573L145.173 30.8536C145.173 30.8536 148.193 24.1495 155.134 23.983C157.037 23.8955 158.934 24.2589 160.67 25.0433C162.406 25.8278 163.932 27.0112 165.124 28.4972L183.345 51.8959L185.9 55.1814L187.029 56.8413L187.792 58.5004L154.735 58.4008L147.329 48.8757Z" fill="#333333"/>
<path d="M133.488 21.0298C133.488 21.0298 129.04 16.9474 131.364 12.3328C134.185 6.65743 138.931 8.08463 139.529 8.02145C140.292 7.95529 142.15 9.11638 142.582 9.4152C143.157 9.92189 143.7 10.4644 144.207 11.0394L133.488 21.0298Z" fill="#333333"/>
<path d="M127.979 69.7847H89.4126L90.9387 74.9293H129.472L127.979 69.7847Z" fill="#333333"/>
<path d="M59.0439 43.5317L68.204 74.9294H90.9389L89.4128 69.7848H71.523L64.2213 43.5317H59.0439Z" fill="black"/>
<path d="M95.4531 43.5317H64.2212L71.523 69.7848H103.12L95.7519 43.5317L95.4196 43.2998" fill="white"/>
<path d="M156.521 127.402L182.241 114.79L173.611 98.2622L161.862 103.805L164.018 113.164L152.07 119.371C151.027 119.948 150.248 120.905 149.896 122.044C149.543 123.182 149.644 124.412 150.178 125.477C150.178 125.477 152.309 129.427 156.521 127.402Z" fill="black"/>
<path d="M51.6425 115.388L50.5141 113.164C50.1095 112.383 49.4868 111.738 48.722 111.305L42.6147 120.83L46.1329 127.767H58.4463L53.9662 119.57L55.6588 117.447L51.6425 115.388Z" fill="white"/>
<path d="M42.147 111.836C41.4661 112.573 40.9864 113.473 40.7539 114.45C40.5214 115.426 40.5439 116.446 40.8194 117.411L42.6116 120.83L48.7188 111.305C47.7153 110.665 46.5301 110.371 45.3437 110.466C44.1574 110.562 43.0348 111.043 42.147 111.836Z" fill="black"/>
<path d="M148.822 26.3066C147.687 27.3603 146.664 28.5281 145.768 29.7913L144.175 32.7453L139.429 27.5346C139.429 27.5346 138.898 28.0988 137.902 28.9618C136.936 29.8248 135.579 28.8956 135.579 28.8956C135.217 28.527 135.007 28.0367 134.988 27.5208C134.97 27.0049 135.145 26.5008 135.479 26.1074L136.874 24.7798L133.488 21.0958L144.175 11.0757L155.658 23.9502C153.195 24.0328 150.813 24.8537 148.822 26.3066Z" fill="white"/>
<path d="M138.929 42.5366L130.468 58.4677L127.182 56.2102C126.115 55.451 124.841 55.0344 123.532 55.0157C121.407 55.0157 119.781 57.1714 119.283 57.9028C118.785 58.6343 114.835 64.3423 114.835 64.3423C114.835 64.3423 113.143 67.329 115.898 69.0253C115.898 69.0253 118.519 69.9916 119.98 67.8308L121.64 65.3413L127.746 69.258C129.14 69.9984 130.723 70.3088 132.293 70.15C135.015 69.9181 136.94 67.6613 138.002 65.8386C139.064 63.9803 148.191 47.85 148.191 47.85L138.929 42.5366Z" fill="white"/>
<path d="M16.2291 88.7028C17.089 88.7028 17.9296 88.4479 18.6446 87.9701C19.3596 87.4924 19.9168 86.8133 20.2459 86.0189C20.575 85.2244 20.6611 84.3503 20.4933 83.5069C20.3256 82.6635 19.9115 81.8888 19.3034 81.2808C18.6954 80.6727 17.9207 80.2586 17.0773 80.0909C16.2339 79.9231 15.3597 80.0092 14.5653 80.3383C13.7708 80.6674 13.0918 81.2246 12.6141 81.9396C12.1363 82.6546 11.8813 83.4952 11.8813 84.3551C11.8853 85.507 12.3446 86.6106 13.1591 87.4251C13.9736 88.2396 15.0772 88.6989 16.2291 88.7028ZM16.2291 81.0034C16.8922 81.0034 17.5404 81.2 18.0917 81.5684C18.643 81.9368 19.0727 82.4605 19.3264 83.0731C19.5801 83.6857 19.6465 84.3598 19.5171 85.0101C19.3877 85.6605 19.0683 86.2578 18.5994 86.7266C18.1304 87.1954 17.533 87.5147 16.8827 87.6439C16.2323 87.7732 15.5582 87.7067 14.9457 87.4529C14.3331 87.199 13.8096 86.7692 13.4413 86.2178C13.073 85.6664 12.8765 85.0182 12.8767 84.3551C12.88 83.4671 13.2343 82.6164 13.8623 81.9885C14.4903 81.3606 15.3411 81.0065 16.2291 81.0034Z" fill="black"/>
<path d="M29.1388 88.7028C29.9987 88.7028 30.8393 88.4479 31.5543 87.9701C32.2692 87.4924 32.8265 86.8133 33.1556 86.0189C33.4846 85.2244 33.5707 84.3503 33.403 83.5069C33.2352 82.6635 32.8211 81.8888 32.2131 81.2808C31.6051 80.6727 30.8304 80.2586 29.987 80.0909C29.1436 79.9231 28.2694 80.0092 27.475 80.3383C26.6805 80.6674 26.0015 81.2246 25.5237 81.9396C25.046 82.6546 24.791 83.4952 24.791 84.3551C24.7949 85.507 25.2543 86.6106 26.0688 87.4251C26.8833 88.2396 27.9869 88.6989 29.1388 88.7028ZM29.1388 81.0034C29.8019 81.0034 30.45 81.2 31.0014 81.5684C31.5527 81.9368 31.9824 82.4605 32.2361 83.0731C32.4898 83.6857 32.5561 84.3598 32.4267 85.0101C32.2973 85.6605 31.978 86.2578 31.509 86.7266C31.0401 87.1954 30.4427 87.5147 29.7923 87.6439C29.142 87.7732 28.4679 87.7067 27.8553 87.4529C27.2428 87.199 26.7192 86.7692 26.351 86.2178C25.9827 85.6664 25.7862 85.0182 25.7863 84.3551C25.7895 83.467 26.1437 82.6162 26.7717 81.9883C27.3998 81.3604 28.2507 81.0063 29.1388 81.0034Z" fill="black"/>
<path d="M42.0836 88.7028C42.9435 88.7028 43.7841 88.4479 44.4991 87.9701C45.2141 87.4924 45.7713 86.8133 46.1004 86.0189C46.4295 85.2244 46.5156 84.3503 46.3478 83.5069C46.1801 82.6635 45.766 81.8888 45.1579 81.2808C44.5499 80.6727 43.7752 80.2586 42.9318 80.0909C42.0884 79.9231 41.2142 80.0092 40.4198 80.3383C39.6253 80.6674 38.9463 81.2246 38.4686 81.9396C37.9908 82.6546 37.7358 83.4952 37.7358 84.3551C37.7398 85.507 38.1991 86.6106 39.0136 87.4251C39.8281 88.2396 40.9317 88.6989 42.0836 88.7028ZM42.0836 81.0034C42.7467 81.0034 43.3949 81.2 43.9462 81.5684C44.4975 81.9368 44.9272 82.4605 45.1809 83.0731C45.4346 83.6857 45.501 84.3598 45.3716 85.0101C45.2421 85.6605 44.9228 86.2578 44.4539 86.7266C43.9849 87.1954 43.3875 87.5147 42.7372 87.6439C42.0868 87.7732 41.4127 87.7067 40.8002 87.4529C40.1876 87.199 39.6641 86.7692 39.2958 86.2178C38.9275 85.6664 38.731 85.0182 38.7312 84.3551C38.7345 83.4671 39.0888 82.6164 39.7168 81.9885C40.3448 81.3606 41.1956 81.0065 42.0836 81.0034Z" fill="black"/>
<path d="M186.326 197.366H170.297C168.987 197.37 167.731 197.892 166.804 198.818C165.877 199.745 165.355 201.001 165.352 202.312V202.41C165.355 203.721 165.877 204.977 166.804 205.904C167.731 206.83 168.987 207.353 170.297 207.356H186.328C187.639 207.353 188.895 206.83 189.821 205.904C190.748 204.977 191.27 203.721 191.274 202.41V202.312C191.264 201.002 190.74 199.75 189.814 198.824C188.888 197.898 187.635 197.375 186.326 197.366ZM190.242 202.378C190.239 203.424 189.822 204.427 189.082 205.168C188.342 205.908 187.339 206.325 186.292 206.327H170.262C169.215 206.325 168.212 205.908 167.472 205.168C166.732 204.427 166.315 203.424 166.312 202.378V202.278C166.315 201.231 166.732 200.228 167.472 199.488C168.212 198.748 169.215 198.331 170.262 198.329H186.326C187.373 198.331 188.376 198.748 189.116 199.488C189.856 200.228 190.273 201.231 190.275 202.278V202.378H190.242Z" fill="black"/>
<path d="M153.302 197.366H107.368C106.057 197.37 104.801 197.892 103.875 198.818C102.948 199.745 102.426 201.001 102.422 202.312V202.41C102.426 203.721 102.948 204.977 103.875 205.904C104.801 206.83 106.057 207.353 107.368 207.356H153.269C154.58 207.353 155.836 206.83 156.763 205.904C157.689 204.977 158.211 203.721 158.215 202.41V202.312C158.219 201.004 157.704 199.749 156.782 198.822C155.861 197.894 154.609 197.371 153.302 197.366ZM157.219 202.378C157.216 203.424 156.799 204.427 156.059 205.168C155.319 205.908 154.316 206.325 153.269 206.327H107.368C106.321 206.325 105.318 205.908 104.578 205.168C103.838 204.427 103.421 203.424 103.418 202.378V202.278C103.421 201.231 103.838 200.228 104.578 199.488C105.318 198.748 106.321 198.331 107.368 198.329H153.269C154.316 198.331 155.319 198.748 156.059 199.488C156.799 200.228 157.216 201.231 157.219 202.278V202.378Z" fill="black"/>
<path d="M90.3745 197.366H21.2073C19.8968 197.37 18.641 197.892 17.7144 198.818C16.7878 199.745 16.2658 201.001 16.2627 202.312V202.41C16.2658 203.721 16.7878 204.977 17.7144 205.904C18.641 206.83 19.8968 207.353 21.2073 207.356H90.3745C91.6852 207.353 92.9412 206.831 93.868 205.904C94.7947 204.977 95.3168 203.721 95.3199 202.41V202.312C95.3108 201.003 94.7868 199.75 93.8613 198.825C92.9359 197.899 91.6833 197.375 90.3745 197.366ZM94.2911 202.378C94.2886 203.424 93.8717 204.427 93.1316 205.168C92.3915 205.908 91.3885 206.325 90.3418 206.327H21.2073C20.1607 206.325 19.1577 205.908 18.4176 205.168C17.6775 204.427 17.2606 203.424 17.258 202.378V202.278C17.2606 201.231 17.6775 200.228 18.4176 199.488C19.1577 198.748 20.1607 198.331 21.2073 198.329H90.3745C91.4213 198.331 92.4245 198.748 93.1648 199.488C93.905 200.228 94.322 201.231 94.3246 202.278V202.378H94.2911Z" fill="black"/>
<path d="M127.812 189.467H133.886C135.197 189.463 136.453 188.941 137.38 188.015C138.306 187.088 138.828 185.832 138.832 184.521V184.421C138.828 183.11 138.306 181.854 137.38 180.928C136.453 180.001 135.197 179.479 133.886 179.476H127.846C126.535 179.479 125.279 180.001 124.353 180.928C123.426 181.854 122.904 183.11 122.901 184.421V184.521C122.895 185.169 123.018 185.811 123.263 186.412C123.508 187.012 123.869 187.558 124.325 188.018C124.782 188.478 125.325 188.842 125.924 189.091C126.522 189.34 127.164 189.468 127.812 189.467ZM123.863 184.455C123.866 183.409 124.283 182.405 125.023 181.665C125.763 180.925 126.766 180.508 127.812 180.506H133.886C134.933 180.508 135.936 180.925 136.677 181.665C137.417 182.405 137.834 183.408 137.836 184.455V184.555C137.834 185.602 137.417 186.605 136.677 187.345C135.936 188.085 134.933 188.502 133.886 188.504H127.846C126.799 188.502 125.796 188.085 125.056 187.345C124.316 186.604 123.899 185.601 123.897 184.555V184.455H123.863Z" fill="black"/>
<path d="M21.2073 189.467H57.152C58.4626 189.463 59.7185 188.941 60.6452 188.015C61.5719 187.088 62.094 185.832 62.0974 184.521V184.421C62.094 183.11 61.5719 181.854 60.6452 180.928C59.7185 180.001 58.4626 179.479 57.152 179.476H21.2073C19.8968 179.479 18.641 180.001 17.7144 180.928C16.7878 181.855 16.2658 183.11 16.2627 184.421V184.521C16.2656 185.831 16.7875 187.087 17.7141 188.014C18.6407 188.941 19.8967 189.463 21.2073 189.467ZM17.258 184.455C17.2606 183.409 17.6775 182.405 18.4176 181.665C19.1577 180.925 20.1607 180.508 21.2073 180.506H57.152C58.1986 180.508 59.2017 180.925 59.9418 181.665C60.6819 182.405 61.0988 183.409 61.1013 184.455V184.555C61.0988 185.601 60.6819 186.604 59.9418 187.345C59.2017 188.085 58.1986 188.502 57.152 188.504H21.2073C20.1607 188.502 19.1577 188.085 18.4176 187.345C17.6775 186.604 17.2606 185.601 17.258 184.555V184.455Z" fill="black"/>
<path d="M21.2071 171.61H75.7715C77.0819 171.607 78.3378 171.085 79.2644 170.159C80.191 169.232 80.713 167.976 80.7161 166.666V166.566C80.713 165.256 80.1911 164 79.2645 163.073C78.3379 162.146 77.082 161.624 75.7715 161.621H73.7801C74.3531 161.425 74.9081 161.181 75.4392 160.891L82.243 157.306L88.0179 169.422L88.2506 169.953L88.4163 170.318L92.831 179.478H74.4766C73.1664 179.481 71.9108 180.003 70.9842 180.929C70.0575 181.855 69.5351 183.111 69.5312 184.421V184.521C69.5345 185.831 70.0567 187.087 70.9834 188.014C71.9101 188.941 73.166 189.463 74.4766 189.466H110.756C112.067 189.463 113.323 188.941 114.25 188.014C115.176 187.087 115.699 185.831 115.702 184.521V184.421C115.698 183.111 115.176 181.855 114.249 180.928C113.323 180.002 112.067 179.48 110.756 179.476H94.7228L118.686 168.723L100.299 164.709L106.803 161.623L96.3485 145.094C94.6546 142.422 92.0106 140.491 88.9496 139.691C85.8885 138.891 82.6379 139.281 79.8531 140.783L69.1662 146.524C68.4363 145.164 66.0138 140.717 63.3586 135.804H93.7609C94.8696 135.803 95.9326 135.362 96.7167 134.578C97.5007 133.794 97.9417 132.731 97.9429 131.623V131.523C97.9484 130.914 97.817 130.311 97.5584 129.76C97.2998 129.208 96.9206 128.722 96.4488 128.336H113.907V106.426H81.148V127.333H58.7447C56.7206 123.616 55.0607 120.562 54.5627 119.633L56.5541 117.276L52.0071 114.92L50.9122 112.929C50.5434 112.251 50.0419 111.655 49.4375 111.176C48.8332 110.697 48.1385 110.345 47.395 110.141C46.6514 109.936 45.8742 109.884 45.1099 109.986C44.3456 110.089 43.6099 110.345 42.9466 110.738L42.847 110.804C42.7474 110.87 42.6813 110.904 42.5817 110.97C42.8876 110.292 43.046 109.558 43.0462 108.814C43.0462 107.459 42.5077 106.159 41.5492 105.2C40.5907 104.242 39.2906 103.703 37.9351 103.703C36.5795 103.703 35.2795 104.242 34.3209 105.2C33.3624 106.159 32.8239 107.459 32.8239 108.814C32.8235 109.815 33.1115 110.794 33.6535 111.635C32.6415 110.789 31.3422 110.365 30.0257 110.451C28.7092 110.538 27.4767 111.129 26.5844 112.101C26.6793 111.721 26.7238 111.33 26.7167 110.939C26.711 109.753 26.2912 108.606 25.5298 107.697C24.7684 106.788 23.7133 106.173 22.5469 105.96C21.3804 105.746 20.176 105.947 19.1417 106.527C18.1074 107.107 17.3084 108.03 16.8826 109.137C16.4569 110.244 16.4312 111.464 16.8101 112.588C17.1889 113.712 17.9485 114.668 18.9575 115.291C19.9664 115.914 21.1614 116.165 22.3358 116.001C23.5102 115.836 24.5902 115.266 25.3891 114.39C25.2941 114.77 25.2496 115.16 25.2568 115.552C25.2568 116.223 25.389 116.888 25.6459 117.508C25.9027 118.128 26.2792 118.691 26.7538 119.166C27.2284 119.641 27.7919 120.017 28.412 120.274C29.0321 120.531 29.6967 120.663 30.3679 120.663C31.0392 120.663 31.7038 120.531 32.3239 120.274C32.944 120.017 33.5075 119.641 33.9821 119.166C34.4567 118.691 34.8332 118.128 35.09 117.508C35.3469 116.888 35.4791 116.223 35.4791 115.552C35.4803 114.55 35.1922 113.569 34.6495 112.727C35.5729 113.495 36.7345 113.917 37.9351 113.922C38.8753 113.929 39.7975 113.664 40.5903 113.158C40.1729 113.985 39.9637 114.9 39.9811 115.826C39.9985 116.751 40.2418 117.659 40.6899 118.469L45.5661 127.568L37.9351 156.145H29.6045C28.751 156.145 27.9326 156.485 27.329 157.088C26.7254 157.692 26.386 158.51 26.3852 159.364V159.43C26.3955 160.273 26.7279 161.081 27.3143 161.687H21.1744C19.8638 161.69 18.6079 162.212 17.6812 163.139C16.7544 164.066 16.2323 165.322 16.229 166.632V166.732C16.2536 168.035 16.789 169.277 17.7201 170.189C18.6512 171.102 19.9034 171.612 21.2071 171.61ZM114.736 184.455V184.555C114.733 185.601 114.316 186.604 113.576 187.345C112.836 188.085 111.833 188.502 110.786 188.504H74.5115C73.4649 188.502 72.4619 188.085 71.7218 187.345C70.9817 186.604 70.5648 185.601 70.5622 184.555V184.455C70.5648 183.409 70.9817 182.405 71.7218 181.665C72.4619 180.925 73.4649 180.508 74.5115 180.506H110.786C111.305 180.505 111.819 180.606 112.299 180.804C112.779 181.002 113.215 181.293 113.582 181.66C113.949 182.027 114.239 182.463 114.438 182.942C114.636 183.422 114.737 183.936 114.736 184.455ZM21.639 115.023C20.8249 115.023 20.0291 114.781 19.3521 114.329C18.6752 113.877 18.1475 113.234 17.8359 112.482C17.5243 111.73 17.4427 110.903 17.6014 110.104C17.7601 109.306 18.1521 108.572 18.7276 107.997C19.3032 107.421 20.0366 107.029 20.835 106.87C21.6334 106.711 22.461 106.793 23.2131 107.104C23.9652 107.416 24.6081 107.943 25.0604 108.62C25.5127 109.297 25.7541 110.093 25.7541 110.907C25.7542 111.447 25.6478 111.982 25.441 112.482C25.2343 112.981 24.9312 113.435 24.5491 113.817C24.1669 114.199 23.7132 114.502 23.2139 114.709C22.7146 114.916 22.1794 115.023 21.639 115.023ZM50.5799 142.636L59.2769 156.576C60.7615 158.957 63.0248 160.752 65.6822 161.654H45.4688L50.5799 142.636ZM98.8379 165.404L115.532 169.088L93.6598 178.879L89.3448 169.885L98.4394 165.54L98.8379 165.404ZM68.7678 147.88L80.3185 141.641C82.8866 140.262 85.8816 139.906 88.7015 140.645C91.5213 141.383 93.957 143.162 95.5189 145.623L105.376 161.222L98.7383 164.375L98.4067 164.541L88.9478 169.022L82.7075 155.978L74.9769 160.06C72.4486 161.386 69.5135 161.708 66.7576 160.964C64.0018 160.22 61.628 158.464 60.1102 156.046L50.9167 141.343L52.9415 133.743L51.9789 133.477L49.2196 143.798H42.2828L46.3987 128.365H58.1478C60.3711 132.48 63.6566 138.521 68.5024 147.448L68.7678 147.88ZM82.1768 107.422H112.943V127.333H82.1768V107.419V107.422ZM93.7602 128.331C94.6051 128.332 95.4154 128.668 96.0128 129.265C96.6102 129.863 96.9459 130.673 96.9461 131.518V131.584C96.9459 132.429 96.6102 133.239 96.0127 133.837C95.4153 134.434 94.6051 134.77 93.7602 134.77H74.7791V128.299H93.7639L93.7602 128.331ZM73.7801 128.331V134.803H62.8271C61.6326 132.613 60.4373 130.39 59.3089 128.331H73.7801ZM50.0492 113.396L51.211 115.52L51.2772 115.653L54.9938 117.578L53.467 119.403V119.57C53.7638 120.3 54.1305 121 54.562 121.661C53.6974 122.226 52.6499 122.441 51.6326 122.261C50.6153 122.082 49.7047 121.521 49.0858 120.694L48.2897 121.289C48.7584 121.92 49.3692 122.433 50.0726 122.784C50.7759 123.136 51.5522 123.318 52.3387 123.314C53.2938 123.321 54.2294 123.044 55.0265 122.518C55.6212 123.646 56.4538 125.172 57.6156 127.297H46.5971L43.1458 120.891L48.9543 112.029C49.4072 112.407 49.7795 112.872 50.0492 113.396ZM30.4021 119.636C29.5881 119.636 28.7924 119.394 28.1155 118.942C27.4387 118.49 26.9111 117.847 26.5996 117.095C26.2881 116.343 26.2066 115.515 26.3654 114.717C26.5242 113.919 26.9162 113.185 27.4918 112.61C28.0674 112.034 28.8008 111.642 29.5992 111.483C30.3976 111.324 31.2251 111.406 31.9772 111.717C32.7293 112.029 33.3721 112.556 33.8243 113.233C34.2766 113.91 34.518 114.706 34.518 115.52C34.5182 116.06 34.4118 116.596 34.2051 117.095C33.9983 117.595 33.6951 118.048 33.3129 118.431C32.9307 118.813 32.4769 119.116 31.9774 119.323C31.478 119.53 30.9427 119.636 30.4021 119.636ZM33.8542 108.783C33.854 107.969 34.0953 107.173 34.5475 106.496C34.9996 105.819 35.6424 105.292 36.3944 104.98C37.1465 104.668 37.9741 104.587 38.7725 104.745C39.571 104.904 40.3044 105.296 40.8801 105.872C41.4558 106.447 41.8478 107.181 42.0067 107.979C42.1656 108.777 42.0841 109.605 41.7726 110.357C41.4611 111.109 40.9336 111.752 40.2567 112.204C39.5799 112.657 38.7841 112.898 37.97 112.898C37.4294 112.898 36.8941 112.792 36.3946 112.586C35.895 112.379 35.4411 112.076 35.0588 111.694C34.6764 111.312 34.3731 110.858 34.1661 110.358C33.9592 109.859 33.8527 109.324 33.8527 108.783H33.8542ZM43.3793 111.604L43.4789 111.537C44.0276 111.209 44.6384 110.999 45.2726 110.919C45.9067 110.839 46.5506 110.891 47.1636 111.073C47.4974 111.171 47.8198 111.305 48.1254 111.471L42.6144 119.9L41.619 118.008C41.0165 116.922 40.8631 115.644 41.1919 114.447C41.5206 113.25 42.3054 112.229 43.3778 111.604H43.3793ZM27.4139 159.43V159.364C27.4139 158.774 27.6482 158.209 28.0651 157.792C28.482 157.374 29.0475 157.14 29.6373 157.14H38.7312L42.0502 144.76H48.9855L44.4734 161.654H29.6373V161.621C29.0527 161.622 28.4911 161.393 28.0747 160.983C27.6583 160.573 27.4208 160.015 27.4139 159.43ZM17.2578 166.599C17.2603 165.552 17.6772 164.549 18.4173 163.809C19.1574 163.069 20.1605 162.652 21.2071 162.649H75.7715C76.8181 162.652 77.8212 163.069 78.5613 163.809C79.3014 164.549 79.7183 165.552 79.7208 166.599V166.698C79.7185 167.745 79.3016 168.748 78.5615 169.489C77.8214 170.229 76.8183 170.646 75.7715 170.648H21.2071C20.1603 170.646 19.1572 170.229 18.4171 169.489C17.677 168.748 17.2601 167.745 17.2578 166.698V166.599Z" fill="black"/>
<path d="M86.7804 49.3364L85.8286 49.6274L87.527 55.182L88.4789 54.8909L86.7804 49.3364Z" fill="black"/>
<path d="M77.0267 49.369L76.0752 49.6597L77.7713 55.2125L78.7228 54.9219L77.0267 49.369Z" fill="black"/>
<path d="M79.8205 65.3377H92.7642L91.0381 59.6958L90.0763 59.9939L91.4366 64.3424H80.5505L79.1233 59.6958L78.1606 59.9939L79.8205 65.3377Z" fill="black"/>
<path d="M148.258 23.2204C148.249 23.6343 148.122 24.0371 147.892 24.3814L148.722 24.9456C149.08 24.4425 149.266 23.8375 149.253 23.2204C149.255 22.5746 149.049 21.9455 148.666 21.4257C148.283 20.9058 147.743 20.5228 147.126 20.3331C146.508 20.1434 145.847 20.1571 145.238 20.372C144.629 20.587 144.105 20.9919 143.744 21.527L144.573 22.0912C144.753 21.8155 145 21.5892 145.29 21.4328C145.579 21.2764 145.904 21.1948 146.233 21.1955C146.769 21.1977 147.283 21.4117 147.662 21.791C148.042 22.1702 148.256 22.684 148.258 23.2204Z" fill="black"/>
<path d="M138.898 22.4233C139.521 22.4233 140.026 21.9181 140.026 21.2949C140.026 20.6717 139.521 20.1665 138.898 20.1665C138.275 20.1665 137.77 20.6717 137.77 21.2949C137.77 21.9181 138.275 22.4233 138.898 22.4233Z" fill="black"/>
<path d="M49.3855 117.445C49.9171 117.445 50.3481 117.014 50.3481 116.483C50.3481 115.951 49.9171 115.52 49.3855 115.52C48.8538 115.52 48.4229 115.951 48.4229 116.483C48.4229 117.014 48.8538 117.445 49.3855 117.445Z" fill="black"/>
<path d="M103.85 124.681L109.957 117.379L103.85 110.077L103.086 110.741L108.662 117.379L103.086 124.05L103.85 124.681Z" fill="white"/>
<path d="M89.8436 110.077L83.7363 117.379L89.8436 124.681L90.607 124.05L85.0312 117.379L90.607 110.741L89.8436 110.077Z" fill="white"/>
<path d="M99.337 109.69L93.7007 124.698L94.6332 125.048L100.27 110.04L99.337 109.69Z" fill="white"/>
<path d="M219.283 136.231H206.87V86.8446C206.866 83.589 205.571 80.4678 203.269 78.1658C200.967 75.8637 197.846 74.5687 194.59 74.5647H181.247C183.062 73.7984 184.675 72.6236 185.962 71.1319C187.248 69.6401 188.173 67.8716 188.665 65.964C189.156 64.0564 189.201 62.0611 188.795 60.1335C188.389 58.2058 187.544 56.3978 186.326 54.8501L165.549 28.1644C164.405 26.6936 162.941 25.5042 161.266 24.6873C159.592 23.8704 157.753 23.4477 155.891 23.4517L143.877 10.0107C143.189 9.23785 142.354 8.61058 141.42 8.16594C140.486 7.72129 139.473 7.46829 138.439 7.42187C137.406 7.37544 136.374 7.53654 135.404 7.89564C134.434 8.25475 133.545 8.80458 132.791 9.51267L132.692 9.61228C131.218 11.016 130.351 12.9403 130.277 14.9742C130.203 17.0082 130.926 18.9907 132.293 20.4984L132.791 21.0299L126.153 27.1995L126.817 27.9295L133.422 21.7561L136.143 24.7101L135.082 25.7054C134.852 25.9168 134.669 26.1733 134.543 26.459C134.417 26.7446 134.352 27.0532 134.351 27.3653C134.342 27.6775 134.397 27.9883 134.511 28.2791C134.625 28.5699 134.796 28.8347 135.015 29.0579L135.048 29.0913C135.259 29.3209 135.516 29.5042 135.801 29.6298C136.087 29.7554 136.395 29.8206 136.707 29.8213C137.021 29.8375 137.334 29.7867 137.626 29.6723C137.918 29.5578 138.182 29.3823 138.401 29.1575L139.396 28.2283L143.578 32.7753L130.272 57.7669L126.921 55.4767C125.744 54.6684 124.295 54.3578 122.89 54.6128C121.485 54.8677 120.238 55.6674 119.42 56.8377L114.308 64.2057C114.03 64.5951 113.837 65.0383 113.74 65.5069C113.642 65.9754 113.644 66.4591 113.744 66.927C113.834 67.3908 114.016 67.8321 114.278 68.2253C114.54 68.6184 114.878 68.9556 115.271 69.2172L115.337 69.2507H103.488L95.8158 43.0013H58.38L67.607 74.5313H15.9967C12.741 74.5352 9.6199 75.8303 7.31783 78.1323C5.01576 80.4344 3.72073 83.5555 3.7168 86.8112V203.307C3.72073 206.563 5.01576 209.684 7.31783 211.986C9.6199 214.288 12.741 215.583 15.9967 215.587H194.557C197.813 215.583 200.934 214.288 203.236 211.986C205.538 209.684 206.833 206.563 206.837 203.307V164.94H219.251V136.231H219.283ZM163.857 164.94H190.574V191.658H163.857V164.94ZM163.857 163.944V137.226H190.574V163.944H163.857ZM212.314 137.226V163.944H191.537V137.226H212.314ZM194.557 75.5601C197.547 75.5689 200.413 76.7606 202.527 78.875C204.641 80.9893 205.833 83.8545 205.842 86.8446V93.1511H171.524L162.363 75.5601H194.557ZM186.89 67.9268C185.931 69.9258 184.423 71.611 182.543 72.7862C180.663 73.9614 178.487 74.5782 176.27 74.5647H160.734L172.948 97.9961L155.256 106.26L139.823 75.6931C138.933 73.9361 138.507 71.9799 138.588 70.0116C138.669 68.0433 139.254 66.1287 140.286 64.4508C141.318 62.7729 142.764 61.3878 144.484 60.4279C146.204 59.468 148.142 58.9654 150.112 58.9681H187.45C187.95 60.4249 188.158 61.966 188.062 63.5032C187.966 65.0404 187.568 66.5436 186.89 67.9268ZM181.547 114.558L156.026 127.071C155.105 127.525 154.045 127.609 153.064 127.307C152.082 127.004 151.254 126.338 150.748 125.444L150.715 125.378C150.183 124.416 150.052 123.283 150.35 122.225C150.499 121.702 150.756 121.215 151.104 120.798C151.453 120.38 151.886 120.041 152.375 119.802L164.655 113.43L162.463 104.037L173.415 98.926L181.547 114.558ZM91.3372 74.567L90.0735 70.2854H127.578L128.841 74.567H91.3372ZM129.871 74.567L128.607 70.2192C130.057 70.787 131.649 70.88 133.154 70.4846C134.164 70.2396 135.113 69.7889 135.941 69.1607C136.769 68.5324 137.459 67.7401 137.967 66.8333L138.299 66.2387C137.298 68.9214 137.274 71.8708 138.232 74.5692L129.871 74.567ZM147.562 49.973L153.802 57.9721H150.116C148.253 57.9638 146.413 58.374 144.729 59.1725C143.046 59.9709 141.564 61.1372 140.392 62.5852L147.562 49.973ZM164.753 28.7628L185.529 55.4484C186.144 56.2211 186.657 57.0689 187.056 57.9713H155.059L148.091 49.0082L153.17 40.0473L152.307 39.5493L147.996 47.1499L139.598 42.3702L145.971 30.3892C146.853 28.7372 148.134 27.3317 149.697 26.3002C151.26 25.2687 153.056 24.6438 154.922 24.4822C156.788 24.3207 158.665 24.6276 160.382 25.3751C162.099 26.1226 163.602 27.287 164.756 28.7628H164.753ZM133.023 19.8019C131.831 18.4882 131.199 16.7611 131.261 14.9882C131.323 13.2153 132.074 11.5366 133.356 10.3095L133.455 10.2099C134.112 9.59216 134.885 9.11233 135.73 8.79883C136.576 8.48532 137.475 8.3445 138.375 8.38469C139.276 8.42489 140.159 8.64529 140.973 9.03285C141.787 9.42041 142.515 9.96726 143.113 10.641L143.445 11.0395L133.488 20.3311L133.023 19.8019ZM141.456 28.962C142.803 28.7638 144.037 28.1013 144.947 27.0891C145.856 26.0769 146.383 24.7787 146.437 23.4189L145.441 23.3528C145.428 23.9763 145.293 24.5913 145.043 25.1625C144.793 25.7337 144.432 26.2499 143.982 26.6816C143.532 27.1132 143.001 27.4518 142.42 27.6779C141.839 27.904 141.218 28.0133 140.595 27.9994L139.467 26.7714L137.74 28.3956C137.475 28.6414 137.124 28.7725 136.764 28.7601C136.403 28.7477 136.061 28.5929 135.815 28.3294L135.781 28.296C135.656 28.1667 135.558 28.0136 135.494 27.8458C135.429 27.678 135.399 27.4988 135.406 27.3191C135.412 27.1394 135.454 26.9628 135.53 26.7999C135.606 26.6369 135.714 26.491 135.848 26.3707L137.607 24.7116L134.222 21.0276L144.182 11.736L154.63 23.4524C152.643 23.6584 150.738 24.3505 149.083 25.4677C147.427 26.5848 146.073 28.0926 145.138 29.8577L144.109 31.7829L141.456 28.962ZM114.703 66.7649C114.633 66.4286 114.633 66.0816 114.701 65.745C114.77 65.4085 114.906 65.0893 115.102 64.807L120.245 57.4056C120.916 56.4491 121.935 55.7945 123.084 55.5834C124.233 55.3723 125.419 55.6215 126.385 56.2773L130.634 59.1978L139.131 43.2332L147.53 48.0129L137.139 66.3338C136.698 67.1299 136.095 67.8247 135.369 68.3734C134.643 68.9221 133.81 69.3127 132.924 69.5197C132.042 69.7363 131.125 69.7715 130.23 69.6231C129.334 69.4748 128.478 69.146 127.713 68.6567L121.473 64.6739L119.416 67.7276C119.035 68.2874 118.451 68.6769 117.788 68.8132C117.125 68.9495 116.435 68.8219 115.864 68.4575L115.798 68.4241C115.235 68.0309 114.843 67.4374 114.703 66.7649ZM120.278 68.2918L121.805 66.035L126.883 69.2871H119.283C119.663 69.0072 119.999 68.6717 120.279 68.2918H120.278ZM102.455 69.2871H72.154L64.7853 44.0301H95.0881L102.455 69.2871ZM59.7076 44.0301H63.7216L71.3906 70.2831H89.0143L90.278 74.5647H68.6024L59.7076 44.0301ZM15.9967 75.5601H138.632C138.731 75.7593 138.798 75.9585 138.897 76.1547L147.494 93.1481H4.71212V86.8416C4.72173 83.852 5.91381 80.9876 8.02808 78.8739C10.1423 76.7602 13.007 75.5689 15.9967 75.5601ZM205.875 203.339C205.866 206.329 204.675 209.194 202.56 211.309C200.446 213.423 197.581 214.615 194.591 214.624H16.0301C13.0402 214.615 10.1753 213.423 8.06101 211.309C5.9467 209.195 4.75479 206.33 4.74557 203.341V94.1449H148.025L154.796 107.587L161.5 104.433L163.458 112.864L151.875 118.905C151.276 119.221 150.747 119.655 150.32 120.179C149.892 120.704 149.574 121.31 149.386 121.96C149.197 122.61 149.141 123.292 149.221 123.964C149.3 124.637 149.515 125.286 149.851 125.874L149.884 125.94C150.323 126.715 150.96 127.36 151.73 127.809C152.499 128.257 153.374 128.495 154.265 128.496C155.033 128.49 155.791 128.32 156.489 127.999L182.941 115.021L172.054 94.1449H205.876V136.231H162.864V192.65H191.574V164.94H205.879L205.875 203.339ZM218.289 163.942H213.343V137.226H218.289V163.942Z" fill="black"/>
</svg>
