<svg width="48" height="48" viewBox="0 0 48 48" fill="none" xmlns="http://www.w3.org/2000/svg">
<g clip-path="url(#clip0)">
<path d="M3.59223 19.7676C3.58973 19.7833 3.58396 19.7983 3.57529 19.8116C3.56662 19.8249 3.55524 19.8363 3.54189 19.8449C3.52668 19.8513 3.51035 19.8546 3.49384 19.8546C3.47733 19.8546 3.461 19.8513 3.44579 19.8449L1.09819 19.3901L1.47801 20.1679C1.4847 20.1829 1.48815 20.1992 1.48815 20.2156C1.48815 20.2321 1.4847 20.2484 1.47801 20.2634C1.46186 20.2936 1.43611 20.3176 1.40479 20.3316L0.947173 20.5454C0.914602 20.5569 0.879067 20.5569 0.846496 20.5454C0.823327 20.5258 0.808588 20.4981 0.80531 20.4681L0.155486 19.1718C0.151622 19.1507 0.151622 19.1291 0.155486 19.1081C0.153376 19.0869 0.153376 19.0656 0.155486 19.0444L0.279044 18.4349C0.286039 18.4016 0.305715 18.3723 0.333959 18.353C0.349019 18.3461 0.365415 18.3425 0.382009 18.3425C0.398604 18.3425 0.415 18.3461 0.43006 18.353L3.63342 18.9989C3.66544 19.0065 3.6933 19.0261 3.71121 19.0535C3.71818 19.0685 3.72179 19.0848 3.72179 19.1013C3.72179 19.1178 3.71818 19.1341 3.71121 19.149L3.59223 19.7676Z" fill="white"/>
<path d="M4.50298 16.8292C4.43156 17.0309 4.32292 17.2175 4.18265 17.3796C4.06726 17.5126 3.92341 17.6183 3.76163 17.6889C3.60901 17.7564 3.44359 17.7905 3.27655 17.789C3.09808 17.7989 2.91912 17.7821 2.74571 17.7389L2.45283 17.6389L2.12335 17.5161L1.83047 17.3796C1.66332 17.3113 1.50869 17.216 1.37284 17.0976C1.24727 16.9875 1.14599 16.8528 1.07539 16.7019C1.00452 16.5414 0.968651 16.3677 0.970137 16.1925C0.994008 15.7685 1.15445 15.3635 1.42776 15.0371C1.53847 14.9069 1.67573 14.8015 1.83047 14.7279C1.9832 14.6596 2.14814 14.6225 2.31555 14.6187C2.49256 14.6154 2.66889 14.6415 2.83724 14.696L3.13927 14.8006L3.47333 14.9234L3.75706 15.0371C3.92401 15.1058 4.07858 15.201 4.21468 15.3192C4.3406 15.43 4.44324 15.5645 4.51671 15.7149C4.59103 15.873 4.63006 16.0452 4.63111 16.2198C4.62396 16.4287 4.58061 16.6349 4.50298 16.8292ZM3.81655 16.5791C3.84879 16.5139 3.86362 16.4416 3.85961 16.3691C3.85561 16.2967 3.8329 16.2264 3.79367 16.1652C3.69667 16.0372 3.56249 15.942 3.40926 15.8923C3.32232 15.8513 3.22621 15.8104 3.12554 15.774L2.82351 15.6603C2.72283 15.6239 2.63131 15.5921 2.54436 15.5693C2.39958 15.5096 2.23991 15.4953 2.08674 15.5284C2.01709 15.5516 1.95365 15.5902 1.90121 15.6413C1.84877 15.6925 1.8087 15.7548 1.78402 15.8235C1.75934 15.8923 1.7507 15.9658 1.75874 16.0383C1.76679 16.1109 1.79131 16.1807 1.83047 16.2425C1.9249 16.3682 2.05351 16.4645 2.20114 16.5199L2.48029 16.6246L2.78232 16.7383L3.07062 16.8429C3.21656 16.8981 3.37533 16.9108 3.52825 16.8793C3.5964 16.8589 3.65841 16.8221 3.70872 16.7721C3.75904 16.7221 3.79609 16.6605 3.81655 16.5927V16.5791Z" fill="white"/>
<path d="M6.0863 13.5636C5.98121 13.7476 5.84318 13.911 5.67902 14.0458C5.54352 14.1526 5.38794 14.2314 5.22139 14.2777C5.05689 14.3118 4.88709 14.3118 4.72259 14.2777C4.54294 14.2476 4.36968 14.1876 4.21005 14.1003C4.12768 14.0594 4.04073 14.0048 3.94005 13.9502L3.6609 13.782L3.39091 13.6137C3.24158 13.5186 3.10997 13.3986 3.00193 13.2589C2.89627 13.125 2.8213 12.9697 2.78227 12.804C2.73246 12.6343 2.71998 12.4559 2.74566 12.281C2.78593 12.0762 2.86347 11.8804 2.97447 11.7033C3.07834 11.5197 3.21659 11.3576 3.38175 11.2257C3.51538 11.115 3.67148 11.0344 3.83938 10.9892C4.00388 10.9551 4.17368 10.9551 4.33818 10.9892C4.5128 11.017 4.68145 11.0739 4.83699 11.1575L5.11614 11.3121C5.22139 11.3713 5.32207 11.4304 5.41817 11.4941L5.68359 11.6578C5.83195 11.7541 5.96336 11.8739 6.07257 12.0126C6.1783 12.1471 6.25467 12.302 6.29681 12.4674C6.34366 12.6379 6.35148 12.8167 6.31969 12.9905C6.27718 13.1939 6.19812 13.3881 6.0863 13.5636ZM5.45936 13.1907C5.50302 13.1327 5.53064 13.0645 5.53947 12.9926C5.54831 12.9208 5.53804 12.8479 5.5097 12.7813C5.43835 12.6389 5.325 12.5214 5.18478 12.4447C5.10241 12.3856 5.01546 12.331 4.92394 12.2764C4.83242 12.2218 4.74089 12.1627 4.64937 12.1127C4.55784 12.0626 4.46632 12.0126 4.38852 11.9717C4.25183 11.886 4.09238 11.8432 3.9309 11.8489C3.8581 11.8577 3.78851 11.8838 3.72798 11.925C3.66745 11.9661 3.61777 12.0211 3.58311 12.0854C3.54436 12.1456 3.52044 12.214 3.51329 12.2852C3.50613 12.3563 3.51594 12.4281 3.54192 12.4947C3.61531 12.6342 3.7262 12.7507 3.86226 12.8313C3.94005 12.8768 4.027 12.9268 4.11395 12.986L4.3931 13.1497L4.65852 13.3044C4.79656 13.3864 4.95537 13.4275 5.11614 13.4226C5.18839 13.4159 5.25775 13.3911 5.31776 13.3505C5.37777 13.3099 5.42648 13.255 5.45936 13.1907Z" fill="white"/>
<path d="M6.40673 10.0068C6.28059 10.1588 6.10348 10.2606 5.90793 10.2933C5.81743 10.304 5.72569 10.2963 5.63833 10.2705C5.55098 10.2446 5.46986 10.2013 5.39997 10.1432L5.22149 9.99311L5.03387 9.80662C4.96659 9.74501 4.91247 9.67058 4.87473 9.58775C4.83699 9.50492 4.81641 9.41539 4.81421 9.32449C4.81608 9.12432 4.89463 8.93239 5.03387 8.78777C5.15851 8.6286 5.34079 8.52414 5.54183 8.49666C5.63253 8.48841 5.72398 8.49868 5.81054 8.52684C5.89711 8.555 5.97697 8.60045 6.04521 8.66041L6.23284 8.81506C6.29121 8.86447 6.34624 8.91765 6.39758 8.97425C6.46494 9.03528 6.51852 9.1098 6.55481 9.1929C6.59109 9.27601 6.60925 9.36581 6.60809 9.45639C6.61026 9.65803 6.53871 9.8536 6.40673 10.0068ZM6.08182 9.71565C6.11433 9.68208 6.13518 9.63904 6.14131 9.59285C6.15226 9.55418 6.15226 9.51325 6.14131 9.47459C6.12374 9.4381 6.09882 9.40559 6.06809 9.37907C6.01776 9.32449 5.96742 9.27445 5.92165 9.23352L5.72488 9.09706C5.67606 9.0581 5.61756 9.03295 5.55556 9.02429C5.52227 9.02057 5.48858 9.02578 5.458 9.03938C5.42742 9.05298 5.40106 9.07447 5.38166 9.10161C5.35653 9.12406 5.3378 9.1527 5.32735 9.18464C5.31691 9.21659 5.31512 9.2507 5.32217 9.28355C5.33719 9.34305 5.3671 9.39781 5.40912 9.44275L5.56013 9.58375C5.61047 9.62923 5.66081 9.67472 5.7203 9.7202L5.83013 9.77933C5.86742 9.79059 5.90724 9.79059 5.94454 9.77933C5.99255 9.76405 6.03429 9.73373 6.06352 9.69291L6.08182 9.71565ZM7.45469 11.4623C7.40435 11.5168 7.35401 11.5259 7.30367 11.4623C7.2955 11.4566 7.28877 11.4492 7.284 11.4405C7.27923 11.4318 7.27657 11.4221 7.27622 11.4122L6.49368 7.40048C6.48932 7.36727 6.48932 7.33363 6.49368 7.30042C6.50299 7.26521 6.5202 7.23255 6.54402 7.2049L6.78656 6.94109C6.8369 6.88196 6.88724 6.87741 6.93758 6.94109C6.95102 6.95506 6.9605 6.97232 6.96503 6.99112L7.74299 11.0029C7.74977 11.0359 7.74977 11.0699 7.74299 11.1029C7.73754 11.1395 7.7198 11.1732 7.69265 11.1985L7.45469 11.4623ZM9.15247 9.5792C9.02715 9.73225 8.84964 9.83422 8.65366 9.86575C8.46971 9.88355 8.28598 9.82975 8.14112 9.71565L7.93977 9.55191L7.7796 9.40181C7.71205 9.3385 7.65783 9.26246 7.62012 9.17812C7.58241 9.09379 7.56196 9.00284 7.55994 8.91058C7.57548 8.7115 7.65649 8.52304 7.79046 8.37426C7.92444 8.22548 8.10394 8.12464 8.30129 8.0873C8.3934 8.07912 8.48622 8.0894 8.57426 8.11752C8.6623 8.14565 8.74377 8.19105 8.81383 8.25105L9.00145 8.40569C9.05982 8.45511 9.11485 8.50829 9.1662 8.56489C9.23237 8.62781 9.28511 8.70333 9.32128 8.78694C9.35744 8.87056 9.37629 8.96056 9.3767 9.05158C9.3679 9.24846 9.28834 9.43567 9.15247 9.5792ZM8.82298 9.2881C8.85667 9.25351 8.87763 9.20864 8.88247 9.16074C8.88603 9.12144 8.87809 9.08195 8.85959 9.04703C8.84388 9.00799 8.82055 8.97244 8.79095 8.94241C8.74061 8.88783 8.69027 8.8378 8.64451 8.79686C8.59874 8.75593 8.53925 8.71044 8.47976 8.66951C8.43427 8.62809 8.37643 8.60254 8.31502 8.59673C8.28175 8.59658 8.24881 8.60336 8.21834 8.61664C8.18787 8.62993 8.16054 8.64941 8.13812 8.67384C8.11569 8.69827 8.09867 8.72711 8.08815 8.75848C8.07764 8.78986 8.07386 8.82308 8.07706 8.85599C8.09376 8.9158 8.12522 8.97052 8.16858 9.01519L8.3196 9.15619L8.47976 9.29265C8.51342 9.31619 8.55044 9.33459 8.58959 9.34723C8.62809 9.36075 8.67008 9.36075 8.70857 9.34723C8.74398 9.33627 8.77565 9.31581 8.8001 9.2881H8.82298Z" fill="white"/>
<path d="M12.4838 6.92268C12.25 7.08586 11.9854 7.20035 11.7059 7.25926C11.497 7.30215 11.2804 7.288 11.0789 7.21833C10.9097 7.1612 10.7625 7.0531 10.6579 6.90903C10.6488 6.88405 10.6488 6.85669 10.6579 6.83171C10.6608 6.81737 10.6668 6.80383 10.6755 6.79205C10.6842 6.78026 10.6954 6.77051 10.7083 6.76348L11.2391 6.4178C11.2677 6.39433 11.3028 6.38005 11.3398 6.37686C11.3715 6.37036 11.4042 6.37036 11.4359 6.37686C11.4905 6.40534 11.5491 6.42528 11.6098 6.43599C11.6834 6.45447 11.7604 6.45447 11.834 6.43599C11.9293 6.41161 12.0193 6.36998 12.0994 6.31318C12.2329 6.23937 12.3436 6.13089 12.4198 5.99934C12.447 5.95645 12.4615 5.90678 12.4615 5.85606C12.4615 5.80534 12.447 5.75567 12.4198 5.71278C12.4021 5.6827 12.3776 5.65716 12.3482 5.6382C12.3188 5.61924 12.2853 5.6074 12.2505 5.60362C12.1547 5.59407 12.058 5.60493 11.9667 5.63546C11.8114 5.68194 11.6586 5.7366 11.5091 5.7992C11.295 5.88297 11.0726 5.94395 10.8456 5.98114C10.6568 6.01482 10.4622 5.99104 10.2873 5.91292C10.116 5.83073 9.97227 5.70119 9.87325 5.53984C9.77422 5.37848 9.72412 5.19216 9.72896 5.00322C9.7385 4.79609 9.80671 4.59585 9.92574 4.42557C10.1977 4.05125 10.5874 3.77759 11.0332 3.64778C11.199 3.61393 11.3696 3.61085 11.5366 3.63868C11.6771 3.65265 11.8137 3.69277 11.9393 3.75694C12.0436 3.80828 12.1344 3.88302 12.2047 3.97527C12.2115 4.0006 12.2115 4.02726 12.2047 4.05259C12.1976 4.06869 12.1866 4.08277 12.1727 4.09353L11.6189 4.45741C11.5899 4.47218 11.5577 4.47988 11.5251 4.47988C11.4925 4.47988 11.4603 4.47218 11.4313 4.45741C11.3984 4.43032 11.3605 4.40995 11.3196 4.39746C11.2788 4.38498 11.2359 4.38062 11.1933 4.38463C11.076 4.38931 10.9628 4.42893 10.8684 4.49834C10.7641 4.55711 10.6785 4.64378 10.6213 4.74851C10.6034 4.79204 10.5965 4.8393 10.6013 4.8861C10.6061 4.9329 10.6224 4.97781 10.6488 5.01687C10.6859 5.07054 10.7411 5.10926 10.8044 5.12603C10.8903 5.14506 10.9793 5.14506 11.0652 5.12603C11.2106 5.0902 11.3529 5.04305 11.4908 4.98503C11.7271 4.88317 11.9743 4.8084 12.2276 4.76215C12.4031 4.72436 12.5862 4.74273 12.7506 4.81462C12.915 4.88652 13.0523 5.00826 13.1428 5.16242C13.2628 5.33703 13.3178 5.54772 13.2984 5.75827C13.2786 5.97818 13.1996 6.18874 13.0696 6.36776C12.9108 6.5874 12.7122 6.77561 12.4838 6.92268Z" fill="white"/>
<path d="M14.1863 5.79929C14.1744 5.80607 14.161 5.80965 14.1474 5.80965C14.1337 5.80965 14.1203 5.80607 14.1085 5.79929C14.095 5.79533 14.0826 5.78836 14.0723 5.77889C14.062 5.76943 14.054 5.75773 14.049 5.74471V5.70377L13.8385 2.27422C13.8343 2.23489 13.8423 2.19524 13.8613 2.16051C13.8716 2.1384 13.8861 2.11856 13.9042 2.10215C13.9223 2.08575 13.9435 2.07311 13.9666 2.06499L14.6439 1.79209C14.6879 1.77438 14.7371 1.77438 14.7812 1.79209C14.8185 1.80399 14.8518 1.82605 14.8773 1.85576L17.2294 4.35287C17.2327 4.36632 17.2327 4.38036 17.2294 4.39381C17.2363 4.40557 17.2399 4.4189 17.2399 4.43247C17.2399 4.44605 17.2363 4.45938 17.2294 4.47113C17.2247 4.48483 17.2169 4.49727 17.2066 4.50751C17.1962 4.51776 17.1837 4.52554 17.1699 4.53026L16.6025 4.77133C16.5839 4.7802 16.5636 4.78481 16.543 4.78481C16.5224 4.78481 16.5021 4.7802 16.4835 4.77133C16.4565 4.76283 16.4316 4.7489 16.4103 4.7304L16.0305 4.33468L14.7949 4.85775L14.8178 5.40357C14.8214 5.42922 14.8214 5.45525 14.8178 5.48089C14.8089 5.50082 14.7957 5.51851 14.7791 5.53268C14.7624 5.54685 14.7428 5.55713 14.7217 5.56277L14.1863 5.79929ZM14.7308 4.09361L15.5912 3.72973L14.6439 2.72907L14.7308 4.09361Z" fill="white"/>
<path d="M18.076 4.28932C18.0608 4.29596 18.0445 4.29939 18.0279 4.29939C18.0114 4.29939 17.995 4.29596 17.9799 4.28932C17.9529 4.27088 17.9334 4.24345 17.925 4.21199L17.1973 1.02806C17.1904 1.01309 17.1868 0.996798 17.1868 0.980304C17.1868 0.96381 17.1904 0.947514 17.1973 0.932545C17.206 0.918785 17.2174 0.906875 17.2307 0.897506C17.2441 0.888137 17.2592 0.881494 17.2751 0.877963L19.5495 0.359438C19.5647 0.352796 19.581 0.349365 19.5976 0.349365C19.6141 0.349365 19.6305 0.352796 19.6456 0.359438C19.6739 0.378667 19.6935 0.408001 19.7005 0.44131L19.8104 0.932545C19.8173 0.947514 19.8209 0.96381 19.8209 0.980304C19.8209 0.996798 19.8173 1.01309 19.8104 1.02806C19.8017 1.04182 19.7903 1.05373 19.777 1.0631C19.7636 1.07247 19.7485 1.07911 19.7326 1.08264L18.2133 1.42833L18.3826 2.14699L19.7829 1.8195C19.798 1.81257 19.8144 1.80898 19.831 1.80898C19.8476 1.80898 19.864 1.81257 19.879 1.8195C19.8939 1.82859 19.9067 1.8405 19.917 1.85455C19.9272 1.8686 19.9345 1.88451 19.9385 1.90137L20.0483 2.3926C20.0549 2.40688 20.0583 2.42239 20.0583 2.43809C20.0583 2.45379 20.0549 2.4693 20.0483 2.48357C20.0396 2.49867 20.0277 2.51175 20.0135 2.52194C19.9993 2.53214 19.9831 2.53921 19.966 2.5427L18.5519 2.86564L18.8036 3.96637C18.8119 3.98914 18.8124 4.014 18.8049 4.03706C18.7975 4.06011 18.7825 4.08005 18.7624 4.09373C18.7537 4.10883 18.7418 4.12191 18.7276 4.1321C18.7134 4.1423 18.6972 4.14937 18.68 4.15286L18.076 4.28932Z" fill="white"/>
<path d="M21.3847 3.6388C21.3512 3.64005 21.3185 3.62867 21.2932 3.60696C21.2706 3.58321 21.2562 3.55295 21.252 3.52054L21.0506 0.268388C21.0494 0.235134 21.0608 0.20264 21.0827 0.177418C21.1083 0.15211 21.1427 0.137469 21.1788 0.136482L23.5264 2.78442e-05C23.543 -0.00107388 23.5597 0.00117887 23.5754 0.00665055C23.5911 0.0121222 23.6056 0.0206998 23.6179 0.0318671C23.6307 0.0424355 23.641 0.055641 23.6481 0.0705653C23.6552 0.0854896 23.6589 0.101775 23.6591 0.118288L23.6865 0.573135C23.6883 0.589351 23.6867 0.605746 23.682 0.621365C23.6773 0.636983 23.6695 0.651513 23.6591 0.664104C23.648 0.677393 23.6339 0.687987 23.6181 0.695081C23.6022 0.702174 23.5849 0.70558 23.5676 0.705041L21.9659 0.814204L22.0071 1.48738L23.4989 1.40096C23.5156 1.39895 23.5325 1.40077 23.5484 1.40629C23.5643 1.41181 23.5786 1.42088 23.5904 1.4328C23.6156 1.45659 23.6304 1.48925 23.6316 1.52377L23.6591 1.95587C23.6603 1.98912 23.6489 2.02162 23.627 2.04684C23.6169 2.06004 23.6037 2.07064 23.5886 2.07776C23.5734 2.08488 23.5568 2.08831 23.5401 2.08778L22.0482 2.17874L22.0894 2.87011L23.7323 2.77459C23.7489 2.77349 23.7656 2.77575 23.7813 2.78122C23.7971 2.78669 23.8115 2.79527 23.8238 2.80643C23.8479 2.82911 23.8626 2.85994 23.865 2.89285L23.8925 3.3477C23.8929 3.38082 23.8815 3.41303 23.8604 3.43867C23.8505 3.45216 23.8374 3.46298 23.8222 3.47013C23.807 3.47728 23.7903 3.48054 23.7735 3.47961L21.3847 3.6388Z" fill="white"/>
<path d="M27.2834 3.87985C27.0547 3.84171 26.8356 3.75984 26.6382 3.63878C26.4722 3.52686 26.3432 3.3686 26.2675 3.18393C26.1883 3.00519 26.169 2.80584 26.2126 2.61537C26.2365 2.48327 26.2914 2.35861 26.3728 2.2515C26.4537 2.14803 26.5529 2.06016 26.6657 1.99223C26.79 1.9204 26.922 1.86243 27.0592 1.81939C26.9745 1.68535 26.9097 1.5398 26.867 1.38729C26.8319 1.25405 26.8302 1.11429 26.8621 0.980265C26.8941 0.84624 26.9586 0.72205 27.0501 0.618595C27.1622 0.504083 27.3026 0.420938 27.4573 0.377526C27.6588 0.32891 27.8691 0.32891 28.0706 0.377526C28.2662 0.409504 28.4513 0.487476 28.6106 0.60495C28.7385 0.70326 28.838 0.833523 28.8989 0.982473C28.9568 1.12698 28.9696 1.2855 28.9355 1.43732C28.9162 1.56309 28.8623 1.68114 28.7799 1.77846C28.697 1.87499 28.5979 1.95655 28.487 2.01952C28.3575 2.092 28.2211 2.15143 28.0797 2.19691L28.5373 2.89283L28.6838 2.71544C28.7688 2.61221 28.841 2.49921 28.8989 2.37885C28.9029 2.36798 28.9091 2.35803 28.9171 2.34959C28.9251 2.34115 28.9347 2.3344 28.9454 2.32973C28.9561 2.32506 28.9676 2.32258 28.9792 2.32242C28.9909 2.32226 29.0025 2.32444 29.0133 2.32882L29.5121 2.42434C29.525 2.42536 29.5376 2.42911 29.549 2.43533C29.5603 2.44156 29.5703 2.45011 29.578 2.46044C29.5858 2.47076 29.5913 2.48262 29.5942 2.49522C29.597 2.50781 29.5971 2.52086 29.5944 2.5335C29.5752 2.60759 29.5443 2.6782 29.5029 2.74273C29.4533 2.82906 29.3967 2.91121 29.3336 2.98835C29.265 3.07022 29.1917 3.15209 29.1185 3.22487L28.8989 3.425L29.3565 4.08908C29.3664 4.11391 29.3664 4.14157 29.3565 4.1664C29.3526 4.19015 29.3395 4.21141 29.3199 4.22553C29.2964 4.23514 29.2701 4.23514 29.2466 4.22553L28.6197 4.09363C28.5921 4.08751 28.5658 4.07674 28.5419 4.06179C28.5294 4.04701 28.5156 4.03331 28.5007 4.02085L28.3177 3.76614C28.1672 3.84665 28.0025 3.89761 27.8326 3.91624C27.6487 3.9308 27.4637 3.91854 27.2834 3.87985ZM27.407 3.25671C27.5011 3.27033 27.5967 3.27033 27.6907 3.25671C27.7816 3.24968 27.8703 3.22495 27.9516 3.18393L27.4207 2.3925C27.3244 2.41881 27.2343 2.46362 27.1553 2.5244C27.0786 2.56991 27.0228 2.64334 26.9997 2.72909C26.9739 2.80739 26.9739 2.89185 26.9997 2.97015C27.037 3.03914 27.0885 3.09957 27.1507 3.14754C27.2253 3.20524 27.3136 3.24284 27.407 3.25671ZM27.7639 1.63745C27.8403 1.61653 27.9152 1.5907 27.9882 1.56013C28.0496 1.53387 28.1066 1.49861 28.1575 1.45551C28.201 1.41349 28.2313 1.35974 28.2445 1.30087C28.2538 1.26091 28.2542 1.21937 28.2455 1.17926C28.2368 1.13915 28.2192 1.10145 28.1941 1.06889C28.1398 1.0034 28.0633 0.959758 27.979 0.946085C27.8979 0.928395 27.8131 0.941367 27.7411 0.982473C27.7029 1.00195 27.6701 1.03034 27.6454 1.06519C27.6207 1.10005 27.6048 1.14034 27.5992 1.18261C27.5924 1.22326 27.5924 1.26476 27.5992 1.30541C27.6098 1.35584 27.6267 1.40474 27.6495 1.45097C27.6823 1.51624 27.7206 1.57862 27.7639 1.63745Z" fill="white"/>
<path d="M32.5507 5.54921C32.29 5.43431 32.0551 5.26885 31.8597 5.06252C31.7176 4.90732 31.6197 4.71738 31.5759 4.51215C31.5374 4.33722 31.5534 4.15478 31.6217 3.98908C31.6361 3.96481 31.659 3.94673 31.6861 3.93832C31.7132 3.92992 31.7424 3.9318 31.7681 3.9436L32.3402 4.21196C32.3763 4.22615 32.4069 4.2517 32.4271 4.28473C32.4448 4.31093 32.4572 4.34028 32.4637 4.37115C32.4628 4.43139 32.4721 4.49136 32.4912 4.54854C32.5198 4.61917 32.5636 4.68279 32.6193 4.73503C32.6908 4.80221 32.7727 4.8575 32.8618 4.89877C33.0018 4.97492 33.1601 5.01113 33.3195 5.00339C33.3699 5.00074 33.4187 4.98453 33.4606 4.95649C33.5025 4.92846 33.536 4.88965 33.5574 4.84419C33.5722 4.81286 33.5798 4.7787 33.5798 4.74413C33.5798 4.70955 33.5722 4.67539 33.5574 4.64406C33.5132 4.55756 33.4526 4.48034 33.379 4.41664C33.2874 4.33476 33.1593 4.23015 32.9991 4.10734C32.8106 3.97313 32.6399 3.81571 32.4912 3.63885C32.3766 3.51005 32.2991 3.35291 32.2669 3.184C32.2425 3.00246 32.2761 2.81789 32.363 2.65638C32.4443 2.47909 32.5806 2.33241 32.752 2.23792C32.9372 2.13922 33.1463 2.09355 33.3561 2.10601C33.6061 2.11242 33.8522 2.1697 34.0791 2.27431C34.2705 2.35662 34.4456 2.47214 34.5962 2.61544C34.7188 2.73177 34.8195 2.86884 34.8937 3.02026C34.9534 3.14794 34.9905 3.28487 35.0035 3.42507C35.0148 3.5401 34.9959 3.65606 34.9486 3.76166C34.9447 3.77454 34.9376 3.78626 34.928 3.79578C34.9184 3.8053 34.9067 3.81233 34.8937 3.81624C34.8813 3.8239 34.8671 3.82796 34.8525 3.82796C34.8379 3.82796 34.8237 3.8239 34.8113 3.81624L34.2118 3.53423C34.1809 3.52212 34.1539 3.50164 34.134 3.4751C34.1146 3.44987 34.102 3.42012 34.0974 3.38868C34.1077 3.30238 34.0866 3.21525 34.0379 3.14307C33.971 3.04704 33.8771 2.97269 33.7679 2.92929C33.6578 2.86873 33.5316 2.84332 33.4064 2.85651C33.3594 2.86121 33.3146 2.8785 33.2767 2.90653C33.2388 2.93457 33.2093 2.9723 33.1913 3.01571C33.1685 3.0758 33.1685 3.14211 33.1913 3.2022C33.222 3.28665 33.274 3.36183 33.3424 3.42052C33.4504 3.52332 33.565 3.61904 33.6856 3.70708C33.8977 3.85318 34.0913 4.02423 34.2622 4.2165C34.3804 4.34342 34.4598 4.5012 34.491 4.67135C34.5112 4.84983 34.4777 5.03025 34.3949 5.18988C34.3074 5.3855 34.1558 5.54585 33.9647 5.64472C33.7619 5.73848 33.5374 5.77619 33.3149 5.75389C33.0493 5.73485 32.7899 5.66537 32.5507 5.54921Z" fill="white"/>
<path d="M34.6968 6.62715C34.6818 6.61775 34.669 6.6051 34.6595 6.59014C34.65 6.57519 34.644 6.5583 34.6419 6.54073C34.6311 6.51137 34.6311 6.47913 34.6419 6.44976L36.5319 3.79346C36.5407 3.78019 36.5521 3.76888 36.5655 3.76026C36.5789 3.75164 36.5939 3.74591 36.6097 3.74342C36.6247 3.73618 36.6411 3.73242 36.6578 3.73242C36.6744 3.73242 36.6908 3.73618 36.7058 3.74342L38.6232 5.10796C38.6376 5.11711 38.6499 5.12911 38.6593 5.1432C38.6688 5.15728 38.6752 5.17316 38.6782 5.18984C38.6847 5.20411 38.6881 5.21962 38.6881 5.23532C38.6881 5.25102 38.6847 5.26653 38.6782 5.28081L38.4036 5.66743C38.385 5.69426 38.3574 5.71362 38.3258 5.72201C38.2914 5.72571 38.2569 5.71591 38.2297 5.69472L36.9209 4.78502L36.5273 5.33539L37.7492 6.19505C37.7631 6.20422 37.7748 6.21631 37.7835 6.23045C37.7922 6.24459 37.7976 6.26045 37.7995 6.27692C37.81 6.30791 37.81 6.34145 37.7995 6.37244L37.5433 6.72722C37.5345 6.74049 37.5231 6.7518 37.5097 6.76042C37.4963 6.76903 37.4812 6.77477 37.4655 6.77725C37.4503 6.78363 37.4339 6.78692 37.4174 6.78692C37.4009 6.78692 37.3846 6.78363 37.3694 6.77725L36.1246 5.91304L35.7219 6.4816L37.0673 7.40949C37.0807 7.41818 37.0921 7.42954 37.1007 7.44286C37.1094 7.45618 37.1152 7.47115 37.1177 7.48681C37.125 7.50169 37.1287 7.51803 37.1287 7.53457C37.1287 7.55112 37.125 7.56745 37.1177 7.58233L36.8477 7.9644C36.8274 7.99155 36.7983 8.01085 36.7653 8.01898C36.7486 8.0217 36.7315 8.02109 36.715 8.01719C36.6985 8.01328 36.6829 8.00617 36.6692 7.99624L34.6968 6.62715Z" fill="white"/>
<path d="M38.3578 9.64729C38.1591 9.45404 38.0033 9.22165 37.9002 8.96502C37.8149 8.74289 37.799 8.50038 37.8545 8.26911C37.9182 8.014 38.0512 7.78116 38.2389 7.59593C38.335 7.49587 38.4356 7.39125 38.55 7.28209L38.875 6.96824C39.0646 6.78803 39.2979 6.65956 39.5522 6.59527C39.7875 6.54513 40.0324 6.56409 40.257 6.64985C40.515 6.7501 40.7477 6.90536 40.9388 7.1047C41.0866 7.24894 41.2116 7.41456 41.3095 7.59593C41.4019 7.7558 41.4625 7.93184 41.488 8.11446C41.5161 8.28535 41.5034 8.46042 41.4509 8.62554C41.3985 8.79066 41.3077 8.94122 41.186 9.06509C41.177 9.07555 41.1657 9.08385 41.153 9.08937C41.1403 9.09488 41.1266 9.09747 41.1127 9.09693C41.0979 9.09664 41.0833 9.09326 41.0699 9.08699C41.0565 9.08072 41.0446 9.0717 41.0349 9.06054L40.5773 8.58295C40.5494 8.55952 40.53 8.52752 40.5224 8.49198C40.5224 8.45187 40.5334 8.41253 40.5544 8.37827C40.6407 8.25682 40.6752 8.10643 40.6505 7.95981C40.6159 7.82871 40.5463 7.7093 40.4492 7.61413C40.34 7.49605 40.1892 7.42437 40.0282 7.41399C39.8427 7.42729 39.6693 7.51023 39.5431 7.64597C39.3417 7.83245 39.1404 8.02804 38.9436 8.23727C38.8042 8.36108 38.7188 8.53404 38.7056 8.7194C38.709 8.79861 38.7281 8.87637 38.7619 8.94819C38.7957 9.02002 38.8434 9.08448 38.9024 9.13786C38.9961 9.23797 39.1169 9.30904 39.2502 9.34254C39.3222 9.35574 39.3962 9.35449 39.4677 9.33887C39.5392 9.32325 39.6068 9.29357 39.6666 9.25157C39.6998 9.22794 39.7403 9.21667 39.7811 9.21973C39.8172 9.22625 39.8498 9.24566 39.8726 9.27432L40.3302 9.75191C40.3408 9.76174 40.3492 9.77374 40.3547 9.78708C40.3603 9.80043 40.3628 9.81481 40.3622 9.82923C40.3628 9.84298 40.3602 9.85667 40.3546 9.86928C40.3491 9.88188 40.3407 9.89307 40.3302 9.902C40.201 10.0259 40.0442 10.1178 39.8726 10.1704C39.7091 10.2175 39.5373 10.2283 39.3692 10.2022C39.1862 10.1691 39.0109 10.1028 38.8521 10.0066C38.6706 9.91148 38.504 9.79042 38.3578 9.64729Z" fill="white"/>
<path d="M40.7696 12.5628C40.6103 12.3427 40.4995 12.0916 40.4447 11.826C40.3975 11.5942 40.4264 11.3535 40.5271 11.1392C40.6513 10.894 40.8413 10.6878 41.0762 10.5433L42.774 9.40166C42.7871 9.39067 42.8026 9.38289 42.8193 9.37894C42.836 9.375 42.8534 9.37499 42.8701 9.37892C42.8869 9.38188 42.9028 9.38826 42.917 9.39765C42.9312 9.40704 42.9433 9.41925 42.9525 9.4335L43.314 9.96567C43.3272 9.99773 43.3272 10.0337 43.314 10.0657C43.3115 10.0814 43.3057 10.0964 43.297 10.1097C43.2884 10.123 43.277 10.1344 43.2636 10.1431L41.5659 11.2893C41.4099 11.3752 41.2947 11.5192 41.2455 11.6895C41.231 11.7691 41.2336 11.8508 41.2534 11.9292C41.2731 12.0077 41.3094 12.081 41.3599 12.1444C41.4014 12.2131 41.4564 12.2727 41.5217 12.3196C41.587 12.3665 41.6612 12.3997 41.7398 12.4173C41.8315 12.431 41.9251 12.426 42.0148 12.4025C42.1045 12.3791 42.1884 12.3377 42.2614 12.2808L43.9546 11.1392C43.9699 11.1328 43.9862 11.1295 44.0027 11.1295C44.0192 11.1295 44.0355 11.1328 44.0507 11.1392C44.0664 11.1419 44.0814 11.1478 44.0947 11.1564C44.1081 11.165 44.1196 11.1761 44.1285 11.1892L44.4992 11.7305C44.5105 11.7598 44.5105 11.7922 44.4992 11.8214C44.4975 11.8385 44.4916 11.8549 44.482 11.8692C44.4725 11.8835 44.4595 11.8952 44.4443 11.9033L42.7465 13.0495C42.5253 13.2107 42.2645 13.3096 41.9915 13.3361C41.7538 13.351 41.5177 13.2887 41.3187 13.1587C41.0941 13.0024 40.9066 12.799 40.7696 12.5628Z" fill="white"/>
<path d="M42.1378 14.6962C42.1311 14.6811 42.1277 14.6649 42.1277 14.6484C42.1277 14.632 42.1311 14.6157 42.1378 14.6007C42.1501 14.5709 42.1729 14.5467 42.2019 14.5324L45.2039 13.2361C45.235 13.225 45.2689 13.225 45.3 13.2361C45.331 13.249 45.3556 13.2735 45.3686 13.3043L45.9178 14.5552C46.0846 14.8807 46.1316 15.2541 46.0505 15.6104C46.0066 15.7637 45.9269 15.9045 45.818 16.0215C45.709 16.1384 45.5739 16.2282 45.4236 16.2836C45.2304 16.3765 45.0131 16.4083 44.8012 16.3746C44.6054 16.3357 44.4245 16.2426 44.2795 16.1062L43.4146 17.2251C43.4045 17.2408 43.3903 17.2534 43.3734 17.2615C43.3467 17.2705 43.3177 17.2705 43.291 17.2615C43.2661 17.2497 43.2454 17.2307 43.2315 17.2069L42.9661 16.5974C42.9552 16.5747 42.9495 16.5499 42.9495 16.5247C42.9495 16.4995 42.9552 16.4746 42.9661 16.4519C42.9805 16.418 42.9989 16.3859 43.021 16.3564L43.8081 15.3921L43.6022 14.9372L42.5771 15.3921C42.5629 15.3989 42.5472 15.4025 42.5314 15.4025C42.5155 15.4025 42.4999 15.3989 42.4856 15.3921C42.4685 15.3865 42.453 15.3771 42.4402 15.3644C42.4275 15.3518 42.418 15.3363 42.4124 15.3193L42.1378 14.6962ZM44.2475 14.6325L44.4763 15.1601C44.5186 15.2814 44.6074 15.3811 44.7234 15.4376C44.7762 15.46 44.833 15.4715 44.8904 15.4715C44.9478 15.4715 45.0047 15.46 45.0575 15.4376C45.1693 15.3914 45.2581 15.3031 45.3046 15.192C45.3245 15.1308 45.332 15.0663 45.3265 15.0023C45.321 14.9382 45.3026 14.8759 45.2725 14.819L45.0391 14.2914L44.2475 14.6325Z" fill="white"/>
<path d="M43.5199 18.1438C43.5132 18.1288 43.5098 18.1125 43.5098 18.0961C43.5098 18.0796 43.5132 18.0634 43.5199 18.0483C43.5384 18.0215 43.566 18.0021 43.5977 17.9937L46.801 17.2432C46.8162 17.2366 46.8326 17.2332 46.8491 17.2332C46.8656 17.2332 46.882 17.2366 46.8972 17.2432C46.9114 17.2514 46.9236 17.2626 46.9331 17.2759C46.9426 17.2893 46.949 17.3045 46.9521 17.3206L47.4966 19.5948C47.5036 19.6098 47.5072 19.6261 47.5072 19.6425C47.5072 19.659 47.5036 19.6753 47.4966 19.6903C47.4773 19.7184 47.4478 19.7379 47.4143 19.7449L46.9566 19.854C46.9416 19.861 46.9252 19.8646 46.9086 19.8646C46.892 19.8646 46.8756 19.861 46.8605 19.854C46.8323 19.8348 46.8126 19.8055 46.8056 19.7722L46.4304 18.2211L45.7622 18.3758L46.11 19.8222C46.117 19.8372 46.1206 19.8535 46.1206 19.87C46.1206 19.8865 46.117 19.9028 46.11 19.9177C46.1013 19.9328 46.0895 19.9459 46.0753 19.9561C46.0611 19.9663 46.0448 19.9734 46.0277 19.9769L45.6021 20.0769C45.5726 20.0881 45.54 20.0881 45.5106 20.0769C45.4954 20.0682 45.4822 20.0565 45.4719 20.0423C45.4617 20.0282 45.4546 20.0121 45.4511 19.995L45.1033 18.5532L44.3894 18.6987L44.7738 20.2907C44.7808 20.3057 44.7844 20.322 44.7844 20.3385C44.7844 20.355 44.7808 20.3712 44.7738 20.3862C44.7544 20.4143 44.7249 20.4338 44.6914 20.4408L44.2338 20.55C44.2187 20.5566 44.2023 20.56 44.1857 20.56C44.1692 20.56 44.1528 20.5566 44.1377 20.55C44.1238 20.5413 44.1119 20.53 44.1024 20.5168C44.093 20.5035 44.0863 20.4885 44.0828 20.4726L43.5199 18.1438Z" fill="white"/>
<path d="M43.8997 28.2324C43.903 28.2164 43.9096 28.2013 43.919 28.188C43.9285 28.1747 43.9406 28.1635 43.9546 28.1551C43.9697 28.1481 43.9861 28.1446 44.0027 28.1446C44.0192 28.1446 44.0356 28.1481 44.0507 28.1551L46.3983 28.6099L46.0139 27.8321C46.0072 27.8171 46.0038 27.8008 46.0038 27.7844C46.0038 27.7679 46.0072 27.7517 46.0139 27.7366C46.0288 27.7055 46.0549 27.6811 46.0871 27.6684L46.5447 27.4546C46.5774 27.4435 46.6128 27.4435 46.6454 27.4546C46.6625 27.4602 46.6781 27.4696 46.6908 27.4823C46.7035 27.4949 46.713 27.5104 46.7186 27.5274L47.3639 28.8328C47.3654 28.854 47.3654 28.8753 47.3639 28.8965C47.366 28.9176 47.366 28.939 47.3639 28.9601L47.222 29.5651C47.2201 29.5816 47.2147 29.5974 47.206 29.6116C47.1973 29.6257 47.1856 29.6378 47.1717 29.647C47.1566 29.6539 47.1402 29.6575 47.1236 29.6575C47.107 29.6575 47.0906 29.6539 47.0756 29.647L43.8722 29.0011C43.8406 28.9927 43.813 28.9733 43.7944 28.9465C43.7864 28.9318 43.7822 28.9154 43.7822 28.8987C43.7822 28.8821 43.7864 28.8656 43.7944 28.851L43.8997 28.2324Z" fill="white"/>
<path d="M43.0164 31.1525C43.089 30.9537 43.1958 30.769 43.3322 30.6067C43.4485 30.4746 43.5921 30.3691 43.7532 30.2974C43.9076 30.2303 44.0744 30.1962 44.2429 30.1973C44.42 30.1978 44.5959 30.2254 44.7646 30.2792L45.0574 30.3792C45.1673 30.4156 45.2771 30.4566 45.3869 30.502L45.6844 30.6203C45.8513 30.6889 46.0059 30.7842 46.142 30.9023C46.2662 31.0126 46.366 31.1473 46.4349 31.298C46.5057 31.4585 46.5416 31.6322 46.5401 31.8074C46.5398 32.0163 46.4994 32.2231 46.4212 32.4169C46.3501 32.6164 46.2431 32.8014 46.1054 32.9628C45.9923 33.0944 45.8518 33.1999 45.6935 33.2721C45.5392 33.3404 45.3728 33.3775 45.2039 33.3812C45.0269 33.3839 44.8507 33.3577 44.6822 33.3039L44.3481 33.2038L44.0186 33.081L43.7303 32.9673C43.564 32.8976 43.4095 32.8024 43.2727 32.6853C43.1468 32.5745 43.0441 32.44 42.9707 32.2896C42.8957 32.1318 42.8582 31.9591 42.8609 31.7847C42.8708 31.5659 42.9237 31.3511 43.0164 31.1525ZM43.6983 31.4072C43.6695 31.4734 43.657 31.5455 43.6618 31.6174C43.6666 31.6894 43.6885 31.7592 43.7258 31.8211C43.8228 31.949 43.9569 32.0443 44.1102 32.094L44.3893 32.2123L44.6913 32.326C44.792 32.3624 44.8881 32.3942 44.9751 32.4169C45.1196 32.4775 45.2796 32.4918 45.4327 32.4579C45.5001 32.4338 45.5615 32.3955 45.6125 32.3456C45.6636 32.2956 45.7031 32.2353 45.7283 32.1686C45.7536 32.102 45.7639 32.0307 45.7587 31.9597C45.7535 31.8887 45.7328 31.8197 45.6981 31.7574C45.6028 31.6306 45.4724 31.5342 45.3229 31.48L45.03 31.3844L44.7279 31.2707L44.4396 31.1661C44.2935 31.1116 44.135 31.099 43.982 31.1297C43.9115 31.1466 43.8465 31.1808 43.7929 31.2293C43.7393 31.2778 43.6989 31.339 43.6754 31.4072H43.6983Z" fill="white"/>
<path d="M41.4056 34.4364C41.5123 34.2522 41.6518 34.0888 41.8175 33.9543C41.9527 33.8471 42.1084 33.7682 42.2751 33.7223C42.4412 33.6883 42.6125 33.6883 42.7785 33.7223C42.9531 33.7525 43.1216 33.8109 43.2773 33.8952L43.5473 34.0453L43.8493 34.2227L44.1193 34.3955C44.2677 34.4918 44.3991 34.6116 44.5083 34.7503C44.614 34.8842 44.6889 35.0394 44.728 35.2051C44.765 35.376 44.765 35.5528 44.728 35.7237C44.6852 35.9284 44.6062 36.124 44.4946 36.3013C44.3899 36.4764 44.2533 36.6307 44.0919 36.7562C43.9585 36.8672 43.8023 36.9479 43.6342 36.9927C43.4695 37.0246 43.3002 37.0246 43.1354 36.9927C42.9668 36.9685 42.803 36.9178 42.6504 36.8426L42.3712 36.6879L42.0692 36.506L41.8083 36.3423C41.66 36.2459 41.5286 36.1261 41.4194 35.9875C41.3123 35.8533 41.2359 35.6975 41.1956 35.5309C41.1553 35.3644 41.152 35.1911 41.186 35.0232C41.2245 34.8165 41.2989 34.6179 41.4056 34.4364ZM42.0326 34.8094C41.9923 34.8689 41.9668 34.937 41.958 35.0081C41.9493 35.0792 41.9576 35.1514 41.9822 35.2188C42.0566 35.3605 42.1712 35.4776 42.3117 35.5554C42.3941 35.6099 42.4765 35.6691 42.568 35.7237L42.8471 35.8874C42.9387 35.942 43.0256 35.9875 43.108 36.0284C43.2447 36.114 43.4041 36.1568 43.5656 36.1512C43.6383 36.144 43.708 36.1185 43.768 36.0771C43.8281 36.0358 43.8765 35.9799 43.9088 35.9147C43.9506 35.8558 43.9763 35.7871 43.9835 35.7154C43.9907 35.6437 43.9792 35.5713 43.95 35.5053C43.8785 35.366 43.7691 35.2494 43.6342 35.1687L43.3688 35.0232L43.0943 34.8595L42.8288 34.7048C42.6916 34.6208 42.5322 34.5796 42.3712 34.5865C42.3003 34.5919 42.232 34.6152 42.1727 34.6542C42.1134 34.6932 42.0652 34.7466 42.0326 34.8094Z" fill="white"/>
<path d="M38.3578 38.4256C38.4849 38.2723 38.6639 38.1704 38.8612 38.1391C39.0458 38.1221 39.2298 38.1776 39.3738 38.2937L39.5477 38.4438C39.5995 38.4863 39.659 38.5409 39.7261 38.6076C39.7955 38.6733 39.8507 38.7524 39.8884 38.8399C39.9262 38.9275 39.9457 39.0217 39.9458 39.117C39.9365 39.3178 39.8516 39.5078 39.7078 39.6492C39.5832 39.8083 39.4009 39.9128 39.1999 39.9403C39.1085 39.9484 39.0164 39.938 38.9291 39.9099C38.8418 39.8818 38.7611 39.8364 38.6919 39.7765C38.6141 39.7174 38.5546 39.6674 38.5043 39.6219C38.4539 39.5764 38.399 39.5264 38.335 39.4627C38.2694 39.3995 38.2174 39.3239 38.182 39.2402C38.1466 39.1566 38.1286 39.0667 38.129 38.976C38.1303 38.7699 38.2124 38.5725 38.3578 38.4256ZM38.6919 38.7167C38.6571 38.7511 38.6346 38.7958 38.6278 38.8441C38.6187 38.8815 38.6187 38.9204 38.6278 38.9578C38.6453 38.9959 38.6684 39.0312 38.6965 39.0624C38.7468 39.117 38.8017 39.167 38.8475 39.208L39.0077 39.3399C39.0571 39.3778 39.1153 39.4028 39.177 39.4127C39.2104 39.4134 39.2435 39.4063 39.2737 39.3921C39.3038 39.3779 39.3303 39.3569 39.3509 39.3308C39.3753 39.3078 39.3935 39.2791 39.4039 39.2473C39.4143 39.2156 39.4165 39.1817 39.4104 39.1488C39.3955 39.0883 39.3638 39.0331 39.3189 38.9896L39.1678 38.8486L39.0077 38.7122C38.9751 38.6895 38.9397 38.6712 38.9024 38.6576C38.8636 38.6462 38.8223 38.6462 38.7834 38.6576C38.7483 38.6692 38.7168 38.6895 38.6919 38.7167ZM40.0648 36.5699C40.1151 36.5107 40.1655 36.5062 40.2158 36.5471C40.2302 36.5622 40.2398 36.5812 40.2433 36.6017L41.0212 40.6089C41.0255 40.6421 41.0255 40.6758 41.0212 40.709C41.0148 40.7452 40.9972 40.7786 40.9709 40.8045L40.7329 41.0683C40.678 41.1274 40.6277 41.132 40.5773 41.0683C40.5621 41.0557 40.5523 41.0378 40.5499 41.0183L39.7719 37.0065C39.7698 36.9747 39.7698 36.9428 39.7719 36.911C39.7801 36.8854 39.7942 36.862 39.8131 36.8428L40.0648 36.5699ZM41.0944 38.0254C41.2198 37.8693 41.3994 37.7655 41.5978 37.7343C41.6879 37.7251 41.7789 37.734 41.8654 37.7606C41.9519 37.7871 42.0321 37.8308 42.1012 37.8889C42.1627 37.9331 42.2208 37.9817 42.2751 38.0345L42.4536 38.2028C42.5196 38.2608 42.5734 38.3313 42.6119 38.4102C42.6504 38.489 42.6728 38.5747 42.6778 38.6622C42.673 38.8657 42.5894 39.0596 42.4444 39.2034C42.3159 39.3604 42.1332 39.4642 41.9319 39.4945C41.7483 39.5068 41.5673 39.4463 41.4285 39.3262C41.3553 39.2717 41.2912 39.2171 41.2454 39.1761C41.1997 39.1352 41.1356 39.0761 41.0761 39.0124C41.0097 38.9507 40.9567 38.876 40.9205 38.7931C40.8843 38.7101 40.8656 38.6207 40.8656 38.5303C40.8811 38.3399 40.9637 38.161 41.099 38.0254H41.0944ZM41.4239 38.3165C41.3898 38.3476 41.3672 38.3893 41.3598 38.4347C41.3484 38.4733 41.3484 38.5144 41.3598 38.553C41.3774 38.5895 41.4023 38.622 41.4331 38.6485C41.488 38.7076 41.5337 38.7531 41.5841 38.7986C41.6347 38.8444 41.6882 38.8869 41.7443 38.926C41.7927 38.9655 41.8514 38.9908 41.9136 38.9987C41.9468 39.0015 41.9801 38.9959 42.0106 38.9824C42.041 38.9689 42.0674 38.9479 42.0875 38.9214C42.1119 38.8984 42.1301 38.8698 42.1405 38.838C42.1509 38.8062 42.1531 38.7723 42.147 38.7395C42.1303 38.6797 42.0988 38.625 42.0554 38.5803C42.0051 38.5303 41.9548 38.4802 41.9044 38.4393L41.7443 38.3028C41.7117 38.2802 41.6763 38.2618 41.639 38.2482C41.6005 38.2347 41.5585 38.2347 41.52 38.2482C41.4834 38.2615 41.4515 38.2852 41.4285 38.3165H41.4239Z" fill="white"/>
<path d="M35.008 41.0773C35.2423 40.9149 35.5068 40.8005 35.786 40.7407C35.9946 40.6986 36.2107 40.7111 36.4129 40.7771C36.5824 40.8363 36.7294 40.9459 36.834 41.091C36.8408 41.1027 36.8444 41.1161 36.8444 41.1296C36.8444 41.1432 36.8408 41.1566 36.834 41.1683C36.8319 41.1823 36.8267 41.1957 36.8188 41.2075C36.8109 41.2193 36.8004 41.2293 36.7882 41.2365L36.2573 41.5822C36.2272 41.606 36.1905 41.6203 36.1521 41.6232C36.1219 41.6292 36.0908 41.6292 36.0606 41.6232C36.0057 41.5954 35.9472 41.5754 35.8867 41.564C35.8131 41.5455 35.736 41.5455 35.6624 41.564C35.5657 41.5883 35.4742 41.6299 35.3924 41.6868C35.2611 41.7618 35.1521 41.8701 35.0767 42.0007C35.0509 42.0441 35.0373 42.0936 35.0373 42.144C35.0373 42.1943 35.0509 42.2438 35.0767 42.2872C35.0949 42.3169 35.1195 42.3421 35.1489 42.3609C35.1782 42.3798 35.2114 42.392 35.246 42.3964C35.3433 42.4062 35.4416 42.3953 35.5343 42.3646C35.6533 42.3282 35.8089 42.2781 35.9919 42.2008C36.2043 42.1166 36.4252 42.0556 36.6509 42.0189C36.8299 41.9886 37.0139 42.0091 37.1817 42.078C37.353 42.1602 37.4967 42.2897 37.5958 42.4511C37.6948 42.6124 37.7449 42.7988 37.74 42.9877C37.7284 43.1944 37.6604 43.3941 37.5433 43.5653C37.3991 43.7732 37.2138 43.9496 36.9987 44.0839C36.8254 44.1982 36.6356 44.2857 36.4358 44.3431C36.272 44.3876 36.1013 44.4015 35.9324 44.3841C35.7906 44.3694 35.6526 44.3294 35.5251 44.2658C35.4213 44.2157 35.3317 44.1406 35.2643 44.0475C35.2552 44.0225 35.2552 43.9951 35.2643 43.9702C35.2667 43.9562 35.2719 43.9429 35.2798 43.9312C35.2877 43.9194 35.298 43.9094 35.3101 43.9019L35.8684 43.5381C35.8962 43.5202 35.9273 43.5078 35.9599 43.5017C35.9901 43.4957 36.0212 43.4957 36.0514 43.5017C36.1206 43.5546 36.2069 43.5805 36.294 43.5744C36.4113 43.5698 36.5245 43.5302 36.6189 43.4607C36.7231 43.4034 36.8076 43.3162 36.8614 43.2106C36.8765 43.1743 36.8839 43.1353 36.883 43.096C36.8821 43.0568 36.8729 43.0181 36.8561 42.9826C36.8393 42.9471 36.8152 42.9154 36.7854 42.8896C36.7556 42.8639 36.7207 42.8446 36.6829 42.833C36.5973 42.8115 36.5077 42.8115 36.4221 42.833C36.2754 42.8694 36.1316 42.9166 35.9919 42.974C35.7561 43.0771 35.5088 43.1519 35.2552 43.1969C35.0786 43.2321 34.8955 43.2147 34.7289 43.1469C34.5659 43.0711 34.429 42.9493 34.3353 42.7967C34.2138 42.6226 34.1571 42.4119 34.1752 42.2008C34.1998 41.9805 34.2818 41.7704 34.4131 41.5913C34.5795 41.3866 34.7809 41.2126 35.008 41.0773Z" fill="white"/>
<path d="M33.324 42.1961C33.337 42.1906 33.351 42.1877 33.3652 42.1877C33.3793 42.1877 33.3934 42.1906 33.4064 42.1961C33.4196 42.2006 33.4316 42.2078 33.4419 42.2172C33.4521 42.2266 33.4603 42.238 33.4659 42.2507V42.2916L33.6398 45.7075C33.6508 45.7446 33.6508 45.7841 33.6398 45.8212C33.6174 45.8636 33.5798 45.896 33.5345 45.9122L32.8481 46.2033C32.804 46.221 32.7548 46.221 32.7108 46.2033C32.6734 46.1914 32.6401 46.1693 32.6147 46.1396L30.2579 43.6652C30.2477 43.6523 30.2386 43.6386 30.2305 43.6243C30.2248 43.6122 30.2218 43.599 30.2218 43.5856C30.2218 43.5723 30.2248 43.5591 30.2305 43.547C30.2345 43.5336 30.2415 43.5213 30.251 43.5111C30.2605 43.5008 30.2723 43.4929 30.2854 43.4879L30.8574 43.2468C30.876 43.2379 30.8963 43.2333 30.9169 43.2333C30.9375 43.2333 30.9578 43.2379 30.9764 43.2468C31.0024 43.2544 31.026 43.2685 31.045 43.2877L31.4294 43.6834L32.665 43.1604V42.6145C32.6569 42.5879 32.6569 42.5594 32.665 42.5327C32.665 42.4993 32.6971 42.472 32.7611 42.4508L33.324 42.1961ZM32.7657 43.8881L31.9008 44.252L32.8527 45.2845L32.7657 43.8881Z" fill="white"/>
<path d="M29.4159 43.711C29.431 43.704 29.4474 43.7004 29.464 43.7004C29.4806 43.7004 29.497 43.704 29.512 43.711C29.5266 43.7186 29.5392 43.7297 29.5488 43.7431C29.5583 43.7565 29.5645 43.772 29.5669 43.7883L30.2991 46.9722C30.3061 46.9872 30.3097 47.0035 30.3097 47.02C30.3097 47.0365 30.3061 47.0528 30.2991 47.0677C30.2798 47.0958 30.2503 47.1154 30.2168 47.1223L27.9607 47.6363C27.9297 47.6478 27.8956 47.6478 27.8646 47.6363C27.8363 47.6171 27.8167 47.5877 27.8097 47.5544L27.6953 47.0632C27.6883 47.0482 27.6847 47.0319 27.6847 47.0154C27.6847 46.9989 27.6883 46.9826 27.6953 46.9677C27.7146 46.9396 27.7441 46.92 27.7776 46.9131L29.2924 46.5674L29.1276 45.8487L27.709 46.1717C27.6939 46.1786 27.6775 46.1822 27.6609 46.1822C27.6443 46.1822 27.628 46.1786 27.6129 46.1717C27.5866 46.1506 27.5674 46.122 27.558 46.0898L27.4573 45.5758C27.446 45.5465 27.446 45.5141 27.4573 45.4849C27.4645 45.4695 27.4753 45.4561 27.4889 45.4458C27.5024 45.4355 27.5183 45.4286 27.5351 45.4257L28.9537 45.1028L28.6975 44.0021C28.6862 43.9728 28.6862 43.9404 28.6975 43.9111C28.7046 43.8957 28.7155 43.8823 28.729 43.872C28.7426 43.8617 28.7584 43.8548 28.7753 43.852L29.4159 43.711Z" fill="white"/>
<path d="M26.1073 44.3658C26.124 44.3638 26.1409 44.3656 26.1568 44.3711C26.1726 44.3766 26.187 44.3857 26.1988 44.3976C26.2116 44.4082 26.2219 44.4214 26.229 44.4363C26.2361 44.4512 26.2398 44.4675 26.24 44.484L26.4322 47.7317C26.4348 47.7479 26.4337 47.7645 26.4289 47.7803C26.4242 47.796 26.4159 47.8105 26.4047 47.8226C26.3814 47.8459 26.3507 47.8604 26.3178 47.8636L23.9702 48C23.9353 48.0015 23.9011 47.9902 23.8741 47.9682C23.8619 47.9574 23.8523 47.944 23.8459 47.9291C23.8396 47.9141 23.8367 47.898 23.8375 47.8817L23.8054 47.4269C23.8043 47.4104 23.8066 47.3938 23.8121 47.3782C23.8176 47.3625 23.8262 47.3482 23.8375 47.3359C23.8476 47.3227 23.8608 47.3121 23.8759 47.305C23.8911 47.2979 23.9077 47.2945 23.9244 47.295L25.5307 47.1995L25.4895 46.5263L23.9976 46.6127C23.9802 46.6145 23.9627 46.6125 23.9461 46.607C23.9296 46.6016 23.9144 46.5926 23.9015 46.5809C23.8897 46.5689 23.8803 46.5547 23.8741 46.539C23.8678 46.5234 23.8647 46.5067 23.8649 46.4899L23.8375 46.0351C23.8362 46.0018 23.8476 45.9693 23.8695 45.9441C23.8794 45.9306 23.8925 45.9198 23.9077 45.9126C23.9229 45.9055 23.9397 45.9022 23.9564 45.9032L25.4483 45.8122L25.4071 45.1208L23.7642 45.2163C23.7476 45.2174 23.7309 45.2152 23.7152 45.2097C23.6995 45.2043 23.685 45.1957 23.6727 45.1845C23.6591 45.1747 23.6483 45.1616 23.6411 45.1465C23.6339 45.1314 23.6306 45.1148 23.6315 45.0981L23.6041 44.6432C23.6021 44.6266 23.6038 44.6097 23.6089 44.5938C23.614 44.5778 23.6224 44.5631 23.6337 44.5506C23.6449 44.5382 23.6587 44.5282 23.6741 44.5214C23.6895 44.5147 23.7062 44.5112 23.723 44.5113L26.1073 44.3658Z" fill="white"/>
<path d="M20.2086 44.1201C20.439 44.1599 20.6596 44.2433 20.8584 44.3657C21.0221 44.4703 21.151 44.6206 21.2291 44.7978C21.3041 44.9777 21.3216 45.1762 21.2794 45.3664C21.257 45.4981 21.2037 45.6228 21.1238 45.7302C21.043 45.8337 20.9437 45.9216 20.831 45.9895C20.7056 46.0661 20.5721 46.1286 20.4328 46.176C20.5229 46.316 20.5893 46.4696 20.6296 46.6308C20.6569 46.7506 20.6569 46.8749 20.6296 46.9947C20.6035 47.1462 20.5335 47.2869 20.4283 47.3995C20.3142 47.5195 20.1682 47.6047 20.0072 47.6451C19.8042 47.6936 19.5925 47.6936 19.3895 47.6451C19.1954 47.6123 19.012 47.5344 18.854 47.4177C18.7239 47.3216 18.6239 47.1907 18.5657 47.0402C18.5086 46.8956 18.4943 46.7378 18.5245 46.5854C18.5479 46.4608 18.6012 46.3437 18.6801 46.2442C18.7647 46.1476 18.8653 46.0661 18.9776 46.0032C19.1066 45.9298 19.2432 45.8704 19.3849 45.8258L18.9273 45.1298L18.7762 45.3072C18.6945 45.4118 18.6239 45.5246 18.5657 45.6438C18.5617 45.6547 18.5555 45.6646 18.5475 45.6731C18.5395 45.6815 18.5299 45.6883 18.5192 45.6929C18.5085 45.6976 18.497 45.7001 18.4854 45.7003C18.4737 45.7004 18.4621 45.6982 18.4513 45.6939L17.9479 45.5983C17.9348 45.5968 17.9223 45.5923 17.9112 45.5852C17.9001 45.5781 17.8907 45.5686 17.8839 45.5574C17.875 45.5355 17.875 45.5111 17.8839 45.4892C17.9031 45.4151 17.934 45.3445 17.9754 45.2799C18.025 45.1936 18.0816 45.1115 18.1447 45.0343C18.2116 44.9513 18.2834 44.8723 18.3598 44.7978C18.4296 44.7274 18.5029 44.6606 18.5795 44.5977L18.1218 43.9336C18.1128 43.9086 18.1128 43.8813 18.1218 43.8563C18.1218 43.829 18.1218 43.8062 18.163 43.7971C18.1746 43.7921 18.187 43.7896 18.1996 43.7896C18.2122 43.7896 18.2247 43.7921 18.2362 43.7971L18.9089 43.9245C18.9351 43.9306 18.9599 43.9414 18.9822 43.9563L19.0279 43.9973L19.2064 44.252C19.3524 44.1708 19.5122 44.1169 19.6778 44.0928C19.8551 44.0765 20.0339 44.0857 20.2086 44.1201ZM19.751 46.3625C19.6731 46.3834 19.5967 46.4092 19.5222 46.4398C19.4613 46.4643 19.4054 46.4998 19.3574 46.5444C19.3108 46.584 19.2799 46.6388 19.2705 46.6991C19.2611 46.739 19.2607 46.7806 19.2694 46.8207C19.2781 46.8608 19.2957 46.8985 19.3208 46.931C19.3757 46.9953 19.451 47.0389 19.5343 47.0546C19.6175 47.0703 19.7037 47.0572 19.7784 47.0175C19.8153 46.9969 19.8468 46.9681 19.8706 46.9334C19.8945 46.8986 19.9099 46.8589 19.9157 46.8173C19.9248 46.7769 19.9248 46.735 19.9157 46.6945C19.9074 46.6435 19.8904 46.5943 19.8654 46.549C19.8253 46.484 19.7809 46.4217 19.7327 46.3625H19.751ZM20.1079 44.7432C20.014 44.7274 19.9181 44.7274 19.8242 44.7432C19.7317 44.7573 19.6429 44.7898 19.5633 44.8387L20.0942 45.6165C20.1905 45.5902 20.2807 45.5454 20.3596 45.4846C20.4268 45.4322 20.4745 45.3591 20.4953 45.2767C20.516 45.1943 20.5085 45.1075 20.474 45.0298C20.44 44.96 20.3898 44.8992 20.3276 44.8524C20.2577 44.7983 20.1763 44.761 20.0896 44.7432H20.1079Z" fill="white"/>
<path d="M14.9413 42.451C15.2032 42.566 15.4396 42.7314 15.6369 42.9377C15.7804 43.0931 15.8813 43.2826 15.9298 43.488C15.9651 43.6635 15.9476 43.8454 15.8794 44.0111C15.8736 44.0231 15.8653 44.0337 15.855 44.0424C15.8448 44.051 15.8328 44.0574 15.8199 44.0611C15.807 44.0669 15.7929 44.0699 15.7787 44.0699C15.7645 44.0699 15.7505 44.0669 15.7376 44.0611L15.161 43.7928C15.1265 43.7758 15.0966 43.7509 15.074 43.72C15.0599 43.6926 15.0491 43.6636 15.042 43.6336C15.0387 43.5725 15.0247 43.5125 15.0008 43.4562C14.974 43.3857 14.9318 43.322 14.8772 43.2697C14.8044 43.2021 14.7209 43.1468 14.6301 43.1059C14.4973 43.0328 14.3471 42.9966 14.1954 43.0013C14.1441 43.0032 14.0944 43.019 14.0516 43.0471C14.0088 43.0752 13.9746 43.1144 13.9528 43.1605C13.9381 43.1919 13.9305 43.226 13.9305 43.2606C13.9305 43.2952 13.9381 43.3293 13.9528 43.3607C13.9971 43.4472 14.0577 43.5244 14.1313 43.5881C14.2228 43.67 14.3464 43.7746 14.5111 43.8974C14.6946 44.0293 14.8619 44.1819 15.0099 44.3522C15.1214 44.4831 15.1984 44.6394 15.2342 44.8071C15.2562 44.9885 15.2227 45.1724 15.1381 45.3347C15.0556 45.5127 14.9176 45.6594 14.7445 45.7531C14.5608 45.8515 14.3533 45.8971 14.145 45.8851C13.8915 45.8707 13.6437 45.8041 13.4174 45.6895C13.2274 45.6072 13.0538 45.4916 12.9049 45.3483C12.7809 45.2332 12.68 45.0959 12.6074 44.9435C12.5465 44.8289 12.5077 44.7039 12.493 44.5751C12.4824 44.4605 12.4997 44.3451 12.5434 44.2385C12.554 44.214 12.5736 44.1945 12.5983 44.1839C12.6115 44.1763 12.6265 44.1724 12.6417 44.1724C12.657 44.1724 12.672 44.1763 12.6852 44.1839L13.2847 44.4659C13.315 44.4791 13.3417 44.4994 13.3625 44.5251C13.3819 44.5503 13.3945 44.58 13.3991 44.6115C13.3866 44.6979 13.4079 44.7858 13.4586 44.8571C13.5261 44.9508 13.6178 45.0246 13.724 45.0709C13.8284 45.1294 13.9477 45.1563 14.0672 45.1482C14.1145 45.1445 14.1598 45.1276 14.1979 45.0994C14.2359 45.0713 14.2652 45.033 14.2823 44.989C14.2959 44.9598 14.3029 44.928 14.3029 44.8958C14.3029 44.8636 14.2959 44.8318 14.2823 44.8025C14.2519 44.7191 14.2017 44.6442 14.1359 44.5842C14.0278 44.4814 13.9132 44.3857 13.7927 44.2976C13.5805 44.1515 13.3869 43.9805 13.2161 43.7882C13.0976 43.6609 13.0168 43.5035 12.9827 43.3334C12.9639 43.1544 12.9989 42.974 13.0833 42.8148C13.1683 42.6175 13.3206 42.4564 13.5135 42.36C13.7217 42.257 13.9548 42.2144 14.1862 42.2372C14.4493 42.2602 14.7055 42.3328 14.9413 42.451Z" fill="white"/>
<path d="M12.8134 41.3912C12.8278 41.4008 12.8399 41.4136 12.8486 41.4286C12.8573 41.4436 12.8625 41.4603 12.8637 41.4776C12.8703 41.4919 12.8737 41.5074 12.8737 41.5231C12.8737 41.5388 12.8703 41.5543 12.8637 41.5686L10.9737 44.2249C10.9535 44.252 10.9243 44.2713 10.8913 44.2794C10.875 44.2817 10.8584 44.2805 10.8426 44.2758C10.8268 44.271 10.8122 44.263 10.7998 44.2522L8.8778 42.8876C8.85148 42.8666 8.83231 42.838 8.82289 42.8057C8.8206 42.7895 8.82186 42.773 8.8266 42.7573C8.83134 42.7416 8.83944 42.7271 8.85034 42.7148L9.12034 42.3282C9.14152 42.302 9.17027 42.2829 9.20271 42.2736C9.2371 42.2699 9.27158 42.2797 9.29881 42.3009L10.6076 43.2106L10.9829 42.6693L9.74728 41.8096C9.73266 41.8013 9.72039 41.7894 9.7116 41.7751C9.7028 41.7608 9.69776 41.7445 9.69694 41.7278C9.68448 41.6971 9.68448 41.6629 9.69694 41.6322L9.94864 41.2775C9.95829 41.2641 9.97055 41.2527 9.9847 41.2441C9.99885 41.2355 10.0146 41.2298 10.031 41.2274C10.0462 41.221 10.0626 41.2178 10.0791 41.2178C10.0956 41.2178 10.1119 41.221 10.1271 41.2274L11.3444 42.0871L11.7517 41.5185L10.4063 40.5724C10.3916 40.5648 10.379 40.5537 10.3695 40.5403C10.36 40.5269 10.3537 40.5114 10.3513 40.4951C10.3402 40.4643 10.3402 40.4305 10.3513 40.3996L10.6259 40.0175C10.6445 39.9907 10.6721 39.9713 10.7037 39.963C10.7189 39.9563 10.7352 39.9529 10.7518 39.9529C10.7683 39.9529 10.7847 39.9563 10.7998 39.963L12.8134 41.3912Z" fill="white"/>
<path d="M9.15239 38.3527C9.35397 38.5436 9.51028 38.7766 9.61001 39.035C9.69654 39.2567 9.71408 39.4992 9.66035 39.7309C9.59284 39.9845 9.46041 40.2164 9.27594 40.4041L8.96476 40.7179L8.63985 41.0318C8.44929 41.2098 8.21618 41.3366 7.96257 41.4002C7.72793 41.4543 7.48235 41.4368 7.25783 41.3502C7.00102 41.2477 6.76872 41.0927 6.57597 40.8953C6.42685 40.7512 6.30036 40.5856 6.20072 40.4041C6.11233 40.2428 6.05345 40.0673 6.02683 39.8856C5.99962 39.7182 6.01216 39.5469 6.06344 39.3852C6.11679 39.2139 6.21099 39.0578 6.33801 38.9304C6.34676 38.9196 6.35798 38.9111 6.37072 38.9056C6.38346 38.9001 6.39735 38.8976 6.41123 38.8985C6.44003 38.9001 6.46744 38.9114 6.48903 38.9304L6.94665 39.4125C6.96079 39.4235 6.97255 39.4372 6.9812 39.4529C6.98985 39.4685 6.99522 39.4857 6.99699 39.5035C6.99915 39.5432 6.98961 39.5828 6.96953 39.6172C6.88284 39.7351 6.84515 39.8817 6.86428 40.0266C6.89902 40.1574 6.97044 40.2757 7.07021 40.3677C7.12259 40.4274 7.18636 40.4763 7.25784 40.5114C7.32931 40.5465 7.40707 40.5673 7.48664 40.5724C7.67476 40.5604 7.85062 40.4755 7.9763 40.3359C8.17765 40.1539 8.37901 39.9538 8.57578 39.7446C8.71481 39.6204 8.80009 39.4477 8.81375 39.2624C8.80382 39.1045 8.7334 38.9564 8.61697 38.8485C8.52062 38.7485 8.39887 38.6762 8.2646 38.6393C8.11862 38.6174 7.96973 38.6515 7.84816 38.7348C7.81515 38.7588 7.77451 38.7701 7.73376 38.7666C7.69836 38.7581 7.66643 38.7391 7.64223 38.7121L7.18461 38.2572C7.16439 38.236 7.15156 38.2089 7.148 38.1799C7.14762 38.1657 7.15077 38.1516 7.15715 38.1389C7.16354 38.1262 7.17297 38.1153 7.18461 38.1071C7.31426 37.9837 7.47089 37.8919 7.64223 37.8387C7.80721 37.7916 7.98056 37.7807 8.15019 37.8069C8.33232 37.8329 8.50781 37.8931 8.66731 37.9843C8.8456 38.0839 9.0089 38.2079 9.15239 38.3527Z" fill="white"/>
<path d="M6.72702 35.4325C6.88385 35.6557 6.99431 35.9078 7.05193 36.1739C7.09562 36.4003 7.06514 36.6347 6.96498 36.8426C6.83885 37.0941 6.64576 37.3065 6.40668 37.4566L4.70433 38.5983C4.68919 38.6049 4.67283 38.6083 4.65628 38.6083C4.63973 38.6083 4.62337 38.6049 4.60823 38.5983C4.59208 38.5953 4.57677 38.5888 4.56334 38.5794C4.54992 38.57 4.53869 38.5578 4.53043 38.5437L4.16433 38.0115C4.14547 37.9817 4.1374 37.9464 4.14145 37.9115C4.14989 37.88 4.16937 37.8526 4.19637 37.8341L5.89415 36.6879C6.04801 36.6007 6.16137 36.457 6.20991 36.2877C6.22424 36.2084 6.22187 36.1271 6.20297 36.0488C6.18407 35.9705 6.14903 35.897 6.10008 35.8328C6.05836 35.7635 6.00268 35.7034 5.93654 35.6565C5.87039 35.6095 5.7952 35.5766 5.71567 35.5599C5.6277 35.5504 5.53871 35.5584 5.45387 35.5834C5.36902 35.6084 5.29002 35.6499 5.22144 35.7054L3.53739 36.8699C3.52233 36.8768 3.50594 36.8804 3.48934 36.8804C3.47275 36.8804 3.45635 36.8768 3.44129 36.8699C3.41291 36.8703 3.38532 36.8606 3.3635 36.8426L2.9974 36.3058C2.98654 36.2765 2.98654 36.2442 2.9974 36.2149C3.00439 36.1816 3.02407 36.1522 3.05231 36.133L4.75467 34.9868C4.96941 34.8248 5.22376 34.7228 5.49144 34.6911C5.72909 34.6762 5.96519 34.7385 6.16414 34.8685C6.38963 35.015 6.58144 35.2072 6.72702 35.4325Z" fill="white"/>
<path d="M5.3541 33.3039C5.36211 33.3185 5.36631 33.335 5.36631 33.3516C5.36631 33.3683 5.36211 33.3847 5.3541 33.3994C5.34111 33.4302 5.31646 33.4547 5.28546 33.4676L2.28803 34.7639C2.25705 34.7755 2.22292 34.7755 2.19193 34.7639C2.16094 34.751 2.13628 34.7265 2.12329 34.6957L1.57872 33.4494C1.4129 33.1236 1.36445 32.7512 1.44143 32.3942C1.48715 32.2411 1.56797 32.1006 1.67755 31.9838C1.78713 31.867 1.92248 31.777 2.07295 31.721C2.26663 31.6296 2.48385 31.5994 2.69532 31.6346C2.88626 31.6759 3.06203 31.7687 3.20328 31.903L4.06361 30.784C4.07773 30.7666 4.0969 30.7539 4.11852 30.7476C4.13069 30.742 4.14398 30.739 4.15742 30.739C4.17087 30.739 4.18415 30.742 4.19632 30.7476C4.20978 30.7516 4.22215 30.7586 4.23247 30.768C4.24278 30.7775 4.25077 30.7892 4.25581 30.8022L4.52581 31.4117C4.53563 31.4347 4.54068 31.4595 4.54068 31.4845C4.54068 31.5095 4.53563 31.5342 4.52581 31.5573C4.51515 31.5929 4.49636 31.6256 4.47089 31.6528L3.69751 32.6171L3.90344 33.0719L4.92852 32.6171C4.94365 32.6104 4.96002 32.607 4.97657 32.607C4.99311 32.607 5.00948 32.6104 5.02462 32.6171C5.05707 32.6294 5.08336 32.6539 5.09784 32.6853L5.3541 33.3039ZM3.24904 33.3676L3.02023 32.8399C2.99919 32.7793 2.96606 32.7234 2.92281 32.6757C2.87957 32.6281 2.8271 32.5895 2.76854 32.5625C2.71651 32.5402 2.66045 32.5287 2.60379 32.5287C2.54714 32.5287 2.49108 32.5402 2.43905 32.5625C2.38417 32.5824 2.33395 32.6133 2.29146 32.6532C2.24898 32.6931 2.21511 32.7411 2.19193 32.7945C2.17034 32.8553 2.16204 32.9201 2.16756 32.9844C2.17308 33.0487 2.19231 33.1111 2.22397 33.1674L2.45278 33.6951L3.24904 33.3676Z" fill="white"/>
<path d="M3.9767 29.8562C3.98338 29.8712 3.98683 29.8875 3.98683 29.9039C3.98683 29.9204 3.98338 29.9367 3.9767 29.9517C3.95737 29.9778 3.93008 29.9969 3.8989 30.0063L0.695545 30.7568C0.680486 30.7637 0.66409 30.7673 0.647495 30.7673C0.630901 30.7673 0.614505 30.7637 0.599445 30.7568C0.585241 30.7486 0.572985 30.7374 0.563509 30.7241C0.554033 30.7107 0.54756 30.6955 0.54453 30.6795L-4.03589e-05 28.3916C-0.00701006 28.3766 -0.0106201 28.3603 -0.0106201 28.3438C-0.0106201 28.3273 -0.00701006 28.311 -4.03589e-05 28.2961C0.00864992 28.2823 0.0200008 28.2704 0.0333548 28.261C0.0467087 28.2517 0.0618004 28.245 0.0777554 28.2415L0.535378 28.1323C0.550438 28.1254 0.566833 28.1218 0.583428 28.1218C0.600023 28.1218 0.616418 28.1254 0.631478 28.1323C0.659723 28.1515 0.679398 28.1809 0.686393 28.2142L1.05707 29.7652L1.72062 29.606L1.39571 28.2005C1.3877 28.1859 1.3835 28.1695 1.3835 28.1528C1.3835 28.1361 1.3877 28.1197 1.39571 28.105C1.40394 28.0904 1.41508 28.0776 1.42846 28.0675C1.44184 28.0573 1.45717 28.05 1.4735 28.0459L1.90367 27.9458C1.91803 27.9393 1.93364 27.9359 1.94943 27.9359C1.96523 27.9359 1.98083 27.9393 1.99519 27.9458C2.01038 27.9545 2.02354 27.9663 2.0338 27.9804C2.04405 27.9945 2.05117 28.0106 2.05468 28.0277L2.3979 29.4696L3.07976 29.3104L2.69993 27.7184C2.69296 27.7034 2.68935 27.6871 2.68935 27.6706C2.68935 27.6542 2.69296 27.6379 2.69993 27.6229C2.70862 27.6091 2.71997 27.5972 2.73333 27.5879C2.74668 27.5785 2.76177 27.5718 2.77773 27.5683L3.23535 27.4591C3.24971 27.4526 3.26532 27.4492 3.28111 27.4492C3.29691 27.4492 3.31252 27.4526 3.32687 27.4591C3.34193 27.4669 3.35508 27.4778 3.36536 27.4912C3.37565 27.5045 3.38283 27.52 3.38636 27.5365L3.9767 29.8562Z" fill="white"/>
<path d="M41.1818 23.9999C41.1818 33.4892 33.4892 41.1818 23.9999 41.1818C14.5107 41.1818 6.81812 33.4892 6.81812 23.9999C6.81812 14.5107 14.5107 6.81812 23.9999 6.81812C33.4892 6.81812 41.1818 14.5107 41.1818 23.9999Z" stroke="white" stroke-width="2"/>
<path d="M2.23772 21.9465L2.80517 23.0837L4.0682 23.2701L3.15296 24.1525L3.36804 25.4079L2.23772 24.8166L1.10739 25.4079L1.32247 24.1525L0.407227 23.2701L1.67026 23.0837L2.23772 21.9465Z" fill="white"/>
<path d="M46.1695 21.9465L46.7369 23.0837L48 23.2701L47.0847 24.1525L47.2998 25.4079L46.1695 24.8166L45.0391 25.4079L45.2542 24.1525L44.339 23.2701L45.602 23.0837L46.1695 21.9465Z" fill="white"/>
<path d="M18.6761 34.1818L8.9679 24.1921L18.6761 26.6895C25.2639 20.6243 28.3844 18.1269 38.7861 15.2727C30.118 21.3379 21.6811 29.6626 18.6761 34.1818Z" fill="white"/>
</g>
<defs>
<clipPath id="clip0">
<rect width="48" height="48" fill="white"/>
</clipPath>
</defs>
</svg>
