<svg width="66" height="66" viewBox="0 0 66 66" fill="none" xmlns="http://www.w3.org/2000/svg">
<g clip-path="url(#clip0)">
<path d="M4.93947 27.1804C4.93603 27.202 4.92809 27.2226 4.91617 27.2409C4.90425 27.2592 4.88861 27.2748 4.87025 27.2868C4.84934 27.2955 4.82688 27.3001 4.80418 27.3001C4.78149 27.3001 4.75902 27.2955 4.73811 27.2868L1.51016 26.6614L2.03242 27.7308C2.04161 27.7515 2.04636 27.7739 2.04636 27.7965C2.04636 27.8191 2.04161 27.8415 2.03242 27.8621C2.01021 27.9036 1.97481 27.9366 1.93175 27.956L1.30251 28.2499C1.25773 28.2656 1.20887 28.2656 1.16408 28.2499C1.13223 28.223 1.11196 28.1849 1.10745 28.1436L0.213946 26.3612C0.208633 26.3322 0.208633 26.3025 0.213946 26.2736C0.211044 26.2445 0.211044 26.2152 0.213946 26.186L0.383838 25.348C0.393457 25.3022 0.42051 25.2618 0.459346 25.2354C0.480053 25.2259 0.502598 25.2209 0.525415 25.2209C0.548233 25.2209 0.570777 25.2259 0.591484 25.2354L4.9961 26.1235C5.04013 26.1339 5.07843 26.1608 5.10307 26.1985C5.11265 26.2191 5.11761 26.2415 5.11761 26.2642C5.11761 26.2869 5.11265 26.3093 5.10307 26.3299L4.93947 27.1804Z" fill="#B9B9B9"/>
<path d="M6.19146 23.1402C6.09325 23.4175 5.94388 23.6742 5.751 23.897C5.59234 24.0799 5.39455 24.2252 5.17211 24.3223C4.96225 24.4151 4.7348 24.462 4.50512 24.4599C4.25972 24.4736 4.01365 24.4504 3.77522 24.3911L3.37251 24.2535L2.91946 24.0846L2.51675 23.897C2.28693 23.8031 2.07432 23.6721 1.88752 23.5092C1.71486 23.3579 1.5756 23.1726 1.47852 22.9651C1.38108 22.7444 1.33176 22.5057 1.3338 22.2647C1.36662 21.6818 1.58723 21.1248 1.96303 20.6761C2.11526 20.497 2.30399 20.3521 2.51675 20.2508C2.72677 20.157 2.95356 20.106 3.18374 20.1007C3.42714 20.0962 3.66959 20.1321 3.90106 20.207L4.31635 20.3509L4.77569 20.5198L5.16582 20.6761C5.39538 20.7705 5.60791 20.9015 5.79505 21.0639C5.96819 21.2163 6.10932 21.4012 6.21034 21.608C6.31254 21.8254 6.3662 22.0622 6.36765 22.3022C6.35781 22.5895 6.2982 22.873 6.19146 23.1402ZM5.24762 22.7963C5.29195 22.7067 5.31234 22.6073 5.30683 22.5076C5.30132 22.4079 5.27009 22.3113 5.21615 22.2271C5.08278 22.0512 4.89828 21.9202 4.6876 21.8519C4.56805 21.7956 4.43591 21.7393 4.29748 21.6893L3.88219 21.5329C3.74375 21.4829 3.61791 21.4391 3.49835 21.4078C3.29929 21.3258 3.07974 21.3061 2.86912 21.3516C2.77336 21.3835 2.68613 21.4366 2.61402 21.5069C2.54192 21.5772 2.48682 21.6628 2.45289 21.7574C2.41896 21.852 2.40707 21.9529 2.41814 22.0527C2.4292 22.1525 2.46292 22.2485 2.51675 22.3335C2.64661 22.5063 2.82344 22.6387 3.02643 22.715L3.41026 22.8588L3.82555 23.0152L4.22197 23.159C4.42263 23.235 4.64095 23.2523 4.8512 23.209C4.94491 23.1811 5.03017 23.1304 5.09936 23.0617C5.16854 22.9929 5.21948 22.9082 5.24762 22.815V22.7963Z" fill="#B9B9B9"/>
<path d="M8.36857 18.65C8.22407 18.903 8.03428 19.1276 7.80856 19.3129C7.62225 19.4598 7.40833 19.5682 7.17933 19.6319C6.95314 19.6787 6.71965 19.6787 6.49346 19.6319C6.24645 19.5904 6.00822 19.5079 5.78873 19.3879C5.67546 19.3317 5.55591 19.2566 5.41748 19.1816L5.03365 18.9502L4.6624 18.7187C4.45708 18.5881 4.27612 18.4231 4.12756 18.2309C3.98228 18.0468 3.8792 17.8333 3.82553 17.6055C3.75705 17.3721 3.73988 17.1268 3.77519 16.8863C3.83057 16.6047 3.93718 16.3355 4.0898 16.092C4.23263 15.8396 4.42272 15.6167 4.64982 15.4353C4.83356 15.2832 5.0482 15.1722 5.27905 15.1101C5.50524 15.0632 5.73872 15.0632 5.96491 15.1101C6.20501 15.1483 6.4369 15.2265 6.65077 15.3415L7.0346 15.5542C7.17933 15.6355 7.31776 15.7168 7.4499 15.8043L7.81485 16.0295C8.01884 16.1618 8.19953 16.3266 8.3497 16.5173C8.49508 16.7022 8.60008 16.9152 8.65802 17.1427C8.72244 17.3771 8.73319 17.6229 8.68948 17.8619C8.63103 18.1416 8.52232 18.4086 8.36857 18.65ZM7.50653 18.1371C7.56656 18.0575 7.60454 17.9636 7.61669 17.8649C7.62883 17.7661 7.61471 17.6659 7.57574 17.5742C7.47764 17.3784 7.32179 17.217 7.12899 17.1114C7.01573 17.0301 6.89617 16.9551 6.77033 16.88C6.64448 16.805 6.51863 16.7237 6.39279 16.6549C6.26694 16.5861 6.1411 16.5173 6.03413 16.461C5.84617 16.3433 5.62693 16.2844 5.4049 16.2921C5.3048 16.3043 5.20911 16.3402 5.12588 16.3968C5.04266 16.4534 4.97434 16.529 4.92668 16.6174C4.87341 16.7002 4.84052 16.7943 4.83068 16.8921C4.82084 16.9899 4.83433 17.0886 4.87005 17.1802C4.97095 17.372 5.12343 17.5323 5.31051 17.643C5.41748 17.7056 5.53703 17.7744 5.65659 17.8557L6.04042 18.0808L6.40537 18.2935C6.59519 18.4063 6.81354 18.4627 7.0346 18.4561C7.13395 18.4468 7.22931 18.4127 7.31183 18.3569C7.39434 18.3011 7.46132 18.2255 7.50653 18.1371Z" fill="#B9B9B9"/>
<path d="M8.80911 13.7591C8.63566 13.9682 8.39213 14.1081 8.12325 14.1531C7.99882 14.1679 7.87267 14.1572 7.75256 14.1217C7.63244 14.0862 7.5209 14.0267 7.4248 13.9467L7.1794 13.7403L6.92142 13.4839C6.8289 13.3992 6.75449 13.2969 6.7026 13.183C6.65071 13.0691 6.62241 12.946 6.61938 12.821C6.62196 12.5458 6.72996 12.2819 6.92142 12.083C7.0928 11.8641 7.34343 11.7205 7.61986 11.6827C7.74458 11.6714 7.87032 11.6855 7.98934 11.7242C8.10837 11.7629 8.21818 11.8254 8.31201 11.9079L8.57 12.1205C8.65025 12.1885 8.72593 12.2616 8.79652 12.3394C8.88914 12.4233 8.96282 12.5258 9.01271 12.6401C9.0626 12.7543 9.08757 12.8778 9.08597 13.0024C9.08895 13.2796 8.99057 13.5485 8.80911 13.7591ZM8.36235 13.3588C8.40705 13.3127 8.43572 13.2535 8.44415 13.19C8.4592 13.1368 8.4592 13.0805 8.44415 13.0274C8.41999 12.9772 8.38572 12.9325 8.34348 12.896C8.27426 12.821 8.20505 12.7522 8.14212 12.6959L7.87155 12.5083C7.80443 12.4547 7.72399 12.4201 7.63874 12.4082C7.59296 12.4031 7.54665 12.4103 7.5046 12.429C7.46255 12.4477 7.42631 12.4772 7.39963 12.5145C7.36507 12.5454 7.33932 12.5848 7.32495 12.6287C7.31059 12.6726 7.30814 12.7195 7.31783 12.7647C7.33848 12.8465 7.37961 12.9218 7.43738 12.9836L7.64503 13.1775C7.71425 13.24 7.78346 13.3026 7.86526 13.3651L8.01628 13.4464C8.06755 13.4619 8.12231 13.4619 8.17358 13.4464C8.2396 13.4254 8.29699 13.3837 8.33718 13.3276L8.36235 13.3588ZM10.25 15.7604C10.1808 15.8355 10.1116 15.848 10.0424 15.7604C10.0312 15.7527 10.0219 15.7424 10.0153 15.7305C10.0088 15.7185 10.0051 15.7052 10.0046 15.6916L8.92866 10.1755C8.92266 10.1298 8.92266 10.0836 8.92866 10.0379C8.94146 9.98948 8.96512 9.94458 8.99788 9.90655L9.33137 9.54381C9.40058 9.46251 9.4698 9.45626 9.53901 9.54381C9.55751 9.56302 9.57053 9.58676 9.57677 9.61261L10.6465 15.1288C10.6558 15.1742 10.6558 15.221 10.6465 15.2664C10.639 15.3166 10.6146 15.3629 10.5772 15.3977L10.25 15.7604ZM12.5845 13.1712C12.4122 13.3817 12.1681 13.5219 11.8986 13.5652C11.6457 13.5897 11.3931 13.5157 11.1939 13.3588L10.917 13.1337L10.6968 12.9273C10.6039 12.8402 10.5294 12.7357 10.4775 12.6197C10.4257 12.5038 10.3975 12.3787 10.3948 12.2519C10.4161 11.9781 10.5275 11.719 10.7117 11.5144C10.896 11.3099 11.1428 11.1712 11.4141 11.1199C11.5408 11.1086 11.6684 11.1227 11.7895 11.1614C11.9105 11.2001 12.0225 11.2625 12.1189 11.345L12.3768 11.5576C12.4571 11.6256 12.5328 11.6987 12.6034 11.7765C12.6944 11.8631 12.7669 11.9669 12.8166 12.0819C12.8663 12.1968 12.8922 12.3206 12.8928 12.4457C12.8807 12.7164 12.7713 12.9739 12.5845 13.1712ZM12.1314 12.771C12.1778 12.7234 12.2066 12.6617 12.2132 12.5958C12.2181 12.5418 12.2072 12.4875 12.1818 12.4395C12.1602 12.3858 12.1281 12.3369 12.0874 12.2956C12.0182 12.2206 11.949 12.1518 11.886 12.0955C11.8231 12.0392 11.7413 11.9767 11.6595 11.9204C11.597 11.8634 11.5174 11.8283 11.433 11.8203C11.3872 11.8201 11.342 11.8294 11.3001 11.8477C11.2582 11.866 11.2206 11.8928 11.1898 11.9264C11.1589 11.9599 11.1355 11.9996 11.1211 12.0427C11.1066 12.0859 11.1014 12.1315 11.1058 12.1768C11.1288 12.259 11.172 12.3343 11.2316 12.3957L11.4393 12.5896L11.6595 12.7772C11.7058 12.8096 11.7567 12.8349 11.8105 12.8523C11.8635 12.8709 11.9212 12.8709 11.9741 12.8523C12.0228 12.8372 12.0664 12.8091 12.1 12.771H12.1314Z" fill="#B9B9B9"/>
<path d="M17.1654 9.51877C16.8438 9.74315 16.48 9.90057 16.0957 9.98158C15.8085 10.0405 15.5106 10.0211 15.2336 9.92529C15.0009 9.84675 14.7986 9.6981 14.6547 9.50001C14.6422 9.46566 14.6422 9.42804 14.6547 9.39369C14.6587 9.37398 14.6669 9.35536 14.6789 9.33915C14.6908 9.32295 14.7062 9.30954 14.7239 9.29988L15.4539 8.82456C15.4932 8.79229 15.5415 8.77266 15.5923 8.76827C15.6359 8.75934 15.6808 8.75934 15.7244 8.76827C15.7994 8.80743 15.8801 8.83485 15.9635 8.84958C16.0647 8.87499 16.1707 8.87499 16.2719 8.84958C16.4029 8.81606 16.5266 8.75882 16.6368 8.68072C16.8203 8.57923 16.9725 8.43006 17.0773 8.24918C17.1147 8.19022 17.1346 8.12191 17.1346 8.05217C17.1346 7.98244 17.1147 7.91413 17.0773 7.85517C17.053 7.81381 17.0192 7.77868 16.9788 7.75261C16.9384 7.72655 16.8924 7.71026 16.8445 7.70507C16.7128 7.69194 16.5798 7.70687 16.4543 7.74885C16.2407 7.81276 16.0307 7.88791 15.8251 7.974C15.5307 8.08917 15.2249 8.17303 14.9127 8.22416C14.6532 8.27047 14.3856 8.23777 14.1451 8.13035C13.9096 8.01734 13.712 7.83923 13.5758 7.61737C13.4396 7.39551 13.3707 7.13932 13.3774 6.87952C13.3905 6.59472 13.4843 6.31939 13.648 6.08525C14.0219 5.57055 14.5577 5.19428 15.1707 5.01579C15.3987 4.96925 15.6333 4.965 15.8629 5.00328C16.0561 5.02248 16.2439 5.07765 16.4166 5.16589C16.56 5.23647 16.6849 5.33924 16.7815 5.46609C16.7909 5.50092 16.7909 5.53757 16.7815 5.57241C16.7718 5.59455 16.7567 5.6139 16.7375 5.62869L15.9761 6.12903C15.9362 6.14933 15.892 6.15992 15.8471 6.15992C15.8023 6.15992 15.7581 6.14933 15.7181 6.12903C15.6729 6.09178 15.6207 6.06378 15.5646 6.04661C15.5084 6.02943 15.4494 6.02344 15.3909 6.02896C15.2296 6.03539 15.074 6.08987 14.9442 6.18531C14.8008 6.26611 14.683 6.38529 14.6044 6.52929C14.5797 6.58915 14.5703 6.65413 14.5769 6.71848C14.5834 6.78283 14.6059 6.84459 14.6421 6.89828C14.6932 6.97208 14.769 7.02532 14.8561 7.04838C14.9742 7.07455 15.0966 7.07455 15.2147 7.04838C15.4146 6.99911 15.6103 6.93428 15.7999 6.85451C16.1248 6.71445 16.4647 6.61163 16.813 6.54805C17.0543 6.49609 17.3061 6.52135 17.5321 6.6202C17.7581 6.71906 17.9469 6.88645 18.0715 7.09842C18.2364 7.33851 18.312 7.6282 18.2854 7.91771C18.2582 8.22009 18.1495 8.5096 17.9708 8.75577C17.7525 9.05777 17.4793 9.31655 17.1654 9.51877Z" fill="#B9B9B9"/>
<path d="M19.506 7.97396C19.4898 7.98329 19.4713 7.9882 19.4525 7.9882C19.4338 7.9882 19.4153 7.98329 19.3991 7.97396C19.3806 7.96852 19.3635 7.95893 19.3494 7.94591C19.3352 7.9329 19.3242 7.91682 19.3173 7.89891V7.84262L19.0278 3.127C19.0222 3.07292 19.0331 3.0184 19.0593 2.97064C19.0733 2.94024 19.0934 2.91296 19.1183 2.8904C19.1431 2.86784 19.1723 2.85047 19.204 2.83931L20.1353 2.46406C20.1958 2.43972 20.2635 2.43972 20.324 2.46406C20.3754 2.48043 20.4212 2.51075 20.4562 2.55161L23.6904 5.98514C23.695 6.00363 23.695 6.02294 23.6904 6.04143C23.6998 6.05759 23.7047 6.07593 23.7047 6.09459C23.7047 6.11325 23.6998 6.13159 23.6904 6.14775C23.6839 6.16658 23.6731 6.18368 23.6589 6.19777C23.6448 6.21186 23.6276 6.22255 23.6086 6.22905L22.8284 6.56052C22.8028 6.57272 22.7749 6.57905 22.7466 6.57905C22.7183 6.57905 22.6903 6.57272 22.6648 6.56052C22.6277 6.54883 22.5934 6.52967 22.5641 6.50423L22.0418 5.96012L20.3429 6.67935L20.3744 7.42985C20.3794 7.46512 20.3794 7.5009 20.3744 7.53617C20.3622 7.56356 20.344 7.5879 20.3212 7.60738C20.2983 7.62686 20.2713 7.641 20.2422 7.64874L19.506 7.97396ZM20.2548 5.62865L21.4378 5.12832L20.1353 3.75241L20.2548 5.62865Z" fill="#B9B9B9"/>
<path d="M24.8545 5.89766C24.8337 5.90679 24.8112 5.91151 24.7884 5.91151C24.7657 5.91151 24.7432 5.90679 24.7224 5.89766C24.6852 5.87231 24.6585 5.8346 24.6469 5.79134L23.6464 1.41343C23.6368 1.39285 23.6318 1.37044 23.6318 1.34777C23.6318 1.32509 23.6368 1.30268 23.6464 1.2821C23.6583 1.26318 23.6739 1.2468 23.6923 1.23392C23.7107 1.22104 23.7314 1.2119 23.7534 1.20705L26.8806 0.494074C26.9014 0.484942 26.9239 0.480225 26.9467 0.480225C26.9694 0.480225 26.992 0.484942 27.0128 0.494074C27.0516 0.520514 27.0787 0.560849 27.0883 0.606649L27.2393 1.2821C27.2489 1.30268 27.2538 1.32509 27.2538 1.34777C27.2538 1.37044 27.2489 1.39285 27.2393 1.41343C27.2273 1.43235 27.2117 1.44873 27.1934 1.46161C27.175 1.4745 27.1543 1.48363 27.1323 1.48848L25.0433 1.9638L25.2761 2.95195L27.2015 2.50166C27.2222 2.49213 27.2448 2.4872 27.2676 2.4872C27.2904 2.4872 27.313 2.49213 27.3337 2.50166C27.3541 2.51416 27.3718 2.53054 27.3858 2.54985C27.3999 2.56917 27.4099 2.59104 27.4155 2.61423L27.5665 3.28968C27.5755 3.3093 27.5802 3.33063 27.5802 3.35222C27.5802 3.37381 27.5755 3.39514 27.5665 3.41476C27.5545 3.43552 27.5382 3.4535 27.5187 3.46752C27.4991 3.48154 27.4768 3.49127 27.4532 3.49606L25.5089 3.94011L25.855 5.45361C25.8664 5.48491 25.8671 5.5191 25.8568 5.5508C25.8466 5.58251 25.826 5.60992 25.7984 5.62873C25.7863 5.64949 25.77 5.66747 25.7505 5.68149C25.731 5.69551 25.7087 5.70524 25.6851 5.71003L24.8545 5.89766Z" fill="#B9B9B9"/>
<path d="M29.4038 5.00332C29.3578 5.00503 29.3128 4.98939 29.278 4.95955C29.2469 4.92688 29.2271 4.88528 29.2213 4.84072L28.9445 0.369002C28.9427 0.323278 28.9585 0.278599 28.9885 0.243919C29.0237 0.20912 29.071 0.188989 29.1206 0.187632L32.3486 7.76822e-06C32.3715 -0.0015071 32.3944 0.00159043 32.416 0.00911399C32.4377 0.0166376 32.4575 0.0284317 32.4745 0.0437868C32.492 0.0583183 32.5062 0.0764758 32.5159 0.0969968C32.5257 0.117518 32.5309 0.13991 32.5311 0.162616L32.5688 0.78803C32.5712 0.810327 32.5691 0.83287 32.5626 0.854346C32.5561 0.875822 32.5454 0.895799 32.5311 0.913113C32.5158 0.931385 32.4965 0.945952 32.4747 0.955705C32.4529 0.965459 32.4291 0.970142 32.4052 0.9694L30.2029 1.1195L30.2596 2.04511L32.3108 1.92628C32.3338 1.92352 32.3571 1.92603 32.3789 1.93362C32.4007 1.94121 32.4205 1.95368 32.4367 1.97006C32.4713 2.00278 32.4917 2.04769 32.4933 2.09515L32.5311 2.68929C32.5328 2.73501 32.5171 2.77969 32.487 2.81437C32.473 2.83253 32.4549 2.8471 32.4341 2.85689C32.4133 2.86668 32.3905 2.8714 32.3675 2.87066L30.3162 2.99574L30.3728 3.94637L32.6318 3.81504C32.6546 3.81352 32.6776 3.81662 32.6992 3.82414C32.7208 3.83167 32.7407 3.84346 32.7576 3.85882C32.7908 3.88999 32.811 3.93239 32.8142 3.97764L32.852 4.60306C32.8525 4.6486 32.837 4.69288 32.8079 4.72814C32.7943 4.7467 32.7763 4.76157 32.7554 4.7714C32.7345 4.78123 32.7115 4.78571 32.6884 4.78443L29.4038 5.00332Z" fill="#B9B9B9"/>
<path d="M37.5147 5.33482C37.2002 5.28238 36.8989 5.16981 36.6275 5.00335C36.3992 4.84947 36.2219 4.63185 36.1178 4.37794C36.0089 4.13216 35.9824 3.85806 36.0423 3.59617C36.0752 3.41452 36.1507 3.24312 36.2626 3.09584C36.3738 2.95358 36.5103 2.83275 36.6653 2.73935C36.8363 2.64057 37.0178 2.56087 37.2064 2.50169C37.0899 2.31738 37.0009 2.11725 36.9421 1.90755C36.8938 1.72435 36.8916 1.53218 36.9354 1.34789C36.9793 1.16361 37.068 0.992849 37.1938 0.850599C37.348 0.693145 37.5411 0.57882 37.7538 0.519129C38.0309 0.452282 38.32 0.452282 38.597 0.519129C38.866 0.563098 39.1206 0.670309 39.3395 0.831837C39.5155 0.967013 39.6522 1.14612 39.7359 1.35093C39.8156 1.54962 39.8331 1.76759 39.7862 1.97635C39.7597 2.14929 39.6857 2.3116 39.5723 2.44541C39.4583 2.57815 39.3221 2.69029 39.1696 2.77688C38.9916 2.87653 38.804 2.95824 38.6096 3.02079L39.2388 3.97767L39.4402 3.73376C39.557 3.59182 39.6563 3.43644 39.7359 3.27095C39.7415 3.25601 39.75 3.24232 39.761 3.23072C39.772 3.21912 39.7852 3.20983 39.7999 3.20341C39.8146 3.19699 39.8304 3.19357 39.8464 3.19336C39.8625 3.19314 39.8784 3.19614 39.8932 3.20216L40.5791 3.33349C40.5969 3.3349 40.6142 3.34005 40.6298 3.34861C40.6454 3.35717 40.6591 3.36894 40.6698 3.38314C40.6805 3.39733 40.6881 3.41363 40.6919 3.43095C40.6958 3.44827 40.696 3.46622 40.6923 3.48359C40.6659 3.58547 40.6234 3.68256 40.5665 3.77129C40.4983 3.88999 40.4204 4.00295 40.3337 4.10901C40.2393 4.22158 40.1386 4.33416 40.0379 4.43422L39.7359 4.70941L40.3651 5.62251C40.3788 5.65665 40.3788 5.69469 40.3651 5.72883C40.3598 5.76148 40.3417 5.79072 40.3148 5.81014C40.2826 5.82334 40.2464 5.82334 40.2141 5.81014L39.3521 5.62877C39.3142 5.62036 39.278 5.60555 39.2451 5.58499C39.2279 5.56466 39.2089 5.54583 39.1885 5.5287L38.9368 5.17847C38.7298 5.28917 38.5034 5.35924 38.2698 5.38485C38.017 5.40489 37.7626 5.38803 37.5147 5.33482ZM37.6846 4.478C37.814 4.49674 37.9454 4.49674 38.0747 4.478C38.1997 4.46834 38.3216 4.43434 38.4334 4.37794L37.7035 3.28972C37.5711 3.32589 37.4471 3.38751 37.3385 3.47109C37.2331 3.53366 37.1564 3.63462 37.1246 3.75252C37.0891 3.86019 37.0891 3.97633 37.1246 4.08399C37.1759 4.17884 37.2466 4.26194 37.3322 4.3279C37.4348 4.40723 37.5561 4.45893 37.6846 4.478ZM38.1754 2.25153C38.2804 2.22275 38.3834 2.18724 38.4837 2.14521C38.5681 2.1091 38.6466 2.06061 38.7166 2.00136C38.7764 1.94358 38.818 1.86967 38.8361 1.78872C38.849 1.73378 38.8495 1.67667 38.8375 1.62151C38.8256 1.56636 38.8014 1.51453 38.7669 1.46976C38.6922 1.37971 38.5871 1.3197 38.4712 1.3009C38.3596 1.27657 38.243 1.29441 38.144 1.35093C38.0915 1.37772 38.0463 1.41674 38.0124 1.46467C37.9784 1.5126 37.9566 1.56799 37.9489 1.62611C37.9395 1.68201 37.9395 1.73907 37.9489 1.79497C37.9634 1.86431 37.9867 1.93155 38.0181 1.99511C38.0631 2.08486 38.1158 2.17064 38.1754 2.25153Z" fill="#B9B9B9"/>
<path d="M44.7571 7.6301C44.3988 7.47212 44.0757 7.24461 43.807 6.9609C43.6117 6.74751 43.4771 6.48633 43.4169 6.20415C43.3639 5.96362 43.3859 5.71277 43.4798 5.48493C43.4996 5.45156 43.5312 5.42669 43.5684 5.41513C43.6056 5.40358 43.6457 5.40616 43.6811 5.42238L44.4677 5.79138C44.5174 5.81089 44.5594 5.84603 44.5872 5.89144C44.6115 5.92747 44.6286 5.96782 44.6376 6.01027C44.6363 6.09311 44.6491 6.17556 44.6753 6.25418C44.7148 6.35129 44.7749 6.43877 44.8515 6.5106C44.9498 6.60298 45.0624 6.679 45.185 6.73575C45.3774 6.84046 45.5952 6.89024 45.8142 6.8796C45.8836 6.87595 45.9507 6.85367 46.0083 6.81512C46.0659 6.77657 46.1119 6.7232 46.1414 6.6607C46.1617 6.61762 46.1722 6.57066 46.1722 6.52311C46.1722 6.47557 46.1617 6.4286 46.1414 6.38552C46.0806 6.26658 45.9973 6.16041 45.896 6.07281C45.7702 5.96024 45.594 5.81639 45.3738 5.64753C45.1145 5.46299 44.8798 5.24654 44.6753 5.00336C44.5178 4.82626 44.4113 4.61019 44.367 4.37794C44.3334 4.12832 44.3797 3.87453 44.4991 3.65246C44.6108 3.40869 44.7983 3.20701 45.034 3.07708C45.2886 2.94136 45.5762 2.87857 45.8646 2.89571C46.2084 2.90452 46.5468 2.98327 46.8588 3.12711C47.1219 3.2403 47.3627 3.39913 47.5698 3.59617C47.7383 3.75612 47.8768 3.9446 47.9788 4.15279C48.0609 4.32836 48.1119 4.51664 48.1298 4.70941C48.1453 4.86757 48.1193 5.02703 48.0543 5.17222C48.0489 5.18993 48.0392 5.20605 48.026 5.21914C48.0128 5.23223 47.9966 5.24189 47.9788 5.24727C47.9618 5.2578 47.9422 5.26339 47.9222 5.26339C47.9021 5.26339 47.8825 5.2578 47.8655 5.24727L47.0412 4.85951C46.9987 4.84285 46.9616 4.81469 46.9343 4.77821C46.9076 4.7435 46.8903 4.7026 46.8839 4.65938C46.8981 4.54071 46.8691 4.42091 46.8021 4.32165C46.7101 4.18961 46.581 4.08739 46.4309 4.02771C46.2794 3.94444 46.1059 3.9095 45.9338 3.92764C45.8692 3.9341 45.8075 3.95787 45.7555 3.99642C45.7034 4.03497 45.6628 4.08686 45.6381 4.14654C45.6066 4.22916 45.6066 4.32033 45.6381 4.40296C45.6802 4.51908 45.7517 4.62246 45.8457 4.70316C45.9943 4.84451 46.1519 4.97612 46.3176 5.09717C46.6093 5.29806 46.8755 5.53325 47.1105 5.79763C47.273 5.97214 47.3822 6.18909 47.4251 6.42305C47.4528 6.66846 47.4068 6.91654 47.2929 7.13602C47.1726 7.405 46.9641 7.62548 46.7015 7.76143C46.4226 7.89035 46.1139 7.9422 45.808 7.91153C45.4428 7.88536 45.0861 7.78982 44.7571 7.6301Z" fill="#B9B9B9"/>
<path d="M47.708 9.11221C47.6873 9.09928 47.6698 9.08189 47.6567 9.06133C47.6436 9.04076 47.6354 9.01754 47.6325 8.99339C47.6176 8.95301 47.6176 8.90868 47.6325 8.8683L50.2313 5.21588C50.2433 5.19763 50.259 5.18208 50.2774 5.17024C50.2958 5.15839 50.3166 5.1505 50.3382 5.14708C50.3588 5.13713 50.3814 5.13196 50.4043 5.13196C50.4272 5.13196 50.4498 5.13713 50.4704 5.14708L53.1068 7.02333C53.1266 7.03591 53.1434 7.0524 53.1564 7.07177C53.1694 7.09114 53.1783 7.11298 53.1824 7.1359C53.1914 7.15553 53.1961 7.17686 53.1961 7.19845C53.1961 7.22003 53.1914 7.24136 53.1824 7.26099L52.8048 7.79259C52.7793 7.82949 52.7414 7.85611 52.6978 7.86764C52.6506 7.87272 52.6032 7.85926 52.5657 7.83011L50.7661 6.57929L50.225 7.33604L51.905 8.51807C51.9241 8.53069 51.9402 8.5473 51.9522 8.56675C51.9641 8.58619 51.9716 8.608 51.9742 8.63064C51.9886 8.67326 51.9886 8.71937 51.9742 8.76198L51.6219 9.2498C51.6098 9.26805 51.5941 9.2836 51.5757 9.29545C51.5573 9.3073 51.5366 9.31518 51.5149 9.3186C51.494 9.32737 51.4715 9.33189 51.4488 9.33189C51.4261 9.33189 51.4037 9.32737 51.3828 9.3186L49.6712 8.13031L49.1175 8.91208L50.9675 10.1879C50.9858 10.1999 51.0015 10.2155 51.0134 10.2338C51.0253 10.2521 51.0332 10.2727 51.0367 10.2942C51.0467 10.3147 51.0519 10.3372 51.0519 10.3599C51.0519 10.3827 51.0467 10.4051 51.0367 10.4256L50.6654 10.9509C50.6376 10.9883 50.5975 11.0148 50.5522 11.026C50.5292 11.0297 50.5056 11.0289 50.4829 11.0235C50.4603 11.0181 50.4389 11.0084 50.42 10.9947L47.708 9.11221Z" fill="#B9B9B9"/>
<path d="M52.7421 13.2651C52.4689 12.9994 52.2546 12.6798 52.1129 12.327C51.9956 12.0215 51.9737 11.6881 52.05 11.3701C52.1377 11.0193 52.3205 10.6992 52.5785 10.4445C52.7107 10.3069 52.8491 10.163 53.0064 10.0129L53.4532 9.5814C53.714 9.33361 54.0348 9.15696 54.3844 9.06856C54.7079 8.99961 55.0446 9.02569 55.3534 9.14361C55.7082 9.28144 56.0282 9.49493 56.291 9.76902C56.4942 9.96735 56.666 10.1951 56.8007 10.4445C56.9277 10.6643 57.011 10.9063 57.0461 11.1574C57.0847 11.3924 57.0672 11.6331 56.9951 11.8602C56.923 12.0872 56.7982 12.2942 56.6308 12.4646C56.6184 12.4789 56.6029 12.4904 56.5855 12.4979C56.5681 12.5055 56.5491 12.5091 56.5301 12.5083C56.5097 12.5079 56.4897 12.5033 56.4712 12.4947C56.4528 12.486 56.4364 12.4737 56.4231 12.4583L55.7939 11.8016C55.7555 11.7694 55.7289 11.7254 55.7184 11.6765C55.7183 11.6214 55.7336 11.5673 55.7624 11.5202C55.8811 11.3532 55.9285 11.1464 55.8946 10.9448C55.8469 10.7645 55.7513 10.6003 55.6177 10.4695C55.4676 10.3071 55.2602 10.2086 55.0388 10.1943C54.7838 10.2126 54.5454 10.3266 54.3718 10.5133C54.095 10.7697 53.8181 11.0386 53.5475 11.3263C53.3558 11.4966 53.2385 11.7344 53.2203 11.9892C53.225 12.0982 53.2513 12.2051 53.2977 12.3038C53.3442 12.4026 53.4098 12.4912 53.4909 12.5646C53.6197 12.7023 53.7858 12.8 53.9691 12.8461C54.0681 12.8642 54.1698 12.8625 54.2681 12.841C54.3665 12.8195 54.4595 12.7787 54.5417 12.721C54.5874 12.6885 54.6431 12.673 54.699 12.6772C54.7488 12.6862 54.7935 12.7128 54.8249 12.7522L55.4541 13.4089C55.4687 13.4224 55.4802 13.4389 55.4878 13.4573C55.4954 13.4757 55.499 13.4954 55.4982 13.5153C55.4989 13.5342 55.4953 13.553 55.4877 13.5703C55.4801 13.5876 55.4686 13.603 55.4541 13.6153C55.2764 13.7857 55.0609 13.9121 54.8249 13.9843C54.6002 14.0491 54.3639 14.064 54.1327 14.0281C53.8811 13.9826 53.6401 13.8914 53.4217 13.7592C53.1721 13.6283 52.9432 13.4619 52.7421 13.2651Z" fill="#B9B9B9"/>
<path d="M56.0582 17.2739C55.8391 16.9713 55.6868 16.626 55.6114 16.2607C55.5465 15.942 55.5862 15.611 55.7247 15.3164C55.8955 14.9792 56.1568 14.6957 56.4798 14.4971L58.8142 12.9273C58.8322 12.9122 58.8536 12.9015 58.8765 12.896C58.8995 12.8906 58.9234 12.8906 58.9463 12.896C58.9694 12.9001 58.9914 12.9089 59.0109 12.9218C59.0304 12.9347 59.0469 12.9515 59.0596 12.9711L59.5567 13.7028C59.5749 13.7469 59.5749 13.7963 59.5567 13.8404C59.5532 13.8619 59.5453 13.8825 59.5334 13.9008C59.5215 13.9191 59.5058 13.9348 59.4875 13.9467L57.153 15.5228C56.9386 15.6409 56.7802 15.8389 56.7126 16.0731C56.6925 16.1825 56.6962 16.2948 56.7233 16.4027C56.7505 16.5105 56.8004 16.6114 56.8699 16.6985C56.9268 16.793 57.0025 16.8749 57.0923 16.9394C57.182 17.0039 57.2841 17.0496 57.3921 17.0738C57.5183 17.0926 57.6469 17.0857 57.7703 17.0535C57.8936 17.0212 58.009 16.9643 58.1095 16.8862L60.4376 15.3164C60.4585 15.3076 60.481 15.3031 60.5037 15.3031C60.5264 15.3031 60.5488 15.3076 60.5697 15.3164C60.5913 15.3201 60.6119 15.3282 60.6302 15.34C60.6486 15.3518 60.6644 15.3672 60.6767 15.3852L61.1864 16.1294C61.2019 16.1697 61.2019 16.2142 61.1864 16.2545C61.1841 16.278 61.176 16.3005 61.1628 16.3202C61.1496 16.3398 61.1318 16.3559 61.1109 16.3671L58.7764 17.9431C58.4722 18.1647 58.1136 18.3008 57.7382 18.3371C57.4114 18.3576 57.0868 18.272 56.8132 18.0932C56.5043 17.8782 56.2466 17.5986 56.0582 17.2739Z" fill="#B9B9B9"/>
<path d="M57.9395 20.207C57.9303 20.1863 57.9255 20.164 57.9255 20.1414C57.9255 20.1187 57.9303 20.0964 57.9395 20.0757C57.9564 20.0348 57.9877 20.0014 58.0276 19.9819L62.1553 18.1994C62.198 18.1842 62.2448 18.1842 62.2875 18.1994C62.3301 18.2172 62.364 18.2509 62.3818 18.2933L63.1369 20.0132C63.3663 20.4608 63.4309 20.9741 63.3194 21.4641C63.259 21.6749 63.1494 21.8685 62.9997 22.0293C62.8499 22.1901 62.6641 22.3136 62.4574 22.3897C62.1917 22.5175 61.893 22.5612 61.6016 22.5148C61.3323 22.4613 61.0837 22.3334 60.8843 22.1458L59.695 23.6843C59.6812 23.7059 59.6616 23.7233 59.6384 23.7344C59.6017 23.7468 59.5619 23.7468 59.5251 23.7344C59.4909 23.7181 59.4624 23.6919 59.4433 23.6593L59.0784 22.8213C59.0633 22.79 59.0555 22.7558 59.0555 22.7212C59.0555 22.6866 59.0633 22.6524 59.0784 22.6211C59.0981 22.5745 59.1235 22.5304 59.1539 22.4898L60.2362 21.1639L59.953 20.5385L58.5435 21.1639C58.5239 21.1733 58.5024 21.1782 58.4806 21.1782C58.4588 21.1782 58.4373 21.1733 58.4177 21.1639C58.3942 21.1563 58.3728 21.1432 58.3553 21.1258C58.3378 21.1085 58.3247 21.0872 58.317 21.0638L57.9395 20.207ZM60.8402 20.1195L61.1548 20.845C61.2131 21.0117 61.3352 21.1488 61.4946 21.2265C61.5672 21.2572 61.6454 21.2731 61.7243 21.2731C61.8032 21.2731 61.8814 21.2572 61.954 21.2265C62.1077 21.163 62.2299 21.0416 62.2938 20.8887C62.3212 20.8046 62.3314 20.716 62.3239 20.6279C62.3163 20.5398 62.2911 20.4541 62.2497 20.3759L61.9288 19.6504L60.8402 20.1195Z" fill="#B9B9B9"/>
<path d="M59.8396 24.9477C59.8304 24.927 59.8257 24.9047 59.8257 24.8821C59.8257 24.8594 59.8304 24.8371 59.8396 24.8164C59.8651 24.7795 59.9031 24.7529 59.9466 24.7413L64.3512 23.7094C64.372 23.7003 64.3945 23.6956 64.4173 23.6956C64.44 23.6956 64.4625 23.7003 64.4833 23.7094C64.5029 23.7207 64.5197 23.736 64.5327 23.7544C64.5458 23.7727 64.5547 23.7937 64.5588 23.8157L65.3076 26.9428C65.3172 26.9634 65.3222 26.9858 65.3222 27.0085C65.3222 27.0311 65.3172 27.0536 65.3076 27.0741C65.281 27.1127 65.2404 27.1396 65.1944 27.1492L64.5651 27.2993C64.5444 27.3088 64.5219 27.3137 64.4991 27.3137C64.4762 27.3137 64.4537 27.3088 64.433 27.2993C64.3942 27.2728 64.3671 27.2325 64.3575 27.1867L63.8415 25.054L62.9228 25.2667L63.4011 27.2555C63.4106 27.2761 63.4156 27.2985 63.4156 27.3212C63.4156 27.3439 63.4106 27.3663 63.4011 27.3868C63.3891 27.4076 63.3728 27.4256 63.3532 27.4396C63.3337 27.4536 63.3114 27.4633 63.2878 27.4681L62.7026 27.6057C62.6621 27.6211 62.6173 27.6211 62.5768 27.6057C62.5559 27.5938 62.5378 27.5776 62.5237 27.5582C62.5096 27.5388 62.4998 27.5166 62.495 27.4932L62.0168 25.5106L61.0352 25.7107L61.5637 27.8997C61.5733 27.9203 61.5783 27.9427 61.5783 27.9654C61.5783 27.988 61.5733 28.0104 61.5637 28.031C61.5371 28.0696 61.4965 28.0965 61.4504 28.1061L60.8212 28.2562C60.8004 28.2653 60.7779 28.27 60.7551 28.27C60.7324 28.27 60.7099 28.2653 60.6891 28.2562C60.67 28.2443 60.6536 28.2288 60.6406 28.2105C60.6276 28.1923 60.6185 28.1717 60.6136 28.1498L59.8396 24.9477Z" fill="#B9B9B9"/>
<path d="M60.3619 38.8194C60.3665 38.7975 60.3755 38.7767 60.3885 38.7584C60.4015 38.7401 60.4182 38.7247 60.4375 38.7131C60.4582 38.7036 60.4807 38.6986 60.5035 38.6986C60.5263 38.6986 60.5489 38.7036 60.5696 38.7131L63.7975 39.3385L63.269 38.2691C63.2598 38.2484 63.2551 38.226 63.2551 38.2034C63.2551 38.1808 63.2598 38.1584 63.269 38.1377C63.2894 38.0949 63.3254 38.0614 63.3697 38.0439L63.9989 37.75C64.0438 37.7347 64.0925 37.7347 64.1373 37.75C64.1608 37.7576 64.1822 37.7706 64.1997 37.788C64.2172 37.8054 64.2303 37.8267 64.238 37.85L65.1252 39.645C65.1273 39.6741 65.1273 39.7034 65.1252 39.7325C65.1281 39.7616 65.1281 39.791 65.1252 39.8201L64.9302 40.6519C64.9276 40.6745 64.92 40.6963 64.9081 40.7158C64.8961 40.7352 64.88 40.7518 64.8609 40.7645C64.8402 40.774 64.8177 40.7789 64.7949 40.7789C64.7721 40.7789 64.7495 40.774 64.7288 40.7645L60.3242 39.8764C60.2807 39.8648 60.2427 39.8382 60.2172 39.8013C60.2062 39.7812 60.2004 39.7586 60.2004 39.7357C60.2004 39.7127 60.2062 39.6901 60.2172 39.67L60.3619 38.8194Z" fill="#B9B9B9"/>
<path d="M59.1475 42.8346C59.2472 42.5613 59.3941 42.3073 59.5816 42.0841C59.7416 41.9026 59.939 41.7576 60.1605 41.6589C60.3728 41.5667 60.6022 41.5198 60.8338 41.5213C61.0773 41.522 61.3193 41.56 61.5511 41.6338L61.9538 41.7714C62.1049 41.8215 62.2559 41.8778 62.4069 41.9403L62.8159 42.1029C63.0454 42.1973 63.258 42.3283 63.4451 42.4907C63.6159 42.6423 63.7531 42.8276 63.8478 43.0348C63.9453 43.2555 63.9946 43.4942 63.9925 43.7352C63.9921 44.0224 63.9366 44.3068 63.8289 44.5733C63.7313 44.8476 63.5842 45.1019 63.3948 45.3238C63.2393 45.5047 63.0461 45.6499 62.8285 45.7491C62.6163 45.843 62.3874 45.8941 62.1552 45.8992C61.9119 45.9028 61.6696 45.8669 61.4379 45.7929L60.9785 45.6553L60.5255 45.4864L60.1291 45.3301C59.9003 45.2341 59.688 45.1033 59.4998 44.9423C59.3267 44.7899 59.1856 44.605 59.0845 44.3982C58.9815 44.1813 58.9299 43.9438 58.9335 43.704C58.9473 43.4031 59.0199 43.1078 59.1475 42.8346ZM60.085 43.1849C60.0455 43.2759 60.0283 43.375 60.0348 43.474C60.0414 43.5729 60.0715 43.6689 60.1228 43.754C60.2562 43.9299 60.4406 44.0609 60.6513 44.1293L61.0352 44.2919L61.4505 44.4482C61.5889 44.4982 61.721 44.542 61.8406 44.5733C62.0393 44.6566 62.2593 44.6762 62.4698 44.6296C62.5625 44.5965 62.6469 44.5438 62.7171 44.4752C62.7873 44.4065 62.8416 44.3235 62.8763 44.2319C62.911 44.1403 62.9253 44.0422 62.9181 43.9446C62.9109 43.847 62.8825 43.7521 62.8348 43.6664C62.7037 43.4921 62.5244 43.3596 62.3188 43.2849L61.9161 43.1536L61.5008 42.9973L61.1044 42.8534C60.9035 42.7785 60.6855 42.7611 60.4751 42.8034C60.3782 42.8265 60.2888 42.8736 60.2151 42.9403C60.1413 43.007 60.0858 43.0911 60.0536 43.1849H60.085Z" fill="#B9B9B9"/>
<path d="M56.9326 47.35C57.0792 47.0967 57.2712 46.872 57.4989 46.6871C57.6849 46.5397 57.8989 46.4312 58.1282 46.3681C58.3565 46.3213 58.592 46.3213 58.8203 46.3681C59.0605 46.4096 59.2921 46.4899 59.5062 46.6058L59.8774 46.8122L60.2927 47.0561L60.664 47.2938C60.868 47.4261 61.0487 47.5909 61.1988 47.7816C61.3441 47.9657 61.4472 48.1792 61.5008 48.407C61.5517 48.642 61.5517 48.885 61.5008 49.12C61.4421 49.4015 61.3334 49.6705 61.1799 49.9142C61.036 50.1551 60.8482 50.3671 60.6262 50.5397C60.4428 50.6923 60.2281 50.8033 59.997 50.8649C59.7705 50.9087 59.5376 50.9087 59.3111 50.8649C59.0792 50.8316 58.8541 50.7619 58.6441 50.6585L58.2603 50.4459L57.845 50.1957L57.4864 49.9705C57.2824 49.8381 57.1018 49.6733 56.9515 49.4827C56.8043 49.2982 56.6993 49.084 56.6438 48.855C56.5884 48.626 56.5839 48.3877 56.6306 48.1568C56.6836 47.8726 56.7858 47.5996 56.9326 47.35ZM57.7947 47.8629C57.7393 47.9447 57.7042 48.0383 57.6922 48.1361C57.6802 48.2339 57.6916 48.3332 57.7255 48.4258C57.8278 48.6207 57.9853 48.7816 58.1785 48.8886C58.2918 48.9636 58.405 49.0449 58.5309 49.12L58.9147 49.3451C59.0406 49.4202 59.1601 49.4827 59.2734 49.539C59.4613 49.6567 59.6806 49.7156 59.9026 49.7079C60.0026 49.698 60.0984 49.6629 60.1809 49.606C60.2635 49.5491 60.3301 49.4722 60.3745 49.3826C60.4319 49.3016 60.4673 49.2072 60.4772 49.1086C60.4872 49.01 60.4713 48.9105 60.4312 48.8198C60.3328 48.6282 60.1824 48.4679 59.997 48.357L59.632 48.1568L59.2545 47.9317L58.8895 47.719C58.7009 47.6035 58.4817 47.5468 58.2603 47.5564C58.1628 47.5638 58.0689 47.5958 57.9874 47.6494C57.9058 47.7031 57.8395 47.7765 57.7947 47.8629Z" fill="#B9B9B9"/>
<path d="M52.7421 52.835C52.9168 52.6241 53.1629 52.484 53.4343 52.441C53.6881 52.4176 53.9411 52.4939 54.139 52.6536L54.3781 52.86C54.4494 52.9184 54.5312 52.9934 54.6235 53.0851C54.7189 53.1756 54.7948 53.2842 54.8467 53.4046C54.8986 53.525 54.9254 53.6546 54.9255 53.7856C54.9128 54.0617 54.796 54.3229 54.5983 54.5173C54.427 54.7362 54.1763 54.8798 53.8999 54.9176C53.7742 54.9287 53.6476 54.9145 53.5276 54.8758C53.4076 54.8371 53.2966 54.7748 53.2015 54.6925C53.0945 54.6111 53.0127 54.5424 52.9435 54.4798C52.8743 54.4173 52.7987 54.3485 52.7107 54.2609C52.6205 54.1741 52.549 54.0701 52.5003 53.9551C52.4517 53.8401 52.4269 53.7165 52.4275 53.5917C52.4293 53.3084 52.5421 53.0369 52.7421 52.835ZM53.2015 53.2352C53.1536 53.2825 53.1227 53.344 53.1134 53.4104C53.1008 53.4617 53.1008 53.5153 53.1134 53.5667C53.1373 53.6191 53.1691 53.6676 53.2077 53.7106C53.277 53.7856 53.3525 53.8544 53.4154 53.9107L53.6356 54.0921C53.7036 54.1441 53.7837 54.1785 53.8684 54.1921C53.9144 54.1931 53.9599 54.1834 54.0014 54.1639C54.0429 54.1444 54.0792 54.1155 54.1075 54.0796C54.1411 54.048 54.1662 54.0085 54.1805 53.9648C54.1948 53.9211 54.1978 53.8746 54.1893 53.8294C54.1689 53.7461 54.1253 53.6703 54.0635 53.6105L53.8559 53.4166L53.6356 53.229C53.5909 53.1978 53.5422 53.1726 53.4909 53.1539C53.4375 53.1383 53.3807 53.1383 53.3273 53.1539C53.279 53.1698 53.2357 53.1978 53.2015 53.2352ZM55.0891 50.2833C55.1584 50.202 55.2276 50.1957 55.2968 50.252C55.3166 50.2727 55.3297 50.2989 55.3345 50.3271L56.4042 55.837C56.4102 55.8826 56.4102 55.9289 56.4042 55.9746C56.3954 56.0244 56.3712 56.0703 56.335 56.1059L56.0078 56.4686C55.9323 56.5499 55.8631 56.5562 55.7939 56.4686C55.7729 56.4513 55.7594 56.4267 55.7561 56.3998L54.6864 50.8837C54.6836 50.8399 54.6836 50.7961 54.6864 50.7523C54.6977 50.7171 54.7171 50.685 54.7431 50.6585L55.0891 50.2833ZM56.5049 52.2846C56.6773 52.07 56.9242 51.9273 57.1971 51.8843C57.3209 51.8717 57.446 51.884 57.565 51.9205C57.6839 51.9571 57.7942 52.0171 57.8892 52.097C57.9738 52.1577 58.0537 52.2246 58.1283 52.2971L58.3737 52.5285C58.4645 52.6084 58.5385 52.7053 58.5914 52.8137C58.6443 52.9221 58.6751 53.0399 58.6821 53.1602C58.6754 53.4401 58.5604 53.7066 58.3611 53.9044C58.1844 54.1203 57.9332 54.263 57.6564 54.3047C57.404 54.3216 57.1551 54.2384 56.9643 54.0733C56.8636 53.9982 56.7755 53.9232 56.7126 53.8669C56.6496 53.8106 56.5615 53.7293 56.4797 53.6418C56.3884 53.5569 56.3155 53.4542 56.2657 53.3402C56.2159 53.2261 56.1903 53.1031 56.1903 52.9788C56.2115 52.717 56.3252 52.4711 56.5112 52.2846H56.5049ZM56.958 52.6849C56.911 52.7277 56.88 52.785 56.8699 52.8475C56.8541 52.9006 56.8541 52.957 56.8699 53.0101C56.894 53.0603 56.9283 53.105 56.9705 53.1414C57.0461 53.2227 57.109 53.2853 57.1782 53.3478C57.2478 53.4107 57.3214 53.4692 57.3984 53.5229C57.465 53.5773 57.5457 53.612 57.6312 53.623C57.6769 53.6268 57.7228 53.6191 57.7646 53.6005C57.8064 53.5819 57.8428 53.5531 57.8703 53.5167C57.9039 53.4851 57.929 53.4456 57.9433 53.4019C57.9576 53.3582 57.9606 53.3117 57.9521 53.2665C57.9292 53.1843 57.8859 53.109 57.8263 53.0476C57.7571 52.9788 57.6879 52.91 57.6187 52.8537L57.3984 52.6661C57.3537 52.635 57.305 52.6097 57.2537 52.5911C57.2008 52.5725 57.143 52.5725 57.0901 52.5911C57.0397 52.6093 56.9959 52.6419 56.9643 52.6849H56.958Z" fill="#B9B9B9"/>
<path d="M48.136 56.481C48.4582 56.2577 48.8218 56.1004 49.2057 56.0182C49.4926 55.9603 49.7897 55.9775 50.0678 56.0683C50.3008 56.1496 50.5029 56.3003 50.6467 56.4998C50.6561 56.516 50.661 56.5343 50.661 56.553C50.661 56.5716 50.6561 56.59 50.6467 56.6061C50.6439 56.6254 50.6367 56.6438 50.6259 56.6601C50.615 56.6763 50.6006 56.6899 50.5838 56.6999L49.8539 57.1752C49.8124 57.208 49.762 57.2276 49.7091 57.2315C49.6676 57.2398 49.6248 57.2398 49.5833 57.2315C49.5079 57.1933 49.4273 57.1659 49.3442 57.1502C49.243 57.1248 49.137 57.1248 49.0359 57.1502C48.9028 57.1836 48.777 57.2408 48.6646 57.3191C48.484 57.4222 48.3342 57.5711 48.2304 57.7506C48.195 57.8103 48.1763 57.8783 48.1763 57.9476C48.1763 58.0169 48.195 58.085 48.2304 58.1446C48.2555 58.1854 48.2894 58.22 48.3297 58.246C48.37 58.272 48.4156 58.2886 48.4632 58.2947C48.597 58.3082 48.7321 58.2933 48.8597 58.251C49.0233 58.2009 49.2372 58.1321 49.4889 58.0258C49.7809 57.91 50.0847 57.8261 50.395 57.7756C50.6411 57.734 50.8941 57.7622 51.1249 57.8569C51.3603 57.97 51.558 58.1481 51.6942 58.3699C51.8303 58.5918 51.8992 58.848 51.8926 59.1078C51.8765 59.392 51.783 59.6666 51.622 59.902C51.4238 60.1879 51.169 60.4305 50.8732 60.615C50.635 60.7723 50.374 60.8925 50.0993 60.9715C49.874 61.0326 49.6393 61.0517 49.4071 61.0278C49.2121 61.0076 49.0223 60.9526 48.8471 60.8652C48.7043 60.7962 48.5811 60.6931 48.4884 60.565C48.4759 60.5306 48.4759 60.493 48.4884 60.4587C48.4916 60.4395 48.4989 60.4212 48.5098 60.4051C48.5206 60.3889 48.5348 60.3752 48.5513 60.3649L49.319 59.8645C49.3573 59.8399 49.4 59.8229 49.4449 59.8145C49.4864 59.8062 49.5292 59.8062 49.5707 59.8145C49.6658 59.8873 49.7845 59.9229 49.9042 59.9146C50.0655 59.9081 50.2212 59.8536 50.3509 59.7582C50.4943 59.6793 50.6104 59.5595 50.6844 59.4142C50.7052 59.3644 50.7153 59.3107 50.7141 59.2567C50.7128 59.2028 50.7003 59.1496 50.6772 59.1008C50.6541 59.0519 50.621 59.0084 50.5799 58.973C50.5389 58.9375 50.4909 58.911 50.439 58.8951C50.3213 58.8655 50.1981 58.8655 50.0804 58.8951C49.8787 58.9452 49.681 59.01 49.4889 59.089C49.1646 59.2307 48.8246 59.3336 48.4758 59.3955C48.2331 59.4438 47.9814 59.4198 47.7522 59.3267C47.5281 59.2225 47.3399 59.055 47.2111 58.8451C47.0439 58.6058 46.966 58.3161 46.9908 58.0258C47.0247 57.7229 47.1375 57.434 47.318 57.1878C47.5468 56.9062 47.8237 56.667 48.136 56.481Z" fill="#B9B9B9"/>
<path d="M45.8205 58.0198C45.8384 58.0122 45.8576 58.0083 45.8771 58.0083C45.8966 58.0083 45.9158 58.0122 45.9337 58.0198C45.9518 58.026 45.9685 58.0358 45.9825 58.0488C45.9966 58.0617 46.0079 58.0774 46.0155 58.0948V58.1511L46.2546 62.848C46.2698 62.899 46.2698 62.9533 46.2546 63.0043C46.2239 63.0626 46.1722 63.1072 46.1099 63.1294L45.1661 63.5297C45.1055 63.554 45.0378 63.554 44.9773 63.5297C44.9259 63.5133 44.8801 63.483 44.8452 63.4421L41.6046 60.0399C41.5906 60.0221 41.578 60.0033 41.5669 59.9836C41.559 59.9669 41.5549 59.9488 41.5549 59.9304C41.5549 59.912 41.559 59.8939 41.5669 59.8772C41.5723 59.8588 41.582 59.8419 41.5951 59.8279C41.6082 59.8138 41.6244 59.8028 41.6424 59.7959L42.4289 59.4645C42.4544 59.4523 42.4824 59.4459 42.5107 59.4459C42.539 59.4459 42.567 59.4523 42.5925 59.4645C42.6283 59.475 42.6607 59.4944 42.6869 59.5208L43.2154 60.0649L44.9144 59.3456V58.5952C44.9032 58.5585 44.9032 58.5193 44.9144 58.4826C44.9144 58.4367 44.9584 58.3992 45.0465 58.37L45.8205 58.0198ZM45.0528 60.3463L43.8636 60.8466L45.1724 62.2663L45.0528 60.3463Z" fill="#B9B9B9"/>
<path d="M40.4469 60.1023C40.4676 60.0928 40.4902 60.0879 40.513 60.0879C40.5358 60.0879 40.5583 60.0928 40.579 60.1023C40.5992 60.1129 40.6165 60.1281 40.6296 60.1465C40.6427 60.165 40.6513 60.1863 40.6546 60.2087L41.6613 64.5866C41.6709 64.6072 41.6759 64.6296 41.6759 64.6522C41.6759 64.6749 41.6709 64.6973 41.6613 64.7179C41.6347 64.7565 41.5941 64.7834 41.5481 64.793L38.446 65.4997C38.4034 65.5155 38.3564 65.5155 38.3138 65.4997C38.275 65.4732 38.2479 65.4329 38.2383 65.3871L38.081 64.7117C38.0714 64.6911 38.0665 64.6687 38.0665 64.646C38.0665 64.6233 38.0714 64.6009 38.081 64.5803C38.1076 64.5417 38.1482 64.5148 38.1943 64.5053L40.277 64.03L40.0505 63.0418L38.0999 63.4858C38.0792 63.4954 38.0566 63.5003 38.0338 63.5003C38.011 63.5003 37.9885 63.4954 37.9677 63.4858C37.9316 63.4569 37.9052 63.4176 37.8922 63.3733L37.7538 62.6665C37.7383 62.6263 37.7383 62.5817 37.7538 62.5415C37.7637 62.5203 37.7786 62.5019 37.7972 62.4877C37.8158 62.4735 37.8377 62.4641 37.8608 62.4602L39.8114 62.0161L39.459 60.5026C39.4435 60.4623 39.4435 60.4178 39.459 60.3775C39.4689 60.3564 39.4838 60.3379 39.5024 60.3238C39.521 60.3096 39.5429 60.3002 39.566 60.2962L40.4469 60.1023Z" fill="#B9B9B9"/>
<path d="M35.8976 61.003C35.9205 61.0003 35.9438 61.0028 35.9656 61.0104C35.9874 61.018 36.0072 61.0304 36.0234 61.0468C36.041 61.0614 36.0551 61.0795 36.0649 61.1C36.0747 61.1205 36.0799 61.1429 36.0801 61.1657L36.3443 65.6311C36.3479 65.6534 36.3464 65.6763 36.3399 65.6979C36.3333 65.7196 36.3219 65.7395 36.3066 65.7562C36.2745 65.7882 36.2323 65.8081 36.187 65.8125L32.9591 66.0001C32.9111 66.0022 32.8641 65.9866 32.8269 65.9563C32.8102 65.9415 32.797 65.9231 32.7883 65.9026C32.7796 65.882 32.7756 65.8598 32.7766 65.8375L32.7325 65.2121C32.731 65.1894 32.7341 65.1666 32.7417 65.1451C32.7493 65.1236 32.7611 65.1038 32.7766 65.087C32.7906 65.0688 32.8087 65.0543 32.8295 65.0445C32.8503 65.0347 32.8731 65.03 32.8961 65.0307L35.1047 64.8994L35.0481 63.9738L32.9968 64.0926C32.9729 64.095 32.9488 64.0923 32.926 64.0848C32.9033 64.0772 32.8823 64.065 32.8647 64.0488C32.8484 64.0323 32.8356 64.0127 32.8269 63.9913C32.8183 63.9698 32.814 63.9468 32.8143 63.9237L32.7766 63.2983C32.7749 63.2526 32.7906 63.2079 32.8206 63.1732C32.8343 63.1547 32.8523 63.1398 32.8732 63.13C32.8941 63.1201 32.9171 63.1157 32.9402 63.1169L34.9915 62.9919L34.9349 62.0412L32.6759 62.1726C32.6531 62.1741 32.6301 62.171 32.6085 62.1635C32.5869 62.1559 32.567 62.1441 32.5501 62.1288C32.5314 62.1153 32.5164 62.0973 32.5065 62.0765C32.4967 62.0558 32.4921 62.0329 32.4934 62.01L32.4557 61.3845C32.453 61.3617 32.4553 61.3385 32.4623 61.3165C32.4693 61.2946 32.4809 61.2744 32.4964 61.2572C32.5118 61.2401 32.5308 61.2264 32.552 61.2171C32.5732 61.2078 32.5961 61.203 32.6193 61.2032L35.8976 61.003Z" fill="#B9B9B9"/>
<path d="M27.7867 60.6652C28.1035 60.72 28.4068 60.8346 28.6802 61.0029C28.9053 61.1468 29.0826 61.3535 29.1899 61.597C29.293 61.8444 29.3172 62.1173 29.2591 62.3788C29.2283 62.56 29.1551 62.7314 29.0452 62.8792C28.934 63.0214 28.7975 63.1422 28.6425 63.2356C28.4701 63.3409 28.2865 63.4269 28.0951 63.4921C28.2188 63.6845 28.3102 63.8958 28.3656 64.1175C28.4032 64.2822 28.4032 64.4531 28.3656 64.6178C28.3297 64.8261 28.2335 65.0195 28.0888 65.1744C27.932 65.3394 27.7312 65.4565 27.5099 65.5121C27.2307 65.5788 26.9396 65.5788 26.6604 65.5121C26.3937 65.467 26.1414 65.3599 25.9242 65.1994C25.7453 65.0672 25.6078 64.8872 25.5278 64.6803C25.4493 64.4815 25.4296 64.2645 25.4712 64.0549C25.5032 63.8837 25.5766 63.7227 25.6851 63.5859C25.8014 63.453 25.9398 63.3409 26.0941 63.2544C26.2715 63.1536 26.4593 63.0718 26.6541 63.0105L26.0249 62.0536L25.8172 62.2975C25.7048 62.4413 25.6078 62.5965 25.5278 62.7603C25.5222 62.7753 25.5137 62.789 25.5027 62.8006C25.4917 62.8122 25.4785 62.8214 25.4638 62.8279C25.4491 62.8343 25.4333 62.8377 25.4173 62.8379C25.4012 62.8381 25.3853 62.8351 25.3705 62.8291L24.6783 62.6978C24.6603 62.6957 24.643 62.6895 24.6278 62.6797C24.6125 62.67 24.5997 62.6569 24.5902 62.6415C24.578 62.6114 24.578 62.5778 24.5902 62.5477C24.6167 62.4458 24.6592 62.3487 24.7161 62.26C24.7843 62.1413 24.8621 62.0283 24.9489 61.9223C25.0408 61.808 25.1396 61.6994 25.2446 61.597C25.3405 61.5003 25.4414 61.4084 25.5467 61.3219L24.9174 60.4088C24.9049 60.3744 24.9049 60.3368 24.9174 60.3024C24.9174 60.2649 24.9174 60.2336 24.9741 60.2211C24.9899 60.2143 25.0071 60.2107 25.0244 60.2107C25.0417 60.2107 25.0589 60.2143 25.0747 60.2211L25.9997 60.3963C26.0357 60.4046 26.0698 60.4194 26.1004 60.44L26.1633 60.4963L26.4087 60.8466C26.6095 60.7349 26.8292 60.6608 27.0568 60.6277C27.3007 60.6052 27.5465 60.6179 27.7867 60.6652ZM27.1575 63.7485C27.0505 63.7772 26.9454 63.8128 26.8429 63.8548C26.7591 63.8885 26.6823 63.9373 26.6164 63.9986C26.5522 64.053 26.5098 64.1285 26.4968 64.2113C26.4839 64.2662 26.4834 64.3233 26.4954 64.3785C26.5073 64.4336 26.5315 64.4855 26.566 64.5302C26.6414 64.6186 26.745 64.6785 26.8595 64.7002C26.974 64.7218 27.0925 64.7038 27.1953 64.6491C27.2459 64.6207 27.2893 64.5812 27.322 64.5334C27.3548 64.4857 27.376 64.4311 27.384 64.3739C27.3965 64.3183 27.3965 64.2606 27.384 64.205C27.3726 64.1349 27.3491 64.0672 27.3148 64.0049C27.2596 63.9156 27.1987 63.8299 27.1323 63.7485H27.1575ZM27.6483 61.522C27.5192 61.5002 27.3873 61.5002 27.2582 61.522C27.1309 61.5413 27.009 61.586 26.8995 61.6533L27.6294 62.7228C27.7618 62.6866 27.8858 62.625 27.9944 62.5414C28.0868 62.4694 28.1524 62.3688 28.1809 62.2555C28.2094 62.1423 28.1991 62.0228 28.1517 61.916C28.1049 61.82 28.0359 61.7365 27.9503 61.6721C27.8543 61.5978 27.7423 61.5464 27.6231 61.522H27.6483Z" fill="#B9B9B9"/>
<path d="M20.5444 58.3698C20.9045 58.5279 21.2295 58.7554 21.5008 59.039C21.6982 59.2527 21.8369 59.5133 21.9035 59.7957C21.9521 60.037 21.928 60.2872 21.8343 60.515C21.8262 60.5315 21.8148 60.5461 21.8007 60.558C21.7866 60.5698 21.7702 60.5786 21.7525 60.5838C21.7347 60.5917 21.7154 60.5958 21.6959 60.5958C21.6763 60.5958 21.657 60.5917 21.6392 60.5838L20.8464 60.2148C20.799 60.1915 20.758 60.1572 20.7268 60.1147C20.7074 60.077 20.6926 60.0371 20.6828 59.9959C20.6783 59.9119 20.6591 59.8294 20.6262 59.752C20.5893 59.6551 20.5313 59.5675 20.4563 59.4955C20.3561 59.4026 20.2413 59.3266 20.1165 59.2704C19.9339 59.1698 19.7274 59.1201 19.5187 59.1266C19.4483 59.1291 19.3799 59.1508 19.3211 59.1895C19.2622 59.2281 19.2152 59.282 19.1852 59.3454C19.165 59.3885 19.1545 59.4355 19.1545 59.483C19.1545 59.5306 19.165 59.5776 19.1852 59.6206C19.2461 59.7396 19.3294 59.8457 19.4306 59.9333C19.5565 60.0459 19.7264 60.1898 19.9529 60.3586C20.2051 60.54 20.4353 60.7499 20.6388 60.984C20.792 61.164 20.8979 61.3789 20.9471 61.6094C20.9774 61.859 20.9313 62.1118 20.8149 62.3349C20.7016 62.5796 20.5118 62.7814 20.2738 62.9103C20.0213 63.0455 19.7359 63.1083 19.4495 63.0917C19.1009 63.072 18.7601 62.9804 18.449 62.8227C18.1877 62.7096 17.949 62.5507 17.7443 62.3537C17.5739 62.1954 17.4351 62.0066 17.3353 61.7971C17.2516 61.6394 17.1982 61.4676 17.178 61.2905C17.1634 61.1329 17.1872 60.9742 17.2472 60.8277C17.2618 60.794 17.2888 60.7672 17.3227 60.7526C17.3409 60.7422 17.3615 60.7367 17.3825 60.7367C17.4035 60.7367 17.4241 60.7422 17.4423 60.7526L18.2666 61.1404C18.3083 61.1585 18.345 61.1864 18.3735 61.2217C18.4002 61.2564 18.4175 61.2973 18.4239 61.3405C18.4066 61.4594 18.4359 61.5802 18.5057 61.6782C18.5985 61.807 18.7246 61.9086 18.8706 61.9722C19.0141 62.0527 19.1782 62.0897 19.3425 62.0785C19.4076 62.0734 19.4699 62.0502 19.5222 62.0115C19.5745 61.9727 19.6148 61.9201 19.6383 61.8596C19.6569 61.8194 19.6666 61.7757 19.6666 61.7314C19.6666 61.6871 19.6569 61.6434 19.6383 61.6032C19.5965 61.4885 19.5274 61.3855 19.4369 61.303C19.2884 61.1616 19.1307 61.03 18.965 60.909C18.6733 60.7081 18.4071 60.4729 18.1722 60.2085C18.0093 60.0334 17.8982 59.817 17.8513 59.5831C17.8255 59.3371 17.8736 59.089 17.9897 58.8701C18.1065 58.5988 18.316 58.3773 18.5812 58.2447C18.8674 58.103 19.188 58.0445 19.5061 58.0759C19.8678 58.1075 20.2202 58.2073 20.5444 58.3698Z" fill="#B9B9B9"/>
<path d="M17.6183 56.9127C17.6382 56.926 17.6547 56.9436 17.6667 56.9642C17.6787 56.9848 17.6858 57.0078 17.6875 57.0315C17.6966 57.0512 17.7012 57.0725 17.7012 57.0941C17.7012 57.1157 17.6966 57.137 17.6875 57.1566L15.0888 60.809C15.0609 60.8464 15.0209 60.8729 14.9755 60.8841C14.9531 60.8872 14.9302 60.8855 14.9085 60.879C14.8868 60.8725 14.8667 60.8615 14.8497 60.8466L12.2069 58.9703C12.1707 58.9414 12.1444 58.9021 12.1314 58.8577C12.1283 58.8354 12.13 58.8127 12.1365 58.7911C12.143 58.7695 12.1542 58.7496 12.1692 58.7327L12.5404 58.2011C12.5695 58.1651 12.6091 58.1389 12.6537 58.126C12.701 58.1209 12.7484 58.1344 12.7858 58.1635L14.5854 59.4144L15.1014 58.6701L13.4025 57.4881C13.3824 57.4766 13.3655 57.4603 13.3534 57.4406C13.3413 57.4209 13.3344 57.3985 13.3332 57.3755C13.3161 57.3334 13.3161 57.2863 13.3332 57.2442L13.6793 56.7564C13.6926 56.7379 13.7094 56.7223 13.7289 56.7105C13.7484 56.6987 13.77 56.6909 13.7926 56.6876C13.8135 56.6788 13.8359 56.6743 13.8586 56.6743C13.8813 56.6743 13.9038 56.6788 13.9247 56.6876L15.5985 57.8696L16.1585 57.0878L14.3085 55.787C14.2884 55.7764 14.2711 55.7613 14.258 55.7428C14.2449 55.7243 14.2363 55.703 14.233 55.6806C14.2177 55.6382 14.2177 55.5918 14.233 55.5493L14.6106 55.024C14.6361 54.9871 14.674 54.9604 14.7175 54.9489C14.7384 54.9398 14.7609 54.9351 14.7836 54.9351C14.8064 54.9351 14.8289 54.9398 14.8497 54.9489L17.6183 56.9127Z" fill="#B9B9B9"/>
<path d="M12.5845 52.735C12.8617 52.9974 13.0766 53.3179 13.2137 53.6731C13.3327 53.978 13.3568 54.3113 13.2829 54.63C13.1901 54.9787 13.008 55.2976 12.7544 55.5556L12.3265 55.9871L11.8797 56.4187C11.6177 56.6635 11.2972 56.8379 10.9485 56.9253C10.6259 56.9996 10.2882 56.9756 9.97947 56.8565C9.62636 56.7155 9.30695 56.5025 9.04192 56.2311C8.83688 56.0329 8.66295 55.8052 8.52595 55.5556C8.40441 55.3339 8.32345 55.0925 8.28684 54.8426C8.24943 54.6126 8.26667 54.377 8.33718 54.1547C8.41055 53.919 8.54006 53.7045 8.71472 53.5293C8.72676 53.5145 8.74218 53.5028 8.7597 53.4952C8.77722 53.4876 8.79632 53.4843 8.8154 53.4855C8.85499 53.4877 8.89268 53.5031 8.92237 53.5293L9.5516 54.1922C9.57105 54.2073 9.58721 54.2262 9.59911 54.2477C9.611 54.2692 9.61839 54.2929 9.62081 54.3173C9.62379 54.3719 9.61067 54.4263 9.58306 54.4736C9.46386 54.6358 9.41204 54.8374 9.43833 55.0365C9.48611 55.2164 9.58431 55.379 9.72149 55.5056C9.79352 55.5877 9.8812 55.6549 9.97948 55.7032C10.0778 55.7515 10.1847 55.78 10.2941 55.787C10.5527 55.7706 10.7946 55.6538 10.9674 55.4618C11.2442 55.2116 11.5211 54.9365 11.7917 54.6488C11.9828 54.4781 12.1001 54.2405 12.1189 53.9858C12.1052 53.7687 12.0084 53.565 11.8483 53.4167C11.7158 53.2792 11.5484 53.1798 11.3638 53.129C11.1631 53.0989 10.9583 53.1459 10.7912 53.2603C10.7458 53.2933 10.6899 53.3089 10.6339 53.3041C10.5852 53.2924 10.5413 53.2663 10.508 53.2291L9.8788 52.6037C9.851 52.5745 9.83335 52.5372 9.82846 52.4973C9.82794 52.4778 9.83226 52.4585 9.84104 52.441C9.84982 52.4236 9.86278 52.4086 9.8788 52.3973C10.0571 52.2276 10.2724 52.1013 10.508 52.0283C10.7349 51.9634 10.9732 51.9484 11.2065 51.9845C11.4569 52.0202 11.6982 52.103 11.9175 52.2284C12.1627 52.3653 12.3872 52.5358 12.5845 52.735Z" fill="#B9B9B9"/>
<path d="M9.24953 48.7199C9.46517 49.0268 9.61706 49.3734 9.69628 49.7393C9.75635 50.0506 9.71445 50.3728 9.57673 50.6587C9.4033 51.0046 9.13779 51.2966 8.80907 51.503L6.46833 53.0728C6.44751 53.0819 6.42501 53.0867 6.40226 53.0867C6.37951 53.0867 6.35701 53.0819 6.33619 53.0728C6.31398 53.0687 6.29294 53.0598 6.27448 53.0469C6.25602 53.0339 6.24058 53.0172 6.22922 52.9978L5.72584 52.266C5.6999 52.2251 5.6888 52.1765 5.69438 52.1284C5.70598 52.0852 5.73276 52.0475 5.76988 52.0221L8.10433 50.4461C8.3159 50.3261 8.47176 50.1285 8.5385 49.8957C8.5582 49.7867 8.55496 49.6749 8.52896 49.5673C8.50297 49.4596 8.45479 49.3585 8.38748 49.2703C8.33012 49.1749 8.25357 49.0924 8.16262 49.0278C8.07166 48.9633 7.96828 48.918 7.85893 48.895C7.73797 48.882 7.6156 48.893 7.49894 48.9273C7.38229 48.9617 7.27366 49.0187 7.17936 49.0952L4.86379 50.6962C4.84308 50.7058 4.82054 50.7107 4.79772 50.7107C4.7749 50.7107 4.75236 50.7058 4.73165 50.6962C4.69264 50.6968 4.6547 50.6835 4.62468 50.6587L4.1213 49.9207C4.10638 49.8803 4.10638 49.836 4.1213 49.7956C4.13092 49.7498 4.15797 49.7095 4.19681 49.6831L6.53754 48.107C6.83282 47.8843 7.18254 47.744 7.55061 47.7005C7.87738 47.68 8.20201 47.7656 8.47557 47.9444C8.78562 48.1459 9.04936 48.4101 9.24953 48.7199Z" fill="#B9B9B9"/>
<path d="M7.36183 45.7928C7.37285 45.813 7.37862 45.8355 7.37862 45.8585C7.37862 45.8814 7.37285 45.904 7.36183 45.9241C7.34397 45.9665 7.31007 46.0002 7.26745 46.018L3.14599 47.8004C3.10338 47.8162 3.05646 47.8162 3.01385 47.8004C2.97123 47.7826 2.93733 47.7489 2.91946 47.7066L2.17068 45.9929C1.94268 45.545 1.87606 45.0329 1.98191 44.542C2.04476 44.3315 2.1559 44.1383 2.30657 43.9777C2.45724 43.8171 2.64335 43.6934 2.85025 43.6164C3.11655 43.4907 3.41524 43.4492 3.706 43.4975C3.96855 43.5543 4.21023 43.682 4.40445 43.8665L5.5874 42.328C5.60681 42.304 5.63317 42.2866 5.66291 42.278C5.67964 42.2702 5.69791 42.2661 5.71639 42.2661C5.73488 42.2661 5.75314 42.2702 5.76988 42.278C5.78839 42.2834 5.8054 42.293 5.81958 42.306C5.83377 42.319 5.84475 42.3351 5.85168 42.353L6.22292 43.1911C6.23642 43.2227 6.24338 43.2568 6.24338 43.2911C6.24338 43.3255 6.23642 43.3596 6.22292 43.3912C6.20828 43.4402 6.18243 43.4851 6.14742 43.5225L5.08402 44.8484L5.36717 45.4738L6.77665 44.8484C6.79746 44.8393 6.81996 44.8346 6.84272 44.8346C6.86547 44.8346 6.88797 44.8393 6.90879 44.8484C6.95341 44.8654 6.98955 44.8991 7.00946 44.9422L7.36183 45.7928ZM4.46737 45.8804L4.15276 45.1549C4.12382 45.0714 4.07827 44.9946 4.0188 44.9291C3.95934 44.8636 3.8872 44.8106 3.80668 44.7734C3.73513 44.7427 3.65805 44.7269 3.58016 44.7269C3.50226 44.7269 3.42518 44.7427 3.35363 44.7734C3.27817 44.8008 3.20912 44.8432 3.1507 44.8981C3.09228 44.9529 3.04572 45.019 3.01385 45.0923C2.98416 45.176 2.97274 45.265 2.98033 45.3535C2.98793 45.4419 3.01437 45.5277 3.05789 45.6052L3.37251 46.3307L4.46737 45.8804Z" fill="#B9B9B9"/>
<path d="M5.46791 41.0523C5.4771 41.0729 5.48185 41.0953 5.48185 41.1179C5.48185 41.1405 5.4771 41.1629 5.46791 41.1836C5.44133 41.2194 5.40381 41.2458 5.36094 41.2586L0.956329 42.2906C0.935622 42.3001 0.913077 42.305 0.89026 42.305C0.867443 42.305 0.844898 42.3001 0.824191 42.2906C0.804661 42.2793 0.787808 42.2639 0.774779 42.2456C0.761749 42.2273 0.752849 42.2063 0.748683 42.1843L-0.000101271 39.0384C-0.00968461 39.0178 -0.0146484 38.9954 -0.0146484 38.9728C-0.0146484 38.9501 -0.00968461 38.9277 -0.000101271 38.9071C0.0118479 38.8882 0.0274553 38.8718 0.045817 38.8589C0.0641787 38.846 0.0849297 38.8369 0.106868 38.832L0.736099 38.6819C0.756806 38.6724 0.77935 38.6675 0.802168 38.6675C0.824985 38.6675 0.84753 38.6724 0.868237 38.6819C0.907073 38.7084 0.934126 38.7487 0.943745 38.7945L1.45342 40.9272L2.36581 40.7083L1.91905 38.7758C1.90804 38.7556 1.90227 38.733 1.90227 38.7101C1.90227 38.6871 1.90804 38.6646 1.91905 38.6444C1.93037 38.6243 1.94569 38.6068 1.96409 38.5928C1.98248 38.5788 2.00356 38.5687 2.02602 38.5631L2.6175 38.4255C2.63724 38.4165 2.6587 38.4119 2.68042 38.4119C2.70214 38.4119 2.7236 38.4165 2.74334 38.4255C2.76423 38.4374 2.78232 38.4537 2.79643 38.4731C2.81053 38.4925 2.82032 38.5146 2.82514 38.5381L3.29707 40.5207L4.23462 40.3018L3.71236 38.1128C3.70278 38.0922 3.69781 38.0698 3.69781 38.0471C3.69781 38.0245 3.70278 38.0021 3.71236 37.9815C3.72431 37.9626 3.73992 37.9462 3.75828 37.9333C3.77664 37.9204 3.79739 37.9113 3.81933 37.9064L4.44856 37.7563C4.4683 37.7473 4.48976 37.7427 4.51148 37.7427C4.5332 37.7427 4.55466 37.7473 4.57441 37.7563C4.59511 37.7669 4.61318 37.782 4.62733 37.8003C4.64148 37.8187 4.65134 37.84 4.65621 37.8626L5.46791 41.0523Z" fill="#B9B9B9"/>
<path d="M57 33C57 46.2548 46.2548 57 33 57C19.7452 57 9 46.2548 9 33C9 19.7452 19.7452 9 33 9C46.2548 9 57 19.7452 57 33Z" stroke="#B9B9B9" stroke-width="2"/>
<path d="M3.07674 30.1763L3.85698 31.7398L5.59366 31.9962L4.3352 33.2095L4.63094 34.9357L3.07674 34.1226L1.52254 34.9357L1.81828 33.2095L0.559814 31.9962L2.29649 31.7398L3.07674 30.1763Z" fill="#B9B9B9"/>
<path d="M63.483 30.1763L64.2632 31.7398L65.9999 31.9962L64.7414 33.2095L65.0372 34.9357L63.483 34.1226L61.9288 34.9357L62.2245 33.2095L60.9661 31.9962L62.7027 31.7398L63.483 30.1763Z" fill="#B9B9B9"/>
<path d="M25.6796 47L12.3308 33.2642L25.6796 36.6981C34.7378 28.3585 39.0285 24.9245 53.3308 21C41.4122 29.3396 29.8114 40.7862 25.6796 47Z" fill="#B9B9B9"/>
</g>
<defs>
<clipPath id="clip0">
<rect width="66" height="66" fill="white"/>
</clipPath>
</defs>
</svg>
