<svg width="258" height="126" viewBox="0 0 258 126" fill="none" xmlns="http://www.w3.org/2000/svg">
<rect x="10.5" y="0.5" width="237" height="31" rx="3.5" fill="white"/>
<path d="M22.3213 17.1348C22.3213 16.8581 22.2236 16.6465 22.0283 16.5C21.833 16.3503 21.4814 16.194 20.9736 16.0312C20.4658 15.8652 20.0638 15.7025 19.7676 15.543C18.9603 15.1068 18.5566 14.5192 18.5566 13.7803C18.5566 13.3962 18.6641 13.0544 18.8789 12.7549C19.097 12.4521 19.4079 12.2161 19.8115 12.0469C20.2184 11.8776 20.6742 11.793 21.1787 11.793C21.6865 11.793 22.139 11.8857 22.5361 12.0713C22.9333 12.2536 23.2409 12.5124 23.459 12.8477C23.6803 13.1829 23.791 13.5638 23.791 13.9902H22.3262C22.3262 13.6647 22.2236 13.4124 22.0186 13.2334C21.8135 13.0511 21.5254 12.96 21.1543 12.96C20.7962 12.96 20.5179 13.0365 20.3193 13.1895C20.1208 13.3392 20.0215 13.5378 20.0215 13.7852C20.0215 14.0163 20.137 14.21 20.3682 14.3662C20.6025 14.5225 20.946 14.6689 21.3984 14.8057C22.2318 15.0563 22.8389 15.3672 23.2197 15.7383C23.6006 16.1094 23.791 16.5716 23.791 17.125C23.791 17.7402 23.5583 18.2236 23.0928 18.5752C22.6273 18.9235 22.0007 19.0977 21.2129 19.0977C20.666 19.0977 20.168 18.9984 19.7188 18.7998C19.2695 18.598 18.9261 18.3229 18.6885 17.9746C18.4541 17.6263 18.3369 17.2227 18.3369 16.7637H19.8066C19.8066 17.5482 20.2754 17.9404 21.2129 17.9404C21.5612 17.9404 21.833 17.8704 22.0283 17.7305C22.2236 17.5872 22.3213 17.3887 22.3213 17.1348ZM28.8008 17.5352H26.2324L25.7441 19H24.1865L26.833 11.8906H28.1904L30.8516 19H29.2939L28.8008 17.5352ZM26.6279 16.3486H28.4053L27.5117 13.6875L26.6279 16.3486ZM32.9805 17.8232H36.0908V19H31.5156V11.8906H32.9805V17.8232ZM41.2129 15.9189H38.4004V17.8232H41.7012V19H36.9355V11.8906H41.6914V13.0771H38.4004V14.7715H41.2129V15.9189Z" fill="#8A8181"/>
<path d="M228.13 19H223.257V18.0332L225.557 15.582C225.872 15.237 226.105 14.9359 226.255 14.6787C226.408 14.4215 226.484 14.1774 226.484 13.9463C226.484 13.6305 226.405 13.3831 226.245 13.2041C226.086 13.0218 225.858 12.9307 225.562 12.9307C225.243 12.9307 224.99 13.0413 224.805 13.2627C224.622 13.4808 224.531 13.7689 224.531 14.127H223.115C223.115 13.694 223.218 13.2985 223.423 12.9404C223.631 12.5824 223.924 12.3024 224.302 12.1006C224.679 11.8955 225.107 11.793 225.586 11.793C226.318 11.793 226.886 11.9688 227.29 12.3203C227.697 12.6719 227.9 13.1683 227.9 13.8096C227.9 14.1611 227.809 14.5192 227.627 14.8838C227.445 15.2484 227.132 15.6732 226.689 16.1582L225.073 17.8623H228.13V19ZM233.784 16.0605C233.784 17.0436 233.581 17.7956 233.174 18.3164C232.767 18.8372 232.171 19.0977 231.387 19.0977C230.612 19.0977 230.02 18.8421 229.609 18.3311C229.199 17.82 228.989 17.0876 228.979 16.1338V14.8252C228.979 13.8324 229.185 13.0788 229.595 12.5645C230.008 12.0501 230.602 11.793 231.377 11.793C232.152 11.793 232.744 12.0485 233.154 12.5596C233.564 13.0674 233.774 13.7982 233.784 14.752V16.0605ZM232.373 14.625C232.373 14.0358 232.292 13.6077 232.129 13.3408C231.969 13.0706 231.719 12.9355 231.377 12.9355C231.045 12.9355 230.799 13.0641 230.64 13.3213C230.483 13.5752 230.4 13.974 230.391 14.5176V16.2461C230.391 16.8255 230.469 17.2568 230.625 17.54C230.785 17.82 231.038 17.96 231.387 17.96C231.732 17.96 231.981 17.8249 232.134 17.5547C232.287 17.2845 232.367 16.8711 232.373 16.3145V14.625ZM239.526 16.0605C239.526 17.0436 239.323 17.7956 238.916 18.3164C238.509 18.8372 237.913 19.0977 237.129 19.0977C236.354 19.0977 235.762 18.8421 235.352 18.3311C234.941 17.82 234.731 17.0876 234.722 16.1338V14.8252C234.722 13.8324 234.927 13.0788 235.337 12.5645C235.75 12.0501 236.344 11.793 237.119 11.793C237.894 11.793 238.486 12.0485 238.896 12.5596C239.307 13.0674 239.517 13.7982 239.526 14.752V16.0605ZM238.115 14.625C238.115 14.0358 238.034 13.6077 237.871 13.3408C237.712 13.0706 237.461 12.9355 237.119 12.9355C236.787 12.9355 236.541 13.0641 236.382 13.3213C236.226 13.5752 236.143 13.974 236.133 14.5176V16.2461C236.133 16.8255 236.211 17.2568 236.367 17.54C236.527 17.82 236.781 17.96 237.129 17.96C237.474 17.96 237.723 17.8249 237.876 17.5547C238.029 17.2845 238.109 16.8711 238.115 16.3145V14.625Z" fill="#363636"/>
<rect x="10.5" y="0.5" width="237" height="31" rx="3.5" stroke="#B9B9B9"/>
<rect x="0.5" y="40.5" width="257" height="45" rx="3.5" fill="white"/>
<circle cx="21" cy="63" r="12.5" fill="#E85656" stroke="#363636"/>
<path d="M25.0857 67.6429V66.5286C25.0857 65.9376 24.8509 65.3707 24.433 64.9528C24.0151 64.5348 23.4482 64.3 22.8572 64.3H18.4C17.809 64.3 17.2421 64.5348 16.8242 64.9528C16.4062 65.3707 16.1714 65.9376 16.1714 66.5286V67.6429" stroke="white" stroke-width="2" stroke-linecap="round" stroke-linejoin="round"/>
<path d="M20.6286 62.0714C21.8594 62.0714 22.8572 61.0736 22.8572 59.8428C22.8572 58.612 21.8594 57.6143 20.6286 57.6143C19.3978 57.6143 18.4 58.612 18.4 59.8428C18.4 61.0736 19.3978 62.0714 20.6286 62.0714Z" stroke="white" stroke-width="2" stroke-linecap="round" stroke-linejoin="round"/>
<path d="M44.4746 62.6064C44.4746 63.3063 44.3509 63.9199 44.1035 64.4473C43.8561 64.9746 43.5013 65.3815 43.0391 65.668C42.5801 65.9544 42.0527 66.0977 41.457 66.0977C40.8678 66.0977 40.3421 65.9561 39.8799 65.6729C39.4176 65.3896 39.0596 64.986 38.8057 64.4619C38.5518 63.9346 38.4232 63.3291 38.4199 62.6455V62.2939C38.4199 61.5941 38.5452 60.9788 38.7959 60.4482C39.0498 59.9144 39.4062 59.5059 39.8652 59.2227C40.3275 58.9362 40.8548 58.793 41.4473 58.793C42.0397 58.793 42.5654 58.9362 43.0244 59.2227C43.4867 59.5059 43.8431 59.9144 44.0938 60.4482C44.3477 60.9788 44.4746 61.5924 44.4746 62.2891V62.6064ZM42.9902 62.2842C42.9902 61.5387 42.8568 60.9723 42.5898 60.585C42.3229 60.1976 41.9421 60.0039 41.4473 60.0039C40.9557 60.0039 40.5765 60.196 40.3096 60.5801C40.0426 60.9609 39.9076 61.5208 39.9043 62.2598V62.6064C39.9043 63.3324 40.0378 63.8955 40.3047 64.2959C40.5716 64.6963 40.9557 64.8965 41.457 64.8965C41.9486 64.8965 42.3262 64.7044 42.5898 64.3203C42.8535 63.9329 42.987 63.3698 42.9902 62.6309V62.2842ZM51.0762 63.9492L52.0332 58.8906H53.4932L51.916 66H50.4414L49.2842 61.2441L48.127 66H46.6523L45.0752 58.8906H46.5352L47.4971 63.9395L48.6689 58.8906H49.9092L51.0762 63.9492ZM58.5664 62.9189H55.7539V64.8232H59.0547V66H54.2891V58.8906H59.0449V60.0771H55.7539V61.7715H58.5664V62.9189ZM63.6006 64.1348C63.6006 63.8581 63.5029 63.6465 63.3076 63.5C63.1123 63.3503 62.7607 63.194 62.2529 63.0312C61.7451 62.8652 61.3431 62.7025 61.0469 62.543C60.2396 62.1068 59.8359 61.5192 59.8359 60.7803C59.8359 60.3962 59.9434 60.0544 60.1582 59.7549C60.3763 59.4521 60.6872 59.2161 61.0908 59.0469C61.4977 58.8776 61.9535 58.793 62.458 58.793C62.9658 58.793 63.4183 58.8857 63.8154 59.0713C64.2126 59.2536 64.5202 59.5124 64.7383 59.8477C64.9596 60.1829 65.0703 60.5638 65.0703 60.9902H63.6055C63.6055 60.6647 63.5029 60.4124 63.2979 60.2334C63.0928 60.0511 62.8047 59.96 62.4336 59.96C62.0755 59.96 61.7972 60.0365 61.5986 60.1895C61.4001 60.3392 61.3008 60.5378 61.3008 60.7852C61.3008 61.0163 61.4163 61.21 61.6475 61.3662C61.8818 61.5225 62.2253 61.6689 62.6777 61.8057C63.5111 62.0563 64.1182 62.3672 64.499 62.7383C64.8799 63.1094 65.0703 63.5716 65.0703 64.125C65.0703 64.7402 64.8376 65.2236 64.3721 65.5752C63.9066 65.9235 63.2799 66.0977 62.4922 66.0977C61.9453 66.0977 61.4473 65.9984 60.998 65.7998C60.5488 65.598 60.2054 65.3229 59.9678 64.9746C59.7334 64.6263 59.6162 64.2227 59.6162 63.7637H61.0859C61.0859 64.5482 61.5547 64.9404 62.4922 64.9404C62.8405 64.9404 63.1123 64.8704 63.3076 64.7305C63.5029 64.5872 63.6006 64.3887 63.6006 64.1348ZM71.0078 62.0938L72.4873 58.8906H74.0889L71.7549 63.4219V66H70.2656V63.4219L67.9316 58.8906H69.5381L71.0078 62.0938ZM80.4316 62.6064C80.4316 63.3063 80.3079 63.9199 80.0605 64.4473C79.8132 64.9746 79.4583 65.3815 78.9961 65.668C78.5371 65.9544 78.0098 66.0977 77.4141 66.0977C76.8249 66.0977 76.2992 65.9561 75.8369 65.6729C75.3747 65.3896 75.0166 64.986 74.7627 64.4619C74.5088 63.9346 74.3802 63.3291 74.377 62.6455V62.2939C74.377 61.5941 74.5023 60.9788 74.7529 60.4482C75.0068 59.9144 75.3633 59.5059 75.8223 59.2227C76.2845 58.9362 76.8118 58.793 77.4043 58.793C77.9967 58.793 78.5225 58.9362 78.9814 59.2227C79.4437 59.5059 79.8001 59.9144 80.0508 60.4482C80.3047 60.9788 80.4316 61.5924 80.4316 62.2891V62.6064ZM78.9473 62.2842C78.9473 61.5387 78.8138 60.9723 78.5469 60.585C78.2799 60.1976 77.8991 60.0039 77.4043 60.0039C76.9128 60.0039 76.5335 60.196 76.2666 60.5801C75.9997 60.9609 75.8646 61.5208 75.8613 62.2598V62.6064C75.8613 63.3324 75.9948 63.8955 76.2617 64.2959C76.5286 64.6963 76.9128 64.8965 77.4141 64.8965C77.9056 64.8965 78.2832 64.7044 78.5469 64.3203C78.8105 63.9329 78.944 63.3698 78.9473 62.6309V62.2842ZM86.877 58.8906V63.5732C86.877 64.3512 86.6328 64.9665 86.1445 65.4189C85.6595 65.8714 84.9954 66.0977 84.1523 66.0977C83.3223 66.0977 82.6631 65.8779 82.1748 65.4385C81.6865 64.999 81.4375 64.3952 81.4277 63.627V58.8906H82.8926V63.583C82.8926 64.0485 83.0033 64.3887 83.2246 64.6035C83.4492 64.8151 83.7585 64.9209 84.1523 64.9209C84.9759 64.9209 85.3942 64.488 85.4072 63.6221V58.8906H86.877Z" fill="#E85656"/>
<path d="M228.501 66H227.09V60.5605L225.405 61.083V59.9355L228.35 58.8809H228.501V66ZM231.24 67.7822L230.503 67.3965L230.679 67.0791C230.897 66.682 231.009 66.2865 231.016 65.8926V64.7988H232.207L232.202 65.7754C232.199 66.1367 232.108 66.5013 231.929 66.8691C231.75 67.237 231.52 67.5413 231.24 67.7822ZM238.042 63.0605C238.042 64.0436 237.839 64.7956 237.432 65.3164C237.025 65.8372 236.429 66.0977 235.645 66.0977C234.87 66.0977 234.277 65.8421 233.867 65.3311C233.457 64.82 233.247 64.0876 233.237 63.1338V61.8252C233.237 60.8324 233.442 60.0788 233.853 59.5645C234.266 59.0501 234.86 58.793 235.635 58.793C236.41 58.793 237.002 59.0485 237.412 59.5596C237.822 60.0674 238.032 60.7982 238.042 61.752V63.0605ZM236.631 61.625C236.631 61.0358 236.549 60.6077 236.387 60.3408C236.227 60.0706 235.977 59.9355 235.635 59.9355C235.303 59.9355 235.057 60.0641 234.897 60.3213C234.741 60.5752 234.658 60.974 234.648 61.5176V63.2461C234.648 63.8255 234.727 64.2568 234.883 64.54C235.042 64.82 235.296 64.96 235.645 64.96C235.99 64.96 236.239 64.8249 236.392 64.5547C236.545 64.2845 236.624 63.8711 236.631 63.3145V61.625ZM243.784 63.0605C243.784 64.0436 243.581 64.7956 243.174 65.3164C242.767 65.8372 242.171 66.0977 241.387 66.0977C240.612 66.0977 240.02 65.8421 239.609 65.3311C239.199 64.82 238.989 64.0876 238.979 63.1338V61.8252C238.979 60.8324 239.185 60.0788 239.595 59.5645C240.008 59.0501 240.602 58.793 241.377 58.793C242.152 58.793 242.744 59.0485 243.154 59.5596C243.564 60.0674 243.774 60.7982 243.784 61.752V63.0605ZM242.373 61.625C242.373 61.0358 242.292 60.6077 242.129 60.3408C241.969 60.0706 241.719 59.9355 241.377 59.9355C241.045 59.9355 240.799 60.0641 240.64 60.3213C240.483 60.5752 240.4 60.974 240.391 61.5176V63.2461C240.391 63.8255 240.469 64.2568 240.625 64.54C240.785 64.82 241.038 64.96 241.387 64.96C241.732 64.96 241.981 64.8249 242.134 64.5547C242.287 64.2845 242.367 63.8711 242.373 63.3145V61.625ZM249.526 63.0605C249.526 64.0436 249.323 64.7956 248.916 65.3164C248.509 65.8372 247.913 66.0977 247.129 66.0977C246.354 66.0977 245.762 65.8421 245.352 65.3311C244.941 64.82 244.731 64.0876 244.722 63.1338V61.8252C244.722 60.8324 244.927 60.0788 245.337 59.5645C245.75 59.0501 246.344 58.793 247.119 58.793C247.894 58.793 248.486 59.0485 248.896 59.5596C249.307 60.0674 249.517 60.7982 249.526 61.752V63.0605ZM248.115 61.625C248.115 61.0358 248.034 60.6077 247.871 60.3408C247.712 60.0706 247.461 59.9355 247.119 59.9355C246.787 59.9355 246.541 60.0641 246.382 60.3213C246.226 60.5752 246.143 60.974 246.133 61.5176V63.2461C246.133 63.8255 246.211 64.2568 246.367 64.54C246.527 64.82 246.781 64.96 247.129 64.96C247.474 64.96 247.723 64.8249 247.876 64.5547C248.029 64.2845 248.109 63.8711 248.115 63.3145V61.625Z" fill="#E85656"/>
<rect x="0.5" y="40.5" width="257" height="45" rx="3.5" stroke="#E85656"/>
<rect x="10.5" y="94.5" width="237" height="31" rx="3.5" fill="white"/>
<path d="M24.2158 110.632C24.1605 111.397 23.8773 111.999 23.3662 112.438C22.8584 112.878 22.1878 113.098 21.3545 113.098C20.443 113.098 19.7253 112.792 19.2012 112.18C18.6803 111.564 18.4199 110.721 18.4199 109.65V109.216C18.4199 108.532 18.5404 107.93 18.7812 107.409C19.0221 106.888 19.3656 106.49 19.8115 106.213C20.2607 105.933 20.7816 105.793 21.374 105.793C22.1943 105.793 22.8551 106.013 23.3564 106.452C23.8577 106.892 24.1475 107.508 24.2256 108.303H22.7607C22.7249 107.844 22.5964 107.512 22.375 107.307C22.1569 107.098 21.8232 106.994 21.374 106.994C20.8857 106.994 20.5195 107.17 20.2754 107.521C20.0345 107.87 19.9108 108.412 19.9043 109.147V109.685C19.9043 110.453 20.0199 111.014 20.251 111.369C20.4854 111.724 20.8532 111.901 21.3545 111.901C21.807 111.901 22.1439 111.799 22.3652 111.594C22.5898 111.385 22.7184 111.065 22.751 110.632H24.2158ZM31.0176 109.606C31.0176 110.306 30.8939 110.92 30.6465 111.447C30.3991 111.975 30.0443 112.382 29.582 112.668C29.123 112.954 28.5957 113.098 28 113.098C27.4108 113.098 26.8851 112.956 26.4229 112.673C25.9606 112.39 25.6025 111.986 25.3486 111.462C25.0947 110.935 24.9661 110.329 24.9629 109.646V109.294C24.9629 108.594 25.0882 107.979 25.3389 107.448C25.5928 106.914 25.9492 106.506 26.4082 106.223C26.8704 105.936 27.3978 105.793 27.9902 105.793C28.5827 105.793 29.1084 105.936 29.5674 106.223C30.0296 106.506 30.3861 106.914 30.6367 107.448C30.8906 107.979 31.0176 108.592 31.0176 109.289V109.606ZM29.5332 109.284C29.5332 108.539 29.3997 107.972 29.1328 107.585C28.8659 107.198 28.485 107.004 27.9902 107.004C27.4987 107.004 27.1195 107.196 26.8525 107.58C26.5856 107.961 26.4505 108.521 26.4473 109.26V109.606C26.4473 110.332 26.5807 110.896 26.8477 111.296C27.1146 111.696 27.4987 111.896 28 111.896C28.4915 111.896 28.8691 111.704 29.1328 111.32C29.3965 110.933 29.5299 110.37 29.5332 109.631V109.284ZM33.5469 111.823H36.6572V113H32.082V105.891H33.5469V111.823ZM38.9668 111.823H42.0771V113H37.502V105.891H38.9668V111.823ZM47.1992 109.919H44.3867V111.823H47.6875V113H42.9219V105.891H47.6777V107.077H44.3867V108.771H47.1992V109.919ZM54.1279 110.632C54.0726 111.397 53.7894 111.999 53.2783 112.438C52.7705 112.878 52.0999 113.098 51.2666 113.098C50.3551 113.098 49.6374 112.792 49.1133 112.18C48.5924 111.564 48.332 110.721 48.332 109.65V109.216C48.332 108.532 48.4525 107.93 48.6934 107.409C48.9342 106.888 49.2777 106.49 49.7236 106.213C50.1729 105.933 50.6937 105.793 51.2861 105.793C52.1064 105.793 52.7673 106.013 53.2686 106.452C53.7699 106.892 54.0596 107.508 54.1377 108.303H52.6729C52.637 107.844 52.5085 107.512 52.2871 107.307C52.069 107.098 51.7354 106.994 51.2861 106.994C50.7979 106.994 50.4316 107.17 50.1875 107.521C49.9466 107.87 49.8229 108.412 49.8164 109.147V109.685C49.8164 110.453 49.932 111.014 50.1631 111.369C50.3975 111.724 50.7653 111.901 51.2666 111.901C51.7191 111.901 52.056 111.799 52.2773 111.594C52.502 111.385 52.6305 111.065 52.6631 110.632H54.1279ZM60.2949 107.077H58.1172V113H56.6523V107.077H54.5039V105.891H60.2949V107.077ZM65.4121 109.919H62.5996V111.823H65.9004V113H61.1348V105.891H65.8906V107.077H62.5996V108.771H65.4121V109.919ZM66.7598 113V105.891H68.9473C69.5723 105.891 70.1305 106.032 70.6221 106.315C71.1169 106.595 71.5026 106.996 71.7793 107.517C72.056 108.034 72.1943 108.623 72.1943 109.284V109.611C72.1943 110.272 72.0576 110.86 71.7842 111.374C71.514 111.888 71.1315 112.287 70.6367 112.57C70.1419 112.854 69.5837 112.997 68.9619 113H66.7598ZM68.2246 107.077V111.823H68.9326C69.5055 111.823 69.9434 111.636 70.2461 111.262C70.5488 110.887 70.7035 110.352 70.71 109.655V109.279C70.71 108.557 70.5602 108.01 70.2607 107.639C69.9613 107.264 69.5234 107.077 68.9473 107.077H68.2246Z" fill="#8A8181"/>
<path d="M226.685 113H225.273V107.561L223.589 108.083V106.936L226.533 105.881H226.685V113ZM233.872 113H228.999V112.033L231.299 109.582C231.615 109.237 231.847 108.936 231.997 108.679C232.15 108.422 232.227 108.177 232.227 107.946C232.227 107.631 232.147 107.383 231.987 107.204C231.828 107.022 231.6 106.931 231.304 106.931C230.985 106.931 230.732 107.041 230.547 107.263C230.365 107.481 230.273 107.769 230.273 108.127H228.857C228.857 107.694 228.96 107.299 229.165 106.94C229.373 106.582 229.666 106.302 230.044 106.101C230.422 105.896 230.85 105.793 231.328 105.793C232.061 105.793 232.629 105.969 233.032 106.32C233.439 106.672 233.643 107.168 233.643 107.81C233.643 108.161 233.551 108.519 233.369 108.884C233.187 109.248 232.874 109.673 232.432 110.158L230.815 111.862H233.872V113ZM239.526 110.061C239.526 111.044 239.323 111.796 238.916 112.316C238.509 112.837 237.913 113.098 237.129 113.098C236.354 113.098 235.762 112.842 235.352 112.331C234.941 111.82 234.731 111.088 234.722 110.134V108.825C234.722 107.832 234.927 107.079 235.337 106.564C235.75 106.05 236.344 105.793 237.119 105.793C237.894 105.793 238.486 106.049 238.896 106.56C239.307 107.067 239.517 107.798 239.526 108.752V110.061ZM238.115 108.625C238.115 108.036 238.034 107.608 237.871 107.341C237.712 107.071 237.461 106.936 237.119 106.936C236.787 106.936 236.541 107.064 236.382 107.321C236.226 107.575 236.143 107.974 236.133 108.518V110.246C236.133 110.826 236.211 111.257 236.367 111.54C236.527 111.82 236.781 111.96 237.129 111.96C237.474 111.96 237.723 111.825 237.876 111.555C238.029 111.285 238.109 110.871 238.115 110.314V108.625Z" fill="#363636"/>
<rect x="10.5" y="94.5" width="237" height="31" rx="3.5" stroke="#B9B9B9"/>
</svg>
