<svg width="231" height="114" viewBox="0 0 231 114" fill="none" xmlns="http://www.w3.org/2000/svg">
<rect x="8.5" y="0.5" width="173" height="92.4105" fill="white" stroke="#363636"/>
<circle cx="95.4579" cy="46.2473" r="29.2632" fill="#F4B1B1" stroke="#363636"/>
<circle cx="21.7369" cy="13.7368" r="5.91053" fill="#FFE7E7" stroke="#363636"/>
<circle cx="21.7369" cy="79.6737" r="5.91053" fill="#FFE7E7" stroke="#363636"/>
<circle cx="168.263" cy="13.7368" r="5.91053" fill="#FFE7E7" stroke="#363636"/>
<circle cx="168.263" cy="79.6737" r="5.91053" fill="#FFE7E7" stroke="#363636"/>
<rect x="4.22549" y="6.2052" width="181.549" height="97" fill="white" stroke="#363636"/>
<circle cx="95.4804" cy="54.2248" r="30.7255" fill="#F4B1B1" stroke="#363636"/>
<circle cx="18.1373" cy="20.117" r="6.22549" fill="#FFE7E7" stroke="#363636"/>
<circle cx="18.1373" cy="89.2935" r="6.22549" fill="#FFE7E7" stroke="#363636"/>
<circle cx="171.863" cy="20.117" r="6.22549" fill="#FFE7E7" stroke="#363636"/>
<circle cx="171.863" cy="89.2935" r="6.22549" fill="#FFE7E7" stroke="#363636"/>
<rect x="0.5" y="12.2052" width="189" height="101" fill="white" stroke="#363636"/>
<circle cx="95.5" cy="62.2052" r="32" fill="#E85656" stroke="#363636"/>
<circle cx="15" cy="26.7052" r="6.5" fill="#FFE7E7" stroke="#363636"/>
<circle cx="15" cy="98.7052" r="6.5" fill="#FFE7E7" stroke="#363636"/>
<circle cx="175" cy="26.7052" r="6.5" fill="#FFE7E7" stroke="#363636"/>
<circle cx="175" cy="98.7052" r="6.5" fill="#FFE7E7" stroke="#363636"/>
<line x1="225.5" y1="30.5" x2="158.5" y2="30.5" stroke="#363636" stroke-width="3" stroke-linecap="round"/>
<line x1="213.5" y1="52.5" x2="166.5" y2="52.5" stroke="#363636" stroke-width="3" stroke-linecap="round"/>
<line x1="229.5" y1="52.5" x2="221.5" y2="52.5" stroke="#363636" stroke-width="3" stroke-linecap="round"/>
<line x1="224.5" y1="75.5" x2="150.5" y2="75.5" stroke="#363636" stroke-width="3" stroke-linecap="round"/>
<line x1="192.5" y1="95.5" x2="170.5" y2="95.5" stroke="#363636" stroke-width="3" stroke-linecap="round"/>
<line x1="227.5" y1="95.5" x2="201.5" y2="95.5" stroke="#363636" stroke-width="3" stroke-linecap="round"/>
<path d="M88.9727 68H82.1504V66.6465L85.3701 63.2148C85.8122 62.7318 86.138 62.3102 86.3477 61.9502C86.5618 61.5902 86.6689 61.2484 86.6689 60.9248C86.6689 60.4827 86.5573 60.1364 86.334 59.8857C86.1107 59.6305 85.7917 59.5029 85.377 59.5029C84.9303 59.5029 84.5771 59.6579 84.3174 59.9678C84.0622 60.2731 83.9346 60.6764 83.9346 61.1777H81.9521C81.9521 60.5716 82.0957 60.0179 82.3828 59.5166C82.6745 59.0153 83.0846 58.6234 83.6133 58.3408C84.1419 58.0537 84.7412 57.9102 85.4111 57.9102C86.4365 57.9102 87.2318 58.1562 87.7969 58.6484C88.3665 59.1406 88.6514 59.8356 88.6514 60.7334C88.6514 61.2256 88.5238 61.7269 88.2686 62.2373C88.0133 62.7477 87.5758 63.3424 86.9561 64.0215L84.6934 66.4072H88.9727V68ZM90.374 67.0293C90.374 66.7148 90.4788 66.4596 90.6885 66.2637C90.9027 66.0677 91.1693 65.9697 91.4883 65.9697C91.8118 65.9697 92.0785 66.0677 92.2881 66.2637C92.5023 66.4596 92.6094 66.7148 92.6094 67.0293C92.6094 67.3392 92.5046 67.5921 92.2949 67.7881C92.0853 67.9795 91.8164 68.0752 91.4883 68.0752C91.1647 68.0752 90.8981 67.9795 90.6885 67.7881C90.4788 67.5921 90.374 67.3392 90.374 67.0293ZM94.5576 63.1055L95.1318 58.0469H100.71V59.6943H96.752L96.5059 61.834C96.9753 61.5833 97.4743 61.458 98.0029 61.458C98.9508 61.458 99.6937 61.752 100.231 62.3398C100.769 62.9277 101.038 63.7503 101.038 64.8076C101.038 65.4502 100.901 66.0267 100.628 66.5371C100.359 67.043 99.9717 67.4372 99.4658 67.7197C98.96 67.9977 98.363 68.1367 97.6748 68.1367C97.0732 68.1367 96.515 68.016 96 67.7744C95.485 67.5283 95.0771 67.1842 94.7764 66.7422C94.4801 66.3001 94.3229 65.7965 94.3047 65.2314H96.2598C96.3008 65.6462 96.4443 65.9697 96.6904 66.2021C96.9411 66.43 97.2669 66.5439 97.668 66.5439C98.1146 66.5439 98.4587 66.3844 98.7002 66.0654C98.9417 65.7419 99.0625 65.2861 99.0625 64.6982C99.0625 64.1331 98.9235 63.7002 98.6455 63.3994C98.3675 63.0986 97.9733 62.9482 97.4629 62.9482C96.9935 62.9482 96.613 63.0713 96.3213 63.3174L96.1299 63.4951L94.5576 63.1055ZM106.076 61.4785L107.942 58.0469H110.301L107.402 62.9824L110.376 68H107.99L106.076 64.5137L104.162 68H101.776L104.75 62.9824L101.852 58.0469H104.21L106.076 61.4785Z" fill="white"/>
</svg>
