<svg width="234" height="217" viewBox="0 0 234 217" fill="none" xmlns="http://www.w3.org/2000/svg">
<path d="M82.5 120C94.1667 95.6667 144 53.5 166.5 76C202 111.5 128.5 136 128.5 88C128.5 49.6 192.833 32 225 28" stroke="#F4B1B1" stroke-width="2" stroke-dasharray="6 4"/>
<rect x="200.5" y="0.5" width="33" height="54" rx="3.5" fill="white" stroke="#363636"/>
<rect x="202.5" y="2.5" width="29" height="49" rx="3.5" fill="white" stroke="#363636"/>
<rect x="30.6281" y="96.6659" width="131.255" height="70" rx="4.5" transform="rotate(25.3427 30.6281 96.6659)" fill="white" stroke="#363636"/>
<path d="M74.9587 156.388L32.5222 99.8656C31.8954 99.0307 32.8064 97.9146 33.7499 98.3614L145.962 151.506C146.905 151.953 146.619 153.365 145.576 153.409L74.9587 156.388Z" stroke="#363636"/>
<circle cx="75.3527" cy="153.353" r="20" transform="rotate(25.6438 75.3527 153.353)" fill="#E85656" stroke="#363636"/>
<path d="M69.9879 150.328L67.4524 149.111L66.1951 151.73L64.8745 151.096L67.9513 144.687L72.1243 146.69L71.6108 147.759L68.7584 146.39L67.9638 148.045L70.4993 149.262L69.9879 150.328ZM73.3124 152.259L72.2603 151.754L71.134 154.101L69.8134 153.467L72.8902 147.058L75.2716 148.201C76.0287 148.564 76.5317 149.013 76.7805 149.548C77.0294 150.083 77.0059 150.658 76.71 151.274C76.5001 151.712 76.2293 152.031 75.8977 152.233C75.5704 152.434 75.173 152.528 74.7055 152.517L74.8347 155.801L74.8051 155.863L73.3877 155.183L73.3124 152.259ZM72.7738 150.685L73.8391 151.196C74.1707 151.355 74.4676 151.395 74.7298 151.315C74.9935 151.232 75.1965 151.043 75.3387 150.746C75.4838 150.444 75.5114 150.165 75.4214 149.908C75.3343 149.654 75.1132 149.441 74.7581 149.27L73.6973 148.761L72.7738 150.685ZM80.7605 155.304L78.225 154.087L77.4009 155.804L80.3766 157.232L79.8673 158.293L75.5711 156.231L78.6478 149.822L82.9352 151.88L82.4218 152.949L79.4549 151.525L78.7216 153.053L81.2571 154.27L80.7605 155.304ZM85.8315 157.739L83.296 156.521L82.4719 158.238L85.4475 159.667L84.9382 160.727L80.642 158.665L83.7188 152.256L88.0062 154.314L87.4927 155.384L84.5258 153.959L83.7926 155.487L86.3281 156.704L85.8315 157.739Z" fill="white"/>
<path d="M221.5 25C221.5 23.8065 221.026 22.6619 220.182 21.818C219.338 20.9741 218.193 20.5 217 20.5C215.807 20.5 214.662 20.9741 213.818 21.818C212.974 22.6619 212.5 23.8065 212.5 25C212.5 30.25 210.25 31.75 210.25 31.75H223.75C223.75 31.75 221.5 30.25 221.5 25Z" stroke="#E85656" stroke-width="2" stroke-linecap="round" stroke-linejoin="round"/>
<path d="M218.298 34.75C218.166 34.9773 217.976 35.166 217.749 35.2971C217.521 35.4283 217.263 35.4973 217 35.4973C216.737 35.4973 216.479 35.4283 216.251 35.2971C216.024 35.166 215.834 34.9773 215.703 34.75" stroke="#E85656" stroke-width="2" stroke-linecap="round" stroke-linejoin="round"/>
</svg>
