<svg width="236" height="220" viewBox="0 0 236 220" fill="none" xmlns="http://www.w3.org/2000/svg">
<path d="M82.5 123C94.1667 98.6667 144 56.5 166.5 79C202 114.5 128.5 139 128.5 91C128.5 52.6 192.833 35 225 31" stroke="#D8F0EA" stroke-width="2" stroke-dasharray="6 4"/>
<rect x="199" y="1" width="36" height="59" rx="3" fill="white" stroke="#D8E6FB" stroke-width="2"/>
<rect x="203" y="6" width="28" height="48" rx="3" fill="white" stroke="#D8E6FB" stroke-width="2"/>
<rect x="30.866" y="100.332" width="130.255" height="69" rx="4" transform="rotate(25.3427 30.866 100.332)" fill="white" stroke="#0EC99C" stroke-width="2"/>
<path d="M74.9587 159.388L32.5222 102.866C31.8954 102.031 32.8064 100.915 33.7499 101.361L145.962 154.506C146.905 154.953 146.619 156.365 145.576 156.409L74.9587 159.388Z" stroke="#0EC99C" stroke-width="2"/>
<circle cx="75.3527" cy="156.353" r="19.5" transform="rotate(25.6438 75.3527 156.353)" fill="white" stroke="#0EC99C" stroke-width="2"/>
<path d="M69.9879 153.328L67.4524 152.111L66.1951 154.73L64.8745 154.096L67.9513 147.687L72.1243 149.69L71.6108 150.759L68.7584 149.39L67.9638 151.045L70.4993 152.262L69.9879 153.328ZM73.3124 155.259L72.2603 154.754L71.134 157.101L69.8134 156.467L72.8902 150.058L75.2716 151.201C76.0287 151.564 76.5317 152.013 76.7805 152.548C77.0294 153.083 77.0059 153.658 76.71 154.274C76.5001 154.712 76.2293 155.031 75.8977 155.233C75.5704 155.434 75.173 155.528 74.7055 155.517L74.8347 158.801L74.8051 158.863L73.3877 158.183L73.3124 155.259ZM72.7738 153.685L73.8391 154.196C74.1707 154.355 74.4676 154.395 74.7298 154.315C74.9935 154.232 75.1965 154.043 75.3387 153.746C75.4838 153.444 75.5114 153.165 75.4214 152.908C75.3343 152.654 75.1132 152.441 74.7581 152.27L73.6973 151.761L72.7738 153.685ZM80.7605 158.304L78.225 157.087L77.4009 158.804L80.3766 160.232L79.8673 161.293L75.5711 159.231L78.6478 152.822L82.9352 154.88L82.4218 155.949L79.4549 154.525L78.7216 156.053L81.2571 157.27L80.7605 158.304ZM85.8315 160.739L83.296 159.521L82.4719 161.238L85.4475 162.667L84.9382 163.727L80.642 161.665L83.7188 155.256L88.0062 157.314L87.4927 158.384L84.5258 156.959L83.7926 158.487L86.3281 159.704L85.8315 160.739Z" fill="#0EC99C"/>
<path d="M221.5 28C221.5 26.8065 221.026 25.6619 220.182 24.818C219.338 23.9741 218.193 23.5 217 23.5C215.807 23.5 214.662 23.9741 213.818 24.818C212.974 25.6619 212.5 26.8065 212.5 28C212.5 33.25 210.25 34.75 210.25 34.75H223.75C223.75 34.75 221.5 33.25 221.5 28Z" stroke="#386EC4" stroke-width="2" stroke-linecap="round" stroke-linejoin="round"/>
<path d="M218.298 37.75C218.166 37.9773 217.976 38.166 217.749 38.2971C217.521 38.4283 217.263 38.4973 217 38.4973C216.737 38.4973 216.479 38.4283 216.251 38.2971C216.024 38.166 215.834 37.9773 215.703 37.75" stroke="#386EC4" stroke-width="2" stroke-linecap="round" stroke-linejoin="round"/>
</svg>
