<?xml version="1.0" encoding="utf-8"?>
<!DOCTYPE svg PUBLIC "-//W3C//DTD SVG 20010904//EN" "http://www.w3.org/TR/2001/REC-SVG-20010904/DTD/svg10.dtd">
<svg version="1.0" xmlns="http://www.w3.org/2000/svg" width="1164px" height="260px" viewBox="0 0 1164 260" preserveAspectRatio="xMidYMid meet">
 <g fill="#B8B8B8">
  <path d="M103.4 259.3 c-2.2 -0.3 -4.9 -2.3 -9.5 -6.9 -6.3 -6.4 -6.3 -6.4 -3.3 -6.4 2.3 0 4.4 1.4 9.9 7 3.8 3.9 6.7 6.9 6.5 6.8 -0.3 0 -1.9 -0.3 -3.6 -0.5z"/>
  <path d="M110.2 252.7 c-3.4 -3.4 -6.2 -6.6 -6.2 -7 0 -0.4 1 -0.7 2.3 -0.7 1.5 0 4.7 2.4 9.2 7 6.9 6.9 6.9 7 3.9 7 -2.3 0 -4.3 -1.3 -9.2 -6.3z"/>
  <path d="M124.1 250.6 c-6.9 -7 -7.2 -7.4 -4.8 -7.8 2.1 -0.4 3.8 0.8 9.9 6.9 4 4 6.7 7.3 6.1 7.3 -0.6 0 -1.7 0.2 -2.5 0.5 -0.8 0.3 -4.4 -2.6 -8.7 -6.9z"/>
  <path d="M82.8 255.7 c-2.3 -0.6 -5.7 -3.1 -9 -6.4 l-5.3 -5.4 4 0.6 c3.1 0.6 5.4 2.1 10 6.6 3.3 3.2 5.5 5.8 5 5.8 -0.6 -0.1 -2.7 -0.6 -4.7 -1.2z"/>
  <path d="M242.1 254.6 c-1.5 -1.5 -2.1 -3.3 -1.9 -5 0.3 -2.7 0.4 -2.6 5.3 2.3 l4.9 5.1 -3 0 c-1.9 0 -3.9 -0.9 -5.3 -2.4z"/>
  <path d="M253.5 250 c-6.8 -6.9 -6.9 -7 -3.9 -7 2.3 0 4.4 1.4 9.9 7 6.8 6.9 6.9 7 3.9 7 -2.3 0 -4.4 -1.4 -9.9 -7z"/>
  <path d="M269.5 250 c-6.8 -6.9 -6.9 -7 -3.9 -7 2.3 0 4.4 1.4 9.9 7 6.8 6.9 6.9 7 3.9 7 -2.3 0 -4.4 -1.4 -9.9 -7z"/>
  <path d="M285 249.5 c-6.6 -6.7 -7.1 -7.4 -5.3 -8.3 1.7 -0.9 3 -0.1 9.1 6.1 4 4 7.2 7.5 7.2 7.9 0 0.3 -0.9 0.8 -1.9 1.1 -1.4 0.3 -3.9 -1.6 -9.1 -6.8z"/>
  <path d="M383.2 250.7 c-3.4 -3.4 -6.2 -6.6 -6.2 -7 0 -0.4 1.2 -0.7 2.8 -0.7 2.1 0 4.4 1.7 9.7 7 l6.9 7 -3.5 0 c-2.9 0 -4.4 -1 -9.7 -6.3z"/>
  <path d="M399.5 250 c-6.8 -6.9 -6.9 -7 -3.9 -7 2.3 0 4.4 1.4 9.9 7 6.8 6.9 6.9 7 3.9 7 -2.3 0 -4.4 -1.4 -9.9 -7z"/>
  <path d="M415.5 250 c-6.8 -6.9 -6.9 -7 -3.9 -7 2.3 0 4.4 1.4 9.9 7 6.8 6.9 6.9 7 3.9 7 -2.3 0 -4.4 -1.4 -9.9 -7z"/>
  <path d="M480.2 255.4 c-2.1 -1.5 -3.1 -4.4 -1.4 -4.4 0.5 0 2.1 1.4 3.7 3 3.1 3.3 1.7 4.2 -2.3 1.4z"/>
  <path d="M488.5 250 c-6.8 -6.9 -6.9 -7 -3.9 -7 2.3 0 4.4 1.4 9.9 7 6.8 6.9 6.9 7 3.9 7 -2.3 0 -4.4 -1.4 -9.9 -7z"/>
  <path d="M504.5 250 c-6.8 -6.9 -6.9 -7 -3.9 -7 2.3 0 4.4 1.4 9.9 7 6.8 6.9 6.9 7 3.9 7 -2.3 0 -4.4 -1.4 -9.9 -7z"/>
  <path d="M519.2 248.7 c-7.4 -7.4 -8.1 -8.5 -6.7 -9.7 1.4 -1.2 2.7 -0.2 10.5 7.5 4.9 4.9 8.7 9.2 8.4 9.7 -1.3 2.1 -4.6 0.1 -12.2 -7.5z"/>
  <path d="M650.5 250 c-6.8 -6.9 -6.9 -7 -3.9 -7 2.3 0 4.4 1.4 9.9 7 6.8 6.9 6.9 7 3.9 7 -2.3 0 -4.4 -1.4 -9.9 -7z"/>
  <path d="M666.5 250 c-6.8 -6.9 -6.9 -7 -3.9 -7 2.3 0 4.4 1.4 9.9 7 6.8 6.9 6.9 7 3.9 7 -2.3 0 -4.4 -1.4 -9.9 -7z"/>
  <path d="M682.3 249.8 c-7.1 -7.2 -7.2 -7.3 -4.9 -8.4 2.2 -1 3.1 -0.5 10.7 7.2 l8.4 8.4 -3.5 0 c-3.1 0 -4.5 -1 -10.7 -7.2z"/>
  <path d="M730.4 254.7 c-1.5 -1.3 -2.5 -3.1 -2.3 -4.1 0.3 -1.4 1.1 -0.9 4.4 2.3 4.3 4.5 2.7 5.9 -2.1 1.8z"/>
  <path d="M739.5 250 l-6.9 -7 3.5 0 c3 0 4.4 1 10.4 7 l6.9 7 -3.5 0 c-3 0 -4.4 -1 -10.4 -7z"/>
  <path d="M755.5 250 l-6.9 -7 3.5 0 c3 0 4.4 1 10.4 7 l6.9 7 -3.5 0 c-3 0 -4.4 -1 -10.4 -7z"/>
  <path d="M772.7 250.2 c-3.7 -3.7 -6.7 -7 -6.7 -7.4 0 -0.3 0.9 -0.8 1.9 -1.1 1.4 -0.3 3.9 1.5 9 6.7 3.9 4 6.8 7.5 6.5 7.9 -1.8 1.7 -4.4 0.2 -10.7 -6.1z"/>
  <path d="M854.2 250.7 c-3.4 -3.4 -6.2 -6.6 -6.2 -7 0 -0.4 1 -0.7 2.3 -0.7 1.5 0 4.7 2.4 9.2 7 6.9 6.9 6.9 7 3.9 7 -2.3 0 -4.3 -1.3 -9.2 -6.3z"/>
  <path d="M869.5 250 c-6.8 -6.9 -6.9 -7 -3.9 -7 2.3 0 4.4 1.4 9.9 7 6.8 6.9 6.9 7 3.9 7 -2.3 0 -4.4 -1.4 -9.9 -7z"/>
  <path d="M885.5 250 c-6.8 -6.9 -6.9 -7 -3.9 -7 2.3 0 4.4 1.4 9.9 7 6.8 6.9 6.9 7 3.9 7 -2.3 0 -4.4 -1.4 -9.9 -7z"/>
  <path d="M901.7 250.2 c-6.7 -6.8 -6.8 -6.9 -4.4 -7.9 2.2 -1 3 -0.5 9.6 6.1 3.9 3.9 7.1 7.5 7.1 7.9 0 0.4 -1.2 0.7 -2.8 0.7 -2.1 0 -4.4 -1.7 -9.5 -6.8z"/>
  <path d="M944.1 251.6 c-3.6 -3.6 -5.2 -6 -4.8 -7 0.4 -0.9 1 -1.6 1.4 -1.6 0.5 0 4 3.2 7.8 7 6.9 6.9 6.9 7 3.9 7 -2.3 0 -4.2 -1.2 -8.3 -5.4z"/>
  <path d="M958.5 250 c-6.8 -6.9 -6.9 -7 -3.9 -7 2.3 0 4.4 1.4 9.9 7 6.8 6.9 6.9 7 3.9 7 -2.3 0 -4.4 -1.4 -9.9 -7z"/>
  <path d="M974.2 249.7 c-7 -7 -7.2 -7.4 -5.4 -9 1.7 -1.6 2.3 -1.2 10.7 7.3 l9 9 -3.5 0 c-3.1 0 -4.5 -1 -10.8 -7.3z"/>
  <path d="M1106.1 251.6 c-5 -5.3 -6.4 -8.6 -3.8 -8.6 0.7 0 4.4 3.2 8.2 7 6.9 7 6.9 7 3.9 7 -2.5 0 -4.2 -1.1 -8.3 -5.4z"/>
  <path d="M1120.5 250 c-6.8 -6.9 -6.9 -7 -3.9 -7 2.3 0 4.4 1.4 9.9 7 6.8 6.9 6.9 7 3.9 7 -2.3 0 -4.4 -1.4 -9.9 -7z"/>
  <path d="M1136.6 250.1 l-6.8 -6.8 2.9 -0.6 c2.5 -0.5 3.7 0.3 10.3 6.9 l7.5 7.4 -3.5 0 c-3.1 0 -4.5 -1 -10.4 -6.9z"/>
  <path d="M1150.1 246.6 c-7.9 -7.9 -9.2 -9.7 -8.6 -11.6 0.7 -2.1 1.6 -1.4 11.1 8.1 7.9 7.9 10.1 10.6 9.2 11.6 -0.6 0.7 -1.3 1.3 -1.7 1.3 -0.3 0 -4.8 -4.2 -10 -9.4z"/>
  <path d="M136.9 247.4 c-7.1 -7.2 -7.2 -7.3 -4.8 -8.3 2.1 -0.8 3.1 -0.2 9.6 6.2 4 3.9 7 7.4 6.8 7.8 -0.3 0.3 -1.3 0.9 -2.4 1.2 -1.4 0.3 -3.9 -1.5 -9.2 -6.9z"/>
  <path d="M428.2 246.7 c-5.2 -5.3 -7.1 -7.8 -6.6 -9 0.3 -0.9 0.9 -1.7 1.3 -1.7 0.4 0 3.7 3 7.4 6.8 4.2 4.3 6.7 7.6 6.7 9 0 1.2 -0.3 2.2 -0.8 2.2 -0.4 0 -4 -3.3 -8 -7.3z"/>
  <path d="M693.3 243.8 c-7.9 -8.1 -10.2 -11 -10.5 -13.6 -0.5 -3.2 0 -2.8 10.3 7.5 6.4 6.4 11.1 11.9 11.5 13.6 0.3 1.5 0.2 2.7 -0.3 2.7 -0.4 0 -5.4 -4.6 -11 -10.2z"/>
  <path d="M984.3 243.7 c-9.2 -9.3 -10 -10.4 -9.2 -12.6 0.9 -2.4 1.3 -2.2 11.4 7.9 10.5 10.5 10.8 11.1 8.1 14.7 -0.1 0.1 -4.7 -4.4 -10.3 -10z"/>
  <path d="M527.3 240.8 c-8.5 -8.5 -10.1 -10.7 -9.7 -12.5 0.4 -1.3 0.9 -2.3 1.3 -2.3 0.3 0 5.1 4.4 10.5 9.9 9 9.1 9.8 10.1 9 12.5 -0.9 2.6 -1.1 2.5 -11.1 -7.6z"/>
  <path d="M148.2 242.7 c-7.2 -7.2 -7.3 -7.4 -4.9 -8.4 2.2 -1 3 -0.5 9.8 6.3 6 6.1 7.1 7.6 5.9 8.4 -2.6 1.7 -3.4 1.2 -10.8 -6.3z"/>
  <path d="M780.8 242.3 c-4.3 -4.3 -6.8 -7.7 -6.8 -9.1 0 -1.2 0.4 -2.2 0.8 -2.2 0.4 0 3.6 2.9 7.1 6.4 5 5.1 6.2 6.8 5.9 9 -0.3 2.6 -0.5 2.5 -7 -4.1z"/>
  <path d="M914 245.5 c-1.8 -1.9 -2 -2.5 -0.8 -2.5 0.8 0 2 1.1 2.6 2.5 0.6 1.4 1 2.5 0.9 2.5 -0.2 0 -1.4 -1.1 -2.7 -2.5z"/>
  <path d="M54.2 243.1 c-3.5 -2.1 -7 -4.5 -7.9 -5.4 -1.5 -1.5 -1.1 -1.4 3.1 0.2 2.6 0.9 6.4 3.4 8.4 5.4 2 2 3.4 3.7 3.2 3.6 -0.3 0 -3.3 -1.8 -6.8 -3.8z"/>
  <path d="M292.3 240.8 c-5.3 -5.3 -6.3 -6.9 -6.3 -9.8 l0 -3.5 6.6 6.6 c5.7 5.7 6.5 7 6.2 9.8 l-0.3 3.2 -6.2 -6.3z"/>
  <path d="M159.1 236.6 c-6.7 -6.8 -7.2 -7.5 -5.4 -8.4 1.7 -0.9 3 -0.1 9.3 6.3 6.6 6.7 8 9.5 4.7 9.5 -0.7 0 -4.6 -3.3 -8.6 -7.4z"/>
  <path d="M989.1 231.6 c-9 -9.1 -10.3 -10.8 -9.5 -12.6 0.8 -1.9 1.8 -1.1 11.2 8.3 8.8 8.9 10.2 10.6 9.5 12.5 -0.8 2 -1.7 1.3 -11.2 -8.2z"/>
  <path d="M79.8 239 c-26.2 -3.3 -54.8 -18 -72.3 -37.3 -6.5 -7.2 -7.6 -9.9 -5.3 -12.9 0.7 -0.9 8 -7.9 16.1 -15.7 17.6 -16.7 17.5 -16.7 26.8 -8.8 21.2 18 36.7 24.4 53.3 21.7 14.3 -2.3 20.6 -8.7 20.6 -21 0 -4.5 -0.4 -5.5 -4 -9.4 -4.9 -5.3 -12 -9.1 -27.5 -14.6 -54.4 -19.3 -76.4 -41.3 -76.5 -76.5 0 -20.9 8.9 -37.7 26.2 -49.2 25 -16.6 66.4 -19.5 97.2 -7 16.7 6.8 37.6 23 37.6 29.2 0 2.6 -5.4 9.1 -22.2 26.8 -5.5 5.8 -9 8.7 -10.5 8.7 -1.2 0 -4.8 -2.2 -8 -4.8 -17 -14.1 -28.4 -18.4 -42.4 -16.3 -13.1 2.1 -18.3 6.5 -18.3 15.7 0 10.3 5.9 14.4 34.9 24.4 34.2 11.8 46.5 18.1 58.5 30 11.9 11.7 17 24.4 17 42.5 0 36.3 -27.3 65.5 -68.1 72.9 -11 2 -24.7 2.7 -33.1 1.6z"/>
  <path d="M430.3 232.8 c-5.3 -5.3 -6.3 -6.9 -6.3 -9.8 l0 -3.5 6.6 6.6 c5.7 5.7 6.5 7 6.2 9.8 l-0.3 3.2 -6.2 -6.3z"/>
  <path d="M168.7 230.2 c-7 -7 -7.6 -8 -6.2 -9.2 1.4 -1.2 2.6 -0.4 9.3 6.3 6.8 6.8 7.5 7.8 6.1 9.2 -1.3 1.3 -2.3 0.6 -9.2 -6.3z"/>
  <path d="M531.6 228.1 c-8.3 -8.3 -9.7 -10.2 -9.1 -12.1 0.7 -2.1 1.6 -1.4 11 8 7.5 7.5 10.1 10.7 9.8 12.1 -0.3 1 -0.8 1.9 -1.2 1.9 -0.3 0 -5.1 -4.4 -10.5 -9.9z"/>
  <path d="M1147.3 227.8 c-8.7 -8.8 -13.3 -15.2 -13.3 -18.5 0 -0.4 4.7 3.9 10.5 9.7 7.7 7.6 10.8 11.6 11.9 14.7 0.8 2.4 1.4 4.3 1.3 4.3 -0.1 0 -4.8 -4.6 -10.4 -10.2z"/>
  <path d="M222.2 235.4 l-2.2 -1.5 0 -112.4 c0 -122.4 -0.4 -114.6 5.3 -116.1 1.3 -0.3 12.9 -0.4 25.9 -0.2 21.6 0.3 23.8 0.5 25.7 2.2 2.1 1.9 2.1 2.6 2.1 40.3 l0 38.3 39 0 39 0 0 -36.4 c0 -22.8 0.4 -37.4 1 -39.3 0.6 -1.7 2.2 -3.5 3.6 -4.2 4 -1.8 47.5 -1.5 51.9 0.3 l3.5 1.5 0 112.9 c0 103.9 -0.1 113.1 -1.7 114.3 -1.3 1.1 -7.1 1.4 -27.9 1.4 -23.9 0 -26.5 -0.2 -28.1 -1.8 -1.7 -1.6 -1.8 -5.2 -2.1 -47.7 l-0.3 -46 -38.9 0 -39 0 0 45.8 c0 25.1 -0.4 46.2 -0.8 46.9 -1.7 2.7 -7 3.3 -30 3.3 -19.9 0 -24.1 -0.3 -26 -1.6z"/>
  <path d="M452.3 235.5 c-1.3 -0.9 -2.3 -2 -2.3 -2.5 0 -1.5 85.1 -221.4 86.6 -223.7 2.4 -3.8 7.4 -4.5 29 -4.1 22.9 0.3 22.9 0.4 26.6 8.8 7.1 16.4 84.8 218.6 84.4 219.7 -1.1 2.7 -6.2 3.3 -29.4 3.3 -17 0 -24.4 -0.4 -26.2 -1.3 -2.5 -1.2 -4.4 -5.4 -13.4 -29.4 l-2.8 -7.3 -41.6 0 -41.7 0 -6.4 17 c-3.5 9.3 -7.2 17.7 -8.3 18.7 -1.8 1.6 -4.5 1.8 -27.2 2.1 -21.7 0.2 -25.4 0.1 -27.3 -1.3z m134.7 -86.7 c0 -2.9 -23.3 -70.9 -24 -70.1 -0.4 0.4 -5.7 15.9 -11.8 34.3 -6 18.4 -11.3 34.3 -11.7 35.3 -0.7 1.6 0.8 1.7 23.4 1.7 18.6 0 24.1 -0.3 24.1 -1.2z"/>
  <path d="M555.4 138.8 c-2.5 -2.6 -3.9 -5 -3.7 -6 0.3 -1 0.8 -1.8 1.2 -1.8 0.3 0 3.3 2.7 6.6 6 l5.9 6 -3 0 c-2.2 0 -4 -1.1 -7 -4.2z"/>
  <path d="M565.4 132.9 c-7.6 -7.6 -9.8 -10.5 -9.6 -12.2 0.2 -1.2 0.6 -2.4 0.8 -2.6 0.3 -0.3 5 4 10.4 9.4 9.4 9.4 11.8 13.3 9.2 14.9 -0.5 0.3 -5.3 -4 -10.8 -9.5z"/>
  <path d="M564.9 115.2 c-3.5 -3.6 -5.4 -6.3 -5.2 -7.4 0.6 -2.6 1.5 -2.3 5.5 2 3 3.2 6.4 9.9 5.5 10.8 -0.2 0.2 -2.8 -2.2 -5.8 -5.4z"/>
  <path d="M710.7 235 l-2.7 -2.1 0 -111.5 0 -111.5 2.5 -2.5 2.5 -2.5 57.3 0.4 c64 0.4 62.5 0.2 78.4 7.8 16.3 7.8 28.7 20.2 36.4 36.5 5.1 10.7 6.9 18.8 6.9 31 0 16.9 -4.7 30.8 -15.2 44.8 -5 6.6 -13.6 14.6 -19.7 18.2 -1.7 1 -3.1 2.1 -3.1 2.5 0 0.3 9.9 19.2 22 42 12.1 22.8 22 42.4 22 43.6 0 4.9 -2.3 5.3 -32 5.3 -28.1 0 -31.1 -0.4 -33.2 -4 -0.5 -0.8 -9.3 -17.5 -19.7 -37 l-18.8 -35.5 -13.1 -0.3 -13.2 -0.3 0 36.4 c0 29.8 -0.3 36.7 -1.4 38.3 -1.3 1.8 -3 1.9 -27.3 2.2 -25.1 0.3 -26 0.2 -28.6 -1.8z m104.9 -127.7 c8.9 -4.7 14.4 -14.5 14.4 -25.3 0 -8.5 -2.5 -14.7 -8.5 -20.7 -7.5 -7.4 -11.2 -8.3 -34.7 -8.3 l-18.8 0 0 28.6 0 28.5 21.8 -0.3 c20.2 -0.3 22 -0.5 25.8 -2.5z"/>
  <path d="M775 102.4 c0 -1.4 0.3 -1.4 1.5 -0.4 0.8 0.7 1.5 1.4 1.5 1.6 0 0.2 -0.7 0.4 -1.5 0.4 -0.8 0 -1.5 -0.7 -1.5 -1.6z"/>
  <path d="M781.3 96.8 c-4.9 -4.9 -6.3 -7 -6.3 -9.3 0 -2.9 0.1 -2.9 6.6 3.6 5.3 5.4 6.5 7.1 6.2 9.3 -0.3 2.6 -0.5 2.5 -6.5 -3.6z"/>
  <path d="M781.3 80.8 c-4.9 -4.9 -6.3 -7 -6.3 -9.3 0 -2.9 0.1 -2.9 6.6 3.6 5.3 5.4 6.5 7.1 6.2 9.3 -0.3 2.6 -0.5 2.5 -6.5 -3.6z"/>
  <path d="M782.5 66 l-6.9 -7 3.5 0 c3 0 4.4 1 10.4 7 l6.9 7 -3.5 0 c-3 0 -4.4 -1 -10.4 -7z"/>
  <path d="M798.5 66 l-6.9 -7 3.5 0 c3 0 4.4 1 10.4 7 l6.9 7 -3.5 0 c-3 0 -4.4 -1 -10.4 -7z"/>
  <path d="M816 66.3 c-2.6 -2.7 -3.3 -3.7 -1.7 -2.5 2.6 1.9 7.3 7.2 6.5 7.2 -0.2 0 -2.4 -2.1 -4.8 -4.7z"/>
  <path d="M911.3 236 c-1.4 -0.6 -2.3 -1.8 -2.3 -3 0 -1.2 19.1 -51.7 42.5 -112.3 30 -77.6 43.3 -110.9 45.1 -112.7 2.4 -2.5 2.5 -2.5 23.8 -2.8 25.4 -0.4 26.4 -0.1 30.1 8.1 6.6 15 84.6 218 84.3 219.4 -0.7 3.9 -4.2 4.3 -30.1 4.1 l-24.9 -0.3 -2.1 -2.5 c-1.2 -1.4 -4.9 -9.9 -8.2 -18.8 l-6 -16.2 -41.7 0 -41.6 0 -2.8 7.3 c-9 24 -10.9 28.2 -13.4 29.4 -3 1.5 -49.1 1.7 -52.7 0.3z m134.5 -87.2 c-0.3 -0.7 -5.6 -16.6 -11.8 -35.3 -6.2 -18.7 -11.6 -34.4 -12 -34.8 -0.6 -0.7 -24 68.2 -24 70.6 0 0.4 10.8 0.7 24.1 0.7 18.9 0 24 -0.3 23.7 -1.2z"/>
  <path d="M1011.2 140.7 c-2.2 -2.4 -2.9 -5.2 -1.4 -6.1 0.5 -0.3 2.8 1.5 5.2 3.9 l4.4 4.5 -3 0 c-1.9 0 -3.9 -0.9 -5.2 -2.3z"/>
  <path d="M1021.1 134.6 c-7.5 -7.6 -8.3 -8.7 -7.7 -11.2 0.7 -2.7 0.9 -2.6 11.2 7.7 5.7 5.7 10.4 10.7 10.4 11.1 0 0.5 -1.2 0.8 -2.8 0.8 -2.1 0 -4.6 -1.9 -11.1 -8.4z"/>
  <path d="M1024.1 120.6 c-6.1 -6.1 -7.2 -7.7 -6.6 -9.6 0.7 -2.1 1 -1.9 6.1 3.1 3.3 3.3 5.9 6.9 6.8 9.6 0.8 2.4 1.4 4.3 1.3 4.3 -0.2 0 -3.5 -3.3 -7.6 -7.4z"/>
  <path d="M1022 102.5 c-0.6 -0.8 -1 -2.2 -0.8 -3.2 0.3 -1.3 0.7 -0.9 1.5 1.5 1.3 3.5 1.2 3.9 -0.7 1.7z"/>
  <path d="M781.3 226.8 c-4.9 -4.9 -6.3 -7 -6.3 -9.3 0 -2.9 0.1 -2.9 6.6 3.6 5.3 5.4 6.5 7.1 6.2 9.3 -0.3 2.6 -0.5 2.5 -6.5 -3.6z"/>
  <path d="M685.9 220.3 c-7.5 -7.7 -11.1 -12.1 -12.3 -15.3 -1.7 -4.5 -1.7 -4.5 9.1 6.2 8.1 8 11.2 11.9 12.4 15.3 0.9 2.5 1.6 4.5 1.5 4.5 -0.1 0 -4.9 -4.8 -10.7 -10.7z"/>
  <path d="M176.6 222.1 c-6.9 -6.9 -7.5 -7.9 -6.1 -9.1 1.4 -1.2 2.5 -0.4 9 6.1 6.5 6.4 7.2 7.6 6.1 9.1 -1.1 1.5 -2 0.9 -9 -6.1z"/>
  <path d="M292.3 223.8 c-4.9 -4.9 -6.3 -7 -6.3 -9.3 0 -2.9 0.1 -2.9 6.6 3.6 5.3 5.4 6.5 7.1 6.2 9.3 -0.3 2.6 -0.5 2.5 -6.5 -3.6z"/>
  <path d="M993.3 219.7 c-6.7 -6.9 -9.8 -10.8 -9.6 -11.9 0.3 -1 0.8 -1.8 1.1 -1.8 1.5 0 20.2 19.6 20.2 21.2 0 3.6 -2 2.3 -11.7 -7.5z"/>
  <path d="M536 216.5 c-10 -10 -10.3 -10.5 -7.5 -10.5 2.5 0 4.6 1.6 11.4 8.4 7.3 7.3 8.3 8.8 7.5 10.6 -0.8 1.9 -1.8 1.1 -11.4 -8.5z"/>
  <path d="M430.3 215.8 c-4.9 -4.9 -6.3 -7 -6.3 -9.3 0 -2.9 0.1 -2.9 6.6 3.6 5.3 5.4 6.5 7.1 6.2 9.3 -0.3 2.6 -0.5 2.5 -6.5 -3.6z"/>
  <path d="M183.3 212.8 c-6.6 -6.7 -7.1 -7.5 -6 -9.5 1.2 -2.2 1.4 -2.1 8.6 5.1 5.9 5.9 7.2 7.8 6.6 9.5 -0.3 1.1 -1 2.1 -1.3 2.1 -0.4 0 -4 -3.3 -7.9 -7.2z"/>
  <path d="M548 212.5 c-6.4 -6.5 -6.4 -6.5 -3.4 -6.5 2.3 0 4.3 1.4 9.4 6.5 6.4 6.5 6.4 6.5 3.4 6.5 -2.3 0 -4.3 -1.4 -9.4 -6.5z"/>
  <path d="M564 212.5 l-6.4 -6.5 3.5 0 c2.9 0 4.4 1 9.9 6.5 l6.4 6.5 -3.5 0 c-2.9 0 -4.4 -1 -9.9 -6.5z"/>
  <path d="M581 212.5 c-6.4 -6.5 -6.4 -6.5 -3.4 -6.5 2.3 0 4.3 1.4 9.4 6.5 6.4 6.5 6.4 6.5 3.4 6.5 -2.3 0 -4.3 -1.4 -9.4 -6.5z"/>
  <path d="M597 212.5 l-6.4 -6.5 3.1 0 c2.3 0 3.9 1 6.7 4 2 2.2 3.6 4.4 3.6 4.9 0 0.5 0.3 1.6 0.6 2.5 1.2 3.1 -1.2 1.5 -7.6 -4.9z"/>
  <path d="M1002 212.5 c-6.4 -6.5 -6.4 -6.5 -3.4 -6.5 2.3 0 4.3 1.4 9.4 6.5 6.4 6.5 6.4 6.5 3.4 6.5 -2.3 0 -4.3 -1.4 -9.4 -6.5z"/>
  <path d="M1018 212.5 l-6.4 -6.5 3.5 0 c2.9 0 4.4 1 9.9 6.5 l6.4 6.5 -3.5 0 c-2.9 0 -4.4 -1 -9.9 -6.5z"/>
  <path d="M1035 212.5 c-6.4 -6.5 -6.4 -6.5 -3.4 -6.5 2.3 0 4.3 1.4 9.4 6.5 6.4 6.5 6.4 6.5 3.4 6.5 -2.3 0 -4.3 -1.4 -9.4 -6.5z"/>
  <path d="M1051 212.5 c-6.4 -6.5 -6.4 -6.5 -3.4 -6.5 2.3 0 4.3 1.4 9.4 6.5 6.4 6.5 6.4 6.5 3.4 6.5 -2.3 0 -4.3 -1.4 -9.4 -6.5z"/>
  <path d="M781.3 210.8 c-5.3 -5.3 -6.3 -6.9 -6.3 -9.8 l0 -3.5 6.6 6.6 c5.7 5.7 6.5 7 6.2 9.8 l-0.3 3.2 -6.2 -6.3z"/>
  <path d="M292.3 207.8 c-4.9 -4.9 -6.3 -7 -6.3 -9.3 0 -2.9 0.1 -2.9 6.6 3.6 5.3 5.4 6.5 7.1 6.2 9.3 -0.3 2.6 -0.5 2.5 -6.5 -3.6z"/>
  <path d="M896.8 212.3 c-2.6 -3 -7.3 -13 -5.4 -11.3 1.6 1.3 8.1 13 7.3 13 -0.2 0 -1.1 -0.8 -1.9 -1.7z"/>
  <path d="M1137.3 201.8 c-7.2 -7.3 -10.8 -11.8 -12.3 -15.3 l-2.1 -5 10.8 10.8 c8 7.8 11.3 12 12.5 15.2 1 2.5 1.6 4.5 1.5 4.5 -0.1 0 -4.8 -4.6 -10.4 -10.2z"/>
  <path d="M189.2 201.7 c-6.2 -6.2 -7.2 -7.7 -6.5 -9.5 0.8 -2.1 1.4 -1.7 8.2 5.2 6.4 6.4 7.3 7.8 6.5 9.6 -0.8 1.9 -1.5 1.5 -8.2 -5.3z"/>
  <path d="M430.3 199.8 c-4.9 -4.9 -6.3 -7 -6.3 -9.3 0 -2.9 0.1 -2.9 6.6 3.6 5.3 5.4 6.5 7.1 6.2 9.3 -0.3 2.6 -0.5 2.5 -6.5 -3.6z"/>
  <path d="M675.9 194.3 c-7.5 -7.7 -11.1 -12.1 -12.3 -15.3 l-1.7 -4.5 10.5 10.4 c7.5 7.4 11.1 11.8 12.5 15.3 1.1 2.6 1.9 4.8 1.8 4.8 -0.1 0 -5 -4.8 -10.8 -10.7z"/>
  <path d="M781.3 193.8 c-4.9 -4.9 -6.3 -7 -6.3 -9.3 0 -2.9 0.1 -2.9 6.6 3.6 5.3 5.4 6.5 7.1 6.2 9.3 -0.3 2.6 -0.5 2.5 -6.5 -3.6z"/>
  <path d="M292.3 191.8 c-4.9 -4.9 -6.3 -7 -6.3 -9.3 0 -2.9 0.1 -2.9 6.6 3.6 5.3 5.4 6.5 7.1 6.2 9.3 -0.3 2.6 -0.5 2.5 -6.5 -3.6z"/>
  <path d="M192.7 189.3 c-4.2 -4.4 -6.7 -7.7 -6.7 -9.1 0 -1.2 0.3 -2.2 0.8 -2.2 0.4 0 3.9 3.1 7.7 7 5.8 5.9 6.7 7.2 5.9 9 -0.8 1.9 -1.4 1.5 -7.7 -4.7z"/>
  <path d="M430.3 183.8 c-4.9 -4.9 -6.3 -7 -6.3 -9.3 0 -2.9 0.1 -2.9 6.6 3.6 5.3 5.4 6.5 7.1 6.2 9.3 -0.3 2.6 -0.5 2.5 -6.5 -3.6z"/>
  <path d="M1126.9 175.3 c-7.4 -7.6 -11.1 -12.1 -12.2 -15.2 -0.9 -2.5 -1.5 -4.6 -1.4 -4.7 0.2 -0.2 4.9 4.3 10.4 9.9 7.8 7.8 10.7 11.4 12.2 15.5 1.2 2.8 2 5.2 1.8 5.2 -0.1 0 -5 -4.8 -10.8 -10.7z"/>
  <path d="M781.2 177.7 c-5.1 -5.2 -6.3 -6.9 -6 -9.1 0.3 -2.6 0.5 -2.4 6.9 4.1 5.4 5.5 6.5 7.2 6 9.1 -0.6 2.1 -1 1.8 -6.9 -4.1z"/>
  <path d="M292.3 175.8 c-5.3 -5.3 -6.3 -6.9 -6.3 -9.8 l0 -3.5 6.6 6.6 c5.7 5.7 6.5 7 6.2 9.8 l-0.3 3.2 -6.2 -6.3z"/>
  <path d="M194.3 174.8 c-4.9 -4.9 -6.3 -7 -6.3 -9.3 0 -2.9 0.1 -2.9 6.6 3.6 5.3 5.4 6.5 7.1 6.2 9.3 -0.3 2.6 -0.5 2.5 -6.5 -3.6z"/>
  <path d="M878.8 178.3 c-0.9 -1 -2.8 -4.3 -4.2 -7.3 -2.4 -4.9 -2.4 -5.2 -0.5 -3 2 2.4 7.3 12 6.6 12 -0.2 0 -1.1 -0.8 -1.9 -1.7z"/>
  <path d="M665.3 167.7 c-8.1 -8.1 -10.6 -11.3 -12.2 -15.7 l-2.1 -5.4 10.8 10.7 c8 8 11.2 11.9 12.5 15.4 0.9 2.5 1.6 4.8 1.4 4.9 -0.2 0.2 -4.9 -4.3 -10.4 -9.9z"/>
  <path d="M430.3 167.8 c-4.9 -4.9 -6.3 -7 -6.3 -9.3 0 -2.9 0.1 -2.9 6.6 3.6 5.3 5.4 6.5 7.1 6.2 9.3 -0.3 2.6 -0.5 2.5 -6.5 -3.6z"/>
  <path d="M789.5 170 c-3.3 -3.4 -3.6 -4 -1.9 -4 1.3 0 2.8 1.4 4.3 4 1.2 2.2 2.1 4 1.9 4 -0.2 0 -2.2 -1.8 -4.3 -4z"/>
  <path d="M292.3 159.8 c-4.6 -4.7 -6.3 -7.1 -6.3 -9.1 0 -1.5 0.4 -2.7 0.8 -2.7 0.4 0 3.5 2.8 6.8 6.3 5.2 5.3 6 6.6 5.5 9 l-0.6 2.8 -6.2 -6.3z"/>
  <path d="M871.2 154.7 c-7 -7 -7.2 -7.4 -5.4 -9 1.7 -1.6 2.2 -1.2 9.6 6.2 7.4 7.4 7.7 8 5.8 9 -1.1 0.6 -2.2 1.1 -2.4 1.1 -0.2 0 -3.6 -3.3 -7.6 -7.3z"/>
  <path d="M191.6 156.1 c-3.1 -3.1 -5 -6.1 -5.6 -8.6 l-0.8 -3.7 3.3 3.2 c3.2 3.1 9.1 12.7 8.3 13.5 -0.2 0.3 -2.6 -1.7 -5.2 -4.4z"/>
  <path d="M304 154.5 c-6.4 -6.5 -6.4 -6.5 -3.4 -6.5 2.3 0 4.3 1.4 9.4 6.5 6.4 6.5 6.4 6.5 3.4 6.5 -2.3 0 -4.3 -1.4 -9.4 -6.5z"/>
  <path d="M322.6 157.1 c-2.8 -2.9 -3.7 -4.5 -3.4 -6.5 0.3 -2.6 0.5 -2.5 6.8 3.9 6.4 6.5 6.4 6.5 3.4 6.5 -2.2 0 -4 -1.1 -6.8 -3.9z"/>
  <path d="M336 154.5 c-6.4 -6.5 -6.4 -6.5 -3.4 -6.5 2.3 0 4.3 1.4 9.4 6.5 6.4 6.5 6.4 6.5 3.4 6.5 -2.3 0 -4.3 -1.4 -9.4 -6.5z"/>
  <path d="M99.3 158.2 c-3.9 -1.6 -12.8 -9.1 -11.9 -10 1.1 -1 9.5 4 13.1 7.7 2.1 2.2 3.7 4.1 3.5 4 -0.3 0 -2.4 -0.8 -4.7 -1.7z"/>
  <path d="M430.3 151.8 c-5.3 -5.3 -6.3 -6.9 -6.3 -9.8 l0 -3.5 6.6 6.6 c5.7 5.7 6.5 7 6.2 9.8 l-0.3 3.2 -6.2 -6.3z"/>
  <path d="M1116.3 147.8 c-7.2 -7.3 -10.8 -11.8 -12.3 -15.3 l-2.1 -5 11 11 c8.2 8.1 11.4 12 12.5 15.2 0.8 2.4 1.4 4.3 1.3 4.3 -0.1 0 -4.8 -4.6 -10.4 -10.2z"/>
  <path d="M880 147.5 c-7.1 -7.1 -7.4 -7.6 -5.7 -9.2 1.6 -1.7 2.1 -1.4 9.4 5.9 6.6 6.6 7.5 7.9 6.4 9.2 -0.8 0.9 -1.6 1.6 -2 1.6 -0.4 0 -4 -3.4 -8.1 -7.5z"/>
  <path d="M348 150.5 l-2.3 -2.5 2.6 0 c2.2 0 2.7 0.5 2.7 2.5 0 1.4 -0.1 2.5 -0.3 2.5 -0.2 0 -1.4 -1.1 -2.7 -2.5z"/>
  <path d="M315.5 150 c-1.8 -1.9 -1.7 -2 0.3 -2 1.5 0 2.2 0.6 2.2 2 0 1.1 -0.2 2 -0.3 2 -0.2 0 -1.2 -0.9 -2.2 -2z"/>
  <path d="M655.3 141.7 c-8 -8 -10.6 -11.4 -12.3 -15.7 l-2.1 -5.5 10.8 10.7 c8.3 8.3 11.2 11.9 12.5 15.5 0.9 2.6 1.6 4.8 1.5 5 -0.2 0.1 -4.9 -4.4 -10.4 -10z"/>
  <path d="M73.5 146.8 c-5.7 -3.2 -12.7 -8 -12.3 -8.4 1 -0.9 9.4 3.6 12.2 6.5 3.2 3.3 3.2 3.7 0.1 1.9z"/>
  <path d="M888.2 138.7 c-6.3 -6.4 -7.1 -7.5 -6 -9 1.2 -1.6 2 -1 8.7 5.7 5.1 5.1 7.2 7.9 6.8 9 -0.4 0.9 -1 1.6 -1.4 1.6 -0.5 0 -4.1 -3.3 -8.1 -7.3z"/>
  <path d="M430.3 134.8 c-4.9 -4.9 -6.3 -7 -6.3 -9.3 0 -2.9 0.1 -2.9 6.6 3.6 5.3 5.4 6.5 7.1 6.2 9.3 -0.3 2.6 -0.5 2.5 -6.5 -3.6z"/>
  <path d="M895 129.5 c-6.3 -6.3 -7.2 -7.7 -6.4 -9.5 0.8 -1.9 1.5 -1.4 8.6 5.7 6.7 6.8 7.5 8 6.4 9.5 -1.1 1.5 -2 0.9 -8.6 -5.7z"/>
  <path d="M1106.3 121.8 c-7.2 -7.3 -10.8 -11.8 -12.3 -15.3 l-2.1 -5 10.8 10.8 c8 7.8 11.3 12 12.5 15.2 1 2.5 1.6 4.5 1.5 4.5 -0.1 0 -4.8 -4.6 -10.4 -10.2z"/>
  <path d="M900.2 118.7 c-6.2 -6.2 -7.2 -7.7 -6.5 -9.5 0.8 -2.1 1.4 -1.7 8.2 5.2 6.4 6.4 7.3 7.8 6.5 9.6 -0.8 1.9 -1.5 1.5 -8.2 -5.3z"/>
  <path d="M430.3 118.8 c-4.9 -4.9 -6.3 -7 -6.3 -9.3 0 -2.9 0.1 -2.9 6.6 3.6 5.3 5.4 6.5 7.1 6.2 9.3 -0.3 2.6 -0.5 2.5 -6.5 -3.6z"/>
  <path d="M644.9 114.3 c-7.5 -7.7 -11.1 -12.1 -12.3 -15.3 l-1.7 -4.5 10.5 10.4 c7.5 7.4 11.1 11.8 12.5 15.3 1.1 2.6 1.9 4.8 1.8 4.8 -0.1 0 -5 -4.8 -10.8 -10.7z"/>
  <path d="M903.5 106 c-6 -6 -6.7 -7.1 -6.1 -9.6 l0.7 -2.7 7 6.9 c6.5 6.4 8.5 10.3 6.1 11.8 -0.5 0.3 -3.9 -2.6 -7.7 -6.4z"/>
  <path d="M430.3 102.8 c-4.9 -4.9 -6.3 -7 -6.3 -9.3 0 -2.9 0.1 -2.9 6.6 3.6 5.3 5.4 6.5 7.1 6.2 9.3 -0.3 2.6 -0.5 2.5 -6.5 -3.6z"/>
  <path d="M1095.9 95.3 c-7.5 -7.7 -11.1 -12.1 -12.3 -15.3 -1.7 -4.5 -1.7 -4.5 9.1 6.3 8 7.8 11.3 12 12.5 15.2 1 2.5 1.6 4.5 1.5 4.5 -0.1 0 -5 -4.8 -10.8 -10.7z"/>
  <path d="M634.2 87.7 c-7.5 -7.5 -10.5 -11.4 -11.7 -14.7 l-1.6 -4.5 10.2 10 c6.1 6.1 10.9 11.7 12.1 14.3 1.1 2.4 1.8 4.5 1.6 4.8 -0.2 0.2 -5 -4.3 -10.6 -9.9z"/>
  <path d="M905.3 90.8 c-4.9 -4.9 -6.3 -7 -6.3 -9.3 0 -2.9 0.1 -2.9 6.6 3.6 5.3 5.4 6.5 7.1 6.2 9.3 -0.3 2.6 -0.5 2.5 -6.5 -3.6z"/>
  <path d="M430.3 86.8 c-5.3 -5.3 -6.3 -6.9 -6.3 -9.8 l0 -3.5 6.6 6.6 c5.7 5.7 6.5 7 6.2 9.8 l-0.3 3.2 -6.2 -6.3z"/>
  <path d="M153.2 84.7 c-6.5 -6.6 -7.1 -7.5 -5.7 -8.7 1.4 -1.2 2.6 -0.4 9.1 6.1 4.1 4 7.3 7.8 7.1 8.4 -0.9 2.6 -3.8 1 -10.5 -5.8z"/>
  <path d="M161.6 77.1 c-6.9 -6.9 -7.5 -7.9 -6.1 -9.1 1.4 -1.2 2.5 -0.4 9 6.1 6.5 6.4 7.2 7.6 6.1 9.1 -1.1 1.5 -2 0.9 -9 -6.1z"/>
  <path d="M290.2 75.7 c-3 -3.1 -4.2 -5.1 -4.2 -7.2 0 -2.9 0.1 -2.8 6.5 3.5 3.6 3.5 6.5 6.8 6.5 7.2 0 0.4 -1 0.8 -2.3 0.8 -1.4 0 -4 -1.7 -6.5 -4.3z"/>
  <path d="M1085.9 69.3 c-7.5 -7.7 -11.1 -12.1 -12.3 -15.3 -1.7 -4.5 -1.7 -4.5 9.1 6.2 8.1 8 11.2 11.9 12.4 15.3 0.9 2.5 1.6 4.5 1.5 4.5 -0.1 0 -4.9 -4.8 -10.7 -10.7z"/>
  <path d="M83.5 76.1 c-3.8 -2.3 -6.8 -5.7 -6.3 -7.1 0.2 -0.6 2.5 1.2 5.3 4 5.4 5.5 5.5 5.9 1 3.1z"/>
  <path d="M903.1 72.6 c-3.5 -3.6 -5.5 -6.5 -6.1 -9.1 l-0.9 -3.8 4.4 4.3 c2.4 2.3 5.3 6.5 6.4 9.1 1.1 2.7 1.9 4.9 1.8 4.9 -0.2 0 -2.6 -2.4 -5.6 -5.4z"/>
  <path d="M88.1 68.6 c-6.7 -6.8 -7.2 -7.5 -5.4 -8.4 1.7 -0.9 3 -0.1 9.4 6.4 6 6 7.1 7.6 5.9 8.4 -0.8 0.5 -1.7 1 -2 1 -0.3 0 -3.9 -3.3 -7.9 -7.4z"/>
  <path d="M169.1 68.6 c-6.5 -6.5 -7.3 -7.7 -6.1 -9.1 1.2 -1.4 2.2 -0.8 9.1 6.1 6 6 7.6 8.1 6.7 9.1 -0.6 0.7 -1.3 1.3 -1.7 1.3 -0.4 0 -4 -3.3 -8 -7.4z"/>
  <path d="M430.3 69.8 c-4.9 -4.9 -6.3 -7 -6.3 -9.3 0 -2.9 0.1 -2.9 6.6 3.6 5.3 5.4 6.5 7.1 6.2 9.3 -0.3 2.6 -0.5 2.5 -6.5 -3.6z"/>
  <path d="M121.4 69.8 l-2.9 -3.1 3.8 2.8 c3.8 2.8 4.4 3.5 2.9 3.5 -0.5 0 -2.1 -1.4 -3.8 -3.2z"/>
  <path d="M100.5 65 c-6.9 -6.9 -6.9 -7 -3.9 -7 2.3 0 4.3 1.3 9.2 6.3 3.4 3.4 6.2 6.6 6.2 7 0 0.4 -1 0.7 -2.3 0.7 -1.5 0 -4.7 -2.4 -9.2 -7z"/>
  <path d="M624.3 61.7 c-8.6 -8.6 -13.3 -15.2 -13.3 -18.6 0 -0.3 4.5 3.9 10.1 9.4 6.4 6.3 10.8 11.6 12 14.4 1.1 2.4 1.8 4.5 1.6 4.7 -0.2 0.2 -4.9 -4.3 -10.4 -9.9z"/>
  <path d="M177 60.5 c-7.1 -7.1 -7.4 -7.6 -5.7 -9.2 1.6 -1.7 2.1 -1.4 9.3 5.8 7.2 7.2 7.4 7.6 5.6 9.2 -1.7 1.6 -2.2 1.3 -9.2 -5.8z"/>
  <path d="M292.3 61.8 c-4.9 -4.9 -6.3 -7 -6.3 -9.3 0 -2.9 0.1 -2.9 6.6 3.6 5.3 5.4 6.5 7.1 6.2 9.3 -0.3 2.6 -0.5 2.5 -6.5 -3.6z"/>
  <path d="M430.3 53.8 c-4.9 -4.9 -6.3 -7 -6.3 -9.3 0 -2.9 0.1 -2.9 6.6 3.6 5.3 5.4 6.5 7.1 6.2 9.3 -0.3 2.6 -0.5 2.5 -6.5 -3.6z"/>
  <path d="M184 51.5 c-5.3 -5.4 -7.1 -7.8 -6.3 -8.6 0.7 -0.7 2.8 0.6 7.2 4.6 5.3 5 8.3 9.7 6.9 11 -0.2 0.3 -3.7 -2.9 -7.8 -7z"/>
  <path d="M1075.3 42.8 c-10 -10.3 -13.7 -15.7 -11.8 -17.6 0.3 -0.3 4.7 3.5 9.8 8.6 7.1 7.1 9.7 10.4 11.4 14.7 1.1 3 2 5.5 1.9 5.5 -0.1 0 -5.2 -5.1 -11.3 -11.2z"/>
  <path d="M292.3 45.8 c-4.9 -4.9 -6.3 -7 -6.3 -9.3 0 -2.9 0.1 -2.9 6.6 3.6 5.3 5.4 6.5 7.1 6.2 9.3 -0.3 2.6 -0.5 2.5 -6.5 -3.6z"/>
  <path d="M614 35.5 l-10.5 -10.5 3.6 0 c2.9 0 4.3 0.9 8.6 5.3 4.4 4.4 10.1 14.2 9 15.3 -0.2 0.2 -5 -4.4 -10.7 -10.1z"/>
  <path d="M430.3 37.8 c-4.9 -4.9 -6.3 -7 -6.3 -9.3 0 -2.9 0.1 -2.9 6.6 3.6 5.3 5.4 6.5 7.1 6.2 9.3 -0.3 2.6 -0.5 2.5 -6.5 -3.6z"/>
  <path d="M293 30.5 c-5.2 -5.3 -5.3 -5.5 -2.7 -5.5 4 0 9 4.8 8.5 8.3 -0.3 2.8 -0.3 2.8 -5.8 -2.8z"/>
 </g>
</svg>