<svg xmlns="http://www.w3.org/2000/svg" viewBox="0 0 521.78 124.73"><defs><style>.cls-1{fill:#0ec99c;}.cls-2{fill:#fff;}.cls-3{fill:#11090e;}</style></defs><g id="Layer_2" data-name="Layer 2"><g id="Layer_1-2" data-name="Layer 1"><path class="cls-1" d="M29.51,3h92.24a0,0,0,0,1,0,0V95.22a29.51,29.51,0,0,1-29.51,29.51H0a0,0,0,0,1,0,0V32.48A29.51,29.51,0,0,1,29.51,3Z"/><path class="cls-2" d="M15.41,47.47h84a7,7,0,0,1,7,7v0a7,7,0,0,1-7,7h-77a7,7,0,0,1-7-7v-7a0,0,0,0,1,0,0Z"/><path class="cls-2" d="M15.41,66.31h84a7,7,0,0,1,7,7v0a7,7,0,0,1-7,7h-77a7,7,0,0,1-7-7v-7a0,0,0,0,1,0,0Z"/><path class="cls-2" d="M60.47,85.15H98.56a7,7,0,0,1,7,7v0a7,7,0,0,1-7,7H67.43a7,7,0,0,1-7-7v-7A0,0,0,0,1,60.47,85.15Z"/><path class="cls-2" d="M22.37,28.63H53.5a7,7,0,0,1,7,7v0a7,7,0,0,1-7,7H15.41a0,0,0,0,1,0,0v-7a7,7,0,0,1,7-7Z"/><path class="cls-3" d="M183.21,113.09q-21.32,0-35.08-9.8l6.69-15.63q11,8.25,26.44,8.24a16.76,16.76,0,0,0,8.36-1.79q3.16-1.78,3.16-4.58a4.72,4.72,0,0,0-2.38-4A19.28,19.28,0,0,0,184.3,83c-2.49-.62-5.24-1.26-8.25-1.9a74.43,74.43,0,0,1-9-2.57,40,40,0,0,1-8.24-4,18,18,0,0,1-6.11-6.69,21.33,21.33,0,0,1-2.45-10.15q-.16-11,8.71-18.51t22.63-7.47q18.6,0,29.8,9L205,56.93a41.73,41.73,0,0,0-11.4-5.83,39.31,39.31,0,0,0-13-2.33,12.07,12.07,0,0,0-6.92,1.79A5.25,5.25,0,0,0,171.07,55a4.48,4.48,0,0,0,1.87,3.54A14.56,14.56,0,0,0,177.8,61q3,.93,6.85,2.06c2.57.75,5.17,1.49,7.82,2.22a41.85,41.85,0,0,1,7.81,3,38.68,38.68,0,0,1,6.89,4.4,18.22,18.22,0,0,1,4.93,6.41,21.5,21.5,0,0,1,2,9,22.08,22.08,0,0,1-8.68,17.93Q196.74,113.1,183.21,113.09Z"/><path class="cls-3" d="M262.69,31.73q14.78,0,23.29,9.53t8.52,26v44.26H272V71.09q0-8-4-12.52t-11.05-4.51a17.59,17.59,0,0,0-8.83,2.37,18.56,18.56,0,0,0-6.65,6.34v48.77H219V0h22.48V42.39a23.58,23.58,0,0,1,9-7.78A26.58,26.58,0,0,1,262.69,31.73Z"/><path class="cls-3" d="M359.43,33.29h22.48v78.25H359.43v-9.26a20.42,20.42,0,0,1-9.29,7.82,32.34,32.34,0,0,1-13.81,3,33.19,33.19,0,0,1-18.43-5.44,37.92,37.92,0,0,1-13.22-14.82,44.09,44.09,0,0,1-4.83-20.5q0-16.95,10.62-28.77t25.86-11.83a32,32,0,0,1,13.77,3q6.45,3,9.33,7.77ZM341.31,91.78a21.72,21.72,0,0,0,10.62-2.72,19.48,19.48,0,0,0,7.5-7V62.92a19.64,19.64,0,0,0-7.5-7.23,21.16,21.16,0,0,0-10.62-2.8,19.06,19.06,0,0,0-19.44,19.44,19.06,19.06,0,0,0,19.44,19.45Z"/><path class="cls-3" d="M431.76,31.73a26.85,26.85,0,0,1,9.56,1.4L440,54.21a29.53,29.53,0,0,0-10-1.79q-4.2,0-9.3,3.23a21,21,0,0,0-7.73,8.6v47.29H390.46V33.29h22.48v9.25a20.31,20.31,0,0,1,8.2-7.81A22.12,22.12,0,0,1,431.76,31.73Z"/><path class="cls-3" d="M499.31,33.29h22.47v78.25H499.31v-9.26q-2.88,4.83-9.3,7.82a32.33,32.33,0,0,1-13.8,3,33.22,33.22,0,0,1-18.44-5.44,37.92,37.92,0,0,1-13.22-14.82,44.08,44.08,0,0,1-4.82-20.5q0-16.95,10.61-28.77t25.87-11.83a32,32,0,0,1,13.76,3q6.45,3,9.34,7.77ZM481.18,91.78a21.69,21.69,0,0,0,10.62-2.72,19.51,19.51,0,0,0,7.51-7V62.92a19.67,19.67,0,0,0-7.51-7.23,21.14,21.14,0,0,0-10.62-2.8,19.06,19.06,0,0,0-19.44,19.44,19.06,19.06,0,0,0,19.44,19.45Z"/></g></g></svg>