<?xml version="1.0" encoding="utf-8"?>
<!DOCTYPE svg PUBLIC "-//W3C//DTD SVG 20010904//EN" "http://www.w3.org/TR/2001/REC-SVG-20010904/DTD/svg10.dtd">
<svg version="1.0" xmlns="http://www.w3.org/2000/svg" width="72px" height="16px" viewBox="0 0 72 16" preserveAspectRatio="xMidYMid meet">
 <g fill="#ffffff">
  <path d="M0 8 c0 -7.8 0.1 -8 2.4 -8 1.3 0 2.7 0.6 3 1.3 0.5 1 0.7 1 1.2 0 0.7 -1.6 39.4 -1.9 39.4 -0.3 0 0.6 0.9 1 2 1 1.1 0 2 -0.4 2 -1 0 -0.6 4.3 -1 11 -1 l11 0 0 7.8 0 7.9 -31.5 0.1 c-20.2 0.1 -31.5 -0.2 -31.5 -0.8 0 -0.6 -0.9 -1 -2 -1 -1.1 0 -2 0.5 -2 1 0 0.6 -1.1 1 -2.5 1 -2.5 0 -2.5 -0.1 -2.5 -8z m24.7 -1.2 c-0.2 -1.3 -0.4 -0.3 -0.4 2.2 0 2.5 0.2 3.5 0.4 2.3 0.2 -1.3 0.2 -3.3 0 -4.5z m12.1 1 c-1 -2.9 -1.2 -3 -2.5 -1.3 -2 2.8 -1.6 4.5 1.1 4.5 2.4 0 2.4 -0.2 1.4 -3.2z m29.2 2.8 c0 -0.2 -0.6 -1.8 -1.4 -3.6 -1.1 -2.6 -1.4 -2.9 -1.8 -1.4 -0.3 1.1 -0.9 2.7 -1.3 3.7 -0.6 1.4 -0.2 1.7 1.9 1.7 1.4 0 2.6 -0.2 2.6 -0.4z"/>
 </g>
 <g fill="#ffffff">
  <path d="M1.5 14 c-0.9 -1 -1.5 -2.6 -1.2 -3.5 0.7 -1.7 2.3 -2 3.2 -0.5 0.3 0.6 1.4 1 2.3 0.9 1.4 0 1.4 -0.2 0.2 -0.6 -4.9 -1.8 -8.1 -8.3 -4 -8.3 1.4 0 2 0.7 2 2.1 0 1.9 0.4 2.1 3.5 1.6 2 -0.3 3.3 -0.3 3.1 0.1 -0.2 0.4 0.2 1.6 1 2.7 1.3 1.8 1.4 1.8 1.4 -0.8 0 -1.5 0.5 -2.7 1 -2.7 0.6 0 1 1.6 1 3.5 0 3.2 -0.2 3.5 -2.9 3.5 -3.9 0 -6.1 0.9 -6.1 2.6 0 2 -2.4 1.7 -4.5 -0.6z"/>
  <path d="M8 14.6 c0 -1 0.9 -1.6 2.1 -1.6 2.4 0 2.1 2.3 -0.4 2.8 -1 0.2 -1.7 -0.3 -1.7 -1.2z"/>
  <path d="M17.3 14.4 c-0.7 -0.7 -1.3 -2.7 -1.3 -4.4 0 -2.8 0.2 -3 4 -3 2.9 0 4 -0.4 4 -1.5 0 -0.8 -0.7 -1.5 -1.5 -1.5 -0.8 0 -1.5 -0.9 -1.5 -2 0 -1.4 0.7 -2 2.4 -2 3.1 0 4.4 1.7 4.8 6.5 l0.3 4 1.9 -5.2 c2.9 -7.8 6.8 -7 10.5 2.2 1.9 4.8 2 4.9 2 1.8 0.1 -1.8 0.6 -3.3 1.1 -3.3 0.6 0 1 1.6 1 3.5 0 2.8 -0.4 3.5 -2 3.5 -1.2 0 -2 0.7 -2 1.6 0 1.1 -0.5 1.4 -1.7 0.9 -1 -0.4 -2.6 -1 -3.5 -1.2 -2.5 -0.7 -2.3 -3.3 0.2 -3.3 1.1 0 2 -0.7 2 -1.5 0 -0.8 -0.4 -1.5 -1 -1.5 -0.5 0 -1 -0.9 -1 -2 0 -1.1 -0.4 -2 -1 -2 -0.5 0 -1 1.1 -1 2.5 0 1.4 -0.4 2.5 -1 2.5 -0.5 0 -1 1 -1 2.3 0 3.1 -1.1 4.3 -4 4.4 -4.8 0.2 -7 -0.7 -7 -2.7 0 -2.8 -1.8 -2.5 -2.2 0.4 -0.2 2 -0.5 2.2 -1.5 1z"/>
  <path d="M51.7 15.3 c-0.4 -0.3 -0.7 -1.9 -0.7 -3.5 0 -2.1 -0.5 -2.8 -2 -2.8 -1.6 0 -2 -0.7 -2 -3.4 0 -3.1 0.3 -3.4 3.5 -3.8 4.7 -0.5 7.1 2.1 5.6 6.5 -1.7 4.7 -0.4 4.5 1.9 -0.4 2 -4.2 2 -4.3 1.5 -1 -0.3 1.8 -0.5 4.6 -0.5 6.2 0 2.6 -0.3 2.9 -3.3 2.9 -1.9 0 -3.7 -0.3 -4 -0.7z"/>
  <path d="M66 14.5 c-0.9 -1 -0.9 -1.5 -0.1 -1.5 0.6 0 1.1 -0.7 1.1 -1.5 0 -0.8 -0.4 -1.5 -1 -1.5 -0.5 0 -1 -1.1 -1 -2.5 0 -1.4 -0.4 -2.5 -1 -2.5 -0.5 0 -1 -1.1 -1 -2.5 0 -2.6 0.7 -3 2.6 -1.7 2 1.3 6.3 13.6 5 14.4 -1.7 1.2 -3.2 0.9 -4.6 -0.7z"/>
  <path d="M6 2 c0 -2.3 2.9 -2.7 4.8 -0.8 1.9 1.9 1.4 2.8 -1.8 2.8 -2.3 0 -3 -0.4 -3 -2z"/>
 </g>
 <g fill="#ffffff">
  <path d="M1.9 14.1 c-1.9 -1.5 -2.1 -2.1 -1.1 -3.4 1.9 -2.3 6 -0.1 5.4 3 -0.5 2.8 -1.3 2.9 -4.3 0.4z"/>
  <path d="M8.3 12.4 c0.5 -3.1 0.4 -3.4 -1.3 -2.9 -1.3 0.4 -2.8 -0.2 -4.5 -1.9 -2.9 -2.9 -3.2 -4.8 -0.9 -6.7 1.3 -1 1.7 -1 2.4 0 0.5 0.9 1.8 1.1 3.9 0.6 2.4 -0.5 3.2 -0.3 3.7 0.9 0.3 0.9 0.1 2.2 -0.5 2.9 -0.8 1 -0.7 1.9 0.4 3.3 1.3 1.7 1.4 1.5 1.5 -2.8 0 -2.7 0.4 -4.8 0.9 -4.8 0.9 0 2.1 7.1 2.1 12.1 0 3.1 -1.7 3.9 -2.6 1.4 -0.5 -1.3 -0.8 -1.3 -2.1 0 -2.5 2.5 -3.6 1.8 -3 -2.1z"/>
  <path d="M18.3 8.5 c0 -4.4 0.2 -7 0.4 -5.7 0.2 1.2 0.8 2.2 1.3 2.2 0.5 0 1 -1 1.2 -2.2 0.4 -3.2 5.2 -3.2 5.6 0 0.2 1.2 -0.1 2.2 -0.7 2.2 -0.6 0 -1.1 1.1 -1.1 2.5 0 1.4 0.5 2.5 1 2.5 0.6 0 1 0.8 1 1.8 0.1 1.6 0.1 1.6 1.1 0 1.2 -2.2 2.9 -2.3 2.9 -0.3 0 0.9 1 1.5 2.6 1.5 2.2 0 2.3 0.2 1.1 1.4 -1.6 1.6 -10.5 1.9 -12.4 0.3 -0.7 -0.5 -1.3 -1.8 -1.3 -2.8 0 -3.2 -1.8 -2.1 -2.3 1.4 -0.2 1.7 -0.4 -0.4 -0.4 -4.8z"/>
  <path d="M42 14.5 c0 -0.9 0.9 -1.5 2.5 -1.5 1.6 0 2.5 0.6 2.5 1.5 0 0.9 -0.9 1.5 -2.5 1.5 -1.6 0 -2.5 -0.6 -2.5 -1.5z"/>
  <path d="M54.3 15.3 c-1.4 -0.5 -1.9 -13.3 -0.5 -13.3 0.4 0 1.3 0.9 2 2.1 1.1 1.7 1.1 2.5 -0.3 4.5 -0.9 1.4 -1.3 3 -0.8 3.6 0.4 0.8 1.5 -0.6 2.9 -3.7 l2.3 -5 0 4.8 c0.1 4.1 0.4 4.7 2.2 4.7 1.8 0 1.9 0.2 0.5 1.5 -1.4 1.4 -5.8 1.9 -8.3 0.8z"/>
 </g>
 <g fill="#ffffff">
  <path d="M13.1 13.8 c-0.6 -1.8 -0.9 -1.9 -1.4 -0.5 -1 2.6 -2.7 2 -2.7 -0.8 0 -1.6 -0.6 -2.5 -1.5 -2.5 -1.6 0 -2 -3.6 -0.9 -7.8 0.7 -2.6 1.3 -2.7 3.9 -0.8 1.6 1.1 1.7 1.6 0.6 2.9 -1 1.3 -1 2.1 0.3 4.4 1.1 2 1.5 2.3 1.6 1.1 0 -2.9 3 -2.1 3 0.7 0 1.6 0.6 2.5 1.5 2.5 0.8 0 1.5 0.7 1.5 1.5 0 2.4 -4.9 1.9 -5.9 -0.7z"/>
  <path d="M38 14.5 c-1.1 -1.3 -0.8 -1.5 1.4 -1.5 1.6 0 2.6 0.5 2.6 1.5 0 0.8 -0.6 1.5 -1.4 1.5 -0.7 0 -1.9 -0.7 -2.6 -1.5z"/>
  <path d="M54 14.5 c0 -0.9 1 -1.5 2.5 -1.5 1.4 0 2.5 0.6 2.5 1.3 0 0.7 -1.1 1.4 -2.5 1.5 -1.6 0.1 -2.5 -0.3 -2.5 -1.3z"/>
  <path d="M69 14.5 c0 -0.8 -0.7 -1.5 -1.5 -1.5 -1 0 -1.5 -1.1 -1.5 -3.5 0 -4.8 1.7 -4.4 4 1.1 2.4 5.5 2.4 5.4 0.5 5.4 -0.8 0 -1.5 -0.7 -1.5 -1.5z"/>
  <path d="M58.2 6.9 c0.6 -1.7 1.7 -3.3 2.4 -3.6 0.8 -0.3 1.4 -1.2 1.4 -2 0 -2.1 3 -1.2 4.8 1.5 1.4 2.1 1.3 2.2 -1.7 2.2 -2.6 0 -3.1 0.4 -3.1 2.5 0 2 -0.5 2.5 -2.4 2.5 -2.3 0 -2.4 -0.2 -1.4 -3.1z"/>
  <path d="M54.9 6.3 c-0.2 -2.4 -0.2 -2.5 -0.6 -0.5 -0.4 1.8 -1.1 2.2 -3.9 2.2 -3.2 0 -3.4 -0.2 -3.4 -3.5 0 -2.9 0.4 -3.6 2.7 -4.1 3.1 -0.8 6.3 2.3 6.3 6.2 0 3.3 -1 3 -1.1 -0.3z"/>
  <path d="M13 3 c0 -2.8 0.3 -3.1 2.8 -2.8 1.9 0.2 2.8 0.9 3 2.6 0.2 1.4 -0.2 2.2 -1.1 2.2 -0.9 0 -2.2 0.3 -3.1 0.6 -1.3 0.5 -1.6 -0.1 -1.6 -2.6z"/>
 </g>
 <g fill="#ffffff">
  <path d="M24 13.4 c0 -1.3 0.4 -2.4 0.9 -2.4 0.6 0 1.2 -1.5 1.4 -3.2 0.3 -2.5 0.4 -2 0.6 1.7 l0.2 5 2.7 -7 c2 -5.2 3.3 -7.1 4.8 -7.3 2.5 -0.4 3.6 0.9 6 7.3 l1.9 5 0.6 -4.5 c0.4 -2.8 0.7 -3.4 0.7 -1.7 0.1 1.5 0.7 2.7 1.2 2.7 0.6 0 1.1 1 1.1 2.3 0.1 1.6 0.2 1.8 0.6 0.5 0.6 -2.4 6.1 -2.4 7.9 0 1.2 1.6 1.3 1.6 1.9 0 1.1 -2.7 2.5 -2.1 2.5 1 0 2.4 -0.4 2.7 -3.4 2.9 -2.6 0.2 -3.9 -0.3 -5 -1.9 l-1.6 -2.2 0 2.1 c0 2 -0.5 2.2 -4.7 2 -4.1 -0.2 -4.8 -0.5 -5.1 -2.4 -0.2 -1.3 -0.8 -2.3 -1.3 -2.3 -0.5 0 -0.9 -1.3 -0.9 -3 0 -1.6 -0.3 -3 -0.6 -3 -1.3 0 -3.4 3 -3.4 4.9 0 1.2 -0.4 2.1 -1 2.1 -0.5 0 -1 0.8 -1 1.8 0 1.4 -0.8 1.8 -3.5 1.9 -3.1 0.1 -3.5 -0.2 -3.5 -2.3z"/>
  <path d="M65.3 14.7 c-4.7 -1.6 -4.5 -4.7 0.2 -4.7 3.2 0 3.5 0.2 3.5 3 0 1.7 -0.1 2.9 -0.2 2.9 -0.2 -0.1 -1.8 -0.7 -3.5 -1.2z"/>
  <path d="M3 6.1 c0 -1.1 -0.7 -2.1 -1.6 -2.3 -1.3 -0.3 -1.3 -0.6 -0.1 -2.2 1.2 -1.6 2 -1.7 5.3 -1 2.9 0.7 3.9 1.5 3.9 2.9 0 1.4 -0.6 1.9 -2 1.7 -1.7 -0.2 -1.6 0 0.5 1.2 2.5 1.5 2.5 1.5 -1.7 1.6 -3.6 0 -4.3 -0.3 -4.3 -1.9z"/>
  <path d="M15 4.5 c0 -2.5 0.4 -3.5 1.6 -3.5 0.9 0 1.8 0.9 2.1 2 0.3 1.1 1.2 2 1.9 2 0.8 0 1.4 0.7 1.4 1.5 0 1 -1.1 1.5 -3.5 1.5 -3.3 0 -3.5 -0.2 -3.5 -3.5z"/>
 </g>
 <g fill="#ffffff">
  <path d="M7 14.5 c0 -1 1 -1.5 2.6 -1.5 2.2 0 2.5 0.2 1.4 1.5 -1.6 1.9 -4 1.9 -4 0z"/>
  <path d="M15 8.1 c0 -4.5 0.4 -8.1 0.9 -8.1 1.4 0 3.3 2.8 2.6 4 -0.3 0.6 0.3 1 1.4 1 1.6 0 2.1 0.6 2.1 2.5 0 1.5 -0.6 2.5 -1.4 2.5 -0.9 0 -1.6 1.2 -1.8 2.7 -0.2 1.7 -1 2.9 -2 3.1 -1.6 0.3 -1.8 -0.6 -1.8 -7.7z"/>
  <path d="M28.5 15 c-0.3 -0.5 0.2 -1.8 1.2 -3 2.2 -2.5 9.4 -2.8 11.7 -0.4 0.9 0.8 1.6 1.1 1.6 0.5 0 -0.6 0.9 -1.1 2 -1.1 1.4 0 2 0.7 2 2.4 0 2 -0.5 2.3 -3.2 2.1 -1.8 0 -4.6 -0.5 -6.1 -0.9 -1.8 -0.6 -3.3 -0.4 -4 0.3 -1.3 1.3 -4.4 1.4 -5.2 0.1z"/>
  <path d="M59 13 c0 -2.9 0.2 -3 4.5 -3 4.1 0 4.5 0.2 4.5 2.5 0 2.4 -1.5 3.5 -2.2 1.5 -0.2 -0.6 -1.5 -0.4 -3.2 0.5 -3.7 1.9 -3.6 2 -3.6 -1.5z"/>
  <path d="M69 14.5 c0 -0.8 0.4 -1.5 0.9 -1.5 0.5 0 1.1 0.7 1.5 1.5 0.3 0.9 0 1.5 -0.9 1.5 -0.8 0 -1.5 -0.7 -1.5 -1.5z"/>
  <path d="M7 8.5 c0 -2.9 1.2 -3.2 3.4 -0.9 2.3 2.2 2 3.4 -0.9 3.4 -2 0 -2.5 -0.5 -2.5 -2.5z"/>
  <path d="M13.3 7.5 c0 -2.2 0.2 -3 0.4 -1.7 0.2 1.2 0.2 3 0 4 -0.3 0.9 -0.5 -0.1 -0.4 -2.3z"/>
  <path d="M46 6 c0 -1.1 -0.7 -2 -1.5 -2 -0.8 0 -1.5 -0.9 -1.5 -2 0 -1.8 0.5 -1.9 5.2 -1.5 3.5 0.3 5.7 1 6.5 2.2 1.7 2.2 1.6 3.3 -0.2 3.3 -0.8 0 -1.5 0.5 -1.5 1 0 0.6 -1.6 1 -3.5 1 -2.8 0 -3.5 -0.4 -3.5 -2z"/>
  <path d="M34.3 4.5 c-1.8 -2 -1.6 -4.5 0.3 -4.5 1.8 0 3.7 1.7 4.7 4.3 0.5 1.3 0.1 1.7 -1.6 1.7 -1.2 -0.1 -2.8 -0.7 -3.4 -1.5z"/>
  <path d="M59.9 2.8 c1.2 -3.4 4.1 -3.6 4.1 -0.4 0 2.1 -0.5 2.6 -2.5 2.6 -2.1 0 -2.3 -0.3 -1.6 -2.2z"/>
 </g>
 <g fill="#ffffff">
  <path d="M14.3 15.3 c-2.1 -0.8 -1.5 -4.3 0.7 -4.3 1.5 0 2 0.7 2 2.5 0 2.5 -0.4 2.8 -2.7 1.8z"/>
  <path d="M45 9 l0 -7 3.5 0 c2.2 0 3.8 0.6 4.1 1.5 0.4 0.8 1.2 1.5 2 1.5 1.6 0 1.9 3.1 0.4 4.6 -0.6 0.6 -0.8 1.9 -0.4 2.9 0.6 1.4 1.1 0.9 2.8 -2.6 1.4 -3 2.8 -4.5 4.4 -4.7 1.4 -0.2 2.2 -1 2.2 -2.2 0 -3.7 2.8 -0.9 4.9 4.9 1.2 3.2 2.1 6.3 2.1 7 0 1.9 -3.2 1.2 -3.7 -0.9 -0.8 -2.9 -8.3 -2.5 -8.3 0.4 0 0.6 -1.6 1.2 -3.5 1.3 -2.7 0.2 -3.7 -0.2 -4.6 -1.9 l-1.2 -2.2 -0.8 2.2 c-0.5 1.2 -1.5 2.2 -2.4 2.2 -1.2 0 -1.5 -1.4 -1.5 -7z"/>
  <path d="M10 14.1 c0 -0.6 -1.8 -1.1 -4 -1.1 -2.9 0 -4 -0.4 -4 -1.5 0 -1.2 0.7 -1.4 2.8 -1 l2.7 0.6 -2.7 -1.8 c-3.8 -2.4 -3.5 -3.5 1 -3.1 3 0.2 3.8 0.7 4 2.6 0.2 1.2 0.8 2.2 1.3 2.2 1.2 0 1.2 2.7 -0.1 3.5 -0.5 0.3 -1 0.1 -1 -0.4z"/>
  <path d="M25 14 c0 -0.5 -0.7 -1 -1.5 -1 -0.8 0 -1.5 -0.7 -1.5 -1.5 0 -0.8 -0.9 -1.5 -2 -1.5 -1.3 0 -2 -0.7 -2 -2 0 -1.6 0.7 -2 3.1 -2 1.7 0 3.7 0.6 4.5 1.4 1.6 1.6 1.9 7.6 0.4 7.6 -0.5 0 -1 -0.4 -1 -1z"/>
  <path d="M28 13.4 c0 -2.1 1.8 -5.4 3 -5.4 0.6 0 1 1.6 1 3.5 0 2.8 -0.4 3.5 -2 3.5 -1.1 0 -2 -0.7 -2 -1.6z"/>
 </g>
 <g fill="#ffffff">
  <path d="M2.1 14.1 c-1.3 -1 -2.1 -2.3 -1.7 -3 1 -1.6 3.6 -1.4 4.2 0.4 0.4 0.8 1.2 1.5 2 1.5 0.8 0 1.4 0.7 1.4 1.5 0 2 -3 1.9 -5.9 -0.4z"/>
  <path d="M58 14.5 c0 -0.8 -0.4 -1.5 -1 -1.5 -0.5 0 -0.7 -0.6 -0.4 -1.3 0.5 -1.4 8.4 -1.1 8.4 0.4 0 0.5 -0.6 0.9 -1.4 0.9 -0.8 0 -1.6 0.7 -2 1.5 -0.3 0.8 -1.2 1.5 -2.1 1.5 -0.8 0 -1.5 -0.7 -1.5 -1.5z"/>
  <path d="M42.3 14.3 c-2.4 -0.2 -4.3 -0.8 -4.3 -1.4 0 -0.5 -1.3 -0.9 -3 -0.9 -2.8 0 -3 -0.3 -3 -3.5 0 -2.4 0.5 -3.5 1.5 -3.5 1 0 1.5 -1 1.5 -2.7 0 -2.7 0 -2.7 1.9 -0.8 1.1 1.1 2.9 4.3 4 7 1.9 4.8 2 4.9 2 1.8 0.1 -2.9 0.4 -3.3 2.9 -3.3 1.5 0 4.5 -0.3 6.6 -0.7 3.6 -0.6 3.9 -0.4 3.2 1.3 -0.5 1 -0.9 2.6 -1 3.4 0 0.8 -0.7 2.1 -1.4 2.8 -1 1.1 -1.6 1 -3.2 -1 l-1.9 -2.3 -0.1 2.3 c0 1.2 -0.3 2.1 -0.7 2 -0.5 -0.1 -2.7 -0.3 -5 -0.5z"/>
  <path d="M66 12 c0 -1.1 -0.4 -2 -1 -2 -0.5 0 -1 -1 -1.1 -2.2 0 -1.3 -0.3 -1.7 -0.6 -1 -0.2 0.6 -1.5 1.2 -2.8 1.2 -2.2 0 -2.3 -0.2 -1.3 -3 1.3 -3.8 4.3 -5.6 6.1 -3.8 0.7 0.7 2.3 3.9 3.5 7.1 l2.1 5.7 -2.4 0 c-1.8 0 -2.5 -0.5 -2.5 -2z"/>
  <path d="M2 7 c-2.4 -2.4 -2.5 -3.4 -0.5 -5.3 1 -1.1 2.4 -1.3 4.9 -0.7 5 1.1 5.9 1.9 4.5 3.6 -0.8 1 -1.5 1.2 -2.3 0.4 -0.5 -0.5 -1.5 -1 -2.1 -1 -0.5 0 0.4 1.1 2 2.5 l3 2.4 -3.7 0.1 c-2.5 0 -4.5 -0.7 -5.8 -2z"/>
 </g>
 <g fill="#ffffff">
  <path d="M22.7 15.3 c-1.4 -1.3 -0.6 -2.3 1.8 -2.3 1.6 0 2.5 0.6 2.5 1.5 0 1.5 -3.1 2.1 -4.3 0.8z"/>
  <path d="M39.4 15.2 c-0.6 -0.4 -1.6 -1.7 -2.3 -2.9 -0.9 -1.7 -2.1 -2.3 -4.6 -2.3 -3.4 0 -3.4 0 -2.3 -3.1 0.6 -1.7 1.7 -3.3 2.4 -3.6 0.8 -0.3 1.4 -1.1 1.4 -1.9 0 -4.1 4.8 1.3 7.1 8.1 l1.4 4 0.6 -4.5 c0.3 -2.5 0.7 -3.5 0.7 -2.3 0.1 1.3 1.1 2.8 2.2 3.5 1.1 0.7 2 2.3 2 3.5 0 2.5 -1.9 3 -3.8 1.1 -0.9 -0.9 -1.2 -0.9 -1.2 0 0 1.3 -1.9 1.6 -3.6 0.4z"/>
  <path d="M51 13.9 c-0.7 -1.1 -0.9 -2.3 -0.6 -2.7 0.3 -0.3 0.6 0 0.6 0.6 0 0.7 0.9 1.2 2 1.2 1.1 0 2 0.7 2 1.5 0 2.2 -2.8 1.8 -4 -0.6z"/>
  <path d="M66.6 14.4 c-0.9 -0.8 -1.6 -2.6 -1.6 -4 0 -1.3 -0.4 -2.4 -1 -2.4 -0.5 0 -1 -1.6 -1 -3.5 0 -1.9 0.4 -3.5 0.9 -3.5 1.1 0 3.2 2.5 3.5 4.2 0.1 0.7 1 3 1.9 5.2 0.9 2.1 1.7 4.2 1.7 4.7 0 1.5 -2.7 1 -4.4 -0.7z"/>
  <path d="M1 13 c-1.1 -0.7 -1.2 -1.2 -0.4 -2 1.5 -1.5 6.4 -0.2 6.4 1.6 0 1.6 -3.7 1.9 -6 0.4z"/>
  <path d="M2.8 7.6 c-1.8 -1.3 -2.5 -6.5 -1 -6.7 3.8 -0.7 7 -0.3 8.4 0.9 2.5 2.1 1.2 3.4 -2.5 2.7 l-3.2 -0.6 3 1.7 c2.7 1.6 2.8 1.8 1 2.5 -2.8 1.1 -3.8 1 -5.7 -0.5z"/>
  <path d="M45 4.5 c0 -2.8 0.4 -3.5 1.9 -3.5 1.1 0 2.6 -0.3 3.4 -0.6 1.8 -0.7 5.7 3.3 5.7 5.8 0 1.5 -0.9 1.8 -5.5 1.8 l-5.5 0 0 -3.5z m5.7 -0.1 c-0.9 -0.9 -2.8 0.6 -2.1 1.8 0.4 0.6 1 0.6 1.7 -0.1 0.6 -0.6 0.8 -1.3 0.4 -1.7z"/>
  <path d="M13.1 3.7 c-0.1 -3.4 0.1 -3.8 2.2 -3.5 3 0.4 3.8 4.8 0.9 4.8 -1.1 0 -2.3 0.6 -2.5 1.3 -0.3 0.6 -0.6 -0.5 -0.6 -2.6z"/>
 </g>
 <g fill="#ffffff">
  <path d="M5.7 15.3 c-1.3 -1.3 -0.7 -4.1 1.1 -4.8 1.4 -0.7 1.3 -0.9 -0.8 -1.4 -4.5 -1.2 -3.4 -9.1 1.3 -9.1 1.7 0 5 3.4 4.1 4.3 -0.4 0.3 -2 0.3 -3.8 0 l-3.1 -0.6 3.5 2.5 c4 2.7 5.1 6.5 2.4 8.5 -2 1.4 -3.7 1.7 -4.7 0.6z"/>
  <path d="M14.2 14.8 c-1.4 -1.4 -1.6 -8.8 -0.3 -8.8 0.5 0 1.2 1.2 1.4 2.8 l0.4 2.7 0.2 -2.7 c0.1 -2.5 0.5 -2.8 3.6 -2.8 3.2 0 3.5 -0.2 3.5 -3 0 -3.2 2.3 -4.2 3.4 -1.4 0.9 2.5 0.7 13.2 -0.3 13.8 -1.9 1.2 -4.1 -0.7 -4.1 -3.4 0 -2.3 -0.4 -2.7 -2 -2.3 -1.4 0.4 -2 1.4 -2 3.4 0 3 -1.7 3.8 -3.8 1.7z"/>
  <path d="M29.2 15.1 c-0.9 -0.5 -1.1 -1.7 -0.6 -3.5 0.5 -2.1 0.9 -2.4 1.5 -1.4 0.6 0.9 0.9 0.3 0.9 -1.9 0 -4.2 1.6 -8.3 3.3 -8.3 1.2 0 4.3 4.2 4.7 6.5 0.1 0.6 0.7 1.9 1.3 3 0.6 1.1 1.1 2.3 1.2 2.7 0 0.3 0.3 1 0.8 1.4 1.2 1.2 0.8 2.4 -0.8 2.4 -0.8 0 -2.5 -1 -3.7 -2.2 l-2.1 -2.1 -1.8 2.1 c-1.9 2.4 -2.7 2.6 -4.7 1.3z"/>
  <path d="M44.1 14.6 c-0.7 -0.9 -1.1 -3.9 -0.9 -7.8 0.2 -5 0.6 -6.3 2.1 -6.6 1.1 -0.2 1.7 0.3 1.7 1.4 0 1.3 0.6 1.6 3.5 1.1 2.8 -0.5 3.7 -0.2 4.6 1.5 0.8 1.5 0.8 2.6 -0.1 4.2 -0.8 1.6 -0.8 3 -0.1 4.9 0.8 2.1 0.8 2.7 -0.4 2.7 -1.8 0 -4.5 -2.7 -4.5 -4.6 0 -0.8 -0.7 -1.4 -1.6 -1.4 -1.1 0 -1.4 0.7 -1 3 0.5 3.3 -1.2 4.1 -3.3 1.6z m6.9 -9.7 c0 -0.5 -0.7 -0.9 -1.5 -0.9 -1.5 0 -2 1.2 -0.9 2.3 0.8 0.8 2.4 -0.1 2.4 -1.4z"/>
  <path d="M57.3 15.3 c-0.7 -0.2 -1.3 -1.1 -1.3 -1.8 0 -0.8 0.6 -2 1.3 -2.7 0.6 -0.7 1.2 -1.7 1.2 -2.3 0.1 -2.9 3.1 -8.5 4.6 -8.5 1.6 0 3.4 2.6 3.1 4.3 -0.1 0.4 0.3 0.7 0.9 0.7 0.5 0 0.8 0.4 0.5 0.8 -0.2 0.4 0.4 2.7 1.5 5.1 1.1 2.4 1.7 4.6 1.5 4.8 -0.7 0.8 -4.6 -0.8 -4.6 -1.8 0 -1.5 -4 -1 -4.6 0.6 -0.6 1.5 -1.9 1.8 -4.1 0.8z"/>
 </g>
 <g fill="#ffffff">
  <path d="M3.3 14.4 c-3.5 -1.7 -4.1 -2.8 -2.1 -4 0.6 -0.4 1.8 0.2 2.6 1.2 1 1.3 1.6 1.5 1.9 0.7 0.6 -1.5 4.9 -1.7 5.8 -0.3 0.3 0.6 0.1 1 -0.5 1 -0.6 0 -0.8 0.5 -0.4 1.2 0.5 0.8 0.2 0.9 -0.9 0.5 -1 -0.3 -1.7 -0.2 -1.7 0.3 0 1.4 -1 1.2 -4.7 -0.6z"/>
  <path d="M13.8 14.3 c-0.3 -0.4 -0.4 -3.7 -0.4 -7.3 0.1 -5.3 0.4 -6.5 1.8 -6.8 1.1 -0.2 1.9 0.5 2.3 2.1 0.4 1.4 1.5 2.7 2.6 3 2.5 0.7 2.5 3.3 0 4 -1.1 0.2 -2.1 1.5 -2.3 2.8 -0.3 2.3 -3.2 3.8 -4 2.2z"/>
  <path d="M23 13 c0 -1.1 0.6 -2 1.4 -2 0.7 0 1.6 0.9 1.9 2 0.4 1.5 0 2 -1.4 2 -1.2 0 -1.9 -0.7 -1.9 -2z"/>
  <path d="M28.4 12.8 c0.3 -1.3 0.6 -2.6 0.6 -3 0 -0.5 2.4 -0.8 5.3 -0.8 4.8 0 5.5 0.3 6.5 2.5 0.7 1.4 1.2 2.8 1.2 3 0 1 -3.6 0.5 -4.7 -0.6 -0.7 -0.7 -1.9 -0.8 -3 -0.4 -1 0.5 -2.9 1 -4.2 1.2 -2 0.4 -2.3 0.1 -1.7 -1.9z"/>
  <path d="M44 8.1 l0 -7.1 3.5 0 c2.4 0 3.5 0.5 3.5 1.5 0 0.8 -0.7 1.5 -1.5 1.5 -0.8 0 -1.5 0.7 -1.5 1.5 0 0.8 0.4 1.5 0.9 1.5 0.5 0 1.4 -0.7 2.1 -1.5 0.7 -0.8 1.8 -1.5 2.5 -1.5 2 0 2.8 3.3 1.1 4.5 -1 0.8 -1.2 1.6 -0.5 2.6 2.6 4.1 0 5.2 -3.6 1.3 l-2.3 -2.5 -0.4 2.3 c-0.2 1.2 -1.1 2.4 -2 2.6 -1.6 0.3 -1.8 -0.5 -1.8 -6.7z"/>
  <path d="M56 14.1 c0 -0.5 0.9 -3 2 -5.5 1.7 -4 2.3 -4.6 4.9 -4.6 3.6 0 3.9 0.5 4.8 6.5 0.6 4.6 0.6 4.7 -1.6 3.4 -1.7 -1.1 -2.5 -1.1 -4.1 -0.1 -2.3 1.4 -6 1.6 -6 0.3z"/>
  <path d="M5.3 7.3 c-1.9 -0.4 -2.3 -1.1 -2.3 -3.9 0 -2.9 0.4 -3.4 2.3 -3.4 2.6 0 7 2.7 6.3 3.9 -0.3 0.4 -1.9 0.6 -3.7 0.3 -2.2 -0.3 -3 -0.1 -2.5 0.7 0.4 0.6 1.3 1.1 2.1 1.1 0.8 0 1.7 0.5 2 1 0.6 1 -0.2 1.1 -4.2 0.3z"/>
 </g>
 <g fill="#5a5a5a">
  <path d="M5.5 15.2 c-2.5 -0.5 -5.6 -3.2 -4.9 -4.3 0.2 -0.5 1.8 -0.6 3.4 -0.2 1.9 0.3 3 0.1 3 -0.6 0 -0.6 -0.6 -1.1 -1.3 -1.1 -2.4 0 -4.4 -3.3 -3.7 -6 0.5 -2 1.2 -2.5 3.5 -2.5 2.1 0 3.1 0.5 3.3 1.9 0.3 1.4 0 1.7 -1.2 1.3 -0.8 -0.3 -1.8 -0.2 -2.2 0.4 -0.3 0.6 0.3 1.3 1.5 1.6 1.1 0.3 1.8 0.9 1.5 1.4 -0.3 0.5 0.1 1.2 0.9 1.5 1.6 0.6 3 4.4 1.7 4.4 -0.5 0 -1.5 0.6 -2.2 1.3 -0.7 0.7 -2.2 1.1 -3.3 0.9z"/>
  <path d="M13.7 14.3 c-1.1 -1 -0.8 -5.3 0.3 -5.3 0.6 0 1 1.4 1 3 0 3.1 -0.2 3.5 -1.3 2.3z"/>
  <path d="M22 13 c0 -1.3 0.7 -2 2 -2 1.3 0 2 0.7 2 2 0 1.3 -0.7 2 -2 2 -1.3 0 -2 -0.7 -2 -2z"/>
  <path d="M28 13.7 c0 -0.7 0.4 -1.7 0.8 -2.2 0.5 -0.6 1.4 -2.9 2.1 -5.2 1 -3.6 1.6 -4.3 3.7 -4.3 3 0 3.8 1.9 3 6.5 -0.6 2.9 -1.1 3.5 -3.3 3.5 -1.6 0 -2.3 0.4 -2 1.3 0.3 0.8 -0.4 1.4 -1.9 1.5 -1.4 0.1 -2.4 -0.4 -2.4 -1.1z"/>
  <path d="M51.7 14.3 c-0.4 -0.3 -0.7 -1.5 -0.7 -2.5 0 -1.4 -0.8 -1.8 -3.5 -1.8 -3.2 0 -3.5 -0.3 -3.5 -2.7 0 -5.7 1 -7.3 4.5 -7.3 4.8 0 8.7 5.3 5.6 7.7 -1.3 1 -1.4 1.5 -0.3 3.2 0.6 1.2 1.2 2.5 1.2 3.1 0 1.1 -2.3 1.4 -3.3 0.3z m-0.9 -9.1 c0.2 -0.7 -0.6 -1.2 -1.7 -1.2 -2.1 0 -2.7 1.1 -1.4 2.4 0.9 0.9 2.6 0.2 3.1 -1.2z"/>
  <path d="M56.5 12.8 c1 -3.3 2.4 -5.6 2.5 -4 0 0.6 1.1 1.2 2.5 1.2 1.8 0 2.5 -0.5 2.5 -2 0 -1.1 -0.4 -2 -1 -2 -0.5 0 -1 -1.3 -1 -3 0 -3.2 1.1 -3.8 2.7 -1.7 0.9 1.1 5.3 12.1 5.3 13.2 0 1.1 -2.9 0.4 -4 -1 -1.4 -1.7 -6 -2 -6 -0.4 0 0.5 0.6 0.7 1.3 0.3 0.6 -0.4 0.8 -0.3 0.4 0.1 -0.4 0.5 -1.9 1.1 -3.3 1.2 -2.3 0.3 -2.5 0.1 -1.9 -1.9z"/>
  <path d="M22 2 c0 -1.3 0.7 -2 2 -2 1.3 0 2 0.7 2 2 0 1.3 -0.7 2 -2 2 -1.3 0 -2 -0.7 -2 -2z"/>
 </g>
 <g fill="#636363">
  <path d="M4 12.9 c0 -1.1 0.4 -1.8 0.9 -1.4 0.6 0.3 1.3 -0.1 1.8 -0.8 0.4 -0.7 1.6 -1.6 2.6 -2 2.5 -0.9 2.3 3.9 -0.2 5.3 -3.1 1.6 -5.1 1.2 -5.1 -1.1z"/>
  <path d="M13.4 13.6 c-0.3 -0.7 -0.4 -4 -0.2 -7.2 0.2 -4.7 0.7 -5.9 2.1 -6.2 1.5 -0.3 1.7 0.6 1.7 7.2 0 6.2 -0.3 7.6 -1.5 7.6 -0.9 0 -1.8 -0.6 -2.1 -1.4z"/>
  <path d="M22 13.1 c0 -1.5 0.6 -2.1 2.1 -2.1 1.4 0 1.9 0.5 1.7 1.7 -0.5 2.6 -3.8 2.9 -3.8 0.4z"/>
  <path d="M38 14 c0 -1.8 -4 -3.2 -5.5 -2 -0.8 0.6 -2.1 1 -3 0.8 -1.3 -0.3 -1.2 -0.9 0.6 -4.5 1.7 -3.5 2.6 -4.3 4.9 -4.3 2.3 0 3 0.7 4.8 4.9 1.1 2.7 1.8 5.2 1.4 5.5 -0.9 1 -3.2 0.7 -3.2 -0.4z m-2.7 -7 c-0.3 -1.1 -0.7 -2 -0.8 -2 -0.1 0 -0.5 0.9 -0.8 2 -0.3 1.2 0 2 0.8 2 0.8 0 1.1 -0.8 0.8 -2z"/>
  <path d="M2 6.5 c-2.1 -2.5 -0.8 -5 2.8 -5.3 2.3 -0.2 3.2 0.1 3.2 1.2 0 1 -0.6 1.3 -1.5 1 -0.8 -0.4 -1.5 -0.1 -1.5 0.5 0 0.7 0.7 1.4 1.5 1.7 0.8 0.4 1.5 1 1.5 1.5 0 1.5 -4.7 1 -6 -0.6z"/>
 </g>
 <g fill="#ffffff">
  <path d="M14 13 c0 -1.1 0.7 -2 1.5 -2 0.8 0 1.5 0.9 1.5 2 0 1.1 -0.7 2 -1.5 2 -0.8 0 -1.5 -0.9 -1.5 -2z"/>
  <path d="M22.7 14.4 c-1.4 -1.5 -0.6 -3.4 1.4 -3.4 1.4 0 1.9 0.5 1.7 1.7 -0.3 1.8 -2 2.7 -3.1 1.7z"/>
  <path d="M28.2 13.3 c0.2 -1 1.4 -1.9 2.6 -2.1 2.1 -0.3 2.2 -0.1 1.2 1.7 -1.3 2.6 -4.3 2.8 -3.8 0.4z"/>
  <path d="M37.5 13 c-1.8 -2 -1.7 -2 0.8 -2 2 0 2.7 0.5 2.7 2 0 1.1 -0.4 2 -0.8 2 -0.5 0 -1.7 -0.9 -2.7 -2z"/>
  <path d="M44 13 c0 -1.1 0.7 -2 1.5 -2 0.8 0 1.5 0.9 1.5 2 0 1.1 -0.7 2 -1.5 2 -0.8 0 -1.5 -0.9 -1.5 -2z"/>
  <path d="M51.2 13.8 c-1.7 -1.7 -1.5 -2.8 0.7 -2.8 1.6 0 3.1 1.8 3.1 3.6 0 0.9 -2.7 0.3 -3.8 -0.8z"/>
  <path d="M56.4 13.4 c0.3 -0.9 0.6 -1.8 0.6 -2 0 -0.2 0.9 -0.4 2 -0.4 1.8 0 1.9 0.3 1 2 -1.3 2.4 -4.5 2.8 -3.6 0.4z"/>
  <path d="M66 13.5 c-0.7 -0.8 -1.7 -1.5 -2.2 -1.5 -1.9 0 -3.8 -2.9 -3.8 -5.8 0 -6.9 3.1 -8.4 5.5 -2.7 0.8 1.9 2.1 5 2.9 6.9 1.9 4.4 0.3 6.4 -2.4 3.1z"/>
  <path d="M34.6 5.4 c-1 -2.6 -0.7 -5.6 0.6 -5.2 0.7 0.3 1.8 1.9 2.5 3.6 1.2 2.9 1.1 3.2 -0.6 3.2 -1 0 -2.2 -0.7 -2.5 -1.6z"/>
  <path d="M44 3.5 c0 -3.3 0.2 -3.5 3.5 -3.5 2.8 0 3.5 0.4 3.5 2 0 1.3 -0.5 1.8 -1.6 1.3 -1 -0.4 -1.7 0.1 -2.1 1.6 -0.9 3.5 -3.3 2.5 -3.3 -1.4z"/>
  <path d="M7 2 c0 -1.8 0.3 -1.9 2 -1 2.2 1.2 1.8 3 -0.6 3 -0.8 0 -1.4 -0.9 -1.4 -2z"/>
 </g>
 <g fill="#737373">
  <path d="M14.7 14.3 c-1.3 -1.2 -0.7 -3.3 0.8 -3.3 0.8 0 1.5 0.9 1.5 2 0 2 -1.1 2.6 -2.3 1.3z"/>
  <path d="M23.3 14.3 c-2.1 -0.7 -1.5 -3.3 0.7 -3.3 1.1 0 2 0.6 2 1.4 0 1.8 -1.1 2.5 -2.7 1.9z"/>
  <path d="M29 14 c-2 -1.2 0 -3.3 2.7 -2.8 1.8 0.3 1.9 0.4 0.4 2 -1.1 1.1 -2.1 1.4 -3.1 0.8z"/>
  <path d="M38.8 13.9 c-2.4 -1.3 -2.3 -2.9 0.2 -2.9 1.3 0 2 0.7 2 2 0 2.3 0.1 2.3 -2.2 0.9z"/>
  <path d="M44.7 14.3 c-1.3 -1.2 -0.7 -3.3 0.8 -3.3 0.8 0 1.5 0.9 1.5 2 0 2 -1.1 2.6 -2.3 1.3z"/>
  <path d="M51.7 13.9 c-0.9 -0.6 -1.7 -1.4 -1.7 -1.9 0 -1.6 3.7 -1.1 4.3 0.5 0.8 1.9 -0.4 2.6 -2.6 1.4z"/>
  <path d="M57.3 14.2 c-0.8 -0.5 -0.8 -1.6 0.2 -4 1.6 -3.7 3.1 -4.1 3.7 -0.9 0.5 2.5 -2.2 5.9 -3.9 4.9z"/>
  <path d="M66.6 13.4 c-2.1 -2 -2 -2.4 0.3 -2.4 2 0 3.6 2.6 2.1 3.5 -0.4 0.3 -1.6 -0.2 -2.4 -1.1z"/>
  <path d="M1.1 12.6 c-0.7 -0.9 -0.8 -1.7 -0.2 -2 1.4 -0.9 4.1 0.4 4.1 2 0 1.8 -2.4 1.8 -3.9 0z"/>
  <path d="M5.4 8.7 c-1.8 -0.9 -1.9 -1.4 -0.9 -2.4 1.4 -1.3 5.5 0.3 6.3 2.5 0.5 1.5 -2.6 1.5 -5.4 -0.1z"/>
  <path d="M64 7.5 c0 -0.9 -0.9 -1.5 -2.4 -1.5 -1.9 0 -2.3 -0.4 -1.9 -2 0.3 -1 1.2 -2.5 1.9 -3.1 1.7 -1.4 3.6 0.6 5.3 5.4 0.9 2.3 0.7 2.7 -1 2.7 -1 0 -1.9 -0.7 -1.9 -1.5z"/>
  <path d="M31.2 5 c1.8 -5.3 4.5 -5.4 3.3 -0.1 -0.4 2.1 -1.3 3.1 -2.5 3.1 -1.7 0 -1.8 -0.4 -0.8 -3z"/>
  <path d="M1 3.1 c0 -1.3 2.4 -3.1 4.2 -3.1 1 0 1.8 0.6 1.8 1.4 0 0.8 0.8 1.6 1.8 1.8 0.9 0.2 -0.4 0.5 -3 0.5 -2.7 0.1 -4.8 -0.2 -4.8 -0.6z"/>
  <path d="M22 1.9 c0 -2.5 3.3 -2.2 3.8 0.4 0.2 1.2 -0.3 1.7 -1.7 1.7 -1.5 0 -2.1 -0.6 -2.1 -2.1z"/>
 </g>
 <g fill="#7b7b7b">
  <path d="M2.1 13.4 c-1.7 -1.3 -2 -1.9 -1 -2.5 0.7 -0.4 2.1 -0.3 3 0.2 2.2 1.1 3.8 -0.9 1.8 -2.2 -1 -0.6 -0.6 -0.9 1.4 -0.9 2.2 0 2.7 0.4 2.7 2.5 0 1.4 -0.8 2.9 -1.9 3.5 -2.6 1.3 -3.3 1.3 -6 -0.6z"/>
  <path d="M28.4 12.4 c0.3 -0.9 0.6 -1.8 0.6 -2 0 -0.2 1.4 -0.4 3 -0.4 1.7 0 3 0.5 3 1 0 0.6 -0.7 1 -1.5 1 -0.8 0 -1.5 0.5 -1.5 1 0 0.6 -0.9 1 -2.1 1 -1.5 0 -1.9 -0.4 -1.5 -1.6z"/>
  <path d="M37.7 13.3 c-1.1 -1 -0.8 -5.3 0.3 -5.3 1 0 3 3.2 3 4.9 0 1.2 -2.3 1.5 -3.3 0.4z"/>
  <path d="M66 12 c0 -1.1 0.4 -2 1 -2 0.5 0 1.4 0.9 2 2 0.9 1.7 0.8 2 -1 2 -1.3 0 -2 -0.7 -2 -2z"/>
  <path d="M58 10.3 c0.1 -2.7 3.7 -10.3 5 -10.3 1.8 0 3.3 4.7 2.6 8.4 -0.6 3.3 -1 3.6 -4.1 3.6 -2.7 0 -3.5 -0.4 -3.5 -1.7z m6 -2.8 c0 -0.8 -0.4 -1.5 -1 -1.5 -0.5 0 -1 0.7 -1 1.5 0 0.8 0.5 1.5 1 1.5 0.6 0 1 -0.7 1 -1.5z"/>
  <path d="M47 8.6 c0 -0.7 0.9 -1.6 2.1 -1.9 3.3 -0.9 1.7 -3.2 -2 -2.9 -2.5 0.2 -3.1 -0.2 -3.1 -1.8 0 -1.6 0.7 -2 3.3 -2 6.2 0 9.4 4.2 6.3 8.3 -1.6 2 -6.6 2.3 -6.6 0.3z"/>
  <path d="M32.6 4.1 c-1 -1.5 0.5 -4.2 2.2 -3.9 0.8 0.2 1.8 1.3 2.3 2.6 0.7 1.9 0.5 2.2 -1.6 2.2 -1.3 0 -2.6 -0.4 -2.9 -0.9z"/>
  <path d="M14 2 c0 -1.1 0.7 -2 1.5 -2 0.8 0 1.5 0.9 1.5 2 0 1.1 -0.7 2 -1.5 2 -0.8 0 -1.5 -0.9 -1.5 -2z"/>
  <path d="M22.2 2.3 c0.2 -1 1 -1.8 1.8 -1.8 0.8 0 1.6 0.8 1.8 1.8 0.2 1.2 -0.3 1.7 -1.8 1.7 -1.5 0 -2 -0.5 -1.8 -1.7z"/>
 </g>
 <g fill="#848484">
  <path d="M2.5 13.7 c-2.4 -1.8 -1.1 -4.1 1.5 -2.7 1 0.5 2.1 1 2.4 1 1.2 0 0.6 -2.8 -0.6 -3.3 -0.8 -0.3 -0.6 -0.6 0.5 -0.6 2.3 -0.1 2.4 5.4 0.1 6.3 -2 0.8 -1.7 0.8 -3.9 -0.7z"/>
  <path d="M28 13 c0 -0.5 0.9 -1.9 2 -3 1.1 -1.1 2 -3.2 2 -4.6 0 -2.2 0.4 -2.5 2.7 -2.2 2.3 0.2 3.1 1.2 4.6 5.2 1 2.7 1.6 5.1 1.3 5.3 -0.7 0.7 -6.6 -2 -6.6 -2.9 0 -1.7 -1.8 -0.7 -2.3 1.2 -0.5 2 -3.7 2.9 -3.7 1z m8 -4.7 c0 -0.5 -0.4 -1.4 -0.9 -2.1 -0.6 -1 -1 -0.9 -1.4 0.7 -0.3 1.4 0 2.1 0.9 2.1 0.8 0 1.4 -0.3 1.4 -0.7z"/>
  <path d="M49.3 11.5 c-2 -2.4 -2.1 -2.5 -0.2 -2.5 1.4 0 1.9 -0.7 1.9 -3 0 -2 0.5 -3 1.5 -3 2.1 0 3 2.7 1.6 4.4 -0.7 0.8 -0.9 2.5 -0.5 4 0.8 3.4 -1.3 3.4 -4.3 0.1z"/>
  <path d="M15 8.5 c0 -3.5 0 -3.5 4.5 -3.5 4.5 0 4.5 0 4.5 3.5 0 1.9 -0.4 3.5 -1 3.5 -0.5 0 -1 -0.7 -1 -1.5 0 -0.9 -0.9 -1.5 -2.5 -1.5 -1.6 0 -2.5 0.6 -2.5 1.5 0 0.8 -0.4 1.5 -1 1.5 -0.5 0 -1 -1.6 -1 -3.5z"/>
  <path d="M64 8.4 c0 -4.4 1.8 -4.2 3.7 0.4 1.3 3.1 1.2 3.2 -1.2 3.2 -2.2 0 -2.5 -0.4 -2.5 -3.6z"/>
  <path d="M59.3 5.8 c1.2 -3.1 3.7 -5 3.7 -2.9 0 2.4 -2.1 6.1 -3.5 6.1 -1.3 0 -1.3 -0.4 -0.2 -3.2z"/>
  <path d="M1.7 6.3 c-1.4 -1.3 -0.7 -4.3 1.2 -5.3 3.1 -1.6 5.1 -1.2 5.1 1.1 0 1.1 -0.4 1.7 -1 1.4 -0.5 -0.3 -1.5 -0.3 -2.1 0.1 -0.8 0.4 -0.3 1.2 1.2 2 l2.4 1.3 -3.1 0.1 c-1.7 0 -3.4 -0.3 -3.7 -0.7z"/>
 </g>
 <g fill="#8c8c8c">
  <path d="M3.8 14.2 c-1 -0.2 -1.8 -1 -1.8 -1.8 0 -1 0.7 -1.3 2.5 -0.8 1.8 0.4 2.5 0.2 2.5 -0.8 0 -0.8 -1.1 -2 -2.5 -2.6 -4.7 -2.2 -2 -9.1 3 -7.8 1.4 0.4 2.5 1.3 2.5 2.2 0 1.2 -0.7 1.4 -3 0.9 -4.1 -0.9 -3.8 0.8 0.5 2.8 2.2 1 3.5 2.4 3.5 3.6 0 2.9 -3.7 5.1 -7.2 4.3z"/>
  <path d="M21.8 11.3 c-0.4 -3.5 -3.7 -4.5 -4.5 -1.4 -0.8 3.1 -3.3 2.6 -3.3 -0.6 0 -3.8 1 -7.3 2.1 -7.3 0.5 0 0.9 0.7 0.9 1.5 0 0.9 0.9 1.5 2.5 1.5 1.8 0 2.5 -0.5 2.5 -2 0 -1.3 0.7 -2 2 -2 1.8 0 2 0.7 2 6.5 0 5.8 -0.2 6.5 -1.9 6.5 -1.4 0 -2.1 -0.8 -2.3 -2.7z"/>
  <path d="M65.4 11.5 c-0.4 -1.4 -0.3 -2.9 0.1 -3.3 0.8 -0.8 3.5 2.6 3.5 4.5 0 2.4 -2.9 1.4 -3.6 -1.2z"/>
  <path d="M30.9 6.3 c2.1 -5.4 5.1 -7.1 5.1 -2.8 0 1.5 -0.4 2.4 -1 2 -0.9 -0.6 -1.4 1.4 -1.1 4.3 0.1 0.7 -0.9 1.2 -2.3 1.2 l-2.6 0 1.9 -4.7z"/>
  <path d="M63.2 5.8 c-1.6 -1.6 -1.5 -4.8 0.2 -4.8 0.8 0 1.9 1.4 2.5 3 1.1 3.2 -0.3 4.2 -2.7 1.8z"/>
 </g>
 <g fill="#949494">
  <path d="M30.5 10.9 c-1 -2.9 1.2 -6.9 3.7 -6.9 2.3 0 4.1 2 5.8 6.4 0.8 2.2 0.6 2.3 -4.1 2.2 -3.6 -0.1 -5.1 -0.5 -5.4 -1.7z m5.5 -3.3 c0 -2.4 -1.7 -2.8 -2.3 -0.6 -0.3 1.3 0 2 0.9 2 0.8 0 1.4 -0.6 1.4 -1.4z"/>
  <path d="M50.2 11.8 c-1.5 -1.5 -1.6 -4.8 -0.2 -4.8 1.9 0 1 -3.2 -1 -3.7 -3.2 -0.9 -2.3 -2.5 1.3 -2.1 3.2 0.3 3.2 0.3 3.2 6.1 0.1 5.7 -0.8 7 -3.3 4.5z"/>
  <path d="M59 9.3 c0 -2.4 0.5 -3.3 1.6 -3.3 1 0 1.4 0.6 1 1.5 -0.3 0.9 0 1.5 0.9 1.5 0.8 0 1.5 -0.7 1.5 -1.5 0 -0.8 0.7 -1.5 1.5 -1.5 1 0 1.5 1 1.5 3.3 0 3.1 -0.2 3.2 -4 3.2 -3.8 0 -4 -0.1 -4 -3.2z"/>
  <path d="M7.5 11 c0.3 -0.5 -0.8 -1.6 -2.5 -2.5 -4.9 -2.5 -3.8 -4.5 1.4 -2.5 1.9 0.7 2.6 1.7 2.6 3.5 0 1.4 -0.5 2.5 -1.1 2.5 -0.5 0 -0.8 -0.4 -0.4 -1z"/>
  <path d="M6.7 3.4 c-1.5 -1.5 -0.6 -3.2 1.3 -2.7 1.2 0.3 1.9 1 1.7 1.6 -0.4 1.4 -2.1 1.9 -3 1.1z"/>
 </g>
 <g fill="#9c9c9c">
  <path d="M29.3 10.8 c1.6 -3.9 3.7 -4.8 3.7 -1.6 0 2.6 -1.7 4.8 -3.7 4.8 -1.1 0 -1.1 -0.6 0 -3.2z"/>
  <path d="M46.1 10.8 c-0.1 -3.7 0 -3.8 3.4 -3.8 2.3 0 3.5 0.4 3.3 1.3 -0.1 0.6 0.3 2.2 1 3.5 1.1 1.9 1 2.2 -0.5 2.2 -1 0 -2.4 -0.9 -3.1 -2 -1.6 -2.6 -3 -2.5 -3.5 0.3 -0.3 1.3 -0.5 0.8 -0.6 -1.5z"/>
  <path d="M57.9 9.8 c2.2 -5.3 4 -6 3.9 -1.6 -0.1 3.5 -1.7 5.8 -4.2 5.8 -1.3 0 -1.3 -0.5 0.3 -4.2z"/>
  <path d="M7.1 11.3 c0.4 -2.5 -0.3 -4.3 -1.6 -4.3 -0.8 0 -1.5 -0.5 -1.5 -1 0 -0.6 1.3 -0.5 3.3 0.3 3.8 1.6 5.1 5.7 1.8 5.7 -1.2 0 -2 -0.3 -2 -0.7z"/>
  <path d="M14 5.6 c0 -4 2.4 -5.1 3.3 -1.6 0.3 1.1 1.2 2 2.1 2 0.9 0 1.6 0.5 1.6 1 0 0.6 -0.6 1 -1.2 1 -0.7 0 -2.3 0.3 -3.5 0.6 -2.1 0.6 -2.3 0.3 -2.3 -3z"/>
  <path d="M35.2 6 c-0.6 -1.1 -1.2 -2.7 -1.2 -3.6 0 -2.5 2.3 -1 3.7 2.4 1 2.6 1.1 3.2 0 3.2 -0.7 0 -1.8 -0.9 -2.5 -2z"/>
  <path d="M5.8 3.3 c-1.9 -0.5 -2.5 -3.3 -0.7 -3.3 1.9 0 5 2.1 4.4 3.1 -0.6 0.9 -0.9 1 -3.7 0.2z"/>
 </g>
 <g fill="#a5a5a5">
  <path d="M1.6 13.1 c-1.2 -1.8 0.4 -3.4 2 -2 0.7 0.6 2.1 0.8 3 0.5 1.3 -0.5 1.4 -0.9 0.4 -2.1 -0.7 -0.8 -1.8 -1.5 -2.5 -1.5 -1.5 0 -4 -2.8 -3.2 -3.6 0.3 -0.3 2.4 0.2 4.6 1.2 4 1.7 6.1 4.8 4.4 6.4 -1.4 1.5 -8 2.3 -8.7 1.1z"/>
  <path d="M50.5 12 c-0.7 -2.3 -3.5 -2.7 -3.5 -0.5 0 0.8 -0.7 1.5 -1.5 1.5 -1.1 0 -1.5 -1.1 -1.5 -3.5 0 -3.6 0 -3.6 3.5 -2.9 3.4 0.6 3.5 0.5 3.5 -2.5 0 -3.6 1.4 -4 3 -1 0.9 1.6 0.8 2.6 -0.4 4.3 -1.3 2.1 -1.3 2.6 0 4.5 1.4 1.9 1.4 2.1 -0.5 2.1 -1.1 0 -2.2 -0.9 -2.6 -2z"/>
  <path d="M57 13.3 c0 -0.4 0.7 -2.7 1.6 -5 1.3 -3.3 2.2 -4.3 3.9 -4.3 2.7 0 4.1 1.5 5 5.3 0.7 2.6 0.6 2.7 -3.4 2.7 -2.3 0 -4.1 0.5 -4.1 1 0 0.6 -0.7 1 -1.5 1 -0.8 0 -1.5 -0.3 -1.5 -0.7z m7 -5.2 c0 -2.7 -1.7 -3.5 -2.3 -1.1 -0.5 1.9 0 3 1.5 3 0.4 0 0.8 -0.9 0.8 -1.9z"/>
  <path d="M30 11.1 c0 -3.1 2.7 -9.1 4.1 -9.1 0.7 0 0.9 0.8 0.5 2.3 -1.2 3.7 -1.2 5 0.1 5.4 0.6 0.2 1.3 -0.6 1.6 -1.9 0.3 -1.7 0.5 -1.5 0.6 1 0.1 2.5 -0.3 3.2 -1.8 3.2 -1.1 0 -2.6 0.3 -3.5 0.6 -1.2 0.4 -1.6 0 -1.6 -1.5z"/>
 </g>
 <g fill="#adadad">
  <path d="M7.4 11.7 c0.5 -2 0.2 -2.7 -1.4 -3.2 -2.6 -0.8 -2.7 -3.5 -0.1 -2.8 3.2 0.8 5.7 4.2 4.5 6 -1.8 2.9 -3.8 2.9 -3 0z"/>
  <path d="M22 11 c0 -2 -0.5 -3 -1.5 -3 -0.8 0 -1.5 -0.4 -1.5 -1 0 -0.5 0.7 -1 1.5 -1 0.9 0 1.5 -0.9 1.5 -2.5 0 -1.6 0.6 -2.5 1.5 -2.5 1.2 0 1.5 1.4 1.5 6.5 0 5.1 -0.3 6.5 -1.5 6.5 -1 0 -1.5 -1 -1.5 -3z"/>
  <path d="M37 12.2 c-0.8 -0.9 -1.5 -2.8 -1.5 -4.2 0 -1.5 -0.5 -2.4 -1.2 -2.3 -0.8 0.2 -1.3 -0.7 -1.3 -2.3 0 -4.5 3 -2.3 5.6 4 1.3 3.3 2.4 6.1 2.4 6.3 0 0.9 -2.7 -0.1 -4 -1.5z"/>
  <path d="M57 12.7 c0 -0.7 0.7 -2.3 1.6 -3.5 0.8 -1.2 1.3 -2.2 1 -2.2 -0.3 0 0 -1.3 0.5 -3 1.6 -4.6 4.2 -3.8 6.2 1.8 2.4 6.7 2.3 7.1 -2.2 6.5 -2.3 -0.3 -4.1 -0.1 -4.5 0.6 -1 1.5 -2.6 1.4 -2.6 -0.2z m7.3 -3.3 c0.3 -0.4 0.1 -1.6 -0.4 -2.7 -0.9 -1.6 -1.3 -1.7 -2 -0.6 -1.3 2.1 -1.1 3.9 0.4 3.9 0.8 0 1.7 -0.3 2 -0.6z"/>
  <path d="M49.3 9.5 c-1.7 -1.9 -1.6 -2.5 0.2 -2.5 2.1 0 1.9 -3.8 -0.2 -4.3 -1.7 -0.4 -1.7 -0.4 0 -1.2 2.8 -1.2 4.7 0.2 4.7 3.5 0 1.6 -0.5 3 -1.1 3 -0.6 0 -0.9 0.7 -0.5 1.5 0.7 1.9 -1.5 1.9 -3.1 0z"/>
  <path d="M1 2.9 c0 -1.9 4.6 -3.2 7 -1.9 1.2 0.6 1.9 1.4 1.6 1.7 -0.9 1 -8.6 1.2 -8.6 0.2z"/>
 </g>
 <g fill="#b5b5b5">
  <path d="M2.1 13.1 c-0.7 -0.5 -1 -1.4 -0.6 -2 0.5 -0.9 1 -0.9 2.1 0 1.4 1.2 4.4 0.6 4.4 -0.9 0 -0.4 -1.6 -1.6 -3.5 -2.5 -4.1 -2 -4.7 -5.3 -1.3 -6.6 2.8 -1 5.8 -0.3 5.8 1.4 0 0.8 -0.9 1 -2.5 0.7 -3.4 -0.6 -3.2 1.4 0.4 3.3 3.4 1.7 4.2 3.3 2.9 5.8 -0.9 1.8 -5.3 2.3 -7.7 0.8z"/>
  <path d="M30.8 7.5 c1.4 -3.6 3.1 -6.5 3.8 -6.5 1.6 0 6.6 12.4 5.1 12.9 -0.6 0.2 -1.3 -0.1 -1.5 -0.7 -0.5 -1.5 -5.8 -1.6 -6.7 -0.2 -0.3 0.6 -1.2 1 -2 1 -1 0 -0.7 -1.6 1.3 -6.5z m5.2 0.6 c0 -2.6 -1.6 -3.5 -2.4 -1.5 -1 2.5 -0.7 3.4 0.9 3.4 0.8 0 1.5 -0.9 1.5 -1.9z"/>
  <path d="M50.6 12.4 c-0.8 -2.2 -0.8 -2.4 0.8 -2.4 1.2 0 2.6 2 2.6 3.6 0 1.2 -2.9 0.2 -3.4 -1.2z"/>
  <path d="M66 13 c0 -0.5 -0.7 -1 -1.5 -1 -2.2 0 -1.8 -1.8 0.6 -2.5 2.4 -0.8 2.4 -0.7 3.3 2.3 0.6 1.6 0.3 2.2 -0.8 2.2 -0.9 0 -1.6 -0.4 -1.6 -1z"/>
  <path d="M23 10.4 c0 -0.9 -0.9 -1.8 -2 -2.1 -2.4 -0.6 -2.7 -2.3 -0.4 -2.3 0.9 0 1.8 -0.9 2.1 -2 1 -3.7 2.3 -2 2.3 3 0 2.8 -0.4 5 -1 5 -0.5 0 -1 -0.7 -1 -1.6z"/>
  <path d="M59.8 5.5 c1.7 -4.8 3.5 -5.7 5.2 -2.6 1.3 2.5 1.3 5.1 0 5.1 -0.5 0 -1 -0.7 -1 -1.5 0 -2.4 -1.9 -1.7 -2.6 1 -0.3 1.4 -1.2 2.5 -2 2.5 -1 0 -1 -0.9 0.4 -4.5z"/>
  <path d="M49.7 7 c2.4 -1 2.2 -4 -0.3 -4 -0.8 0 -1.4 -0.5 -1.4 -1.1 0 -1.6 4.1 -0.6 5.3 1.2 1.6 2.5 0.1 4.9 -3 4.8 -2.7 0 -2.7 -0.1 -0.6 -0.9z"/>
 </g>
 <g fill="#bdbdbd">
  <path d="M2 12.5 c-1.1 -1.3 -0.8 -1.5 2 -1.3 4.3 0.4 5.1 -1.9 1.2 -3.3 -3.5 -1.2 -4.8 -3.5 -3.1 -5.6 1.4 -1.6 7.7 -1.4 6.9 0.2 -0.3 0.5 -1.5 0.8 -2.7 0.7 -3.4 -0.5 -2.8 2.1 0.9 3.8 3.8 1.8 4.4 3.2 2.3 5.4 -2.1 2 -5.9 2.1 -7.5 0.1z"/>
  <path d="M14 7.5 c0 -5.1 0.3 -6.5 1.5 -6.5 0.9 0 1.5 0.9 1.5 2.5 0 2.1 0.5 2.5 3 2.5 2.5 0 3 -0.4 3 -2.5 0 -1.4 0.5 -2.5 1 -2.5 0.6 0 1 2.8 1 6.5 0 3.7 -0.4 6.5 -1 6.5 -0.5 0 -1 -1.3 -1 -3 0 -2.7 -0.3 -3 -3 -3 -2.7 0 -3 0.3 -3 3 0 2 -0.5 3 -1.5 3 -1.2 0 -1.5 -1.4 -1.5 -6.5z"/>
  <path d="M29 13.3 c0 -2.2 4.7 -12.3 5.7 -12.3 1.5 0 6.3 12.4 4.9 12.9 -0.5 0.2 -1.2 -0.1 -1.4 -0.7 -0.5 -1.5 -7.2 -1.6 -7.2 -0.2 0 0.6 -0.4 1 -1 1 -0.5 0 -1 -0.3 -1 -0.7z m8 -3.7 c0 -0.3 -0.5 -1.7 -1.1 -3.3 -0.8 -2.2 -1.2 -2.4 -1.9 -1.3 -1.7 2.6 -1.1 5 1 5 1.1 0 2 -0.2 2 -0.4z"/>
  <path d="M44 7.4 l0 -6.5 4.1 0.3 c5 0.4 7.1 2.7 5.1 5.8 -0.9 1.5 -1 2.6 -0.1 4.1 1.7 3.2 0 3.7 -2.5 0.7 -2.7 -3.5 -3.6 -3.5 -3.6 -0.3 0 1.6 -0.6 2.5 -1.5 2.5 -1.2 0 -1.5 -1.4 -1.5 -6.6z m7.5 -2.4 c0 -0.8 -1 -1.6 -2.2 -1.8 -1.8 -0.3 -2.3 0.2 -2.3 1.8 0 1.6 0.5 2.1 2.3 1.8 1.2 -0.2 2.2 -1 2.2 -1.8z"/>
  <path d="M57.3 12.8 c0.2 -0.7 1.3 -3.7 2.3 -6.5 1 -2.9 2.5 -5.3 3.2 -5.3 1.3 0 3.6 4.6 5.3 10.3 0.7 2.6 -0.3 3.8 -1.6 1.7 -0.3 -0.5 -1.9 -1 -3.5 -1 -1.6 0 -3.2 0.5 -3.5 1 -0.9 1.4 -2.8 1.2 -2.2 -0.2z m7.7 -3.2 c0 -0.3 -0.5 -1.7 -1.1 -3.3 -1 -2.6 -1.2 -2.7 -1.9 -0.8 -1.4 3.3 -1.1 4.5 1 4.5 1.1 0 2 -0.2 2 -0.4z"/>
 </g>
 <g fill="#ffffff">
 </g>
 <g fill="#ffffff">
 </g>
 <g fill="#ffffff">
 </g>
 <g fill="#ffffff">
 </g>
 <g fill="#ffffff">
 </g>
 <g fill="#ffffff">
 </g>
 <g fill="#ffffff">
 </g>
 <g fill="#ffffff">
 </g>
</svg>