<svg width="66" height="66" viewBox="0 0 66 66" fill="none" xmlns="http://www.w3.org/2000/svg">
<g clip-path="url(#clip0)">
<path d="M4.93944 27.1805C4.936 27.202 4.92806 27.2226 4.91614 27.2409C4.90422 27.2592 4.88858 27.2749 4.87022 27.2868C4.84931 27.2956 4.82685 27.3001 4.80415 27.3001C4.78146 27.3001 4.75899 27.2956 4.73808 27.2868L1.51013 26.6614L2.03239 27.7308C2.04158 27.7515 2.04633 27.7739 2.04633 27.7965C2.04633 27.8191 2.04158 27.8415 2.03239 27.8622C2.01018 27.9036 1.97478 27.9366 1.93172 27.956L1.30248 28.2499C1.2577 28.2657 1.20884 28.2657 1.16405 28.2499C1.1322 28.223 1.11193 28.1849 1.10742 28.1436L0.213916 26.3612C0.208602 26.3322 0.208602 26.3026 0.213916 26.2736C0.211014 26.2445 0.211014 26.2152 0.213916 26.1861L0.383808 25.348C0.393426 25.3022 0.42048 25.2619 0.459316 25.2354C0.480023 25.2259 0.502567 25.221 0.525385 25.221C0.548202 25.221 0.570747 25.2259 0.591454 25.2354L4.99607 26.1235C5.0401 26.134 5.0784 26.1608 5.10304 26.1986C5.11262 26.2192 5.11758 26.2416 5.11758 26.2642C5.11758 26.2869 5.11262 26.3093 5.10304 26.3299L4.93944 27.1805Z" fill="#0EC99C"/>
<path d="M6.19161 23.1402C6.09341 23.4175 5.94403 23.6742 5.75115 23.897C5.59249 24.0799 5.39471 24.2252 5.17226 24.3223C4.9624 24.4151 4.73495 24.462 4.50528 24.4599C4.25988 24.4736 4.0138 24.4504 3.77537 24.3911L3.37266 24.2535L2.91962 24.0846L2.51691 23.897C2.28708 23.8031 2.07447 23.6721 1.88768 23.5092C1.71501 23.3579 1.57576 23.1726 1.47868 22.9651C1.38123 22.7444 1.33191 22.5057 1.33395 22.2647C1.36678 21.6818 1.58739 21.1248 1.96318 20.6761C2.11542 20.497 2.30415 20.3521 2.51691 20.2508C2.72692 20.157 2.95371 20.106 3.18389 20.1007C3.42729 20.0962 3.66974 20.1321 3.90121 20.207L4.31651 20.3509L4.77585 20.5198L5.16597 20.6761C5.39553 20.7705 5.60807 20.9015 5.7952 21.0639C5.96834 21.2163 6.10947 21.4012 6.21049 21.608C6.31269 21.8254 6.36635 22.0622 6.3678 22.3022C6.35796 22.5895 6.29836 22.873 6.19161 23.1402ZM5.24777 22.7963C5.2921 22.7067 5.3125 22.6073 5.30699 22.5076C5.30148 22.4079 5.27025 22.3113 5.21631 22.2271C5.08293 22.0512 4.89844 21.9202 4.68775 21.8519C4.5682 21.7956 4.43606 21.7393 4.29763 21.6893L3.88234 21.5329C3.74391 21.4829 3.61806 21.4391 3.49851 21.4078C3.29944 21.3258 3.07989 21.3061 2.86928 21.3516C2.77351 21.3835 2.68628 21.4366 2.61418 21.5069C2.54207 21.5772 2.48698 21.6628 2.45304 21.7574C2.41911 21.852 2.40723 21.9529 2.41829 22.0527C2.42935 22.1525 2.46307 22.2485 2.51691 22.3335C2.64676 22.5063 2.82359 22.6387 3.02658 22.715L3.41041 22.8588L3.82571 23.0152L4.22212 23.159C4.42278 23.235 4.6411 23.2523 4.85135 23.209C4.94506 23.1811 5.03033 23.1304 5.09951 23.0617C5.16869 22.9929 5.21963 22.9082 5.24777 22.815V22.7963Z" fill="#0EC99C"/>
<path d="M8.36876 18.6498C8.22425 18.9029 8.03447 19.1275 7.80874 19.3128C7.62244 19.4596 7.40851 19.5681 7.17951 19.6317C6.95332 19.6786 6.71984 19.6786 6.49365 19.6317C6.24664 19.5903 6.0084 19.5078 5.78891 19.3878C5.67565 19.3315 5.55609 19.2565 5.41766 19.1814L5.03383 18.95L4.66259 18.7186C4.45726 18.588 4.2763 18.4229 4.12774 18.2308C3.98246 18.0467 3.87938 17.8332 3.82571 17.6054C3.75723 17.372 3.74006 17.1267 3.77537 16.8862C3.83075 16.6046 3.93737 16.3354 4.08999 16.0919C4.23281 15.8395 4.4229 15.6166 4.65 15.4352C4.83375 15.283 5.04838 15.1721 5.27923 15.11C5.50542 15.0631 5.73891 15.0631 5.96509 15.11C6.2052 15.1482 6.43708 15.2264 6.65096 15.3414L7.03479 15.554C7.17951 15.6353 7.31794 15.7166 7.45008 15.8042L7.81503 16.0293C8.01902 16.1617 8.19972 16.3265 8.34988 16.5172C8.49526 16.7021 8.60027 16.9151 8.6582 17.1426C8.72262 17.377 8.73337 17.6227 8.68966 17.8618C8.63121 18.1415 8.52251 18.4085 8.36876 18.6498ZM7.50671 18.137C7.56674 18.0574 7.60472 17.9635 7.61687 17.8647C7.62901 17.766 7.6149 17.6658 7.57592 17.5741C7.47782 17.3783 7.32197 17.2168 7.12917 17.1113C7.01591 17.03 6.89636 16.955 6.77051 16.8799C6.64466 16.8049 6.51882 16.7236 6.39297 16.6548C6.26712 16.586 6.14128 16.5172 6.03431 16.4609C5.84636 16.3431 5.62712 16.2843 5.40508 16.292C5.30498 16.3042 5.20929 16.3401 5.12607 16.3967C5.04284 16.4533 4.97452 16.5289 4.92686 16.6172C4.87359 16.7 4.8407 16.7941 4.83086 16.8919C4.82102 16.9897 4.83451 17.0885 4.87023 17.1801C4.97114 17.3719 5.12361 17.5321 5.31069 17.6429C5.41766 17.7055 5.53722 17.7743 5.65677 17.8556L6.0406 18.0807L6.40556 18.2933C6.59537 18.4062 6.81372 18.4626 7.03479 18.456C7.13413 18.4467 7.2295 18.4126 7.31201 18.3568C7.39452 18.301 7.4615 18.2254 7.50671 18.137Z" fill="#0EC99C"/>
<path d="M8.80923 13.7591C8.63578 13.9682 8.39225 14.1081 8.12337 14.1531C7.99894 14.1679 7.87279 14.1572 7.75268 14.1217C7.63256 14.0862 7.52102 14.0266 7.42492 13.9467L7.17952 13.7403L6.92154 13.4839C6.82902 13.3992 6.75461 13.2968 6.70272 13.1829C6.65083 13.069 6.62253 12.9459 6.61951 12.821C6.62208 12.5457 6.73009 12.2818 6.92154 12.083C7.09292 11.8641 7.34356 11.7205 7.61998 11.6827C7.7447 11.6714 7.87044 11.6855 7.98947 11.7242C8.10849 11.7629 8.2183 11.8254 8.31214 11.9079L8.57012 12.1205C8.65038 12.1884 8.72605 12.2616 8.79664 12.3394C8.88926 12.4233 8.96294 12.5258 9.01283 12.64C9.06272 12.7543 9.08769 12.8778 9.08609 13.0023C9.08908 13.2796 8.99069 13.5485 8.80923 13.7591ZM8.36248 13.3588C8.40717 13.3126 8.43584 13.2535 8.44428 13.1899C8.45933 13.1368 8.45933 13.0805 8.44428 13.0273C8.42011 12.9772 8.38584 12.9325 8.3436 12.896C8.27438 12.821 8.20517 12.7522 8.14224 12.6959L7.87168 12.5082C7.80455 12.4547 7.72411 12.4201 7.63886 12.4082C7.59308 12.4031 7.54677 12.4102 7.50472 12.4289C7.46267 12.4476 7.42643 12.4772 7.39975 12.5145C7.3652 12.5454 7.33944 12.5848 7.32508 12.6287C7.31072 12.6726 7.30826 12.7195 7.31795 12.7647C7.3386 12.8465 7.37973 12.9218 7.43751 12.9836L7.64515 13.1774C7.71437 13.24 7.78358 13.3025 7.86538 13.3651L8.0164 13.4464C8.06768 13.4619 8.12243 13.4619 8.17371 13.4464C8.23972 13.4254 8.29712 13.3837 8.33731 13.3275L8.36248 13.3588ZM10.2502 15.7604C10.181 15.8355 10.1117 15.848 10.0425 15.7604C10.0313 15.7526 10.022 15.7424 10.0155 15.7304C10.0089 15.7185 10.0053 15.7052 10.0048 15.6916L8.92878 10.1755C8.92279 10.1298 8.92279 10.0835 8.92878 10.0379C8.94158 9.98945 8.96525 9.94455 8.998 9.90652L9.33149 9.54378C9.40071 9.46248 9.46992 9.45623 9.53914 9.54378C9.55763 9.56299 9.57066 9.58673 9.57689 9.61258L10.6466 15.1287C10.6559 15.1741 10.6559 15.2209 10.6466 15.2663C10.6391 15.3166 10.6147 15.3629 10.5774 15.3977L10.2502 15.7604ZM12.5846 13.1712C12.4123 13.3816 12.1682 13.5218 11.8988 13.5652C11.6458 13.5897 11.3932 13.5157 11.194 13.3588L10.9172 13.1337L10.6969 12.9273C10.604 12.8402 10.5295 12.7357 10.4776 12.6197C10.4258 12.5037 10.3977 12.3787 10.3949 12.2518C10.4163 11.9781 10.5276 11.719 10.7119 11.5144C10.8961 11.3098 11.1429 11.1712 11.4142 11.1198C11.5409 11.1086 11.6685 11.1227 11.7896 11.1614C11.9106 11.2001 12.0226 11.2625 12.119 11.345L12.377 11.5576C12.4572 11.6256 12.5329 11.6987 12.6035 11.7765C12.6945 11.863 12.767 11.9669 12.8167 12.0818C12.8665 12.1968 12.8924 12.3206 12.8929 12.4457C12.8808 12.7164 12.7714 12.9738 12.5846 13.1712ZM12.1316 12.7709C12.1779 12.7234 12.2067 12.6617 12.2134 12.5958C12.2183 12.5418 12.2073 12.4875 12.1819 12.4395C12.1603 12.3858 12.1282 12.3369 12.0875 12.2956C12.0183 12.2206 11.9491 12.1518 11.8862 12.0955C11.8232 12.0392 11.7414 11.9766 11.6596 11.9204C11.5971 11.8634 11.5176 11.8283 11.4331 11.8203C11.3874 11.8201 11.3421 11.8294 11.3002 11.8477C11.2583 11.8659 11.2207 11.8927 11.1899 11.9263C11.159 11.9599 11.1356 11.9996 11.1212 12.0427C11.1067 12.0858 11.1015 12.1315 11.1059 12.1768C11.1289 12.259 11.1721 12.3343 11.2318 12.3957L11.4394 12.5896L11.6596 12.7772C11.7059 12.8096 11.7568 12.8348 11.8107 12.8522C11.8636 12.8708 11.9213 12.8708 11.9743 12.8522C12.0229 12.8372 12.0665 12.809 12.1001 12.7709H12.1316Z" fill="#0EC99C"/>
<path d="M17.1654 9.51874C16.8439 9.74312 16.48 9.90054 16.0957 9.98155C15.8085 10.0405 15.5106 10.0211 15.2337 9.92526C15.0009 9.84671 14.7986 9.69807 14.6548 9.49998C14.6423 9.46563 14.6423 9.42801 14.6548 9.39366C14.6587 9.37395 14.6669 9.35533 14.6789 9.33912C14.6909 9.32292 14.7062 9.30951 14.724 9.29985L15.4539 8.82453C15.4932 8.79226 15.5415 8.77263 15.5923 8.76824C15.6359 8.75931 15.6809 8.75931 15.7245 8.76824C15.7995 8.8074 15.8801 8.83482 15.9636 8.84955C16.0647 8.87496 16.1707 8.87496 16.2719 8.84955C16.4029 8.81603 16.5267 8.75878 16.6368 8.68069C16.8203 8.5792 16.9726 8.43003 17.0773 8.24915C17.1148 8.19019 17.1346 8.12188 17.1346 8.05214C17.1346 7.98241 17.1148 7.9141 17.0773 7.85514C17.053 7.81378 17.0193 7.77865 16.9788 7.75258C16.9384 7.72652 16.8924 7.71023 16.8445 7.70504C16.7128 7.69191 16.5798 7.70684 16.4544 7.74882C16.2407 7.81273 16.0307 7.88788 15.8251 7.97397C15.5307 8.08914 15.2249 8.173 14.9127 8.22413C14.6532 8.27044 14.3856 8.23774 14.1451 8.13032C13.9096 8.01731 13.712 7.83919 13.5758 7.61733C13.4397 7.39547 13.3708 7.13929 13.3774 6.87949C13.3905 6.59469 13.4843 6.31936 13.648 6.08522C14.022 5.57052 14.5577 5.19425 15.1707 5.01576C15.3987 4.96922 15.6334 4.96497 15.8629 5.00325C16.0561 5.02245 16.2439 5.07762 16.4166 5.16586C16.56 5.23644 16.685 5.33921 16.7816 5.46606C16.7909 5.50089 16.7909 5.53754 16.7816 5.57238C16.7719 5.59451 16.7567 5.61387 16.7375 5.62866L15.9761 6.12899C15.9362 6.1493 15.892 6.15989 15.8472 6.15989C15.8023 6.15989 15.7581 6.1493 15.7182 6.12899C15.6729 6.09175 15.6207 6.06375 15.5646 6.04657C15.5084 6.0294 15.4494 6.02341 15.391 6.02893C15.2296 6.03536 15.074 6.08984 14.9442 6.18528C14.8008 6.26608 14.6831 6.38526 14.6044 6.52926C14.5798 6.58912 14.5703 6.65409 14.5769 6.71845C14.5835 6.7828 14.6059 6.84455 14.6422 6.89825C14.6932 6.97205 14.7691 7.02529 14.8561 7.04835C14.9742 7.07452 15.0967 7.07452 15.2148 7.04835C15.4147 6.99908 15.6103 6.93425 15.8 6.85448C16.1248 6.71442 16.4647 6.6116 16.813 6.54802C17.0544 6.49606 17.3061 6.52131 17.5321 6.62017C17.7582 6.71903 17.947 6.88642 18.0715 7.09839C18.2364 7.33848 18.3121 7.62817 18.2854 7.91768C18.2582 8.22006 18.1496 8.50957 17.9708 8.75574C17.7525 9.05774 17.4794 9.31652 17.1654 9.51874Z" fill="#0EC99C"/>
<path d="M19.5061 7.97393C19.4899 7.98326 19.4714 7.98817 19.4526 7.98817C19.4339 7.98817 19.4154 7.98326 19.3992 7.97393C19.3806 7.96849 19.3636 7.9589 19.3495 7.94588C19.3353 7.93287 19.3243 7.91679 19.3174 7.89888V7.84259L19.0279 3.12697C19.0223 3.07288 19.0332 3.01837 19.0594 2.97061C19.0734 2.94021 19.0935 2.91293 19.1183 2.89037C19.1432 2.86781 19.1724 2.85044 19.2041 2.83927L20.1354 2.46403C20.1959 2.43968 20.2636 2.43968 20.3241 2.46403C20.3755 2.4804 20.4213 2.51072 20.4563 2.55158L23.6905 5.98511C23.695 6.0036 23.695 6.02291 23.6905 6.0414C23.6999 6.05756 23.7048 6.07589 23.7048 6.09456C23.7048 6.11322 23.6999 6.13156 23.6905 6.14772C23.684 6.16655 23.6732 6.18365 23.659 6.19774C23.6449 6.21183 23.6277 6.22252 23.6087 6.22902L22.8285 6.56049C22.8029 6.57269 22.775 6.57902 22.7467 6.57902C22.7183 6.57902 22.6904 6.57269 22.6649 6.56049C22.6278 6.5488 22.5935 6.52964 22.5642 6.5042L22.0419 5.96009L20.343 6.67932L20.3745 7.42982C20.3795 7.46508 20.3795 7.50087 20.3745 7.53614C20.3623 7.56353 20.3441 7.58787 20.3213 7.60735C20.2984 7.62683 20.2714 7.64097 20.2423 7.64871L19.5061 7.97393ZM20.2549 5.62862L21.4379 5.12829L20.1354 3.75238L20.2549 5.62862Z" fill="#0EC99C"/>
<path d="M24.8546 5.89763C24.8338 5.90676 24.8113 5.91148 24.7885 5.91148C24.7658 5.91148 24.7433 5.90676 24.7225 5.89763C24.6853 5.87228 24.6586 5.83457 24.6469 5.79131L23.6465 1.4134C23.6369 1.39282 23.6319 1.37041 23.6319 1.34773C23.6319 1.32506 23.6369 1.30265 23.6465 1.28207C23.6584 1.26315 23.674 1.24677 23.6924 1.23389C23.7108 1.22101 23.7315 1.21187 23.7534 1.20702L26.8807 0.494044C26.9015 0.484911 26.924 0.480194 26.9468 0.480194C26.9695 0.480194 26.992 0.484911 27.0129 0.494044C27.0517 0.520484 27.0787 0.560818 27.0884 0.606619L27.2394 1.28207C27.249 1.30265 27.2539 1.32506 27.2539 1.34773C27.2539 1.37041 27.249 1.39282 27.2394 1.4134C27.2274 1.43232 27.2118 1.4487 27.1935 1.46158C27.1751 1.47446 27.1543 1.4836 27.1324 1.48845L25.0434 1.96377L25.2762 2.95192L27.2016 2.50163C27.2223 2.4921 27.2449 2.48717 27.2677 2.48717C27.2905 2.48717 27.3131 2.4921 27.3338 2.50163C27.3542 2.51413 27.3719 2.53051 27.3859 2.54982C27.4 2.56914 27.41 2.59101 27.4156 2.6142L27.5666 3.28965C27.5756 3.30927 27.5803 3.3306 27.5803 3.35219C27.5803 3.37378 27.5756 3.39511 27.5666 3.41473C27.5546 3.43549 27.5383 3.45347 27.5187 3.46749C27.4992 3.48151 27.4769 3.49124 27.4533 3.49603L25.509 3.94008L25.8551 5.45358C25.8665 5.48488 25.8672 5.51907 25.8569 5.55077C25.8467 5.58247 25.8261 5.60989 25.7984 5.6287C25.7864 5.64946 25.7701 5.66744 25.7506 5.68146C25.7311 5.69548 25.7088 5.70521 25.6852 5.71L24.8546 5.89763Z" fill="#0EC99C"/>
<path d="M29.4039 5.00329C29.3579 5.005 29.313 4.98936 29.2781 4.95952C29.247 4.92685 29.2272 4.88525 29.2214 4.84069L28.9446 0.368972C28.9429 0.323248 28.9586 0.278568 28.9886 0.243889C29.0239 0.20909 29.0711 0.188959 29.1208 0.187602L32.3487 -2.27494e-05C32.3716 -0.00153761 32.3945 0.00155991 32.4162 0.00908347C32.4378 0.016607 32.4577 0.0284011 32.4746 0.0437563C32.4921 0.0582878 32.5063 0.0764453 32.5161 0.0969662C32.5258 0.117487 32.531 0.139879 32.5312 0.162585L32.569 0.788C32.5713 0.810296 32.5692 0.83284 32.5627 0.854315C32.5563 0.875791 32.5455 0.895769 32.5312 0.913083C32.5159 0.931355 32.4966 0.945921 32.4748 0.955675C32.453 0.965428 32.4293 0.970112 32.4054 0.96937L30.203 1.11947L30.2597 2.04508L32.311 1.92625C32.3339 1.92349 32.3572 1.926 32.379 1.93359C32.4008 1.94118 32.4206 1.95365 32.4368 1.97003C32.4714 2.00275 32.4918 2.04766 32.4934 2.09512L32.5312 2.68926C32.5329 2.73498 32.5172 2.77966 32.4872 2.81434C32.4732 2.83249 32.455 2.84707 32.4342 2.85686C32.4134 2.86665 32.3906 2.87137 32.3676 2.87063L30.3163 2.99571L30.3729 3.94634L32.6319 3.81501C32.6547 3.81349 32.6777 3.81659 32.6993 3.82411C32.7209 3.83164 32.7408 3.84343 32.7577 3.85879C32.7909 3.88996 32.8111 3.93236 32.8144 3.97761L32.8521 4.60303C32.8527 4.64857 32.8371 4.69285 32.8081 4.72811C32.7944 4.74667 32.7764 4.76154 32.7555 4.77137C32.7346 4.7812 32.7116 4.78568 32.6885 4.7844L29.4039 5.00329Z" fill="#0EC99C"/>
<path d="M37.5147 5.33476C37.2002 5.28232 36.8989 5.16975 36.6275 5.00329C36.3992 4.84941 36.2219 4.63179 36.1178 4.37788C36.0089 4.1321 35.9824 3.858 36.0423 3.59611C36.0752 3.41446 36.1507 3.24306 36.2626 3.09578C36.3738 2.95351 36.5103 2.83269 36.6653 2.73929C36.8363 2.64051 37.0178 2.56081 37.2064 2.50163C37.0899 2.31732 37.0009 2.11719 36.9421 1.90749C36.8938 1.72429 36.8916 1.53212 36.9354 1.34783C36.9793 1.16355 37.068 0.992788 37.1938 0.850538C37.348 0.693083 37.5411 0.578759 37.7538 0.519068C38.0309 0.452221 38.32 0.452221 38.597 0.519068C38.866 0.563037 39.1206 0.670248 39.3395 0.831776C39.5155 0.966952 39.6522 1.14606 39.7359 1.35087C39.8156 1.54956 39.8331 1.76753 39.7862 1.97628C39.7597 2.14923 39.6857 2.31154 39.5723 2.44535C39.4583 2.57809 39.3221 2.69023 39.1696 2.77681C38.9916 2.87647 38.804 2.95818 38.6096 3.02073L39.2388 3.97761L39.4402 3.7337C39.557 3.59176 39.6563 3.43638 39.7359 3.27089C39.7415 3.25594 39.75 3.24226 39.761 3.23066C39.772 3.21905 39.7852 3.20977 39.7999 3.20335C39.8146 3.19693 39.8304 3.19351 39.8464 3.1933C39.8625 3.19308 39.8784 3.19607 39.8932 3.2021L40.5791 3.33343C40.5969 3.33484 40.6142 3.33999 40.6298 3.34855C40.6454 3.35711 40.6591 3.36888 40.6698 3.38307C40.6805 3.39727 40.6881 3.41357 40.6919 3.43089C40.6958 3.44821 40.696 3.46616 40.6923 3.48353C40.6659 3.58541 40.6234 3.6825 40.5665 3.77122C40.4983 3.88993 40.4204 4.00288 40.3337 4.10895C40.2393 4.22152 40.1386 4.3341 40.0379 4.43416L39.7359 4.70935L40.3651 5.62245C40.3788 5.65659 40.3788 5.69463 40.3651 5.72877C40.3598 5.76142 40.3417 5.79065 40.3148 5.81008C40.2826 5.82328 40.2464 5.82328 40.2141 5.81008L39.3521 5.62871C39.3142 5.6203 39.278 5.60549 39.2451 5.58493C39.2279 5.5646 39.2089 5.54577 39.1885 5.52864L38.9368 5.17841C38.7298 5.28911 38.5034 5.35918 38.2698 5.38479C38.017 5.40482 37.7626 5.38797 37.5147 5.33476ZM37.6846 4.47794C37.814 4.49668 37.9454 4.49668 38.0747 4.47794C38.1997 4.46827 38.3216 4.43427 38.4334 4.37788L37.7035 3.28965C37.5711 3.32583 37.4471 3.38745 37.3385 3.47102C37.2331 3.5336 37.1564 3.63456 37.1246 3.75246C37.0891 3.86013 37.0891 3.97627 37.1246 4.08393C37.1759 4.17878 37.2466 4.26188 37.3322 4.32784C37.4348 4.40717 37.5561 4.45887 37.6846 4.47794ZM38.1754 2.25147C38.2804 2.22269 38.3834 2.18718 38.4837 2.14515C38.5681 2.10904 38.6466 2.06055 38.7166 2.0013C38.7764 1.94352 38.818 1.86961 38.8361 1.78866C38.849 1.73372 38.8495 1.67661 38.8375 1.62145C38.8256 1.5663 38.8014 1.51447 38.7669 1.4697C38.6922 1.37964 38.5871 1.31964 38.4712 1.30084C38.3596 1.27651 38.243 1.29435 38.144 1.35087C38.0915 1.37766 38.0463 1.41668 38.0124 1.46461C37.9784 1.51253 37.9566 1.56793 37.9489 1.62605C37.9395 1.68195 37.9395 1.73901 37.9489 1.79491C37.9634 1.86425 37.9867 1.93149 38.0181 1.99505C38.0631 2.0848 38.1158 2.17058 38.1754 2.25147Z" fill="#0EC99C"/>
<path d="M44.7572 7.63013C44.3988 7.47215 44.0758 7.24464 43.807 6.96093C43.6118 6.74754 43.4771 6.48636 43.4169 6.20418C43.364 5.96365 43.3859 5.7128 43.4798 5.48496C43.4996 5.45159 43.5312 5.42672 43.5684 5.41517C43.6056 5.40361 43.6458 5.40619 43.6812 5.42241L44.4677 5.79141C44.5175 5.81092 44.5595 5.84606 44.5873 5.89147C44.6116 5.9275 44.6287 5.96785 44.6376 6.0103C44.6363 6.09314 44.6491 6.17559 44.6754 6.25422C44.7148 6.35133 44.7749 6.4388 44.8515 6.51064C44.9498 6.60301 45.0624 6.67904 45.185 6.73578C45.3774 6.84049 45.5952 6.89027 45.8143 6.87963C45.8836 6.87598 45.9507 6.8537 46.0083 6.81515C46.0659 6.7766 46.112 6.72323 46.1415 6.66073C46.1617 6.61765 46.1722 6.57069 46.1722 6.52314C46.1722 6.4756 46.1617 6.42863 46.1415 6.38555C46.0806 6.26661 45.9973 6.16044 45.8961 6.07284C45.7702 5.96027 45.594 5.81642 45.3738 5.64756C45.1146 5.46302 44.8799 5.24657 44.6754 5.00339C44.5178 4.82629 44.4113 4.61022 44.367 4.37797C44.3335 4.12836 44.3797 3.87456 44.4992 3.65249C44.6109 3.40872 44.7984 3.20704 45.034 3.07711C45.2887 2.94139 45.5762 2.8786 45.8646 2.89574C46.2084 2.90455 46.5468 2.9833 46.8588 3.12714C47.1219 3.24033 47.3627 3.39916 47.5698 3.5962C47.7383 3.75615 47.8768 3.94463 47.9788 4.15282C48.0609 4.32839 48.112 4.51667 48.1298 4.70944C48.1453 4.8676 48.1193 5.02706 48.0543 5.17225C48.0489 5.18996 48.0392 5.20608 48.026 5.21917C48.0129 5.23226 47.9967 5.24192 47.9788 5.2473C47.9618 5.25783 47.9422 5.26342 47.9222 5.26342C47.9022 5.26342 47.8826 5.25783 47.8656 5.2473L47.0413 4.85954C46.9987 4.84288 46.9616 4.81472 46.9343 4.77824C46.9076 4.74354 46.8903 4.70263 46.884 4.65941C46.8982 4.54074 46.8691 4.42094 46.8022 4.32168C46.7101 4.18964 46.581 4.08742 46.4309 4.02774C46.2795 3.94447 46.1059 3.90953 45.9338 3.92767C45.8692 3.93413 45.8076 3.9579 45.7555 3.99645C45.7034 4.03501 45.6628 4.08689 45.6381 4.14657C45.6067 4.22919 45.6067 4.32037 45.6381 4.40299C45.6802 4.51911 45.7517 4.62249 45.8457 4.70319C45.9943 4.84454 46.1519 4.97615 46.3177 5.0972C46.6094 5.29809 46.8756 5.53328 47.1105 5.79766C47.273 5.97217 47.3822 6.18912 47.4251 6.42308C47.4528 6.66849 47.4069 6.91657 47.293 7.13605C47.1727 7.40503 46.9642 7.62551 46.7015 7.76146C46.4226 7.89038 46.114 7.94223 45.808 7.91156C45.4428 7.88539 45.0861 7.78986 44.7572 7.63013Z" fill="#0EC99C"/>
<path d="M47.7083 9.11221C47.6875 9.09928 47.67 9.08189 47.6569 9.06133C47.6438 9.04076 47.6356 9.01754 47.6327 8.99339C47.6178 8.95301 47.6178 8.90868 47.6327 8.8683L50.2315 5.21588C50.2435 5.19763 50.2592 5.18208 50.2776 5.17024C50.2961 5.15839 50.3168 5.1505 50.3384 5.14708C50.359 5.13713 50.3816 5.13196 50.4045 5.13196C50.4274 5.13196 50.45 5.13713 50.4706 5.14708L53.1071 7.02333C53.1268 7.03591 53.1437 7.0524 53.1567 7.07177C53.1696 7.09114 53.1785 7.11298 53.1826 7.1359C53.1916 7.15553 53.1963 7.17686 53.1963 7.19845C53.1963 7.22003 53.1916 7.24136 53.1826 7.26099L52.805 7.79259C52.7795 7.82949 52.7416 7.85611 52.6981 7.86764C52.6508 7.87272 52.6034 7.85926 52.5659 7.83011L50.7663 6.57929L50.2252 7.33604L51.9052 8.51807C51.9243 8.53069 51.9404 8.5473 51.9524 8.56675C51.9643 8.58619 51.9719 8.608 51.9744 8.63064C51.9888 8.67326 51.9888 8.71937 51.9744 8.76198L51.6221 9.2498C51.6101 9.26805 51.5943 9.2836 51.5759 9.29545C51.5575 9.3073 51.5368 9.31518 51.5151 9.3186C51.4942 9.32737 51.4717 9.33189 51.449 9.33189C51.4263 9.33189 51.4039 9.32737 51.383 9.3186L49.6715 8.13031L49.1177 8.91208L50.9677 10.1879C50.986 10.1999 51.0017 10.2155 51.0136 10.2338C51.0255 10.2521 51.0335 10.2727 51.0369 10.2942C51.0469 10.3147 51.0521 10.3372 51.0521 10.3599C51.0521 10.3827 51.0469 10.4051 51.0369 10.4256L50.6656 10.9509C50.6378 10.9883 50.5978 11.0148 50.5524 11.026C50.5294 11.0297 50.5058 11.0289 50.4832 11.0235C50.4605 11.0181 50.4391 11.0084 50.4202 10.9947L47.7083 9.11221Z" fill="#0EC99C"/>
<path d="M52.7421 13.265C52.4689 12.9993 52.2546 12.6798 52.1129 12.3269C51.9956 12.0215 51.9737 11.688 52.05 11.37C52.1377 11.0192 52.3205 10.6991 52.5785 10.4444C52.7107 10.3068 52.8491 10.163 53.0064 10.0129L53.4532 9.58134C53.714 9.33355 54.0348 9.1569 54.3844 9.0685C54.7079 8.99955 55.0446 9.02562 55.3534 9.14355C55.7082 9.28138 56.0282 9.49487 56.291 9.76896C56.4942 9.96729 56.666 10.195 56.8007 10.4444C56.9277 10.6642 57.011 10.9063 57.0461 11.1574C57.0847 11.3924 57.0672 11.6331 56.9951 11.8601C56.923 12.0872 56.7982 12.2942 56.6308 12.4645C56.6184 12.4789 56.6029 12.4903 56.5855 12.4979C56.5681 12.5055 56.5491 12.509 56.5301 12.5083C56.5097 12.5079 56.4897 12.5032 56.4712 12.4946C56.4528 12.486 56.4364 12.4736 56.4231 12.4582L55.7939 11.8016C55.7555 11.7693 55.7289 11.7253 55.7184 11.6765C55.7183 11.6213 55.7336 11.5672 55.7624 11.5201C55.8811 11.3531 55.9285 11.1463 55.8946 10.9447C55.8469 10.7645 55.7513 10.6003 55.6177 10.4694C55.4676 10.3071 55.2602 10.2085 55.0388 10.1942C54.7838 10.2125 54.5454 10.3266 54.3718 10.5132C54.095 10.7696 53.8181 11.0386 53.5475 11.3262C53.3558 11.4965 53.2385 11.7343 53.2203 11.9892C53.225 12.0981 53.2513 12.205 53.2977 12.3038C53.3442 12.4025 53.4098 12.4912 53.4909 12.5646C53.6197 12.7022 53.7858 12.7999 53.9691 12.846C54.0681 12.8641 54.1698 12.8624 54.2681 12.8409C54.3665 12.8195 54.4595 12.7787 54.5417 12.7209C54.5874 12.6884 54.6431 12.6729 54.699 12.6771C54.7488 12.6861 54.7935 12.7128 54.8249 12.7522L55.4541 13.4089C55.4687 13.4224 55.4802 13.4389 55.4878 13.4572C55.4954 13.4756 55.499 13.4954 55.4982 13.5152C55.4989 13.5341 55.4953 13.5529 55.4877 13.5703C55.4801 13.5876 55.4686 13.603 55.4541 13.6153C55.2764 13.7856 55.0609 13.912 54.8249 13.9843C54.6002 14.049 54.3639 14.064 54.1327 14.028C53.8811 13.9825 53.6401 13.8914 53.4217 13.7591C53.1721 13.6283 52.9432 13.4618 52.7421 13.265Z" fill="#0EC99C"/>
<path d="M56.0582 17.2739C55.8391 16.9713 55.6868 16.626 55.6114 16.2607C55.5465 15.942 55.5862 15.611 55.7247 15.3164C55.8955 14.9792 56.1568 14.6957 56.4798 14.4971L58.8142 12.9273C58.8322 12.9122 58.8536 12.9015 58.8765 12.896C58.8995 12.8906 58.9234 12.8906 58.9463 12.896C58.9694 12.9001 58.9914 12.9089 59.0109 12.9218C59.0304 12.9347 59.0469 12.9515 59.0596 12.9711L59.5567 13.7028C59.5749 13.7469 59.5749 13.7963 59.5567 13.8404C59.5532 13.8619 59.5453 13.8825 59.5334 13.9008C59.5215 13.9191 59.5058 13.9348 59.4875 13.9467L57.153 15.5228C56.9386 15.6409 56.7802 15.8389 56.7126 16.0731C56.6925 16.1825 56.6962 16.2948 56.7233 16.4027C56.7505 16.5105 56.8004 16.6114 56.8699 16.6985C56.9268 16.793 57.0025 16.8749 57.0923 16.9394C57.182 17.0039 57.2841 17.0496 57.3921 17.0738C57.5183 17.0926 57.6469 17.0857 57.7703 17.0535C57.8936 17.0212 58.009 16.9643 58.1095 16.8862L60.4376 15.3164C60.4585 15.3076 60.481 15.3031 60.5037 15.3031C60.5264 15.3031 60.5488 15.3076 60.5697 15.3164C60.5913 15.3201 60.6119 15.3282 60.6302 15.34C60.6486 15.3518 60.6644 15.3672 60.6767 15.3852L61.1864 16.1294C61.2019 16.1697 61.2019 16.2142 61.1864 16.2545C61.1841 16.278 61.176 16.3005 61.1628 16.3202C61.1496 16.3398 61.1318 16.3559 61.1109 16.3671L58.7764 17.9431C58.4722 18.1647 58.1136 18.3008 57.7382 18.3371C57.4114 18.3576 57.0868 18.272 56.8132 18.0932C56.5043 17.8782 56.2466 17.5986 56.0582 17.2739Z" fill="#0EC99C"/>
<path d="M57.9395 20.2071C57.9303 20.1864 57.9256 20.1641 57.9256 20.1415C57.9256 20.1188 57.9303 20.0965 57.9395 20.0758C57.9564 20.0349 57.9877 20.0015 58.0276 19.982L62.1554 18.1995C62.1981 18.1843 62.2448 18.1843 62.2875 18.1995C62.3301 18.2173 62.364 18.251 62.3819 18.2934L63.137 20.0132C63.3664 20.4609 63.4309 20.9742 63.3195 21.4642C63.259 21.675 63.1495 21.8686 62.9997 22.0294C62.85 22.1902 62.6642 22.3137 62.4574 22.3898C62.1918 22.5176 61.8931 22.5613 61.6017 22.5149C61.3324 22.4614 61.0838 22.3335 60.8843 22.1459L59.6951 23.6844C59.6813 23.706 59.6616 23.7233 59.6385 23.7345C59.6017 23.7469 59.5619 23.7469 59.5252 23.7345C59.491 23.7182 59.4625 23.692 59.4434 23.6594L59.0784 22.8214C59.0634 22.7901 59.0555 22.7559 59.0555 22.7213C59.0555 22.6867 59.0634 22.6525 59.0784 22.6212C59.0982 22.5746 59.1235 22.5305 59.154 22.4899L60.2362 21.164L59.9531 20.5386L58.5436 21.164C58.524 21.1734 58.5025 21.1783 58.4807 21.1783C58.4589 21.1783 58.4374 21.1734 58.4177 21.164C58.3942 21.1564 58.3729 21.1433 58.3554 21.1259C58.3379 21.1086 58.3248 21.0873 58.3171 21.0639L57.9395 20.2071ZM60.8403 20.1196L61.1549 20.845C61.2131 21.0118 61.3353 21.1489 61.4947 21.2265C61.5673 21.2573 61.6454 21.2732 61.7244 21.2732C61.8033 21.2732 61.8814 21.2573 61.954 21.2265C62.1078 21.1631 62.23 21.0416 62.2938 20.8888C62.3212 20.8047 62.3315 20.7161 62.3239 20.628C62.3163 20.5399 62.2911 20.4542 62.2498 20.376L61.9289 19.6505L60.8403 20.1196Z" fill="#0EC99C"/>
<path d="M59.8399 24.9478C59.8307 24.9271 59.8259 24.9047 59.8259 24.8821C59.8259 24.8595 59.8307 24.8371 59.8399 24.8164C59.8654 24.7795 59.9033 24.7529 59.9468 24.7414L64.3514 23.7094C64.3723 23.7003 64.3948 23.6956 64.4175 23.6956C64.4403 23.6956 64.4628 23.7003 64.4836 23.7094C64.5031 23.7207 64.52 23.7361 64.533 23.7544C64.546 23.7728 64.5549 23.7937 64.5591 23.8158L65.3079 26.9428C65.3175 26.9634 65.3224 26.9858 65.3224 27.0085C65.3224 27.0312 65.3175 27.0536 65.3079 27.0742C65.2813 27.1128 65.2407 27.1397 65.1946 27.1492L64.5654 27.2993C64.5447 27.3088 64.5221 27.3138 64.4993 27.3138C64.4765 27.3138 64.4539 27.3088 64.4332 27.2993C64.3944 27.2729 64.3674 27.2325 64.3577 27.1867L63.8418 25.0541L62.9231 25.2667L63.4013 27.2555C63.4109 27.2761 63.4159 27.2985 63.4159 27.3212C63.4159 27.3439 63.4109 27.3663 63.4013 27.3869C63.3893 27.4076 63.373 27.4256 63.3535 27.4396C63.3339 27.4537 63.3116 27.4634 63.288 27.4682L62.7029 27.6058C62.6623 27.6212 62.6175 27.6212 62.577 27.6058C62.5561 27.5938 62.538 27.5776 62.5239 27.5582C62.5098 27.5388 62.5 27.5166 62.4952 27.4932L62.017 25.5106L61.0354 25.7108L61.5639 27.8997C61.5735 27.9203 61.5785 27.9427 61.5785 27.9654C61.5785 27.9881 61.5735 28.0105 61.5639 28.0311C61.5373 28.0697 61.4968 28.0965 61.4507 28.1061L60.8215 28.2562C60.8006 28.2653 60.7781 28.2701 60.7554 28.2701C60.7326 28.2701 60.7101 28.2653 60.6893 28.2562C60.6703 28.2443 60.6538 28.2288 60.6408 28.2106C60.6279 28.1923 60.6187 28.1717 60.6138 28.1499L59.8399 24.9478Z" fill="#0EC99C"/>
<path d="M60.3621 38.8195C60.3666 38.7975 60.3757 38.7768 60.3887 38.7585C60.4016 38.7402 60.4183 38.7248 60.4376 38.7132C60.4583 38.7036 60.4808 38.6987 60.5036 38.6987C60.5265 38.6987 60.549 38.7036 60.5697 38.7132L63.7977 39.3386L63.2691 38.2691C63.2599 38.2484 63.2552 38.2261 63.2552 38.2034C63.2552 38.1808 63.2599 38.1585 63.2691 38.1378C63.2896 38.095 63.3255 38.0615 63.3698 38.044L63.999 37.75C64.0439 37.7348 64.0926 37.7348 64.1374 37.75C64.161 37.7577 64.1823 37.7707 64.1998 37.7881C64.2173 37.8055 64.2304 37.8267 64.2381 37.8501L65.1253 39.645C65.1274 39.6742 65.1274 39.7034 65.1253 39.7326C65.1282 39.7617 65.1282 39.791 65.1253 39.8201L64.9303 40.6519C64.9277 40.6746 64.9202 40.6964 64.9082 40.7158C64.8962 40.7353 64.8802 40.7519 64.8611 40.7645C64.8404 40.774 64.8178 40.779 64.795 40.779C64.7722 40.779 64.7496 40.774 64.7289 40.7645L60.3243 39.8764C60.2808 39.8649 60.2429 39.8383 60.2173 39.8014C60.2063 39.7812 60.2006 39.7587 60.2006 39.7357C60.2006 39.7128 60.2063 39.6902 60.2173 39.67L60.3621 38.8195Z" fill="#0EC99C"/>
<path d="M59.1477 42.8346C59.2474 42.5613 59.3943 42.3073 59.5818 42.0841C59.7417 41.9026 59.9392 41.7575 60.1607 41.6588C60.373 41.5666 60.6023 41.5198 60.834 41.5212C61.0775 41.522 61.3194 41.5599 61.5513 41.6338L61.954 41.7714C62.105 41.8214 62.2561 41.8777 62.4071 41.9403L62.8161 42.1029C63.0456 42.1973 63.2582 42.3282 63.4453 42.4906C63.6161 42.6422 63.7532 42.8275 63.848 43.0347C63.9454 43.2555 63.9948 43.4942 63.9927 43.7352C63.9923 44.0224 63.9368 44.3068 63.8291 44.5733C63.7315 44.8476 63.5843 45.1019 63.395 45.3238C63.2395 45.5047 63.0462 45.6498 62.8287 45.749C62.6165 45.843 62.3876 45.894 62.1554 45.8991C61.912 45.9028 61.6697 45.8669 61.4381 45.7928L60.9787 45.6552L60.5257 45.4864L60.1293 45.33C59.9005 45.2341 59.6882 45.1033 59.5 44.9423C59.3269 44.7899 59.1858 44.6049 59.0847 44.3981C58.9817 44.1813 58.93 43.9438 58.9337 43.7039C58.9474 43.4031 59.0201 43.1078 59.1477 42.8346ZM60.0852 43.1848C60.0456 43.2759 60.0284 43.375 60.035 43.4739C60.0416 43.5729 60.0717 43.6689 60.123 43.754C60.2563 43.9299 60.4408 44.0609 60.6515 44.1292L61.0353 44.2918L61.4506 44.4482C61.5891 44.4982 61.7212 44.542 61.8408 44.5733C62.0395 44.6565 62.2595 44.6762 62.47 44.6296C62.5627 44.5965 62.6471 44.5438 62.7173 44.4751C62.7874 44.4065 62.8418 44.3235 62.8765 44.2318C62.9112 44.1402 62.9255 44.0422 62.9183 43.9446C62.9111 43.847 62.8827 43.752 62.8349 43.6664C62.7039 43.4921 62.5246 43.3595 62.319 43.2849L61.9163 43.1536L61.501 42.9972L61.1046 42.8534C60.9037 42.7784 60.6856 42.7611 60.4753 42.8033C60.3784 42.8265 60.2889 42.8736 60.2152 42.9403C60.1415 43.007 60.086 43.0911 60.0537 43.1848H60.0852Z" fill="#0EC99C"/>
<path d="M56.9328 47.3501C57.0794 47.0967 57.2713 46.8721 57.4991 46.6872C57.685 46.5397 57.899 46.4312 58.1283 46.3682C58.3566 46.3214 58.5921 46.3214 58.8204 46.3682C59.0606 46.4097 59.2923 46.49 59.5063 46.6059L59.8776 46.8123L60.2928 47.0562L60.6641 47.2938C60.8681 47.4262 61.0488 47.591 61.1989 47.7816C61.3442 47.9658 61.4473 48.1792 61.501 48.4071C61.5518 48.642 61.5518 48.8851 61.501 49.12C61.4422 49.4016 61.3335 49.6705 61.1801 49.9143C61.0361 50.1551 60.8483 50.3672 60.6263 50.5397C60.4429 50.6924 60.2282 50.8034 59.9971 50.8649C59.7706 50.9088 59.5377 50.9088 59.3112 50.8649C59.0793 50.8316 58.8542 50.762 58.6443 50.6586L58.2604 50.4459L57.8451 50.1957L57.4865 49.9706C57.2826 49.8382 57.1019 49.6734 56.9516 49.4828C56.8044 49.2983 56.6994 49.084 56.644 48.855C56.5885 48.626 56.584 48.3878 56.6307 48.1569C56.6837 47.8726 56.7859 47.5997 56.9328 47.3501ZM57.7948 47.8629C57.7395 47.9447 57.7043 48.0383 57.6923 48.1361C57.6803 48.234 57.6917 48.3332 57.7256 48.4258C57.8279 48.6208 57.9854 48.7816 58.1786 48.8886C58.2919 48.9637 58.4052 49.045 58.531 49.12L58.9148 49.3452C59.0407 49.4202 59.1602 49.4828 59.2735 49.5391C59.4614 49.6568 59.6807 49.7156 59.9027 49.7079C60.0027 49.698 60.0985 49.663 60.1811 49.6061C60.2636 49.5492 60.3302 49.4723 60.3746 49.3827C60.4321 49.3017 60.4674 49.2073 60.4774 49.1087C60.4873 49.0101 60.4714 48.9106 60.4313 48.8198C60.3329 48.6283 60.1825 48.4679 59.9971 48.357L59.6322 48.1569L59.2546 47.9317L58.8897 47.7191C58.701 47.6036 58.4818 47.5469 58.2604 47.5565C58.163 47.5638 58.069 47.5958 57.9875 47.6495C57.906 47.7031 57.8396 47.7766 57.7948 47.8629Z" fill="#0EC99C"/>
<path d="M52.7421 52.835C52.9168 52.6242 53.1629 52.484 53.4343 52.441C53.6881 52.4176 53.9411 52.494 54.139 52.6537L54.3781 52.8601C54.4494 52.9184 54.5312 52.9935 54.6235 53.0852C54.7189 53.1756 54.7948 53.2843 54.8467 53.4047C54.8986 53.5251 54.9254 53.6547 54.9255 53.7857C54.9128 54.0618 54.796 54.323 54.5983 54.5174C54.427 54.7363 54.1763 54.8799 53.8999 54.9177C53.7742 54.9288 53.6476 54.9146 53.5276 54.8759C53.4076 54.8372 53.2966 54.7748 53.2015 54.6925C53.0945 54.6112 53.0127 54.5424 52.9435 54.4799C52.8743 54.4173 52.7987 54.3485 52.7107 54.261C52.6205 54.1742 52.549 54.0701 52.5003 53.9551C52.4517 53.8401 52.4269 53.7165 52.4275 53.5918C52.4293 53.3084 52.5421 53.037 52.7421 52.835ZM53.2015 53.2353C53.1536 53.2825 53.1227 53.344 53.1134 53.4104C53.1008 53.4618 53.1008 53.5154 53.1134 53.5668C53.1373 53.6192 53.1691 53.6677 53.2077 53.7106C53.277 53.7857 53.3525 53.8545 53.4154 53.9107L53.6356 54.0921C53.7036 54.1442 53.7837 54.1786 53.8684 54.1922C53.9144 54.1932 53.9599 54.1835 54.0014 54.164C54.0429 54.1444 54.0792 54.1155 54.1075 54.0796C54.1411 54.048 54.1662 54.0086 54.1805 53.9649C54.1948 53.9212 54.1978 53.8746 54.1893 53.8294C54.1689 53.7462 54.1253 53.6703 54.0635 53.6106L53.8559 53.4167L53.6356 53.229C53.5909 53.1979 53.5422 53.1727 53.4909 53.154C53.4375 53.1384 53.3807 53.1384 53.3273 53.154C53.279 53.1699 53.2357 53.1979 53.2015 53.2353ZM55.0891 50.2833C55.1584 50.202 55.2276 50.1958 55.2968 50.2521C55.3166 50.2728 55.3297 50.2989 55.3345 50.3271L56.4042 55.837C56.4102 55.8827 56.4102 55.9289 56.4042 55.9746C56.3954 56.0245 56.3712 56.0704 56.335 56.106L56.0078 56.4687C55.9323 56.55 55.8631 56.5563 55.7939 56.4687C55.7729 56.4514 55.7594 56.4268 55.7561 56.3999L54.6864 50.8837C54.6836 50.84 54.6836 50.7961 54.6864 50.7524C54.6977 50.7172 54.7171 50.6851 54.7431 50.6586L55.0891 50.2833ZM56.5049 52.2847C56.6773 52.0701 56.9242 51.9273 57.1971 51.8844C57.3209 51.8717 57.446 51.884 57.565 51.9206C57.6839 51.9571 57.7942 52.0171 57.8892 52.097C57.9738 52.1578 58.0537 52.2247 58.1283 52.2972L58.3737 52.5286C58.4645 52.6084 58.5385 52.7054 58.5914 52.8138C58.6443 52.9222 58.6751 53.0399 58.6821 53.1603C58.6754 53.4401 58.5604 53.7067 58.3611 53.9045C58.1844 54.1203 57.9332 54.263 57.6564 54.3048C57.404 54.3217 57.1551 54.2384 56.9643 54.0734C56.8636 53.9983 56.7755 53.9233 56.7126 53.867C56.6496 53.8107 56.5615 53.7294 56.4797 53.6418C56.3884 53.5569 56.3155 53.4543 56.2657 53.3402C56.2159 53.2262 56.1903 53.1032 56.1903 52.9789C56.2115 52.7171 56.3252 52.4712 56.5112 52.2847H56.5049ZM56.958 52.6849C56.911 52.7277 56.88 52.785 56.8699 52.8475C56.8541 52.9006 56.8541 52.9571 56.8699 53.0102C56.894 53.0603 56.9283 53.105 56.9705 53.1415C57.0461 53.2228 57.109 53.2853 57.1782 53.3479C57.2478 53.4108 57.3214 53.4693 57.3984 53.523C57.465 53.5774 57.5457 53.6121 57.6312 53.6231C57.6769 53.6269 57.7228 53.6192 57.7646 53.6006C57.8064 53.582 57.8428 53.5531 57.8703 53.5167C57.9039 53.4851 57.929 53.4457 57.9433 53.402C57.9576 53.3583 57.9606 53.3117 57.9521 53.2666C57.9292 53.1843 57.8859 53.1091 57.8263 53.0477C57.7571 52.9789 57.6879 52.9101 57.6187 52.8538L57.3984 52.6662C57.3537 52.635 57.305 52.6098 57.2537 52.5911C57.2008 52.5725 57.143 52.5725 57.0901 52.5911C57.0397 52.6093 56.9959 52.642 56.9643 52.6849H56.958Z" fill="#0EC99C"/>
<path d="M48.1361 56.4811C48.4583 56.2578 48.8219 56.1004 49.2058 56.0183C49.4927 55.9603 49.7898 55.9776 50.0679 56.0683C50.3009 56.1496 50.503 56.3003 50.6468 56.4999C50.6562 56.516 50.6611 56.5344 50.6611 56.553C50.6611 56.5717 50.6562 56.59 50.6468 56.6062C50.644 56.6255 50.6368 56.6439 50.626 56.6601C50.6151 56.6764 50.6007 56.69 50.5839 56.7L49.8539 57.1753C49.8125 57.2081 49.762 57.2277 49.7092 57.2316C49.6677 57.2398 49.6249 57.2398 49.5834 57.2316C49.508 57.1934 49.4274 57.166 49.3443 57.1503C49.2431 57.1249 49.1371 57.1249 49.0359 57.1503C48.9029 57.1836 48.7771 57.2409 48.6647 57.3191C48.4841 57.4223 48.3343 57.5712 48.2305 57.7507C48.1951 57.8104 48.1764 57.8784 48.1764 57.9477C48.1764 58.017 48.1951 58.085 48.2305 58.1447C48.2556 58.1854 48.2895 58.2201 48.3298 58.2461C48.3701 58.272 48.4157 58.2887 48.4633 58.2948C48.5971 58.3082 48.7322 58.2933 48.8598 58.251C49.0234 58.201 49.2373 58.1322 49.489 58.0259C49.781 57.91 50.0848 57.8261 50.3951 57.7757C50.6412 57.734 50.8942 57.7622 51.125 57.857C51.3604 57.97 51.5581 58.1481 51.6943 58.37C51.8304 58.5918 51.8993 58.848 51.8927 59.1078C51.8766 59.3921 51.7831 59.6666 51.6221 59.9021C51.4239 60.1879 51.1691 60.4305 50.8733 60.6151C50.635 60.7723 50.3741 60.8925 50.0993 60.9716C49.8741 61.0327 49.6394 61.0518 49.4072 61.0279C49.2122 61.0077 49.0224 60.9526 48.8472 60.8652C48.7044 60.7963 48.5811 60.6931 48.4885 60.565C48.476 60.5307 48.476 60.4931 48.4885 60.4587C48.4917 60.4396 48.499 60.4213 48.5099 60.4051C48.5207 60.389 48.5349 60.3752 48.5514 60.3649L49.3191 59.8646C49.3574 59.84 49.4001 59.823 49.4449 59.8145C49.4865 59.8063 49.5293 59.8063 49.5708 59.8145C49.6659 59.8873 49.7845 59.9229 49.9043 59.9146C50.0656 59.9082 50.2212 59.8537 50.351 59.7583C50.4943 59.6794 50.6105 59.5595 50.6845 59.4143C50.7053 59.3644 50.7154 59.3108 50.7142 59.2568C50.7129 59.2028 50.7004 59.1497 50.6773 59.1008C50.6542 59.052 50.621 59.0084 50.58 58.973C50.539 58.9376 50.491 58.9111 50.4391 58.8952C50.3214 58.8655 50.1982 58.8655 50.0805 58.8952C49.8788 58.9452 49.6811 59.01 49.489 59.0891C49.1647 59.2308 48.8246 59.3337 48.4759 59.3955C48.2332 59.4438 47.9815 59.4199 47.7523 59.3267C47.5282 59.2226 47.34 59.0551 47.2112 58.8452C47.044 58.6059 46.9661 58.3161 46.9909 58.0259C47.0248 57.723 47.1376 57.4341 47.3181 57.1878C47.5469 56.9063 47.8238 56.667 48.1361 56.4811Z" fill="#0EC99C"/>
<path d="M45.8206 58.0196C45.8385 58.0121 45.8577 58.0082 45.8772 58.0082C45.8966 58.0082 45.9159 58.0121 45.9338 58.0196C45.9519 58.0258 45.9686 58.0357 45.9826 58.0486C45.9967 58.0616 46.0079 58.0772 46.0156 58.0947V58.151L46.2547 62.8478C46.2699 62.8989 46.2699 62.9532 46.2547 63.0042C46.2239 63.0624 46.1723 63.1071 46.11 63.1293L45.1662 63.5296C45.1056 63.5539 45.0379 63.5539 44.9774 63.5296C44.926 63.5132 44.8802 63.4829 44.8452 63.442L41.6047 60.0397C41.5907 60.022 41.5781 60.0032 41.567 59.9835C41.5591 59.9668 41.555 59.9487 41.555 59.9303C41.555 59.9119 41.5591 59.8938 41.567 59.8771C41.5724 59.8587 41.5821 59.8418 41.5952 59.8277C41.6083 59.8136 41.6244 59.8027 41.6425 59.7958L42.429 59.4644C42.4545 59.4522 42.4825 59.4458 42.5108 59.4458C42.5391 59.4458 42.5671 59.4522 42.5926 59.4644C42.6283 59.4749 42.6608 59.4942 42.687 59.5206L43.2155 60.0648L44.9145 59.3455V58.595C44.9033 58.5583 44.9033 58.5192 44.9145 58.4825C44.9145 58.4366 44.9585 58.3991 45.0466 58.3699L45.8206 58.0196ZM45.0529 60.3462L43.8636 60.8465L45.1724 62.2662L45.0529 60.3462Z" fill="#0EC99C"/>
<path d="M40.4469 60.1023C40.4676 60.0928 40.4902 60.0879 40.513 60.0879C40.5358 60.0879 40.5583 60.0928 40.579 60.1023C40.5992 60.1129 40.6165 60.128 40.6296 60.1465C40.6427 60.165 40.6513 60.1863 40.6546 60.2086L41.6613 64.5865C41.6709 64.6071 41.6759 64.6295 41.6759 64.6522C41.6759 64.6749 41.6709 64.6973 41.6613 64.7179C41.6347 64.7565 41.5941 64.7834 41.5481 64.7929L38.446 65.4996C38.4034 65.5155 38.3564 65.5155 38.3138 65.4996C38.275 65.4732 38.2479 65.4329 38.2383 65.3871L38.081 64.7116C38.0714 64.691 38.0665 64.6686 38.0665 64.646C38.0665 64.6233 38.0714 64.6009 38.081 64.5803C38.1076 64.5417 38.1482 64.5148 38.1943 64.5052L40.277 64.0299L40.0505 63.0418L38.0999 63.4858C38.0792 63.4953 38.0566 63.5003 38.0338 63.5003C38.011 63.5003 37.9885 63.4953 37.9677 63.4858C37.9316 63.4569 37.9052 63.4176 37.8922 63.3732L37.7538 62.6665C37.7383 62.6262 37.7383 62.5817 37.7538 62.5414C37.7637 62.5203 37.7786 62.5018 37.7972 62.4877C37.8158 62.4735 37.8377 62.4641 37.8608 62.4601L39.8114 62.0161L39.459 60.5026C39.4435 60.4623 39.4435 60.4178 39.459 60.3775C39.4689 60.3563 39.4838 60.3379 39.5024 60.3237C39.521 60.3096 39.5429 60.3001 39.566 60.2962L40.4469 60.1023Z" fill="#0EC99C"/>
<path d="M35.8976 61.0029C35.9205 61.0001 35.9438 61.0026 35.9656 61.0102C35.9874 61.0178 36.0072 61.0303 36.0234 61.0467C36.041 61.0612 36.0551 61.0794 36.0649 61.0999C36.0747 61.1204 36.0799 61.1428 36.0801 61.1655L36.3443 65.631C36.3479 65.6533 36.3464 65.6761 36.3399 65.6978C36.3333 65.7195 36.3219 65.7394 36.3066 65.756C36.2745 65.7881 36.2323 65.808 36.187 65.8123L32.9591 66C32.9111 66.002 32.8641 65.9864 32.8269 65.9562C32.8102 65.9413 32.797 65.923 32.7883 65.9024C32.7796 65.8819 32.7756 65.8596 32.7766 65.8373L32.7325 65.2119C32.731 65.1892 32.7341 65.1664 32.7417 65.1449C32.7493 65.1234 32.7611 65.1037 32.7766 65.0868C32.7906 65.0687 32.8087 65.0541 32.8295 65.0443C32.8503 65.0345 32.8731 65.0298 32.8961 65.0306L35.1047 64.8992L35.0481 63.9736L32.9968 64.0924C32.9729 64.0948 32.9488 64.0922 32.926 64.0846C32.9033 64.0771 32.8823 64.0648 32.8647 64.0487C32.8484 64.0321 32.8356 64.0126 32.8269 63.9911C32.8183 63.9697 32.814 63.9467 32.8143 63.9236L32.7766 63.2982C32.7749 63.2524 32.7906 63.2078 32.8206 63.1731C32.8343 63.1545 32.8523 63.1397 32.8732 63.1298C32.8941 63.12 32.9171 63.1155 32.9402 63.1168L34.9915 62.9917L34.9349 62.0411L32.6759 62.1724C32.6531 62.1739 32.6301 62.1708 32.6085 62.1633C32.5869 62.1558 32.567 62.144 32.5501 62.1286C32.5314 62.1151 32.5164 62.0971 32.5065 62.0764C32.4967 62.0556 32.4921 62.0327 32.4934 62.0098L32.4557 61.3844C32.453 61.3615 32.4553 61.3383 32.4623 61.3164C32.4693 61.2944 32.4809 61.2742 32.4964 61.2571C32.5118 61.2399 32.5308 61.2262 32.552 61.2169C32.5732 61.2076 32.5961 61.2029 32.6193 61.203L35.8976 61.0029Z" fill="#0EC99C"/>
<path d="M27.7868 60.6652C28.1036 60.7201 28.4069 60.8347 28.6803 61.003C28.9054 61.1468 29.0827 61.3535 29.19 61.5971C29.2931 61.8445 29.3173 62.1174 29.2592 62.3789C29.2284 62.56 29.1551 62.7315 29.0453 62.8792C28.9341 63.0215 28.7976 63.1423 28.6426 63.2357C28.4702 63.341 28.2866 63.427 28.0951 63.4921C28.2189 63.6846 28.3103 63.8958 28.3657 64.1175C28.4033 64.2822 28.4033 64.4532 28.3657 64.6179C28.3298 64.8262 28.2336 65.0196 28.0889 65.1745C27.9321 65.3394 27.7313 65.4566 27.51 65.5122C27.2308 65.5789 26.9397 65.5789 26.6605 65.5122C26.3937 65.4671 26.1415 65.3599 25.9243 65.1995C25.7453 65.0673 25.6079 64.8873 25.5279 64.6804C25.4494 64.4816 25.4297 64.2646 25.4713 64.055C25.5033 63.8837 25.5767 63.7228 25.6852 63.5859C25.8015 63.4531 25.9398 63.341 26.0942 63.2545C26.2716 63.1536 26.4594 63.0719 26.6542 63.0105L26.025 62.0537L25.8173 62.2976C25.7049 62.4414 25.6079 62.5965 25.5279 62.7604C25.5223 62.7753 25.5138 62.789 25.5028 62.8006C25.4918 62.8122 25.4786 62.8215 25.4639 62.8279C25.4492 62.8343 25.4334 62.8378 25.4174 62.838C25.4013 62.8382 25.3854 62.8352 25.3706 62.8292L24.6784 62.6978C24.6604 62.6957 24.6431 62.6895 24.6278 62.6798C24.6126 62.67 24.5998 62.657 24.5903 62.6416C24.5781 62.6115 24.5781 62.5778 24.5903 62.5477C24.6168 62.4459 24.6593 62.3488 24.7162 62.2601C24.7844 62.1413 24.8622 62.0284 24.949 61.9223C25.0409 61.8081 25.1396 61.6995 25.2447 61.5971C25.3406 61.5003 25.4414 61.4085 25.5468 61.3219L24.9175 60.4088C24.905 60.3745 24.905 60.3369 24.9175 60.3025C24.9175 60.265 24.9175 60.2337 24.9742 60.2212C24.99 60.2143 25.0072 60.2108 25.0245 60.2108C25.0418 60.2108 25.059 60.2143 25.0748 60.2212L25.9998 60.3963C26.0358 60.4047 26.0699 60.4195 26.1005 60.4401L26.1634 60.4964L26.4088 60.8466C26.6096 60.735 26.8293 60.6608 27.0569 60.6277C27.3008 60.6053 27.5466 60.6179 27.7868 60.6652ZM27.1576 63.7485C27.0506 63.7773 26.9455 63.8128 26.843 63.8549C26.7592 63.8886 26.6824 63.9373 26.6165 63.9987C26.5523 64.0531 26.5099 64.1285 26.4969 64.2113C26.484 64.2663 26.4835 64.3234 26.4955 64.3786C26.5074 64.4337 26.5316 64.4855 26.5661 64.5303C26.6415 64.6186 26.7451 64.6786 26.8596 64.7002C26.9741 64.7219 27.0926 64.7038 27.1953 64.6491C27.246 64.6208 27.2894 64.5812 27.3221 64.5335C27.3549 64.4858 27.3761 64.4312 27.3841 64.374C27.3966 64.3183 27.3966 64.2607 27.3841 64.2051C27.3726 64.135 27.3492 64.0673 27.3149 64.005C27.2597 63.9156 27.1988 63.83 27.1324 63.7485H27.1576ZM27.6484 61.5221C27.5193 61.5003 27.3874 61.5003 27.2583 61.5221C27.131 61.5414 27.0091 61.5861 26.8996 61.6534L27.6295 62.7229C27.7619 62.6867 27.8859 62.6251 27.9945 62.5415C28.0869 62.4694 28.1525 62.3688 28.181 62.2556C28.2095 62.1423 28.1992 62.0229 28.1518 61.9161C28.105 61.8201 28.036 61.7365 27.9504 61.6722C27.8544 61.5978 27.7424 61.5465 27.6232 61.5221H27.6484Z" fill="#0EC99C"/>
<path d="M20.5444 58.3698C20.9045 58.528 21.2295 58.7554 21.5008 59.039C21.6982 59.2527 21.8369 59.5133 21.9035 59.7958C21.9521 60.0371 21.928 60.2872 21.8343 60.515C21.8262 60.5315 21.8148 60.5462 21.8007 60.558C21.7866 60.5699 21.7702 60.5786 21.7525 60.5838C21.7347 60.5917 21.7154 60.5958 21.6959 60.5958C21.6763 60.5958 21.657 60.5917 21.6392 60.5838L20.8464 60.2148C20.799 60.1915 20.758 60.1572 20.7268 60.1147C20.7074 60.077 20.6926 60.0371 20.6828 59.9959C20.6783 59.912 20.6591 59.8294 20.6262 59.752C20.5893 59.6551 20.5313 59.5675 20.4563 59.4956C20.3561 59.4026 20.2413 59.3266 20.1165 59.2704C19.9339 59.1698 19.7274 59.1201 19.5187 59.1266C19.4483 59.1291 19.3799 59.1509 19.3211 59.1895C19.2622 59.2281 19.2152 59.2821 19.1852 59.3455C19.165 59.3886 19.1545 59.4355 19.1545 59.4831C19.1545 59.5306 19.165 59.5776 19.1852 59.6207C19.2461 59.7396 19.3294 59.8458 19.4306 59.9334C19.5565 60.0459 19.7264 60.1898 19.9529 60.3587C20.2051 60.54 20.4353 60.7499 20.6388 60.9841C20.792 61.164 20.8979 61.3789 20.9471 61.6095C20.9774 61.859 20.9313 62.1118 20.8149 62.335C20.7016 62.5797 20.5118 62.7815 20.2738 62.9103C20.0213 63.0455 19.7359 63.1083 19.4495 63.0917C19.1009 63.072 18.7601 62.9804 18.449 62.8228C18.1877 62.7097 17.949 62.5508 17.7443 62.3537C17.5739 62.1955 17.4351 62.0066 17.3353 61.7971C17.2516 61.6394 17.1982 61.4676 17.178 61.2905C17.1634 61.133 17.1872 60.9742 17.2472 60.8277C17.2618 60.794 17.2888 60.7672 17.3227 60.7527C17.3409 60.7422 17.3615 60.7367 17.3825 60.7367C17.4035 60.7367 17.4241 60.7422 17.4423 60.7527L18.2666 61.1404C18.3083 61.1586 18.345 61.1865 18.3735 61.2217C18.4002 61.2564 18.4175 61.2973 18.4239 61.3405C18.4066 61.4594 18.4359 61.5803 18.5057 61.6783C18.5985 61.8071 18.7246 61.9086 18.8706 61.9722C19.0141 62.0527 19.1782 62.0897 19.3425 62.0785C19.4076 62.0735 19.4699 62.0502 19.5222 62.0115C19.5745 61.9728 19.6148 61.9201 19.6383 61.8596C19.6569 61.8194 19.6666 61.7757 19.6666 61.7314C19.6666 61.6872 19.6569 61.6434 19.6383 61.6032C19.5965 61.4885 19.5274 61.3855 19.4369 61.303C19.2884 61.1617 19.1307 61.0301 18.965 60.909C18.6733 60.7081 18.4071 60.4729 18.1722 60.2085C18.0093 60.0334 17.8982 59.817 17.8513 59.5831C17.8255 59.3371 17.8736 59.089 17.9897 58.8702C18.1065 58.5989 18.316 58.3774 18.5812 58.2448C18.8674 58.1031 19.188 58.0445 19.5061 58.0759C19.8678 58.1075 20.2202 58.2073 20.5444 58.3698Z" fill="#0EC99C"/>
<path d="M17.6184 56.9127C17.6383 56.926 17.6549 56.9436 17.6669 56.9642C17.6789 56.9848 17.686 57.0078 17.6877 57.0316C17.6967 57.0512 17.7014 57.0725 17.7014 57.0941C17.7014 57.1157 17.6967 57.137 17.6877 57.1567L15.0889 60.8091C15.0611 60.8464 15.0211 60.8729 14.9757 60.8841C14.9532 60.8872 14.9304 60.8855 14.9086 60.879C14.8869 60.8726 14.8669 60.8615 14.8498 60.8466L12.2071 58.9704C12.1709 58.9414 12.1445 58.9021 12.1316 58.8578C12.1284 58.8355 12.1302 58.8127 12.1367 58.7911C12.1432 58.7695 12.1543 58.7496 12.1693 58.7327L12.5406 58.2011C12.5697 58.1651 12.6092 58.1389 12.6538 58.126C12.7011 58.121 12.7485 58.1344 12.786 58.1636L14.5856 59.4144L15.1015 58.6702L13.4026 57.4881C13.3825 57.4766 13.3656 57.4603 13.3535 57.4406C13.3414 57.4209 13.3345 57.3986 13.3334 57.3755C13.3162 57.3334 13.3162 57.2863 13.3334 57.2442L13.6795 56.7564C13.6927 56.738 13.7096 56.7224 13.7291 56.7105C13.7485 56.6987 13.7702 56.6909 13.7927 56.6876C13.8136 56.6788 13.8361 56.6743 13.8588 56.6743C13.8815 56.6743 13.904 56.6788 13.9249 56.6876L15.5986 57.8696L16.1586 57.0879L14.3087 55.787C14.2886 55.7764 14.2713 55.7613 14.2582 55.7428C14.245 55.7243 14.2365 55.703 14.2332 55.6807C14.2178 55.6382 14.2178 55.5918 14.2332 55.5493L14.6107 55.024C14.6362 54.9871 14.6742 54.9605 14.7177 54.9489C14.7385 54.9398 14.761 54.9351 14.7838 54.9351C14.8065 54.9351 14.829 54.9398 14.8498 54.9489L17.6184 56.9127Z" fill="#0EC99C"/>
<path d="M12.5846 52.735C12.8618 52.9974 13.0767 53.3178 13.2138 53.6731C13.3328 53.978 13.3569 54.3113 13.2831 54.63C13.1902 54.9787 13.0081 55.2976 12.7545 55.5556L12.3266 55.9871L11.8799 56.4187C11.6179 56.6635 11.2973 56.8378 10.9486 56.9252C10.626 56.9996 10.2883 56.9756 9.97959 56.8564C9.62648 56.7155 9.30707 56.5024 9.04204 56.231C8.837 56.0328 8.66307 55.8051 8.52607 55.5556C8.40454 55.3339 8.32358 55.0925 8.28696 54.8426C8.24955 54.6125 8.26679 54.3769 8.3373 54.1547C8.41067 53.919 8.54018 53.7045 8.71484 53.5292C8.72688 53.5145 8.7423 53.5028 8.75982 53.4952C8.77734 53.4876 8.79644 53.4842 8.81552 53.4855C8.85512 53.4877 8.8928 53.5031 8.92249 53.5292L9.55172 54.1922C9.57117 54.2073 9.58733 54.2262 9.59923 54.2477C9.61112 54.2692 9.61851 54.2928 9.62093 54.3173C9.62391 54.3719 9.61079 54.4263 9.58318 54.4736C9.46398 54.6358 9.41216 54.8374 9.43846 55.0365C9.48623 55.2163 9.58443 55.379 9.72161 55.5055C9.79364 55.5877 9.88132 55.6549 9.9796 55.7032C10.0779 55.7515 10.1848 55.78 10.2942 55.787C10.5529 55.7706 10.7947 55.6538 10.9675 55.4618C11.2443 55.2116 11.5212 54.9364 11.7918 54.6487C11.9829 54.4781 12.1002 54.2405 12.119 53.9858C12.1053 53.7687 12.0085 53.565 11.8484 53.4167C11.7159 53.2791 11.5485 53.1797 11.3639 53.129C11.1632 53.0989 10.9585 53.1458 10.7913 53.2603C10.7459 53.2933 10.69 53.3089 10.634 53.3041C10.5853 53.2924 10.5414 53.2662 10.5081 53.229L9.87892 52.6036C9.85112 52.5745 9.83347 52.5372 9.82858 52.4973C9.82806 52.4778 9.83238 52.4585 9.84116 52.441C9.84994 52.4236 9.86291 52.4085 9.87892 52.3972C10.0572 52.2276 10.2726 52.1013 10.5081 52.0282C10.735 51.9634 10.9733 51.9484 11.2066 51.9845C11.457 52.0202 11.6983 52.103 11.9176 52.2284C12.1628 52.3653 12.3873 52.5358 12.5846 52.735Z" fill="#0EC99C"/>
<path d="M9.24968 48.7198C9.46533 49.0267 9.61721 49.3733 9.69643 49.7393C9.7565 50.0505 9.7146 50.3727 9.57688 50.6586C9.40345 51.0045 9.13795 51.2965 8.80922 51.5029L6.46848 53.0727C6.44767 53.0818 6.42517 53.0866 6.40241 53.0866C6.37966 53.0866 6.35716 53.0818 6.33634 53.0727C6.31414 53.0686 6.29309 53.0597 6.27463 53.0468C6.25617 53.0338 6.24074 53.0171 6.22937 52.9977L5.72599 52.2659C5.70005 52.225 5.68895 52.1764 5.69453 52.1283C5.70613 52.0851 5.73291 52.0474 5.77004 52.022L8.10448 50.446C8.31605 50.326 8.47191 50.1284 8.53865 49.8956C8.55835 49.7867 8.55511 49.6748 8.52911 49.5672C8.50312 49.4595 8.45495 49.3584 8.38764 49.2702C8.33027 49.1748 8.25372 49.0923 8.16277 49.0277C8.07182 48.9632 7.96843 48.918 7.85908 48.8949C7.73812 48.8819 7.61576 48.8929 7.4991 48.9273C7.38244 48.9616 7.27381 49.0187 7.17951 49.0951L4.86394 50.6961C4.84324 50.7057 4.82069 50.7106 4.79787 50.7106C4.77506 50.7106 4.75251 50.7057 4.73181 50.6961C4.69279 50.6967 4.65485 50.6834 4.62484 50.6586L4.12145 49.9206C4.10653 49.8803 4.10653 49.8359 4.12145 49.7955C4.13107 49.7497 4.15812 49.7094 4.19696 49.683L6.5377 48.1069C6.83297 47.8842 7.18269 47.7439 7.55076 47.7004C7.87753 47.6799 8.20216 47.7655 8.47573 47.9443C8.78578 48.1458 9.04952 48.41 9.24968 48.7198Z" fill="#0EC99C"/>
<path d="M7.36198 45.7928C7.373 45.813 7.37877 45.8355 7.37877 45.8585C7.37877 45.8814 7.373 45.904 7.36198 45.9241C7.34412 45.9665 7.31022 46.0002 7.2676 46.018L3.14614 47.8004C3.10353 47.8162 3.05661 47.8162 3.014 47.8004C2.97138 47.7826 2.93748 47.7489 2.91962 47.7066L2.17083 45.9929C1.94283 45.545 1.87621 45.0329 1.98206 44.542C2.04492 44.3315 2.15605 44.1383 2.30672 43.9777C2.45739 43.8171 2.6435 43.6934 2.8504 43.6164C3.11671 43.4907 3.41539 43.4492 3.70615 43.4975C3.9687 43.5543 4.21039 43.682 4.4046 43.8665L5.58755 42.328C5.60697 42.304 5.63333 42.2866 5.66306 42.278C5.6798 42.2702 5.69806 42.2661 5.71655 42.2661C5.73503 42.2661 5.7533 42.2702 5.77003 42.278C5.78854 42.2834 5.80555 42.293 5.81973 42.306C5.83392 42.319 5.8449 42.3351 5.85183 42.353L6.22308 43.1911C6.23658 43.2227 6.24353 43.2568 6.24353 43.2911C6.24353 43.3255 6.23658 43.3596 6.22308 43.3912C6.20843 43.4402 6.18259 43.4851 6.14757 43.5225L5.08417 44.8484L5.36732 45.4738L6.7768 44.8484C6.79761 44.8393 6.82012 44.8346 6.84287 44.8346C6.86562 44.8346 6.88812 44.8393 6.90894 44.8484C6.95356 44.8654 6.98971 44.8991 7.00962 44.9422L7.36198 45.7928ZM4.46752 45.8804L4.15291 45.1549C4.12398 45.0714 4.07842 44.9946 4.01896 44.9291C3.9595 44.8636 3.88735 44.8106 3.80683 44.7734C3.73529 44.7427 3.65821 44.7269 3.58031 44.7269C3.50241 44.7269 3.42533 44.7427 3.35379 44.7734C3.27832 44.8008 3.20927 44.8432 3.15085 44.8981C3.09243 44.9529 3.04587 45.019 3.014 45.0923C2.98432 45.176 2.97289 45.265 2.98048 45.3535C2.98808 45.4419 3.01452 45.5277 3.05805 45.6052L3.37266 46.3307L4.46752 45.8804Z" fill="#0EC99C"/>
<path d="M5.468 41.0522C5.47719 41.0729 5.48194 41.0953 5.48194 41.1179C5.48194 41.1405 5.47719 41.1629 5.468 41.1836C5.44142 41.2194 5.4039 41.2457 5.36104 41.2586L0.956421 42.2906C0.935713 42.3001 0.913169 42.305 0.890352 42.305C0.867534 42.305 0.84499 42.3001 0.824282 42.2906C0.804753 42.2793 0.7879 42.2639 0.77487 42.2456C0.761841 42.2272 0.75294 42.2063 0.748775 42.1842L-9.71835e-06 39.0384C-0.00959305 39.0178 -0.0145569 38.9954 -0.0145569 38.9727C-0.0145569 38.95 -0.00959305 38.9276 -9.71835e-06 38.9071C0.0119394 38.8881 0.0275469 38.8718 0.0459086 38.8589C0.0642703 38.846 0.0850213 38.8369 0.106959 38.832L0.73619 38.6819C0.756897 38.6724 0.779442 38.6674 0.802259 38.6674C0.825077 38.6674 0.847621 38.6724 0.868329 38.6819C0.907164 38.7083 0.934218 38.7487 0.943836 38.7945L1.45351 40.9271L2.3659 40.7082L1.91914 38.7757C1.90813 38.7556 1.90236 38.733 1.90236 38.7101C1.90236 38.6871 1.90813 38.6645 1.91914 38.6444C1.93046 38.6243 1.94578 38.6067 1.96418 38.5927C1.98257 38.5788 2.00365 38.5687 2.02611 38.5631L2.61759 38.4255C2.63733 38.4165 2.65879 38.4118 2.68051 38.4118C2.70223 38.4118 2.72369 38.4165 2.74344 38.4255C2.76432 38.4374 2.78241 38.4536 2.79652 38.473C2.81062 38.4924 2.82041 38.5146 2.82524 38.5381L3.29716 40.5206L4.23471 40.3017L3.71245 38.1128C3.70287 38.0922 3.6979 38.0698 3.6979 38.0471C3.6979 38.0244 3.70287 38.002 3.71245 37.9814C3.7244 37.9625 3.74001 37.9461 3.75837 37.9333C3.77673 37.9204 3.79748 37.9112 3.81942 37.9064L4.44865 37.7563C4.46839 37.7473 4.48986 37.7426 4.51157 37.7426C4.53329 37.7426 4.55475 37.7473 4.5745 37.7563C4.5952 37.7669 4.61328 37.7819 4.62742 37.8003C4.64157 37.8187 4.65143 37.84 4.6563 37.8626L5.468 41.0522Z" fill="#0EC99C"/>
<path d="M51.7861 32.6905C51.7861 43.0128 43.3655 51.391 32.9654 51.391C22.5652 51.391 14.1446 43.0128 14.1446 32.6905C14.1446 22.3681 22.5652 13.9899 32.9654 13.9899C43.3655 13.9899 51.7861 22.3681 51.7861 32.6905Z" stroke="#0EC99C" stroke-width="2"/>
<path d="M3.07692 30.1763L3.85717 31.7398L5.59384 31.9962L4.33538 33.2095L4.63112 34.9357L3.07692 34.1226L1.52272 34.9357L1.81846 33.2095L0.559998 31.9962L2.29667 31.7398L3.07692 30.1763Z" fill="#B9B9B9"/>
<path d="M63.483 30.1763L64.2633 31.7398L66 31.9962L64.7415 33.2095L65.0372 34.9357L63.483 34.1226L61.9288 34.9357L62.2246 33.2095L60.9661 31.9962L62.7028 31.7398L63.483 30.1763Z" fill="#B9B9B9"/>
<g clip-path="url(#clip1)">
<path d="M37.1246 32.5216H28.3154C27.6203 32.5216 27.0569 33.0816 27.0569 33.7724V38.1503C27.0569 38.8411 27.6203 39.4011 28.3154 39.4011H37.1246C37.8196 39.4011 38.3831 38.8411 38.3831 38.1503V33.7724C38.3831 33.0816 37.8196 32.5216 37.1246 32.5216Z" stroke="#0EC99C" stroke-width="2" stroke-linecap="round" stroke-linejoin="round"/>
<path d="M29.5738 32.5216V30.0199C29.5738 29.1906 29.9053 28.3952 30.4953 27.8088C31.0853 27.2223 31.8856 26.8929 32.72 26.8929C33.5544 26.8929 34.3546 27.2223 34.9446 27.8088C35.5347 28.3952 35.8661 29.1906 35.8661 30.0199V32.5216" stroke="#0EC99C" stroke-width="2" stroke-linecap="round" stroke-linejoin="round"/>
</g>
</g>
<defs>
<clipPath id="clip0">
<rect width="66" height="66" fill="white"/>
</clipPath>
<clipPath id="clip1">
<rect width="15.1015" height="15.0099" fill="white" transform="translate(25.1692 25.642)"/>
</clipPath>
</defs>
</svg>
